<?xml version="1.0" encoding="UTF-8" standalone="no"?>
<svg
   width="1280"
   height="640"
   viewBox="0 0 1280 640"
   version="1.1"
   id="svg79"
   xmlns="http://www.w3.org/2000/svg"
   xmlns:svg="http://www.w3.org/2000/svg">
  <defs
     id="defs6">
    <style
       id="style1">
      @import url('https://fonts.googleapis.com/css2?family=Recursive:slnt,wght,CASL,CRSV,MONO@-15..0,300..900,0..1,0..1,0..1&amp;display=swap');
    </style>
    <linearGradient
       id="bg"
       x1="0"
       y1="0"
       x2="0"
       y2="905.09668"
       gradientTransform="scale(1.4142136,0.70710678)"
       gradientUnits="userSpaceOnUse">
      <stop
         offset="0%"
         stop-color="#131c2e"
         id="stop1" />
      <stop
         offset="100%"
         stop-color="#0c1220"
         id="stop2" />
    </linearGradient>
    <radialGradient
       id="glow-violet"
       cx="316.78384"
       cy="407.29349"
       r="452.54834"
       gradientTransform="scale(1.4142136,0.70710678)"
       fx="316.78384"
       fy="407.29349"
       gradientUnits="userSpaceOnUse">
      <stop
         offset="0%"
         stop-color="#8B5CF6"
         stop-opacity="0.06"
         id="stop3" />
      <stop
         offset="100%"
         stop-color="#8B5CF6"
         stop-opacity="0"
         id="stop4" />
    </radialGradient>
    <radialGradient
       id="glow-blue"
       cx="633.56769"
       cy="543.05804"
       r="362.03867"
       gradientTransform="scale(1.4142136,0.70710678)"
       fx="633.56769"
       fy="543.05804"
       gradientUnits="userSpaceOnUse">
      <stop
         offset="0%"
         stop-color="#1E90FF"
         stop-opacity="0.04"
         id="stop5" />
      <stop
         offset="100%"
         stop-color="#1E90FF"
         stop-opacity="0"
         id="stop6" />
    </radialGradient>
  </defs>
  <!-- Background -->
  <rect
     width="1280"
     height="640"
     fill="url(#bg)"
     id="rect6"
     x="0"
     y="0"
     style="fill:url(#bg)" />
  <rect
     width="1280"
     height="640"
     fill="url(#glow-violet)"
     id="rect7"
     x="0"
     y="0"
     style="fill:url(#glow-violet)" />
  <rect
     width="1280"
     height="640"
     fill="url(#glow-blue)"
     id="rect8"
     x="0"
     y="0"
     style="fill:url(#glow-blue)" />
  <!-- Grid -->
  <g
     stroke="#8b5cf6"
     stroke-width="0.5"
     opacity="0.03"
     id="g39">
    <line
       x1="0"
       y1="0"
       x2="0"
       y2="640"
       id="line8" />
    <line
       x1="60"
       y1="0"
       x2="60"
       y2="640"
       id="line9" />
    <line
       x1="120"
       y1="0"
       x2="120"
       y2="640"
       id="line10" />
    <line
       x1="180"
       y1="0"
       x2="180"
       y2="640"
       id="line11" />
    <line
       x1="240"
       y1="0"
       x2="240"
       y2="640"
       id="line12" />
    <line
       x1="300"
       y1="0"
       x2="300"
       y2="640"
       id="line13" />
    <line
       x1="360"
       y1="0"
       x2="360"
       y2="640"
       id="line14" />
    <line
       x1="420"
       y1="0"
       x2="420"
       y2="640"
       id="line15" />
    <line
       x1="480"
       y1="0"
       x2="480"
       y2="640"
       id="line16" />
    <line
       x1="540"
       y1="0"
       x2="540"
       y2="640"
       id="line17" />
    <line
       x1="600"
       y1="0"
       x2="600"
       y2="640"
       id="line18" />
    <line
       x1="660"
       y1="0"
       x2="660"
       y2="640"
       id="line19" />
    <line
       x1="720"
       y1="0"
       x2="720"
       y2="640"
       id="line20" />
    <line
       x1="780"
       y1="0"
       x2="780"
       y2="640"
       id="line21" />
    <line
       x1="840"
       y1="0"
       x2="840"
       y2="640"
       id="line22" />
    <line
       x1="900"
       y1="0"
       x2="900"
       y2="640"
       id="line23" />
    <line
       x1="960"
       y1="0"
       x2="960"
       y2="640"
       id="line24" />
    <line
       x1="1020"
       y1="0"
       x2="1020"
       y2="640"
       id="line25" />
    <line
       x1="1080"
       y1="0"
       x2="1080"
       y2="640"
       id="line26" />
    <line
       x1="1140"
       y1="0"
       x2="1140"
       y2="640"
       id="line27" />
    <line
       x1="1200"
       y1="0"
       x2="1200"
       y2="640"
       id="line28" />
    <line
       x1="1260"
       y1="0"
       x2="1260"
       y2="640"
       id="line29" />
    <line
       x1="0"
       y1="60"
       x2="1280"
       y2="60"
       id="line30" />
    <line
       x1="0"
       y1="120"
       x2="1280"
       y2="120"
       id="line31" />
    <line
       x1="0"
       y1="180"
       x2="1280"
       y2="180"
       id="line32" />
    <line
       x1="0"
       y1="240"
       x2="1280"
       y2="240"
       id="line33" />
    <line
       x1="0"
       y1="300"
       x2="1280"
       y2="300"
       id="line34" />
    <line
       x1="0"
       y1="360"
       x2="1280"
       y2="360"
       id="line35" />
    <line
       x1="0"
       y1="420"
       x2="1280"
       y2="420"
       id="line36" />
    <line
       x1="0"
       y1="480"
       x2="1280"
       y2="480"
       id="line37" />
    <line
       x1="0"
       y1="540"
       x2="1280"
       y2="540"
       id="line38" />
    <line
       x1="0"
       y1="600"
       x2="1280"
       y2="600"
       id="line39" />
  </g>
  <!-- Large neural graph (left, faded) -->
  <g
     transform="matrix(3.2,0,0,3.2,80,120)"
     opacity="0.1"
     id="g52">
    <line
       x1="55"
       y1="55"
       x2="28"
       y2="24"
       stroke="#1e90ff"
       stroke-width="2.5"
       stroke-linecap="square"
       id="line40" />
    <line
       x1="55"
       y1="55"
       x2="82"
       y2="24"
       stroke="#1e90ff"
       stroke-width="2.5"
       stroke-linecap="square"
       id="line41" />
    <line
       x1="55"
       y1="55"
       x2="90"
       y2="50"
       stroke="#1e90ff"
       stroke-width="2.5"
       stroke-linecap="square"
       id="line42" />
    <line
       x1="55"
       y1="55"
       x2="26"
       y2="76"
       stroke="#1e90ff"
       stroke-width="2.5"
       stroke-linecap="square"
       id="line43" />
    <line
       x1="55"
       y1="55"
       x2="78"
       y2="86"
       stroke="#8b5cf6"
       stroke-width="3.5"
       stroke-linecap="square"
       id="line44" />
    <line
       x1="28"
       y1="24"
       x2="82"
       y2="24"
       stroke="#1e90ff"
       stroke-width="1.5"
       stroke-linecap="square"
       opacity="0.3"
       id="line45" />
    <line
       x1="82"
       y1="24"
       x2="90"
       y2="50"
       stroke="#1e90ff"
       stroke-width="1.5"
       stroke-linecap="square"
       opacity="0.3"
       id="line46" />
    <line
       x1="26"
       y1="76"
       x2="78"
       y2="86"
       stroke="#8b5cf6"
       stroke-width="2"
       stroke-linecap="square"
       opacity="0.35"
       id="line47" />
    <circle
       cx="28"
       cy="24"
       r="4.5"
       fill="none"
       stroke="#1e90ff"
       stroke-width="2"
       id="circle47" />
    <circle
       cx="82"
       cy="24"
       r="3.5"
       fill="none"
       stroke="#1e90ff"
       stroke-width="2"
       id="circle48" />
    <circle
       cx="90"
       cy="50"
       r="3.5"
       fill="none"
       stroke="#1e90ff"
       stroke-width="2"
       id="circle49" />
    <circle
       cx="26"
       cy="76"
       r="3.5"
       fill="none"
       stroke="#1e90ff"
       stroke-width="2"
       id="circle50" />
    <circle
       cx="78"
       cy="86"
       r="5.5"
       fill="#8b5cf6"
       id="circle51" />
    <circle
       cx="55"
       cy="55"
       r="7"
       fill="none"
       stroke="#1e90ff"
       stroke-width="3"
       id="circle52" />
  </g>
  <!-- Icon -->
  <g
     transform="translate(434,222)"
     id="g68">
    <rect
       width="110"
       height="110"
       fill="#0c1220"
       id="rect52"
       x="0"
       y="0" />
    <line
       x1="55"
       y1="55"
       x2="28"
       y2="24"
       stroke="#1e90ff"
       stroke-width="2.5"
       stroke-linecap="square"
       id="line52" />
    <line
       x1="55"
       y1="55"
       x2="82"
       y2="24"
       stroke="#1e90ff"
       stroke-width="2.5"
       stroke-linecap="square"
       id="line53" />
    <line
       x1="55"
       y1="55"
       x2="90"
       y2="50"
       stroke="#1e90ff"
       stroke-width="2.5"
       stroke-linecap="square"
       id="line54" />
    <line
       x1="55"
       y1="55"
       x2="26"
       y2="76"
       stroke="#1e90ff"
       stroke-width="2.5"
       stroke-linecap="square"
       id="line55" />
    <line
       x1="55"
       y1="55"
       x2="78"
       y2="86"
       stroke="#8b5cf6"
       stroke-width="3.5"
       stroke-linecap="square"
       id="line56" />
    <line
       x1="28"
       y1="24"
       x2="82"
       y2="24"
       stroke="#1e90ff"
       stroke-width="1.5"
       stroke-linecap="square"
       opacity="0.3"
       id="line57" />
    <line
       x1="82"
       y1="24"
       x2="90"
       y2="50"
       stroke="#1e90ff"
       stroke-width="1.5"
       stroke-linecap="square"
       opacity="0.3"
       id="line58"
       style="fill:#000000;fill-opacity:1" />
    <line
       x1="26"
       y1="76"
       x2="78"
       y2="86"
       stroke="#8b5cf6"
       stroke-width="2"
       stroke-linecap="square"
       opacity="0.35"
       id="line59" />
    <circle
       cx="28"
       cy="24"
       r="4.5"
       fill="none"
       stroke="#1e90ff"
       stroke-width="2"
       id="circle59" />
    <circle
       cx="82"
       cy="24"
       r="3.5"
       fill="none"
       stroke="#1e90ff"
       stroke-width="2"
       id="circle60" />
    <circle
       cx="90"
       cy="50"
       r="3.5"
       fill="none"
       stroke="#1e90ff"
       stroke-width="2"
       id="circle61" />
    <circle
       cx="26"
       cy="76"
       r="3.5"
       fill="none"
       stroke="#1e90ff"
       stroke-width="2"
       id="circle62" />
    <circle
       cx="78"
       cy="86"
       r="5.5"
       fill="#8b5cf6"
       id="circle63" />
    <circle
       cx="55"
       cy="55"
       r="7"
       fill="none"
       stroke="#1e90ff"
       stroke-width="3"
       id="circle64" />
    <g
       stroke="#5a6f8a"
       stroke-width="1.5"
       fill="none"
       opacity="0.3"
       id="g67">
      <polyline
         points="8,20 8,8 20,8"
         id="polyline64" />
      <polyline
         points="90,8 102,8 102,20"
         id="polyline65" />
      <polyline
         points="102,90 102,102 90,102"
         id="polyline66" />
      <polyline
         points="20,102 8,102 8,90"
         id="polyline67" />
    </g>
  </g>
  <!-- Wordmark -->
  <path
     d="m 590.24133,250.48266 c -8.93624,0 -15.04058,4.71984 -15.04058,11.51642 v 2.39138 c 0,5.22331 2.32846,8.62159 10.19487,11.01298 l 6.10433,1.825 c 5.34916,1.57329 6.54485,2.95778 6.54485,6.04142 v 1.69913 c 0,3.96468 -3.33535,6.54486 -9.31383,6.54486 c -5.72675,0 -9.43969,-1.13276 -13.21556,-4.09054 h -0.94397 v 4.65691 c 0,0.56638 0.0629,0.75518 0.37759,1.06984 c 2.20259,2.2026 7.36296,3.65002 13.53023,3.65002 c 9.69141,0 15.29229,-4.59399 15.29229,-11.70522 v -2.3914 c 0,-5.72675 -2.64311,-8.36986 -10.38365,-10.69831 l -6.04141,-1.76207 c -5.2233,-1.51036 -6.41899,-3.27242 -6.41899,-6.54486 v -1.25862 c 0,-4.27933 3.58708,-6.67072 9.31383,-6.67072 c 2.89484,0 5.16037,0.44053 6.98536,1.32155 v 5.47504 c 0,0.44051 0.25173,0.69224 0.69225,0.69224 h 4.90864 v -8.18108 c 0,-0.4405 -0.12585,-0.69223 -0.50345,-1.06982 c -2.0138,-2.07673 -6.41899,-3.52415 -12.0828,-3.52415 z m 24.66905,11.70521 h -5.41208 c 3.96467,10.76125 9.8802,25.99062 11.39056,29.82942 c 1.0069,2.45432 1.25862,2.58019 2.45431,2.58019 h 2.64312 c -0.56637,1.82501 -1.0069,3.33535 -1.32155,4.27933 c -0.88104,2.95777 -2.64313,4.21639 -5.47503,4.21639 h -5.97846 v 4.46812 c 0,0.50346 0.25172,0.69223 0.69224,0.69223 h 5.72674 c 5.60089,0 8.55866,-2.39138 10.32072,-8.36984 c 3.46122,-11.64229 7.4259,-23.85096 11.4535,-36.68894 c 0.1888,-0.6293 -0.31465,-1.0069 -0.75517,-1.0069 h -4.97158 c -2.70603,9.18797 -6.16725,20.76732 -8.55865,28.69666 h -1.13276 c -1.44742,-5.0345 -5.78967,-15.60695 -9.8802,-27.94148 c -0.1888,-0.56639 -0.44053,-0.75518 -1.19571,-0.75518 z m 41.15707,33.47943 v -22.96991 c 3.46122,-3.8388 7.04831,-5.66382 10.19488,-5.66382 c 3.02069,0 4.71984,1.63622 4.71984,5.03451 v 22.90699 c 0,0.44052 0.25173,0.69223 0.69225,0.69223 h 5.09743 v -24.73198 c 0,-5.53794 -3.2095,-9.43969 -8.87332,-9.43969 c -4.46811,0 -7.99227,2.51725 -10.8871,6.29313 h -0.94398 v -4.90864 c 0,-0.44052 -0.25172,-0.69225 -0.69223,-0.69225 h -5.09744 v 32.7872 c 0,0.44052 0.25173,0.69223 0.69225,0.69223 z m 57.39336,-22.08887 c 0,-8.68452 -4.02762,-12.01987 -13.4673,-12.01987 c -5.16037,0 -10.19487,1.51035 -10.82418,2.2026 c -0.12586,0.12586 -0.1888,0.25172 -0.1888,0.50344 v 4.53106 h 0.94397 c 3.33536,-1.25863 6.29313,-1.825 10.06901,-1.825 c 5.78966,0 7.74055,1.51033 7.74055,6.54483 v 2.89485 h -11.26471 c -6.10433,0 -9.88021,3.39828 -9.88021,8.93624 v 2.0138 c 0,5.53795 3.71294,8.93624 9.62849,8.93624 c 5.03451,0 8.74745,-2.13966 10.82418,-5.97846 h 0.8181 c 0.62932,3.58708 3.33537,5.34914 6.73365,5.34914 h 2.20259 c 0.44052,0 0.69225,-0.18879 0.69225,-0.69223 v -4.40519 h -1.57329 c -0.81811,0 -1.44742,-0.12586 -1.825,-0.56639 c -0.44053,-0.44051 -0.6293,-1.13275 -0.6293,-2.26553 z m -21.08199,13.15265 v -1.88795 c 0,-1.32156 0.37759,-2.39138 1.13277,-3.08363 c 0.81809,-0.81811 2.07673,-1.25862 3.77587,-1.25862 h 10.4466 v 5.66381 c -3.46123,3.71294 -6.60779,4.90864 -10.4466,4.90864 c -3.27243,0 -4.90864,-1.51035 -4.90864,-4.34225 z m 33.41654,-24.54321 v 45.37345 c 0,0.44052 0.25173,0.69223 0.69224,0.69223 h 5.09744 v -16.99143 h 0.88104 c 2.39138,3.33536 5.78968,5.0345 9.94314,5.0345 c 6.60777,0 11.0759,-4.71984 11.0759,-12.64918 v -9.81728 c 0,-7.67761 -4.46813,-12.33453 -10.95005,-12.33453 c -4.34224,0 -7.74054,2.26553 -10.06899,6.16727 h -0.88104 v -4.78278 c 0,-0.44052 -0.25173,-0.69225 -0.69224,-0.69225 z m 15.1035,4.8457 c 2.07674,0 3.71295,0.62933 4.90864,1.76209 c 1.25863,1.32155 1.95088,3.27242 1.95088,5.91554 v 8.0552 c 0,5.16037 -2.64311,7.99227 -6.85952,7.99227 c -3.52414,0 -6.79657,-1.32156 -9.31382,-4.34226 v -13.21556 c 2.89484,-4.2164 6.04139,-6.16728 9.31382,-6.16728 z m 32.97599,23.66217 c -5.09743,0 -8.49572,-0.81811 -12.01988,-3.08363 h -0.94395 v 5.03449 c 0,0.44053 0.0629,0.5664 0.37758,0.75518 c 2.26553,1.57329 6.67071,2.83191 12.64918,2.83191 c 8.81038,0 14.03369,-3.96467 14.03369,-10.2578 c 0,-5.0345 -3.27244,-8.0552 -8.74746,-9.18795 l -6.23019,-1.25863 c -4.27932,-0.94398 -5.34916,-1.88795 -5.34916,-4.02761 c 0,-2.39138 2.32845,-4.34226 7.99227,-4.34226 c 4.09053,0 6.73364,0.44053 9.81728,1.57328 h 0.94396 v -4.46812 c 0,-0.62931 -0.0629,-0.88102 -0.75517,-1.13275 c -1.69915,-0.69225 -4.65692,-1.51036 -9.25089,-1.51036 c -9.50263,0 -14.4742,4.21639 -14.4742,10.06901 c 0,4.59397 2.58019,7.36296 8.87331,8.62158 l 6.2302,1.25863 c 3.83881,0.8181 5.28623,2.13966 5.28623,4.40518 c 0,2.76898 -2.3914,4.71985 -8.4328,4.71985 z m 36.8777,-29.20011 c -7.80348,0 -14.22247,4.59398 -14.22247,14.34833 v 6.54485 c 0,8.93624 5.41208,13.97074 15.85867,13.97074 c 4.97157,0 9.62849,-1.13275 11.20178,-2.70604 c 0.18878,-0.1888 0.25171,-0.31466 0.25171,-0.50345 v -4.46812 h -0.94396 c -3.14657,1.76208 -5.97847,2.51724 -10.4466,2.51724 c -3.65,0 -6.35606,-0.75516 -8.05519,-2.45431 c -1.38449,-1.44742 -2.13966,-3.58708 -2.13966,-6.35606 v -1.44742 h 21.39663 c 0.44051,0 0.69224,-0.25173 0.69224,-0.69224 v -4.59399 c 0,-9.62848 -6.16727,-14.15953 -13.59315,-14.15953 z m 0,5.0345 c 2.45431,0 4.40519,0.56638 5.72675,1.88795 c 1.51034,1.51033 2.20259,3.8388 2.20259,7.17415 v 1.25863 h -16.42506 v -1.06984 c 0,-6.54484 3.08362,-9.25089 8.49572,-9.25089 z"
     id="text33-0-9"
     style="font-size:36px;font-family:'Recursive Sans Linear Static';-inkscape-font-specification:'Recursive Sans Linear Static';fill:#e8ecf4;stroke-width:1.74809"
     aria-label="Synapse" />
  <!-- Rule + tagline (violet rule) -->
  <line
     x1="570"
     y1="324"
     x2="600"
     y2="324"
     stroke="#4c1d95"
     stroke-width="1"
     opacity="0.6"
     id="line68" />
  <text
     x="613.96918"
     y="328.73846"
     font-family="'Recursive', monospace"
     font-size="13px"
     font-weight="500"
     fill="#5a6f8a"
     letter-spacing="3.23076"
     id="text69"
     style="font-style:normal;font-variant:normal;font-weight:600;font-stretch:normal;font-size:14.3589px;font-family:'Recursive Sans Linear Static';-inkscape-font-specification:'Recursive Sans Linear Static Semi-Bold';fill:#1e90ff;fill-opacity:1;stroke-width:1.07691">DETECT. DECIDE. FIRE.</text>
  <!-- Feature labels -->
  <g
     transform="translate(570,380)"
     id="g71">
    <text
       x="0"
       y="0"
       font-family="Recursive, monospace"
       font-size="11px"
       font-weight="500"
       fill="#5a6f8a"
       letter-spacing="1"
       id="text70"><tspan
         style="font-style:normal;font-variant:normal;font-weight:normal;font-stretch:normal;font-family:'Rec Mono Semicasual';-inkscape-font-specification:'Rec Mono Semicasual'"
         id="tspan80">450μs detection · 72K RPS · 500+ bot signatures</tspan></text>
    <text
       x="0"
       y="22"
       font-family="Recursive, monospace"
       font-size="11px"
       font-weight="500"
       fill="#5a6f8a"
       letter-spacing="1"
       id="text71"><tspan
         style="font-style:normal;font-variant:normal;font-weight:normal;font-stretch:normal;font-family:'Rec Mono Semicasual';-inkscape-font-specification:'Rec Mono Semicasual'"
         id="tspan81">22+ DLP patterns · 13 anomaly types · 8 campaign detectors</tspan></text>
  </g>
  <!-- Decorative neural spokes (bottom right) -->
  <g
     opacity="0.05"
     id="g76">
    <line
       x1="1080"
       y1="460"
       x2="980"
       y2="380"
       stroke="#1e90ff"
       stroke-width="3"
       stroke-linecap="square"
       id="line71" />
    <line
       x1="1080"
       y1="460"
       x2="1200"
       y2="380"
       stroke="#1e90ff"
       stroke-width="3"
       stroke-linecap="square"
       id="line72" />
    <line
       x1="1080"
       y1="460"
       x2="1220"
       y2="500"
       stroke="#1e90ff"
       stroke-width="3"
       stroke-linecap="square"
       id="line73" />
    <line
       x1="1080"
       y1="460"
       x2="1000"
       y2="560"
       stroke="#1e90ff"
       stroke-width="3"
       stroke-linecap="square"
       id="line74" />
    <line
       x1="1080"
       y1="460"
       x2="1180"
       y2="580"
       stroke="#8b5cf6"
       stroke-width="4"
       stroke-linecap="square"
       id="line75" />
    <circle
       cx="1080"
       cy="460"
       r="10"
       fill="none"
       stroke="#1e90ff"
       stroke-width="3"
       id="circle75" />
    <circle
       cx="1180"
       cy="580"
       r="8"
       fill="#8b5cf6"
       id="circle76" />
  </g>
  <!-- Corner brackets -->
  <g
     stroke="#5a6f8a"
     stroke-width="2"
     fill="none"
     opacity="0.15"
     id="g79">
    <polyline
       points="24,56 24,24 56,24"
       id="polyline76" />
    <polyline
       points="1224,24 1256,24 1256,56"
       id="polyline77" />
    <polyline
       points="1256,584 1256,616 1224,616"
       id="polyline78" />
    <polyline
       points="56,616 24,616 24,584"
       id="polyline79" />
  </g>
</svg>
