<?xml version="1.0" encoding="UTF-8" standalone="no"?>
<svg
   width="200"
   height="65.631226"
   viewBox="0 0 200 65.631227"
   version="1.1"
   id="svg54"
   xmlns="http://www.w3.org/2000/svg"
   xmlns:svg="http://www.w3.org/2000/svg">
  <defs
     id="defs1">
    <style
       id="style1">@import url('https://fonts.googleapis.com/css2?family=Recursive:slnt,wght,CASL,CRSV,MONO@-15..0,300..900,0..1,0..1,0..1&amp;display=swap');</style>
  </defs>
  <!-- HORIZONTAL PRIMARY -->
  <!-- HORIZONTAL WITH TAGLINE -->
  <!-- STACKED -->
  <!-- STACKED + TAGLINE -->
  <!-- WORDMARK ONLY -->
  <!-- SIZE VARIATIONS -->
  <!-- BADGE -->
  <!-- FOOTER -->
  <g
     id="g1"
     transform="translate(-799.15391,-246.64203)">
    <g
       id="g7-1"
       transform="translate(739.1539,138.64203)">
      <g
         transform="matrix(0.82039072,0,0,0.82039072,60,108)"
         id="g18-3-9">
        <rect
           width="110"
           height="110"
           fill="#0c1220"
           id="rect2-6-5"
           x="0"
           y="0"
           transform="scale(0.72727273)" />
        <line
           x1="55"
           y1="55"
           x2="28"
           y2="24"
           stroke="#1e90ff"
           stroke-width="2.5"
           stroke-linecap="square"
           id="line2-2-9"
           transform="scale(0.72727273)" />
        <line
           x1="55"
           y1="55"
           x2="82"
           y2="24"
           stroke="#1e90ff"
           stroke-width="2.5"
           stroke-linecap="square"
           id="line3-62-0"
           transform="scale(0.72727273)" />
        <line
           x1="55"
           y1="55"
           x2="90"
           y2="50"
           stroke="#1e90ff"
           stroke-width="2.5"
           stroke-linecap="square"
           id="line4-81-2"
           transform="scale(0.72727273)" />
        <line
           x1="55"
           y1="55"
           x2="26"
           y2="76"
           stroke="#1e90ff"
           stroke-width="2.5"
           stroke-linecap="square"
           id="line5-6-3"
           transform="scale(0.72727273)" />
        <line
           x1="55"
           y1="55"
           x2="78"
           y2="86"
           stroke="#8b5cf6"
           stroke-width="3.5"
           stroke-linecap="square"
           id="line6-4-5"
           transform="scale(0.72727273)" />
        <line
           x1="28"
           y1="24"
           x2="82"
           y2="24"
           stroke="#1e90ff"
           stroke-width="1.5"
           opacity="0.3"
           id="line7-9"
           transform="scale(0.72727273)" />
        <line
           x1="82"
           y1="24"
           x2="90"
           y2="50"
           stroke="#1e90ff"
           stroke-width="1.5"
           opacity="0.3"
           id="line8-01"
           transform="scale(0.72727273)" />
        <line
           x1="26"
           y1="76"
           x2="78"
           y2="86"
           stroke="#8b5cf6"
           stroke-width="2"
           opacity="0.35"
           id="line9-3"
           transform="scale(0.72727273)" />
        <circle
           cx="28"
           cy="24"
           r="4.5"
           fill="none"
           stroke="#1e90ff"
           stroke-width="2"
           id="circle9-6"
           transform="scale(0.72727273)" />
        <circle
           cx="82"
           cy="24"
           r="3.5"
           fill="none"
           stroke="#1e90ff"
           stroke-width="2"
           id="circle10-9"
           transform="scale(0.72727273)" />
        <circle
           cx="90"
           cy="50"
           r="3.5"
           fill="none"
           stroke="#1e90ff"
           stroke-width="2"
           id="circle11-9-0"
           transform="scale(0.72727273)" />
        <circle
           cx="26"
           cy="76"
           r="3.5"
           fill="none"
           stroke="#1e90ff"
           stroke-width="2"
           id="circle12-4"
           transform="scale(0.72727273)" />
        <circle
           cx="78"
           cy="86"
           r="5.5"
           fill="#8b5cf6"
           id="circle13-0"
           transform="scale(0.72727273)" />
        <circle
           cx="55"
           cy="55"
           r="7"
           fill="none"
           stroke="#1e90ff"
           stroke-width="3"
           id="circle14-2"
           transform="scale(0.72727273)" />
        <g
           stroke="#5a6f8a"
           stroke-width="1.5"
           fill="none"
           opacity="0.3"
           id="g17-2-4"
           transform="scale(0.72727273)">
          <polyline
             points="8,20 8,8 20,8"
             id="polyline14-6-4" />
          <polyline
             points="90,8 102,8 102,20"
             id="polyline15-9-1" />
          <polyline
             points="102,90 102,102 90,102"
             id="polyline16-64-9" />
          <polyline
             points="20,102 8,102 8,90"
             id="polyline17-5-0" />
        </g>
        <path
           d="m 110.4092,22.678 c -4.75731,0 -7.80444,2.456381 -7.80444,5.845563 v 1.492484 c 0,2.300913 0.96388,4.259799 5.06822,5.503535 l 2.95387,0.901709 c 2.26981,0.684056 2.54966,1.212644 2.54966,2.207634 v 1.057176 c 0,1.150457 -1.11936,2.114353 -3.70012,2.114353 c -2.7984,0 -4.66402,-0.559682 -6.52961,-1.834512 H 102.356 v 3.420275 c 0,0.373122 0.0621,0.466401 0.18657,0.590776 c 1.05717,1.026082 3.63792,1.647952 6.65397,1.647952 c 5.09933,0 8.1154,-2.207633 8.1154,-5.845564 v -1.430297 c 0,-2.891689 -1.15047,-4.384173 -5.00605,-5.534629 l -2.98496,-0.90171 c -2.17654,-0.65296 -2.58076,-1.212643 -2.58076,-2.425286 v -0.652962 c 0,-1.647951 1.27483,-2.363099 3.66903,-2.363099 c 0.87061,0 1.55467,0.09328 2.20762,0.27984 v 2.176539 c 0,0.217655 0.12437,0.342028 0.34204,0.342028 h 3.63793 v -4.290892 c 0,-0.248747 -0.0311,-0.404215 -0.18656,-0.559682 C 115.44633,23.455336 113.30088,22.678 110.4092,22.678 Z m 22.24651,22.356169 v -7.493514 c 2.33201,-4.415266 4.81948,-9.328026 6.93383,-13.525638 c 0.24876,-0.528588 0.0933,-0.746242 -0.31093,-0.746242 h -4.04215 c -1.89669,3.979957 -3.20261,6.902739 -4.32198,10.72723 h -0.71516 c -1.18154,-3.731211 -2.58074,-6.716178 -4.25979,-10.043175 c -0.24875,-0.559681 -0.40422,-0.684055 -0.83952,-0.684055 h -4.16652 c 2.3942,4.664013 6.1565,12.18862 7.24477,14.27188 v 7.151486 c 0,0.217654 0.12438,0.342028 0.34203,0.342028 z m 15.93455,0 v -5.068227 c 0,-2.425287 -0.12438,-5.969937 -0.83953,-10.571762 h 0.65297 c 2.3009,4.695105 4.44636,8.861623 7.89772,14.644999 c 0.55968,0.963896 0.83952,0.99499 1.08828,0.99499 h 3.82448 V 23.610802 c 0,-0.18656 -0.15546,-0.342027 -0.34202,-0.342027 h -3.88669 v 4.259799 c 0,3.389182 0.18657,6.405245 0.9639,10.82051 h -0.59077 c -2.3631,-4.757293 -4.7573,-9.141466 -7.43132,-14.116414 c -0.4975,-0.963895 -0.4975,-0.963895 -0.87063,-0.963895 h -4.6951 v 21.423366 c 0,0.186561 0.15546,0.342028 0.34203,0.342028 z m 21.74901,0 c 0.46641,-1.834512 0.90171,-3.513557 1.27484,-5.037134 h 6.99602 c 0.34202,1.368111 0.71514,2.860594 1.11936,4.446359 c 0.15546,0.497495 0.21765,0.590775 0.59078,0.590775 h 3.82448 c -0.27983,-1.492484 -0.62186,-2.953874 -0.96389,-4.321986 C 181.564,34.058192 180.1026,28.274816 178.92106,23.579709 c -0.0621,-0.217655 -0.15547,-0.342028 -0.37312,-0.342028 h -7.02711 c -1.11936,4.321986 -4.38418,17.72325 -5.34808,21.392273 c -0.0621,0.310935 0.12438,0.404215 0.24875,0.404215 z m 4.50856,-18.407305 h 0.71513 c 0.37313,2.332006 1.08828,5.410255 2.14546,9.701147 H 172.578 c 1.11936,-4.384172 1.83451,-7.400234 2.26983,-9.701147 z m 19.19933,18.407305 v -6.653992 h 2.76732 c 5.16151,0 7.21368,-2.487474 7.21368,-6.622898 v -1.896698 c 0,-4.197612 -2.20764,-6.591806 -7.24478,-6.591806 h -8.73725 v 3.420276 c 0,0.217654 0.12438,0.342028 0.34204,0.342028 h 1.18154 v 17.661062 c 0,0.217654 0.12439,0.342028 0.34204,0.342028 z m 2.76732,-18.00309 c 0.99499,0 1.67904,0.18656 2.11435,0.621868 c 0.43531,0.404215 0.59077,1.057176 0.59077,1.989979 v 2.269819 c 0,1.958887 -0.83951,2.674034 -2.70512,2.674034 h -2.76732 v -7.5557 z M 216.97775,22.678 c -4.75731,0 -7.80444,2.456381 -7.80444,5.845563 v 1.492484 c 0,2.300913 0.96388,4.259799 5.0682,5.503535 l 2.95389,0.901709 c 2.26981,0.684056 2.54966,1.212644 2.54966,2.207634 v 1.057176 c 0,1.150457 -1.11937,2.114353 -3.70012,2.114353 c -2.7984,0 -4.66402,-0.559682 -6.52962,-1.834512 h -0.59077 v 3.420275 c 0,0.373122 0.0621,0.466401 0.18656,0.590776 c 1.05717,1.026082 3.63793,1.647952 6.65398,1.647952 c 5.09933,0 8.1154,-2.207633 8.1154,-5.845564 v -1.430297 c 0,-2.891689 -1.15047,-4.384173 -5.00605,-5.534629 l -2.98496,-0.90171 c -2.17655,-0.65296 -2.58076,-1.212643 -2.58076,-2.425286 v -0.652962 c 0,-1.647951 1.27483,-2.363099 3.66903,-2.363099 c 0.87061,0 1.55467,0.09328 2.20762,0.27984 v 2.176539 c 0,0.217655 0.12437,0.342028 0.34203,0.342028 h 3.63794 v -4.290892 c 0,-0.248747 -0.031,-0.404215 -0.18656,-0.559682 C 222.01487,23.455336 219.86943,22.678 216.97775,22.678 Z m 13.57148,22.356169 h 12.77939 v -3.45137 c 0,-0.18656 -0.15547,-0.342027 -0.34204,-0.342027 h -8.30194 v -5.316976 h 6.80947 v -3.326994 c 0,-0.186562 -0.15547,-0.342029 -0.34203,-0.342029 h -6.46744 v -5.192601 h 8.64398 v -3.45137 c 0,-0.18656 -0.15547,-0.342027 -0.34204,-0.342027 H 228.7147 v 3.45137 c 0,0.18656 0.12439,0.342027 0.34204,0.342027 h 1.15045 v 17.629969 c 0,0.186561 0.15547,0.342028 0.34204,0.342028 z"
           id="text17-5-2"
           style="font-weight:bold;font-size:38px;font-family:'Recursive Sans Linear Static';-inkscape-font-specification:'Recursive Sans Linear Static Bold';letter-spacing:2.64px;fill:#a78bfa;stroke-width:0.818248"
           aria-label="SYNAPSE" />
        <path
           d="m 176.13278,64.944155 v -5.50104 h 4.78988 v -2.34265 c 0,-0.14641 -0.0837,-0.23008 -0.23008,-0.23008 h -4.5598 v -4.01597 h 5.8357 v -2.32173 c 0,-0.14641 -0.0837,-0.23008 -0.23008,-0.23008 h -9.80984 v 2.32173 c 0,0.14642 0.0837,0.23008 0.23008,0.23008 h 0.96216 v 11.85966 c 0,0.14641 0.0837,0.23008 0.23008,0.23008 z m 11.72085,0 h 9.49609 v -4.4343 c 0,-0.14641 -0.0837,-0.23008 -0.23008,-0.23008 h -2.42631 v 2.11257 h -4.0578 v -11.85966 c 0,-0.14641 -0.0837,-0.23008 -0.23008,-0.23008 h -2.7819 v 14.41147 c 0,0.14641 0.0837,0.23008 0.23008,0.23008 z m 15.52766,0 h 9.39151 v -2.32173 c 0,-0.14642 -0.0837,-0.23008 -0.23008,-0.23008 h -6.37954 v -3.57672 h 5.37554 v -2.23807 c 0,-0.14642 -0.0837,-0.23008 -0.23008,-0.23008 h -5.14546 v -3.49306 h 6.60962 v -2.32173 c 0,-0.14641 -0.0837,-0.23008 -0.23008,-0.23008 H 202.1263 v 2.32173 c 0,0.14642 0.0837,0.23008 0.23008,0.23008 h 0.79483 v 11.85966 c 0,0.14641 0.0837,0.23008 0.23008,0.23008 z m 15.40216,0 h 9.39151 v -2.32173 c 0,-0.14642 -0.0837,-0.23008 -0.23009,-0.23008 h -6.37953 v -3.57672 h 5.37554 v -2.23807 c 0,-0.14642 -0.0837,-0.23008 -0.23008,-0.23008 h -5.14546 v -3.49306 h 6.60962 v -2.32173 c 0,-0.14641 -0.0837,-0.23008 -0.23009,-0.23008 h -10.41641 v 2.32173 c 0,0.14642 0.0837,0.23008 0.23008,0.23008 h 0.79483 v 11.85966 c 0,0.14641 0.0837,0.23008 0.23008,0.23008 z m 21.30061,0 v -12.08974 h 3.70222 v -2.32173 c 0,-0.14641 -0.0837,-0.23008 -0.23008,-0.23008 h -10.18634 v 2.32173 c 0,0.14642 0.0837,0.23008 0.23008,0.23008 h 3.47214 v 11.85966 c 0,0.14641 0.0837,0.23008 0.23008,0.23008 z"
           id="text26-8-7"
           style="font-weight:bold;font-size:20.9165px;line-height:0px;font-family:'Recursive Mono Linear Static';-inkscape-font-specification:'Recursive Mono Linear Static Bold';letter-spacing:2.85225px;word-spacing:0.0142612px;fill:#5a6f8a;stroke-width:1.42612"
           aria-label="FLEET" />
      </g>
    </g>
  </g>
</svg>
