<?xml version="1.0" encoding="UTF-8" standalone="no"?>
<svg
   width="254.1459"
   height="80"
   viewBox="0 0 254.14592 80"
   version="1.1"
   id="svg54"
   xmlns="http://www.w3.org/2000/svg"
   xmlns:svg="http://www.w3.org/2000/svg">
  <defs
     id="defs1">
    <style
       id="style1">@import url('https://fonts.googleapis.com/css2?family=Recursive:slnt,wght,CASL,CRSV,MONO@-15..0,300..900,0..1,0..1,0..1&amp;display=swap');</style>
  </defs>
  <!-- HORIZONTAL PRIMARY -->
  <!-- HORIZONTAL WITH TAGLINE -->
  <!-- STACKED -->
  <!-- STACKED + TAGLINE -->
  <!-- WORDMARK ONLY -->
  <!-- SIZE VARIATIONS -->
  <!-- BADGE -->
  <!-- FOOTER -->
  <g
     id="g29"
     transform="translate(-422.38602,-1318.811)">
    <g
       id="g5"
       transform="translate(-117.614,1210.811)">
      <g
         transform="translate(540,108)"
         id="g34">
        <rect
           width="110"
           height="110"
           fill="#0c1220"
           id="rect18"
           x="0"
           y="0"
           transform="scale(0.72727273)" />
        <line
           x1="55"
           y1="55"
           x2="28"
           y2="24"
           stroke="#1e90ff"
           stroke-width="2.5"
           id="line18"
           transform="scale(0.72727273)" />
        <line
           x1="55"
           y1="55"
           x2="82"
           y2="24"
           stroke="#1e90ff"
           stroke-width="2.5"
           id="line19"
           transform="scale(0.72727273)" />
        <line
           x1="55"
           y1="55"
           x2="90"
           y2="50"
           stroke="#1e90ff"
           stroke-width="2.5"
           id="line20"
           transform="scale(0.72727273)" />
        <line
           x1="55"
           y1="55"
           x2="26"
           y2="76"
           stroke="#1e90ff"
           stroke-width="2.5"
           id="line21"
           transform="scale(0.72727273)" />
        <line
           x1="55"
           y1="55"
           x2="78"
           y2="86"
           stroke="#8b5cf6"
           stroke-width="3.5"
           id="line22"
           transform="scale(0.72727273)" />
        <line
           x1="28"
           y1="24"
           x2="82"
           y2="24"
           stroke="#1e90ff"
           stroke-width="1.5"
           opacity="0.3"
           id="line23"
           transform="scale(0.72727273)" />
        <line
           x1="82"
           y1="24"
           x2="90"
           y2="50"
           stroke="#1e90ff"
           stroke-width="1.5"
           opacity="0.3"
           id="line24"
           transform="scale(0.72727273)" />
        <line
           x1="26"
           y1="76"
           x2="78"
           y2="86"
           stroke="#8b5cf6"
           stroke-width="2"
           opacity="0.35"
           id="line25"
           transform="scale(0.72727273)" />
        <circle
           cx="28"
           cy="24"
           r="4.5"
           fill="none"
           stroke="#1e90ff"
           stroke-width="2"
           id="circle25"
           transform="scale(0.72727273)" />
        <circle
           cx="82"
           cy="24"
           r="3.5"
           fill="none"
           stroke="#1e90ff"
           stroke-width="2"
           id="circle26"
           transform="scale(0.72727273)" />
        <circle
           cx="90"
           cy="50"
           r="3.5"
           fill="none"
           stroke="#1e90ff"
           stroke-width="2"
           id="circle27"
           transform="scale(0.72727273)" />
        <circle
           cx="26"
           cy="76"
           r="3.5"
           fill="none"
           stroke="#1e90ff"
           stroke-width="2"
           id="circle28"
           transform="scale(0.72727273)" />
        <circle
           cx="78"
           cy="86"
           r="5.5"
           fill="#8b5cf6"
           id="circle29"
           transform="scale(0.72727273)" />
        <circle
           cx="55"
           cy="55"
           r="7"
           fill="none"
           stroke="#1e90ff"
           stroke-width="3"
           id="circle30"
           transform="scale(0.72727273)" />
        <g
           stroke="#5a6f8a"
           stroke-width="1.5"
           fill="none"
           opacity="0.3"
           id="g33"
           transform="scale(0.72727273)">
          <polyline
             points="8,20 8,8 20,8"
             id="polyline30" />
          <polyline
             points="90,8 102,8 102,20"
             id="polyline31" />
          <polyline
             points="102,90 102,102 90,102"
             id="polyline32" />
          <polyline
             points="20,102 8,102 8,90"
             id="polyline33" />
        </g>
        <path
           d="m 110.272,18.992 c -4.896,0 -8.032,2.528 -8.032,6.016 v 1.536 c 0,2.368 0.992,4.384 5.216,5.664 l 3.04,0.928 c 2.336,0.704 2.624,1.248 2.624,2.272 v 1.088 c 0,1.184 -1.152,2.176 -3.808,2.176 c -2.88,0 -4.8,-0.576 -6.72,-1.888 h -0.608 v 3.52 c 0,0.384 0.064,0.48 0.192,0.608 c 1.088,1.056 3.744,1.696 6.848,1.696 c 5.248,0 8.352,-2.272 8.352,-6.016 V 35.12 c 0,-2.976 -1.184,-4.512 -5.152,-5.696 l -3.072,-0.928 c -2.24,-0.672 -2.656,-1.248 -2.656,-2.496 v -0.672 c 0,-1.696 1.312,-2.432 3.776,-2.432 c 0.896,0 1.6,0.096 2.272,0.288 v 2.24 c 0,0.224 0.128,0.352 0.352,0.352 h 3.744 V 21.36 c 0,-0.256 -0.032,-0.416 -0.192,-0.576 c -0.992,-0.992 -3.2,-1.792 -6.176,-1.792 z M 133.58399,42 v -7.712 c 2.4,-4.544 4.96,-9.6 7.136,-13.92 c 0.256,-0.544 0.096,-0.768 -0.32,-0.768 h -4.16 c -1.952,4.096 -3.296,7.104 -4.448,11.04 h -0.736 c -1.216,-3.84 -2.656,-6.912 -4.384,-10.336 c -0.256,-0.576 -0.416,-0.704 -0.864,-0.704 h -4.288 c 2.464,4.8 6.336,12.544 7.456,14.688 v 7.36 c 0,0.224 0.128,0.352 0.352,0.352 z m 16.81599,0 v -5.216 c 0,-2.496 -0.128,-6.144 -0.864,-10.88 h 0.672 c 2.368,4.832 4.576,9.12 8.128,15.072 c 0.576,0.992 0.864,1.024 1.12,1.024 h 3.936 V 19.952 c 0,-0.192 -0.16,-0.352 -0.352,-0.352 h -4 v 4.384 c 0,3.488 0.192,6.592 0.992,11.136 h -0.608 c -2.432,-4.896 -4.896,-9.408 -7.648,-14.528 c -0.512,-0.992 -0.512,-0.992 -0.896,-0.992 h -4.832 v 22.048 c 0,0.192 0.16,0.352 0.352,0.352 z m 22.79998,0 c 0.48,-1.888 0.928,-3.616 1.312,-5.184 h 7.2 c 0.352,1.408 0.736,2.944 1.152,4.576 c 0.16,0.512 0.224,0.608 0.608,0.608 h 3.936 c -0.288,-1.536 -0.64,-3.04 -0.992,-4.448 c -1.664,-6.848 -3.168,-12.8 -4.384,-17.632 c -0.064,-0.224 -0.16,-0.352 -0.384,-0.352 h -7.232 c -1.152,4.448 -4.512,18.24 -5.504,22.016 c -0.064,0.32 0.128,0.416 0.256,0.416 z m 4.64,-18.944 h 0.736 c 0.384,2.4 1.12,5.568 2.208,9.984 h -5.28 c 1.152,-4.512 1.888,-7.616 2.336,-9.984 z M 198.01594,42 v -6.848 h 2.848 c 5.312,0 7.424,-2.56 7.424,-6.816 v -1.952 c 0,-4.32 -2.272,-6.784 -7.456,-6.784 h -8.992 v 3.52 c 0,0.224 0.128,0.352 0.352,0.352 h 1.216 v 18.176 c 0,0.224 0.128,0.352 0.352,0.352 z m 2.848,-18.528 c 1.024,0 1.728,0.192 2.176,0.64 c 0.448,0.416 0.608,1.088 0.608,2.048 v 2.336 c 0,2.016 -0.864,2.752 -2.784,2.752 h -2.848 v -7.776 z m 21.16799,-4.48 c -4.896,0 -8.032,2.528 -8.032,6.016 v 1.536 c 0,2.368 0.992,4.384 5.216,5.664 l 3.04,0.928 c 2.336,0.704 2.624,1.248 2.624,2.272 v 1.088 c 0,1.184 -1.152,2.176 -3.808,2.176 c -2.88,0 -4.8,-0.576 -6.72,-1.888 h -0.608 v 3.52 c 0,0.384 0.064,0.48 0.192,0.608 c 1.088,1.056 3.744,1.696 6.848,1.696 c 5.248,0 8.352,-2.272 8.352,-6.016 V 35.12 c 0,-2.976 -1.184,-4.512 -5.152,-5.696 l -3.072,-0.928 c -2.24,-0.672 -2.656,-1.248 -2.656,-2.496 v -0.672 c 0,-1.696 1.312,-2.432 3.776,-2.432 c 0.896,0 1.6,0.096 2.272,0.288 v 2.24 c 0,0.224 0.128,0.352 0.352,0.352 h 3.744 V 21.36 c 0,-0.256 -0.032,-0.416 -0.192,-0.576 c -0.992,-0.992 -3.2,-1.792 -6.176,-1.792 z M 236.41595,42 h 13.152 v -3.552 c 0,-0.192 -0.16,-0.352 -0.352,-0.352 h -8.544 v -5.472 h 7.008 V 29.2 c 0,-0.192 -0.16,-0.352 -0.352,-0.352 h -6.656 v -5.344 h 8.896 v -3.552 c 0,-0.192 -0.16,-0.352 -0.352,-0.352 h -14.688 v 3.552 c 0,0.192 0.128,0.352 0.352,0.352 h 1.184 v 18.144 c 0,0.192 0.16,0.352 0.352,0.352 z"
           id="text33-3"
           style="font-weight:bold;font-size:32px;font-family:'Recursive Sans Linear Static';-inkscape-font-specification:'Recursive Sans Linear Static Bold';letter-spacing:2.64px;fill:#a78bfa"
           aria-label="SYNAPSE" />
        <path
           style="font-weight:600;font-size:12px;line-height:0px;font-family:'Recursive Sans Linear Static';-inkscape-font-specification:'Recursive Sans Linear Static Semi-Bold';letter-spacing:1.42px;word-spacing:0.01px;fill:#5a6f8a"
           d="m 106.96204,58.415639 v -2.652 c 0,-1.8 -0.924,-2.868 -3.048,-2.868 h -3.66 v 1.236 c 0,0.084 0.048,0.132 0.132,0.132 h 0.492 v 6.9 c 0,0.084 0.06,0.132 0.132,0.132 h 2.988 c 1.812,0 2.964,-1.008 2.964,-2.88 z m -4.536,1.512 v -5.664 h 1.512 c 0.576,0 0.912,0.084 1.176,0.324 c 0.276,0.252 0.396,0.66 0.396,1.284 v 2.448 c 0,1.044 -0.432,1.608 -1.548,1.608 z m 7.76799,1.368 h 4.884 v -1.176 c 0,-0.072 -0.06,-0.132 -0.132,-0.132 h -3.348 v -2.292 h 2.796 v -1.128 c 0,-0.084 -0.06,-0.132 -0.132,-0.132 h -2.664 v -2.232 h 3.48 v -1.176 c 0,-0.072 -0.06,-0.132 -0.132,-0.132 h -5.508 v 1.176 c 0,0.072 0.06,0.132 0.132,0.132 h 0.492 v 6.96 c 0,0.072 0.06,0.132 0.132,0.132 z m 11.30799,0 v -7.092 h 2.196 v -1.176 c 0,-0.084 -0.048,-0.132 -0.132,-0.132 h -5.796 v 1.176 c 0,0.084 0.048,0.132 0.132,0.132 h 2.064 v 6.96 c 0,0.084 0.048,0.132 0.132,0.132 z m 5.33201,0 h 4.884 v -1.176 c 0,-0.072 -0.06,-0.132 -0.132,-0.132 h -3.348 v -2.292 h 2.796 v -1.128 c 0,-0.084 -0.06,-0.132 -0.132,-0.132 h -2.664 v -2.232 h 3.48 v -1.176 c 0,-0.072 -0.06,-0.132 -0.132,-0.132 h -5.508 v 1.176 c 0,0.072 0.06,0.132 0.132,0.132 h 0.492 v 6.96 c 0,0.072 0.06,0.132 0.132,0.132 z m 10.63598,0.24 c 1.104,0 2.004,-0.324 2.388,-0.696 c 0.048,-0.048 0.06,-0.096 0.06,-0.18 v -1.176 h -0.204 c -0.732,0.492 -1.344,0.696 -2.232,0.696 c -0.564,0 -1.032,-0.108 -1.356,-0.432 c -0.348,-0.336 -0.48,-0.864 -0.48,-1.596 v -2.292 c 0,-1.248 0.648,-1.824 1.692,-1.824 c 0.456,0 0.828,0.06 1.164,0.228 v 1.26 c 0,0.084 0.048,0.132 0.132,0.132 h 1.224 v -2.028 c 0,-0.084 -0.012,-0.144 -0.06,-0.192 c -0.384,-0.396 -1.224,-0.78 -2.436,-0.78 c -2.076,0 -3.264,1.26 -3.264,3.168 v 2.448 c 0,2.064 1.14,3.264 3.372,3.264 z m 8.57199,-0.24 v -7.092 h 2.196 v -1.176 c 0,-0.084 -0.048,-0.132 -0.132,-0.132 h -5.796 v 1.176 c 0,0.084 0.048,0.132 0.132,0.132 h 2.064 v 6.96 c 0,0.084 0.048,0.132 0.132,0.132 z m 5.28401,0.108 v -1.836 c 0,-0.084 -0.048,-0.132 -0.132,-0.132 h -1.812 v 1.836 c 0,0.084 0.048,0.132 0.132,0.132 z m 14.64599,-2.988 v -2.652 c 0,-1.8 -0.924,-2.868 -3.048,-2.868 h -3.66 v 1.236 c 0,0.084 0.048,0.132 0.132,0.132 h 0.492 v 6.9 c 0,0.084 0.06,0.132 0.132,0.132 h 2.988 c 1.812,0 2.964,-1.008 2.964,-2.88 z m -4.536,1.512 v -5.664 h 1.512 c 0.576,0 0.912,0.084 1.176,0.324 c 0.276,0.252 0.396,0.66 0.396,1.284 v 2.448 c 0,1.044 -0.432,1.608 -1.548,1.608 z m 7.768,1.368 h 4.884 v -1.176 c 0,-0.072 -0.06,-0.132 -0.132,-0.132 h -3.348 v -2.292 h 2.796 v -1.128 c 0,-0.084 -0.06,-0.132 -0.132,-0.132 h -2.664 v -2.232 h 3.48 v -1.176 c 0,-0.072 -0.06,-0.132 -0.132,-0.132 h -5.508 v 1.176 c 0,0.072 0.06,0.132 0.132,0.132 h 0.492 v 6.96 c 0,0.072 0.06,0.132 0.132,0.132 z m 10.63598,0.24 c 1.104,0 2.004,-0.324 2.388,-0.696 c 0.048,-0.048 0.06,-0.096 0.06,-0.18 v -1.176 h -0.204 c -0.732,0.492 -1.344,0.696 -2.232,0.696 c -0.564,0 -1.032,-0.108 -1.356,-0.432 c -0.348,-0.336 -0.48,-0.864 -0.48,-1.596 v -2.292 c 0,-1.248 0.648,-1.824 1.692,-1.824 c 0.456,0 0.828,0.06 1.164,0.228 v 1.26 c 0,0.084 0.048,0.132 0.132,0.132 h 1.224 v -2.028 c 0,-0.084 -0.012,-0.144 -0.06,-0.192 c -0.384,-0.396 -1.224,-0.78 -2.436,-0.78 c -2.076,0 -3.264,1.26 -3.264,3.168 v 2.448 c 0,2.064 1.14,3.264 3.372,3.264 z m 9.688,-0.24 v -1.176 c 0,-0.072 -0.06,-0.132 -0.132,-0.132 h -1.224 v -5.784 h 1.356 v -1.176 c 0,-0.072 -0.06,-0.132 -0.132,-0.132 h -4.116 v 1.176 c 0,0.072 0.06,0.132 0.132,0.132 h 1.224 v 5.784 h -1.356 v 1.176 c 0,0.072 0.06,0.132 0.132,0.132 z m 9.36401,-2.88 v -2.652 c 0,-1.8 -0.924,-2.868 -3.048,-2.868 h -3.66 v 1.236 c 0,0.084 0.048,0.132 0.132,0.132 h 0.492 v 6.9 c 0,0.084 0.06,0.132 0.132,0.132 h 2.988 c 1.812,0 2.964,-1.008 2.964,-2.88 z m -4.536,1.512 v -5.664 h 1.512 c 0.576,0 0.912,0.084 1.176,0.324 c 0.276,0.252 0.396,0.66 0.396,1.284 v 2.448 c 0,1.044 -0.432,1.608 -1.548,1.608 z m 7.76799,1.368 h 4.884 v -1.176 c 0,-0.072 -0.06,-0.132 -0.132,-0.132 h -3.348 v -2.292 h 2.796 v -1.128 c 0,-0.084 -0.06,-0.132 -0.132,-0.132 h -2.664 v -2.232 h 3.48 v -1.176 c 0,-0.072 -0.06,-0.132 -0.132,-0.132 h -5.508 v 1.176 c 0,0.072 0.06,0.132 0.132,0.132 h 0.492 v 6.96 c 0,0.072 0.06,0.132 0.132,0.132 z m 9.77199,0.108 v -1.836 c 0,-0.084 -0.048,-0.132 -0.132,-0.132 h -1.812 v 1.836 c 0,0.084 0.048,0.132 0.132,0.132 z m 10.30199,-0.108 v -3.264 h 2.724 v -1.176 c 0,-0.084 -0.048,-0.132 -0.132,-0.132 h -2.592 v -2.52 h 3.156 v -1.176 c 0,-0.084 -0.048,-0.132 -0.132,-0.132 h -5.184 v 1.176 c 0,0.084 0.048,0.132 0.132,0.132 h 0.492 v 6.96 c 0,0.084 0.06,0.132 0.132,0.132 z m 10.17998,0 v -1.176 c 0,-0.072 -0.06,-0.132 -0.132,-0.132 h -1.224 v -5.784 h 1.356 v -1.176 c 0,-0.072 -0.06,-0.132 -0.132,-0.132 h -4.116 v 1.176 c 0,0.072 0.06,0.132 0.132,0.132 h 1.224 v 5.784 h -1.356 v 1.176 c 0,0.072 0.06,0.132 0.132,0.132 z m 4.78,0 v -3.012 h 1.044 c 0.384,0.732 0.744,1.476 1.128,2.196 c 0.336,0.648 0.708,0.816 1.476,0.816 h 0.456 c 0.084,0 0.132,-0.048 0.132,-0.132 v -1.176 h -0.384 c -0.216,0 -0.336,-0.084 -0.48,-0.348 c -0.3,-0.552 -0.564,-1.032 -0.84,-1.548 c 0.852,-0.324 1.332,-1.068 1.332,-2.124 v -0.648 c 0,-1.488 -0.78,-2.424 -2.652,-2.424 h -3.336 v 1.176 c 0,0.084 0.048,0.132 0.132,0.132 h 0.492 v 6.96 c 0,0.084 0.048,0.132 0.132,0.132 z m 1.248,-7.092 c 0.408,0 0.684,0.096 0.864,0.276 c 0.18,0.18 0.252,0.444 0.252,0.78 v 0.708 c 0,0.708 -0.36,1.056 -1.116,1.056 h -1.248 v -2.82 z m 5.96801,7.092 h 4.884 v -1.176 c 0,-0.072 -0.06,-0.132 -0.132,-0.132 h -3.348 v -2.292 h 2.796 v -1.128 c 0,-0.084 -0.06,-0.132 -0.132,-0.132 h -2.664 v -2.232 h 3.48 v -1.176 c 0,-0.072 -0.06,-0.132 -0.132,-0.132 h -5.508 v 1.176 c 0,0.072 0.06,0.132 0.132,0.132 h 0.492 v 6.96 c 0,0.072 0.06,0.132 0.132,0.132 z m 9.77199,0.108 v -1.836 c 0,-0.084 -0.048,-0.132 -0.132,-0.132 h -1.812 v 1.836 c 0,0.084 0.048,0.132 0.132,0.132 z"
           id="text3"
           aria-label="DETECT. DECIDE. FIRE." />
      </g>
    </g>
  </g>
</svg>
