<?xml version="1.0" encoding="UTF-8"?>
<svg id="svg37" xmlns="http://www.w3.org/2000/svg" xmlns:xlink="http://www.w3.org/1999/xlink" viewBox="0 0 1280 640">
  <defs>
    <style>
      .cls-1, .cls-2, .cls-3, .cls-4, .cls-5, .cls-6, .cls-7, .cls-8, .cls-9, .cls-10, .cls-11, .cls-12 {
        fill: none;
      }

      .cls-13 {
        fill: url(#grid);
      }

      .cls-2 {
        stroke-width: 1.5px;
      }

      .cls-2, .cls-5 {
        stroke: #5a6f8a;
      }

      .cls-14 {
        fill: #1e90ff;
      }

      .cls-3 {
        stroke-width: 4.6px;
      }

      .cls-3, .cls-4, .cls-5, .cls-6, .cls-8, .cls-9, .cls-11 {
        stroke-miterlimit: 5.26;
      }

      .cls-3, .cls-4, .cls-6, .cls-11 {
        stroke-linecap: square;
      }

      .cls-3, .cls-11 {
        stroke: #8b5cf6;
      }

      .cls-4 {
        stroke-width: 3.29px;
      }

      .cls-4, .cls-6, .cls-7, .cls-8, .cls-9 {
        stroke: #1e90ff;
      }

      .cls-15 {
        fill: #f97316;
      }

      .cls-16 {
        fill: url(#linear-gradient);
      }

      .cls-17 {
        fill: #0c1220;
      }

      .cls-18, .cls-6, .cls-7, .cls-10, .cls-19, .cls-20, .cls-21, .cls-11 {
        isolation: isolate;
      }

      .cls-5, .cls-6 {
        stroke-width: 1.97px;
      }

      .cls-6, .cls-22 {
        opacity: .3;
      }

      .cls-23 {
        letter-spacing: .21em;
      }

      .cls-24 {
        letter-spacing: .21em;
      }

      .cls-25 {
        letter-spacing: .18em;
      }

      .cls-26 {
        letter-spacing: .19em;
      }

      .cls-7 {
        opacity: .08;
        stroke-width: .3px;
      }

      .cls-8 {
        stroke-width: 3.95px;
      }

      .cls-9, .cls-11 {
        stroke-width: 2.63px;
      }

      .cls-27 {
        fill: #e8ecf4;
      }

      .cls-10 {
        opacity: .6;
        stroke: #4c1d95;
        stroke-miterlimit: 7.23;
        stroke-width: 1.81px;
      }

      .cls-19 {
        fill: #1d87ef;
        opacity: .04;
      }

      .cls-20 {
        opacity: .03;
      }

      .cls-20, .cls-28 {
        fill: #8b5cf6;
      }

      .cls-21 {
        font-family: RecursiveSansLnrSt-SemiBold, 'Recursive Sans Linear Static';
        font-size: 25.89px;
        font-weight: 600;
      }

      .cls-21, .cls-29 {
        fill: #5a6f8a;
      }

      .cls-30 {
        opacity: .15;
      }

      .cls-11 {
        opacity: .35;
      }

      .cls-31 {
        fill: #c2c2c2;
      }

      .cls-32 {
        fill: #10b981;
      }

      .cls-33 {
        letter-spacing: .04em;
      }

      .cls-12 {
        stroke: #2a3f5c;
        stroke-miterlimit: 6.48;
        stroke-width: 1.62px;
      }
    </style>
    <linearGradient id="linear-gradient" x1="-318.75" y1="860.66" x2="-317.75" y2="859.66" gradientTransform="translate(408001 550821) scale(1280 -640)" gradientUnits="userSpaceOnUse">
      <stop offset="0" stop-color="#0c1220"/>
      <stop offset="1" stop-color="#080e1a"/>
    </linearGradient>
    <pattern id="grid" x="0" y="0" width="60" height="60" patternTransform="translate(19 -15263) scale(1 -1)" patternUnits="userSpaceOnUse" viewBox="0 0 60 60">
      <g>
        <rect class="cls-1" width="60" height="60"/>
        <line id="line2" class="cls-7" x1="60" y1="60" x2="60"/>
        <line id="line3" class="cls-7" x2="60"/>
      </g>
    </pattern>
  </defs>
  <rect id="rect3" class="cls-16" width="1280" height="640"/>
  <rect id="rect4" class="cls-13" width="1280" height="640"/>
  <ellipse id="ellipse4" class="cls-19" cx="350" cy="260" rx="400" ry="300"/>
  <ellipse id="ellipse5" class="cls-20" cx="900" cy="400" rx="350" ry="250"/>
  <g id="g8" class="cls-30">
    <polyline id="polyline5" class="cls-2" points="40 72 40 40 72 40"/>
    <polyline id="polyline6" class="cls-2" points="1208 40 1240 40 1240 72"/>
    <polyline id="polyline7" class="cls-2" points="1240 568 1240 600 1208 600"/>
    <polyline id="polyline8" class="cls-2" points="72 600 40 600 40 568"/>
  </g>
  <g id="g67">
    <rect id="rect51" class="cls-17" x="132.19" y="155.4" width="155" height="158.43"/>
    <line id="line51" class="cls-4" x1="209.69" y1="234.61" x2="171.65" y2="189.96"/>
    <line id="line52" class="cls-4" x1="209.69" y1="234.61" x2="247.74" y2="189.96"/>
    <line id="line53" class="cls-4" x1="209.69" y1="234.61" x2="259.01" y2="227.41"/>
    <line id="line54" class="cls-4" x1="209.69" y1="234.61" x2="168.83" y2="264.86"/>
    <line id="line55" class="cls-3" x1="209.69" y1="234.61" x2="242.1" y2="279.26"/>
    <line id="line56" class="cls-6" x1="171.65" y1="189.96" x2="247.74" y2="189.96"/>
    <line id="line57" class="cls-6" x1="247.74" y1="189.96" x2="259.01" y2="227.41"/>
    <line id="line58" class="cls-11" x1="168.83" y1="264.86" x2="242.1" y2="279.26"/>
    <ellipse id="circle58" class="cls-9" cx="171.65" cy="189.96" rx="6.34" ry="6.48"/>
    <ellipse id="circle59" class="cls-9" cx="247.74" cy="189.96" rx="4.93" ry="5.04"/>
    <ellipse id="circle60" class="cls-9" cx="259.01" cy="227.41" rx="4.93" ry="5.04"/>
    <ellipse id="circle61" class="cls-9" cx="168.83" cy="264.86" rx="4.93" ry="5.04"/>
    <ellipse id="circle62" class="cls-28" cx="242.1" cy="279.26" rx="7.75" ry="7.92"/>
    <ellipse id="circle63" class="cls-8" cx="209.69" cy="234.61" rx="9.86" ry="10.08"/>
    <g id="g66" class="cls-22">
      <polyline id="polyline63" class="cls-5" points="143.46 184.2 143.46 166.92 160.37 166.92"/>
      <polyline id="polyline64" class="cls-5" points="259.01 166.92 275.92 166.92 275.92 184.2"/>
      <polyline id="polyline65" class="cls-5" points="275.92 285.02 275.92 302.3 259.01 302.3"/>
      <polyline id="polyline66" class="cls-5" points="160.37 302.3 143.46 302.3 143.46 285.02"/>
    </g>
  </g>
  <g class="cls-18">
    <path class="cls-28" d="M359.1,182.58c.51.51.61,1.01.61,1.82v13.98h-11.85c-.71,0-1.11-.41-1.11-1.11v-7.09c-2.13-.61-4.35-.91-7.19-.91-7.8,0-11.95,2.33-11.95,7.7v2.13c0,3.95,1.32,5.77,8.41,7.9l9.72,2.94c12.56,3.75,16.31,8.61,16.31,18.03v4.66c0,11.85-9.83,19.04-26.44,19.04-9.82,0-18.23-2.03-21.68-5.37-.41-.41-.61-.71-.61-1.92v-11.14h1.92c6.08,4.15,12.15,5.98,21.27,5.98,8.41,0,12.05-3.14,12.05-6.89v-3.44c0-3.24-.91-4.96-8.31-7.19l-9.62-2.94c-13.37-4.05-16.51-10.43-16.51-17.93v-4.86c0-11.04,9.93-19.04,25.42-19.04,9.42,0,16.41,2.53,19.55,5.67Z"/>
    <path class="cls-28" d="M396.88,249.73c-.71,0-1.11-.41-1.11-1.11v-23.3c-3.55-6.79-15.8-31.3-23.6-46.49h13.57c1.42,0,1.92.4,2.73,2.23,5.47,10.84,10.03,20.56,13.88,32.72h2.33c3.65-12.46,7.9-21.98,14.08-34.94h13.17c1.32,0,1.82.71,1.01,2.43-6.89,13.67-14.99,29.68-22.59,44.06v24.41h-13.47Z"/>
    <path class="cls-28" d="M447.93,249.73c-.61,0-1.11-.51-1.11-1.11v-69.79h15.29q1.22,0,2.84,3.14c8.71,16.21,16.51,30.49,24.21,45.98h1.92c-2.53-14.38-3.14-24.21-3.14-35.25v-13.88h12.66c.61,0,1.11.51,1.11,1.11v69.79h-12.46c-.81,0-1.72-.1-3.54-3.24-11.24-18.84-18.23-32.41-25.73-47.71h-2.13c2.33,14.99,2.73,26.54,2.73,34.44v16.51h-12.66Z"/>
    <path class="cls-28" d="M517.01,249.73c-.4,0-1.01-.3-.81-1.32,3.14-11.95,13.77-55.61,17.42-69.69h22.89c.71,0,1.01.41,1.22,1.11,3.85,15.29,8.61,34.13,13.88,55.81,1.11,4.46,2.23,9.22,3.14,14.08h-12.46c-1.22,0-1.42-.3-1.92-1.92-1.32-5.17-2.53-10.03-3.65-14.48h-22.79c-1.22,4.96-2.63,10.43-4.15,16.41h-12.76ZM537.07,221.37h16.71c-3.44-13.98-5.77-24-6.99-31.6h-2.33c-1.42,7.5-3.75,17.32-7.39,31.6Z"/>
    <path class="cls-28" d="M591.86,249.73c-.71,0-1.11-.41-1.11-1.11v-57.53h-3.85c-.71,0-1.11-.41-1.11-1.11v-11.14h28.46c16.41,0,23.6,7.8,23.6,21.47v6.18c0,13.47-6.69,21.57-23.5,21.57h-9.01v21.68h-13.47ZM605.34,191.09v24.61h9.01c6.08,0,8.81-2.33,8.81-8.71v-7.39c0-3.04-.51-5.17-1.92-6.48-1.42-1.42-3.65-2.03-6.89-2.03h-9.01Z"/>
    <path class="cls-28" d="M697.91,182.58c.51.51.61,1.01.61,1.82v13.98h-11.85c-.71,0-1.11-.41-1.11-1.11v-7.09c-2.13-.61-4.36-.91-7.19-.91-7.8,0-11.95,2.33-11.95,7.7v2.13c0,3.95,1.32,5.77,8.41,7.9l9.72,2.94c12.56,3.75,16.31,8.61,16.31,18.03v4.66c0,11.85-9.83,19.04-26.44,19.04-9.83,0-18.23-2.03-21.68-5.37-.41-.41-.61-.71-.61-1.92v-11.14h1.92c6.08,4.15,12.16,5.98,21.27,5.98,8.41,0,12.05-3.14,12.05-6.89v-3.44c0-3.24-.91-4.96-8.31-7.19l-9.62-2.94c-13.37-4.05-16.51-10.43-16.51-17.93v-4.86c0-11.04,9.93-19.04,25.42-19.04,9.42,0,16.41,2.53,19.55,5.67Z"/>
    <path class="cls-28" d="M719.79,248.62v-57.43h-3.75c-.71,0-1.11-.51-1.11-1.11v-11.24h46.49c.61,0,1.11.51,1.11,1.11v11.24h-28.16v16.92h21.07c.61,0,1.11.51,1.11,1.11v10.84h-22.18v17.32h27.04c.61,0,1.11.51,1.11,1.11v11.24h-41.63c-.61,0-1.11-.51-1.11-1.11Z"/>
  </g>
  <line id="line24" class="cls-10" x1="309.79" y1="285.02" x2="374.9" y2="285.02"/>
  <text id="text25" class="cls-21" transform="translate(387.16 293.66)"><tspan class="cls-24" x="0" y="0">DET</tspan><tspan class="cls-25" x="62.84" y="0">EC</tspan><tspan class="cls-33" x="101.89" y="0">T</tspan><tspan class="cls-23" x="118.44" y="0">. D</tspan><tspan class="cls-25" x="168.33" y="0">E</tspan><tspan class="cls-23" x="187.21" y="0">CID</tspan><tspan class="cls-26" x="248.76" y="0">E</tspan><tspan class="cls-24" x="267.89" y="0">. </tspan><tspan class="cls-26" x="295.55" y="0">F</tspan><tspan class="cls-24" x="314.68" y="0">IR</tspan><tspan class="cls-26" x="353.99" y="0">E</tspan><tspan class="cls-23" x="373.12" y="0">.</tspan></text>
  <g class="cls-18">
    <path class="cls-29" d="M226.64,393.17v-11.57h-.82c-.12,0-.22-.1-.22-.22v-1.95h9.15c.12,0,.22.1.22.22v1.95h-5.78v3.71h4.43c.12,0,.22.08.22.22v1.88h-4.65v3.81h5.56c.12,0,.22.1.22.22v1.95h-8.12c-.12,0-.22-.1-.22-.22Z"/>
    <path class="cls-29" d="M240.6,393.39c-.12,0-.22-.1-.22-.22v-13.74h2.99c.22,0,.32.08.46.42,1.02,2.37,1.89,4.67,2.85,7.22h.32c.98-2.61,1.91-5.05,2.95-7.64h3.13c.12,0,.22.1.22.22v13.74h-2.19c-.12,0-.22-.1-.22-.22v-2.59c0-2.31.08-4.35.4-7.5h-.4c-1,2.53-2.19,5.4-3.11,7.7h-1.73c-.08,0-.18-.02-.24-.16-.76-1.92-2.01-4.95-3.05-7.54h-.38c.34,3.11.4,5.17.4,7.5v2.81h-2.17Z"/>
    <path class="cls-29" d="M259.52,393.39c-.14,0-.22-.08-.22-.22v-11.61h-.82c-.14,0-.22-.08-.22-.22v-1.91h5.62c3.25,0,4.37,1.54,4.37,3.25v.48c0,1.56-.86,2.53-2.37,2.91v.4c1.58.28,2.45,1.26,2.45,2.91v.54c0,2.43-1.62,3.47-4.07,3.47h-4.75ZM261.79,381.56v3.73h1.93c1.54,0,2.05-.66,2.05-1.71v-.5c0-.46-.12-.82-.38-1.06-.3-.32-.78-.46-1.48-.46h-2.13ZM263.92,391.25c1.34,0,1.93-.64,1.93-1.67v-.62c0-1.02-.56-1.62-2.15-1.62h-1.91v3.91h2.13Z"/>
    <path class="cls-29" d="M274.04,393.17v-11.57h-.82c-.12,0-.22-.1-.22-.22v-1.95h9.15c.12,0,.22.1.22.22v1.95h-5.78v3.71h4.43c.12,0,.22.08.22.22v1.88h-4.65v3.81h5.56c.12,0,.22.1.22.22v1.95h-8.12c-.12,0-.22-.1-.22-.22Z"/>
    <path class="cls-29" d="M293.09,393.39h-4.97c-.12,0-.22-.08-.22-.22v-11.47h-.82c-.14,0-.22-.08-.22-.22v-2.05h6.08c3.53,0,5.07,1.77,5.07,4.77v4.41c0,3.11-1.91,4.79-4.93,4.79ZM293.03,391.12c1.85,0,2.57-.94,2.57-2.67v-4.07c0-1.04-.2-1.72-.66-2.13-.44-.4-1-.54-1.95-.54h-2.51v9.41h2.55Z"/>
    <path class="cls-29" d="M308.89,393.39h-4.97c-.12,0-.22-.08-.22-.22v-11.47h-.82c-.14,0-.22-.08-.22-.22v-2.05h6.08c3.53,0,5.07,1.77,5.07,4.77v4.41c0,3.11-1.91,4.79-4.93,4.79ZM308.83,391.12c1.85,0,2.57-.94,2.57-2.67v-4.07c0-1.04-.2-1.72-.66-2.13-.44-.4-1-.54-1.95-.54h-2.51v9.41h2.55Z"/>
    <path class="cls-29" d="M319.45,393.17v-11.57h-.82c-.12,0-.22-.1-.22-.22v-1.95h9.15c.12,0,.22.1.22.22v1.95h-5.78v3.71h4.43c.12,0,.22.08.22.22v1.88h-4.65v3.81h5.56c.12,0,.22.1.22.22v1.95h-8.12c-.12,0-.22-.1-.22-.22Z"/>
    <path class="cls-29" d="M338.5,393.39h-4.97c-.12,0-.22-.08-.22-.22v-11.47h-.82c-.14,0-.22-.08-.22-.22v-2.05h6.08c3.53,0,5.07,1.77,5.07,4.77v4.41c0,3.11-1.91,4.79-4.93,4.79ZM338.44,391.12c1.85,0,2.57-.94,2.57-2.67v-4.07c0-1.04-.2-1.72-.66-2.13-.44-.4-1-.54-1.95-.54h-2.51v9.41h2.55Z"/>
    <path class="cls-29" d="M357.97,393.39c-.12,0-.22-.1-.22-.22v-1.96h2.25v-9.61h-2.03c-.12,0-.22-.1-.22-.22v-1.95h6.84c.12,0,.22.1.22.22v1.95h-2.25v9.61h2.03c.12,0,.22.1.22.22v1.95h-6.84Z"/>
    <path class="cls-29" d="M370.5,393.39c-.12,0-.22-.1-.22-.22v-13.74h2.77c.22,0,.22.02.52.56,1.56,2.91,3.39,6.36,5.07,9.67h.38c-.44-2.89-.54-5.08-.54-7.42v-2.81h2.19c.12,0,.22.1.22.22v13.74h-2.31c-.16,0-.32-.02-.64-.56-2.11-3.65-3.69-6.7-5.31-9.95h-.38c.38,3.03.44,5.46.44,7.28-.02,1.02,0,2.15,0,3.23h-2.19Z"/>
    <path class="cls-29" d="M389.83,393.39c-.14,0-.22-.08-.22-.22v-11.57h-3.43c-.14,0-.22-.08-.22-.22v-1.95h9.63c.14,0,.22.08.22.22v1.95h-3.65v11.79h-2.33Z"/>
    <path class="cls-29" d="M401.28,393.17v-11.57h-.82c-.12,0-.22-.1-.22-.22v-1.95h9.15c.12,0,.22.1.22.22v1.95h-5.78v3.71h4.43c.12,0,.22.08.22.22v1.88h-4.65v3.81h5.56c.12,0,.22.1.22.22v1.95h-8.12c-.12,0-.22-.1-.22-.22Z"/>
    <path class="cls-29" d="M415.02,393.17v-13.74h2.33c.12,0,.22.1.22.22v11.57h3.57v-1.67h2.05c.12,0,.22.1.22.22v3.63h-8.18c-.12,0-.22-.1-.22-.22Z"/>
    <path class="cls-29" d="M428.83,393.17v-13.74h2.33c.12,0,.22.1.22.22v11.57h3.57v-1.67h2.05c.12,0,.22.1.22.22v3.63h-8.18c-.12,0-.22-.1-.22-.22Z"/>
    <path class="cls-29" d="M442.79,393.39c-.12,0-.22-.1-.22-.22v-1.96h2.25v-9.61h-2.03c-.12,0-.22-.1-.22-.22v-1.95h6.84c.12,0,.22.1.22.22v1.95h-2.25v9.61h2.03c.12,0,.22.1.22.22v1.95h-6.84Z"/>
    <path class="cls-29" d="M465.33,385.91c.12,0,.22.1.22.22v1.87h-.76v3.71c0,.18-.02.22-.12.36-.78,1-2.65,1.72-4.45,1.72-3.99,0-5.74-2.05-5.74-5.34v-3.93c0-3.39,1.95-5.49,5.76-5.49,2.27,0,3.77.62,4.39,1.26.08.1.1.2.1.32v2.89h-2.05c-.14,0-.22-.08-.22-.22v-1.58c-.62-.28-1.4-.38-2.35-.38-2.05,0-3.21,1.04-3.21,3.29v3.91c0,1.04.3,1.79.8,2.29.46.46,1.16.72,2.33.72,1.3,0,2.23-.46,2.49-.76v-2.77h-2.25c-.14,0-.22-.08-.22-.22v-1.88h5.29Z"/>
    <path class="cls-29" d="M470.71,393.17v-11.57h-.82c-.12,0-.22-.1-.22-.22v-1.95h9.15c.12,0,.22.1.22.22v1.95h-5.78v3.71h4.43c.12,0,.22.08.22.22v1.88h-4.65v3.81h5.56c.12,0,.22.1.22.22v1.95h-8.12c-.12,0-.22-.1-.22-.22Z"/>
    <path class="cls-29" d="M484.33,393.39c-.12,0-.22-.1-.22-.22v-13.74h2.77c.22,0,.22.02.52.56,1.56,2.91,3.39,6.36,5.07,9.67h.38c-.44-2.89-.54-5.08-.54-7.42v-2.81h2.19c.12,0,.22.1.22.22v13.74h-2.31c-.16,0-.32-.02-.64-.56-2.11-3.65-3.69-6.7-5.31-9.95h-.38c.38,3.03.44,5.46.44,7.28-.02,1.02,0,2.15,0,3.23h-2.19Z"/>
    <path class="cls-29" d="M499.87,388.36v-4.07c0-3.17,1.97-5.27,5.42-5.27,2.01,0,3.41.64,4.05,1.3.08.08.1.18.1.32v3.37h-2.03c-.14,0-.22-.08-.22-.22v-2.09c-.56-.28-1.18-.38-1.93-.38-1.73,0-2.81.96-2.81,3.03v3.81c0,1.22.22,2.09.8,2.65.54.54,1.32.72,2.25.72,1.48,0,2.49-.34,3.71-1.16h.34v1.95c0,.14-.02.22-.1.3-.64.62-2.13,1.16-3.97,1.16-3.71,0-5.6-2-5.6-5.42Z"/>
    <path class="cls-29" d="M515.11,393.17v-11.57h-.82c-.12,0-.22-.1-.22-.22v-1.95h9.15c.12,0,.22.1.22.22v1.95h-5.78v3.71h4.43c.12,0,.22.08.22.22v1.88h-4.65v3.81h5.56c.12,0,.22.1.22.22v1.95h-8.12c-.12,0-.22-.1-.22-.22Z"/>
    <path class="cls-29" d="M538.35,393.39c-.12,0-.22-.08-.22-.22v-11.57h-.82c-.14,0-.22-.08-.22-.22v-1.95h8.62c.14,0,.22.08.22.22v1.95h-5.24v4.19h4.31c.14,0,.22.08.22.22v1.95h-4.53v5.42h-2.33Z"/>
    <path class="cls-29" d="M561.11,384.57v3.89c0,3.47-2.29,5.33-5.27,5.33s-5.27-1.86-5.27-5.34v-3.87c0-3.69,2.41-5.54,5.27-5.54s5.27,1.86,5.27,5.54ZM553.89,390.96c.42.36,1.1.62,2.01.62,1.62,0,2.79-1.14,2.79-3.29v-3.93c0-1.3-.28-1.99-.8-2.47-.44-.42-1.1-.68-2.01-.68-1.99,0-2.89,1.26-2.89,3.15v3.97c0,1.5.46,2.23.9,2.63Z"/>
    <path class="cls-29" d="M567.02,393.39c-.14,0-.22-.08-.22-.22v-11.57h-.82c-.14,0-.22-.08-.22-.22v-1.95h5.54c3.11,0,4.41,1.56,4.41,4.03v1.08c0,1.75-.8,2.99-2.21,3.53.46.86.9,1.66,1.4,2.57.24.44.44.58.8.58h.64v1.96c0,.14-.08.22-.22.22h-.76c-1.28,0-1.89-.28-2.45-1.36-.64-1.2-1.24-2.43-1.87-3.65h-1.73v5.01h-2.27ZM569.3,381.6v4.69h2.07c1.26,0,1.85-.58,1.85-1.75v-1.18c0-.56-.12-1-.42-1.3-.3-.3-.76-.46-1.44-.46h-2.07Z"/>
    <path class="cls-29" d="M589.69,393.39c-.1,0-.22-.08-.16-.26.8-2.73,2.79-10.65,3.67-13.76h4.03c.14,0,.2.08.24.22.88,3.23,1.87,7.02,2.97,11.29.2.82.4,1.66.6,2.51h-2.19c-.22,0-.28-.06-.36-.38-.28-1.08-.54-2.11-.8-3.07h-4.87c-.28,1.06-.58,2.21-.92,3.45h-2.21ZM593.39,387.83h3.73c-.7-2.73-1.26-4.89-1.6-6.48h-.46c-.34,1.56-.92,3.65-1.68,6.48Z"/>
    <path class="cls-29" d="M606.24,393.39c-.14,0-.22-.08-.22-.22v-11.57h-.82c-.14,0-.22-.08-.22-.22v-1.95h5.6c3.07,0,4.61,1.36,4.61,4.11v1.26c0,2.59-1.36,4.15-4.57,4.15h-2.05v4.45h-2.33ZM608.58,381.6v5.15h2.03c1.38,0,2.03-.54,2.03-1.88v-1.46c0-.64-.14-1.08-.44-1.36-.32-.34-.84-.46-1.62-.46h-2.01Z"/>
    <path class="cls-29" d="M620.27,393.39c-.12,0-.22-.1-.22-.22v-1.96h2.25v-9.61h-2.03c-.12,0-.22-.1-.22-.22v-1.95h6.84c.12,0,.22.1.22.22v1.95h-2.25v9.61h2.03c.12,0,.22.1.22.22v1.95h-6.84Z"/>
    <path class="cls-29" d="M650.45,380.19c.12.1.14.18.14.34v2.69h-2.07c-.14,0-.22-.08-.22-.22v-1.5c-.48-.18-1-.28-1.68-.28-1.63,0-2.57.58-2.57,1.74v.4c0,.88.32,1.3,1.79,1.74l1.91.58c2.45.74,3.23,1.66,3.23,3.49v.86c0,2.31-1.88,3.75-5.09,3.75-1.93,0-3.59-.42-4.27-1.1-.08-.08-.12-.16-.12-.38v-1.93h.36c1.18.84,2.37,1.22,4.19,1.22s2.55-.68,2.55-1.6v-.64c0-.76-.26-1.12-1.79-1.6l-1.89-.58c-2.57-.78-3.23-1.97-3.23-3.51v-.9c0-2.15,1.93-3.71,4.93-3.71,1.82,0,3.19.5,3.83,1.14Z"/>
    <path class="cls-29" d="M656.6,393.17v-11.57h-.82c-.12,0-.22-.1-.22-.22v-1.95h9.15c.12,0,.22.1.22.22v1.95h-5.78v3.71h4.43c.12,0,.22.08.22.22v1.88h-4.65v3.81h5.56c.12,0,.22.1.22.22v1.95h-8.12c-.12,0-.22-.1-.22-.22Z"/>
    <path class="cls-29" d="M669.36,388.36v-4.07c0-3.17,1.97-5.27,5.42-5.27,2.01,0,3.41.64,4.05,1.3.08.08.1.18.1.32v3.37h-2.03c-.14,0-.22-.08-.22-.22v-2.09c-.56-.28-1.18-.38-1.93-.38-1.73,0-2.81.96-2.81,3.03v3.81c0,1.22.22,2.09.8,2.65.54.54,1.32.72,2.25.72,1.48,0,2.49-.34,3.71-1.16h.34v1.95c0,.14-.02.22-.1.3-.64.62-2.13,1.16-3.97,1.16-3.71,0-5.6-2-5.6-5.42Z"/>
    <path class="cls-29" d="M684.51,389.96v-10.53h2.33c.14,0,.22.08.22.22v10.15c0,1.1.48,1.6,1.54,1.6,1.22,0,2.29-.56,3.33-2.01v-9.95h2.33c.12,0,.22.1.22.22v13.74h-2.33c-.14,0-.22-.08-.22-.22v-1.66h-.4c-.82,1.36-1.99,2.13-3.65,2.13-2.31,0-3.37-1.34-3.37-3.69Z"/>
    <path class="cls-29" d="M700.69,393.39c-.14,0-.22-.08-.22-.22v-11.57h-.82c-.14,0-.22-.08-.22-.22v-1.95h5.54c3.11,0,4.41,1.56,4.41,4.03v1.08c0,1.75-.8,2.99-2.21,3.53.46.86.9,1.66,1.4,2.57.24.44.44.58.8.58h.64v1.96c0,.14-.08.22-.22.22h-.76c-1.28,0-1.89-.28-2.45-1.36-.64-1.2-1.24-2.43-1.87-3.65h-1.74v5.01h-2.27ZM702.96,381.6v4.69h2.07c1.26,0,1.85-.58,1.85-1.75v-1.18c0-.56-.12-1-.42-1.3-.3-.3-.76-.46-1.44-.46h-2.07Z"/>
    <path class="cls-29" d="M715.31,393.39c-.12,0-.22-.1-.22-.22v-1.96h2.25v-9.61h-2.03c-.12,0-.22-.1-.22-.22v-1.95h6.84c.12,0,.22.1.22.22v1.95h-2.25v9.61h2.03c.12,0,.22.1.22.22v1.95h-6.84Z"/>
    <path class="cls-29" d="M731.37,393.39c-.14,0-.22-.08-.22-.22v-11.57h-3.43c-.14,0-.22-.08-.22-.22v-1.95h9.63c.14,0,.22.08.22.22v1.95h-3.65v11.79h-2.33Z"/>
    <path class="cls-29" d="M746.29,393.39c-.14,0-.22-.08-.22-.22v-4.73c-.78-1.38-3.17-6.06-4.73-9.01h2.37c.26,0,.36.08.5.4,1.16,2.19,2.11,4.15,2.97,6.56h.42c.88-2.49,1.75-4.35,3.07-6.96h2.27c.24,0,.34.14.2.44-1.38,2.67-3.03,5.78-4.53,8.58v4.95h-2.33Z"/>
    <path class="cls-29" d="M766.06,390.44v-1.06c0-1.87,1.08-2.89,2.51-3.19v-.36c-1.04-1.46-1.32-2.03-1.32-3.11v-.2c0-1.83,1.38-3.27,4.35-3.27,1.77,0,2.89.38,3.09.58.04.04.06.1.06.18v1.85h-.34c-.96-.3-1.74-.48-2.81-.48-.88,0-1.42.18-1.72.48-.24.22-.32.5-.32.84,0,.48.08.76.7,1.62,1.32,1.82,2.53,3.47,3.39,4.65.46-.58.64-1.06.64-1.83v-2.53h2.07c.16,0,.22.08.22.22v1.63c0,1.54-.74,2.63-2.01,3.39v.38c.1.16.2.28.26.36.4.5.62.6,1.12.6h.9v2.05c0,.14-.06.22-.22.22h-.96c-1.06,0-1.78-.34-2.51-1.36-.06-.08-.14-.18-.22-.3h-.36c-.62,1.1-1.59,1.78-3.27,1.78-2.01,0-3.25-1.14-3.25-3.13ZM770.01,391.47c.84,0,1.42-.22,2.09-.82-.74-1.02-1.7-2.31-2.57-3.51-.68.24-1.06.84-1.06,1.6v1.12c0,1.06.5,1.62,1.54,1.62Z"/>
    <path class="cls-29" d="M789.98,393.39c-.1,0-.22-.08-.16-.26.8-2.73,2.79-10.65,3.67-13.76h4.03c.14,0,.2.08.24.22.88,3.23,1.88,7.02,2.97,11.29.2.82.4,1.66.6,2.51h-2.19c-.22,0-.28-.06-.36-.38-.28-1.08-.54-2.11-.8-3.07h-4.87c-.28,1.06-.58,2.21-.92,3.45h-2.21ZM793.69,387.83h3.73c-.7-2.73-1.26-4.89-1.6-6.48h-.46c-.34,1.56-.92,3.65-1.68,6.48Z"/>
    <path class="cls-29" d="M806.54,393.39c-.14,0-.22-.08-.22-.22v-11.57h-.82c-.14,0-.22-.08-.22-.22v-1.95h5.6c3.07,0,4.61,1.36,4.61,4.11v1.26c0,2.59-1.36,4.15-4.57,4.15h-2.05v4.45h-2.33ZM808.87,381.6v5.15h2.03c1.38,0,2.03-.54,2.03-1.88v-1.46c0-.64-.14-1.08-.44-1.36-.32-.34-.84-.46-1.62-.46h-2.01Z"/>
    <path class="cls-29" d="M821.34,393.39c-.14,0-.22-.08-.22-.22v-11.57h-.82c-.14,0-.22-.08-.22-.22v-1.95h5.6c3.07,0,4.61,1.36,4.61,4.11v1.26c0,2.59-1.36,4.15-4.57,4.15h-2.05v4.45h-2.33ZM823.68,381.6v5.15h2.03c1.38,0,2.03-.54,2.03-1.88v-1.46c0-.64-.14-1.08-.44-1.36-.32-.34-.84-.46-1.62-.46h-2.01Z"/>
    <path class="cls-29" d="M835.81,393.17v-13.74h2.33c.12,0,.22.1.22.22v11.57h3.57v-1.67h2.05c.12,0,.22.1.22.22v3.63h-8.18c-.12,0-.22-.1-.22-.22Z"/>
    <path class="cls-29" d="M849.77,393.39c-.12,0-.22-.1-.22-.22v-1.96h2.25v-9.61h-2.03c-.12,0-.22-.1-.22-.22v-1.95h6.84c.12,0,.22.1.22.22v1.95h-2.25v9.61h2.03c.12,0,.22.1.22.22v1.95h-6.84Z"/>
    <path class="cls-29" d="M861.44,388.36v-4.07c0-3.17,1.97-5.27,5.42-5.27,2.01,0,3.41.64,4.05,1.3.08.08.1.18.1.32v3.37h-2.03c-.14,0-.22-.08-.22-.22v-2.09c-.56-.28-1.18-.38-1.93-.38-1.73,0-2.81.96-2.81,3.03v3.81c0,1.22.22,2.09.8,2.65.54.54,1.32.72,2.25.72,1.48,0,2.49-.34,3.71-1.16h.34v1.95c0,.14-.02.22-.1.3-.64.62-2.13,1.16-3.97,1.16-3.71,0-5.6-2-5.6-5.42Z"/>
    <path class="cls-29" d="M875.81,393.39c-.1,0-.22-.08-.16-.26.8-2.73,2.79-10.65,3.67-13.76h4.03c.14,0,.2.08.24.22.88,3.23,1.87,7.02,2.97,11.29.2.82.4,1.66.6,2.51h-2.19c-.22,0-.28-.06-.36-.38-.28-1.08-.54-2.11-.8-3.07h-4.87c-.28,1.06-.58,2.21-.92,3.45h-2.21ZM879.52,387.83h3.73c-.7-2.73-1.26-4.89-1.6-6.48h-.46c-.34,1.56-.92,3.65-1.67,6.48Z"/>
    <path class="cls-29" d="M894.04,393.39c-.14,0-.22-.08-.22-.22v-11.57h-3.43c-.14,0-.22-.08-.22-.22v-1.95h9.63c.14,0,.22.08.22.22v1.95h-3.65v11.79h-2.33Z"/>
    <path class="cls-29" d="M905.19,393.39c-.12,0-.22-.1-.22-.22v-1.96h2.25v-9.61h-2.03c-.12,0-.22-.1-.22-.22v-1.95h6.84c.12,0,.22.1.22.22v1.95h-2.25v9.61h2.03c.12,0,.22.1.22.22v1.95h-6.84Z"/>
    <path class="cls-29" d="M927.47,384.57v3.89c0,3.47-2.29,5.33-5.26,5.33s-5.27-1.86-5.27-5.34v-3.87c0-3.69,2.41-5.54,5.27-5.54s5.26,1.86,5.26,5.54ZM920.25,390.96c.42.36,1.1.62,2.01.62,1.62,0,2.79-1.14,2.79-3.29v-3.93c0-1.3-.28-1.99-.8-2.47-.44-.42-1.1-.68-2.01-.68-1.99,0-2.89,1.26-2.89,3.15v3.97c0,1.5.46,2.23.9,2.63Z"/>
    <path class="cls-29" d="M932.92,393.39c-.12,0-.22-.1-.22-.22v-13.74h2.77c.22,0,.22.02.52.56,1.56,2.91,3.39,6.36,5.07,9.67h.38c-.44-2.89-.54-5.08-.54-7.42v-2.81h2.19c.12,0,.22.1.22.22v13.74h-2.31c-.16,0-.32-.02-.64-.56-2.11-3.65-3.69-6.7-5.3-9.95h-.38c.38,3.03.44,5.46.44,7.28-.02,1.02,0,2.15,0,3.23h-2.19Z"/>
    <path class="cls-29" d="M962.97,393.39h-4.97c-.12,0-.22-.08-.22-.22v-11.47h-.82c-.14,0-.22-.08-.22-.22v-2.05h6.08c3.53,0,5.07,1.77,5.07,4.77v4.41c0,3.11-1.92,4.79-4.93,4.79ZM962.91,391.12c1.86,0,2.57-.94,2.57-2.67v-4.07c0-1.04-.2-1.72-.66-2.13-.44-.4-1-.54-1.96-.54h-2.51v9.41h2.55Z"/>
    <path class="cls-29" d="M973.52,393.17v-11.57h-.82c-.12,0-.22-.1-.22-.22v-1.95h9.15c.12,0,.22.1.22.22v1.95h-5.78v3.71h4.43c.12,0,.22.08.22.22v1.88h-4.65v3.81h5.56c.12,0,.22.1.22.22v1.95h-8.12c-.12,0-.22-.1-.22-.22Z"/>
    <path class="cls-29" d="M987.94,393.39c-.12,0-.22-.08-.22-.22v-11.57h-.82c-.14,0-.22-.08-.22-.22v-1.95h8.62c.14,0,.22.08.22.22v1.95h-5.25v4.19h4.31c.14,0,.22.08.22.22v1.95h-4.53v5.42h-2.33Z"/>
    <path class="cls-29" d="M1001.13,393.17v-11.57h-.82c-.12,0-.22-.1-.22-.22v-1.95h9.15c.12,0,.22.1.22.22v1.95h-5.78v3.71h4.43c.12,0,.22.08.22.22v1.88h-4.65v3.81h5.56c.12,0,.22.1.22.22v1.95h-8.12c-.12,0-.22-.1-.22-.22Z"/>
    <path class="cls-29" d="M1014.76,393.39c-.12,0-.22-.1-.22-.22v-13.74h2.77c.22,0,.22.02.52.56,1.56,2.91,3.39,6.36,5.07,9.67h.38c-.44-2.89-.54-5.08-.54-7.42v-2.81h2.19c.12,0,.22.1.22.22v13.74h-2.31c-.16,0-.32-.02-.64-.56-2.11-3.65-3.69-6.7-5.3-9.95h-.38c.38,3.03.44,5.46.44,7.28-.02,1.02,0,2.15,0,3.23h-2.19Z"/>
    <path class="cls-29" d="M1039.39,380.19c.12.1.14.18.14.34v2.69h-2.07c-.14,0-.22-.08-.22-.22v-1.5c-.48-.18-1-.28-1.68-.28-1.63,0-2.57.58-2.57,1.74v.4c0,.88.32,1.3,1.79,1.74l1.91.58c2.45.74,3.23,1.66,3.23,3.49v.86c0,2.31-1.88,3.75-5.09,3.75-1.93,0-3.59-.42-4.27-1.1-.08-.08-.12-.16-.12-.38v-1.93h.36c1.18.84,2.37,1.22,4.19,1.22s2.55-.68,2.55-1.6v-.64c0-.76-.26-1.12-1.79-1.6l-1.89-.58c-2.57-.78-3.23-1.97-3.23-3.51v-.9c0-2.15,1.93-3.71,4.93-3.71,1.82,0,3.19.5,3.83,1.14Z"/>
    <path class="cls-29" d="M1045.54,393.17v-11.57h-.82c-.12,0-.22-.1-.22-.22v-1.95h9.15c.12,0,.22.1.22.22v1.95h-5.78v3.71h4.43c.12,0,.22.08.22.22v1.88h-4.65v3.81h5.56c.12,0,.22.1.22.22v1.95h-8.12c-.12,0-.22-.1-.22-.22Z"/>
  </g>
  <g class="cls-18">
    <path class="cls-15" d="M150.97,438.28v3.1c0,.28-.03.38-.31.5-2.16,1.13-6.99,3.35-10.54,5.08v.6c3.64,1.76,8.34,3.89,10.54,5.05.28.16.31.25.31.53v3.1c-4.42-2.13-8.91-4.26-13.36-6.33-.31-.16-.44-.34-.44-.63v-4.42c4.05-1.94,9.25-4.42,13.8-6.58Z"/>
    <path class="cls-15" d="M163.76,453.52v-15.8h-.53c-.78,1.32-1.47,1.98-2.67,3.04-1.35,1.13-2.07,1.66-2.29,1.66-.16,0-.25-.09-.25-.31v-3.29c.91-.75,1.82-1.47,2.73-2.23.91-.72,2.1-1.66,2.7-2.19h3.29c.22,0,.35.12.35.34v18.78h4.73c.22,0,.34.13.34.35v2.79h-14.27c-.09,0-.19-.03-.25-.09s-.09-.16-.09-.25v-2.79h6.21Z"/>
    <path class="cls-15" d="M178.24,456.66c-.22,0-.35-.12-.35-.34v-16.4h2.67s.38,1.47.63,2.48h.53c1.22-1.79,2.67-2.82,4.42-2.82,1.98,0,3.45.94,3.92,2.82h.63c1.16-1.88,2.48-2.82,4.39-2.82,2.1,0,3.95,1.38,3.95,4.33v12.76h-3.14c-.22,0-.35-.12-.35-.34v-11.38c0-1.44-.56-2.1-1.79-2.1s-2.45.91-3.54,2.63v11.19h-3.17c-.22,0-.34-.12-.34-.34v-11.48c0-1.41-.5-2.01-1.63-2.01-1.22,0-2.51.91-3.7,2.73v11.1h-3.14Z"/>
    <path class="cls-15" d="M215.46,451.7c0-.97-.63-1.6-2.41-1.94l-3.14-.56c-3.1-.56-4.45-2.07-4.45-4.39,0-3.1,2.6-5.17,7.43-5.17,2.19,0,3.7.34,4.61.69.38.13.41.25.41.6v2.67h-.5c-1.57-.56-2.95-.75-4.89-.75-2.73,0-3.73.85-3.73,1.88,0,.94.5,1.38,2.38,1.76l3.07.6c2.82.5,4.52,2.04,4.52,4.61,0,3.23-2.63,5.27-7.15,5.27-2.98,0-5.21-.56-6.4-1.29-.19-.09-.22-.16-.22-.41v-2.88h.5c1.82,1,3.51,1.38,6.08,1.38,2.85,0,3.89-.85,3.89-2.04Z"/>
  </g>
  <g class="cls-18">
    <path class="cls-29" d="M136.26,482.31h-3.2c-.08,0-.14-.05-.14-.14v-7.38h-.53c-.09,0-.14-.05-.14-.14v-1.32h3.91c2.27,0,3.26,1.14,3.26,3.07v2.84c0,2-1.23,3.08-3.17,3.08ZM136.22,480.84c1.19,0,1.66-.6,1.66-1.72v-2.62c0-.67-.13-1.1-.42-1.37-.28-.26-.64-.35-1.26-.35h-1.62v6.06h1.64Z"/>
    <path class="cls-29" d="M144.07,482.17v-7.44h-.53c-.08,0-.14-.06-.14-.14v-1.26h5.89c.08,0,.14.06.14.14v1.26h-3.72v2.39h2.85c.08,0,.14.05.14.14v1.21h-2.99v2.45h3.58c.08,0,.14.06.14.14v1.26h-5.22c-.08,0-.14-.06-.14-.14Z"/>
    <path class="cls-29" d="M156.13,482.31c-.09,0-.14-.05-.14-.14v-7.44h-2.21c-.09,0-.14-.05-.14-.14v-1.26h6.2c.09,0,.14.05.14.14v1.26h-2.35v7.58h-1.5Z"/>
    <path class="cls-29" d="M164.51,482.17v-7.44h-.53c-.08,0-.14-.06-.14-.14v-1.26h5.89c.08,0,.14.06.14.14v1.26h-3.72v2.39h2.85c.08,0,.14.05.14.14v1.21h-2.99v2.45h3.58c.08,0,.14.06.14.14v1.26h-5.22c-.08,0-.14-.06-.14-.14Z"/>
    <path class="cls-29" d="M173.75,479.07v-2.62c0-2.04,1.27-3.39,3.49-3.39,1.3,0,2.19.41,2.6.83.05.05.06.12.06.21v2.17h-1.31c-.09,0-.14-.05-.14-.14v-1.35c-.36-.18-.76-.24-1.24-.24-1.12,0-1.81.62-1.81,1.95v2.45c0,.78.14,1.35.51,1.71.35.35.85.46,1.45.46.95,0,1.6-.22,2.39-.74h.22v1.26c0,.09-.01.14-.06.19-.41.4-1.37.74-2.55.74-2.39,0-3.61-1.28-3.61-3.49Z"/>
    <path class="cls-29" d="M186.34,482.31c-.09,0-.14-.05-.14-.14v-7.44h-2.21c-.09,0-.14-.05-.14-.14v-1.26h6.2c.09,0,.14.05.14.14v1.26h-2.35v7.58h-1.5Z"/>
    <path class="cls-29" d="M194.54,482.31c-.08,0-.14-.06-.14-.14v-1.26h1.45v-6.19h-1.31c-.08,0-.14-.06-.14-.14v-1.26h4.4c.08,0,.14.06.14.14v1.26h-1.45v6.19h1.31c.08,0,.14.06.14.14v1.26h-4.4Z"/>
    <path class="cls-29" d="M209.89,476.64v2.5c0,2.23-1.48,3.43-3.39,3.43s-3.39-1.19-3.39-3.44v-2.49c0-2.37,1.55-3.57,3.39-3.57s3.39,1.19,3.39,3.57ZM205.25,480.74c.27.23.71.4,1.3.4,1.04,0,1.8-.73,1.8-2.12v-2.53c0-.83-.18-1.28-.51-1.59-.28-.27-.71-.44-1.3-.44-1.28,0-1.86.81-1.86,2.03v2.55c0,.96.3,1.44.58,1.69Z"/>
    <path class="cls-29" d="M214.42,482.31c-.08,0-.14-.06-.14-.14v-8.84h1.78c.14,0,.14.01.33.36,1,1.87,2.18,4.09,3.26,6.22h.24c-.28-1.86-.35-3.27-.35-4.77v-1.81h1.41c.08,0,.14.06.14.14v8.84h-1.49c-.1,0-.21-.01-.41-.36-1.36-2.35-2.37-4.31-3.41-6.4h-.24c.24,1.95.28,3.52.28,4.68-.01.66,0,1.39,0,2.08h-1.41Z"/>
  </g>
  <g class="cls-18">
    <path class="cls-14" d="M379.19,439.47v.75c0,2.95-1.16,4.52-5.86,7.4-4.33,2.7-5.21,3.89-5.3,6.43h.47c1.13-.38,2.23-.53,4.3-.53h6.52c.22,0,.34.13.34.35v2.79h-14.61c-.22,0-.34-.12-.34-.34v-2.1c0-3.83,1.76-6.08,6.68-9.12,3.98-2.48,4.48-3.39,4.48-4.92v-.25c0-.75-.22-1.32-.66-1.79-.5-.56-1.54-.85-3.39-.85-2.35,0-4.23.69-5.99,2.16h-.5v-2.88c0-.19.03-.31.19-.47,1.1-1,3.48-2.01,6.49-2.01,4.86,0,7.18,2.16,7.18,5.39Z"/>
    <path class="cls-14" d="M398.6,434.71c.22,0,.35.12.35.34v2.6h-9.22c-.03.16-.03.31-.06.47-.22,1.85-.5,4.33-.69,6.24h.56c1.16-.72,2.48-1,4.23-1,3.92,0,6.05,2.07,6.05,5.83v1.5c0,3.92-2.76,6.58-7.87,6.58-3.2,0-5.58-.69-6.52-1.41-.16-.09-.16-.19-.16-.38v-3.04h.5c1.85,1.1,3.61,1.54,6.21,1.54,2.95,0,4.48-1.38,4.48-3.54v-.94c0-2.1-1.03-3.35-3.76-3.35-1.44,0-2.82.28-3.98.85h-2.88c-.22,0-.38-.13-.34-.44.19-1.44.85-7.96,1.25-11.85h11.85Z"/>
    <path class="cls-14" d="M405.96,456.66c-.22,0-.35-.16-.35-.34v-21.6h4.23c.31,0,.47.12.66.63,1.69,3.89,3.26,7.87,4.92,12.13h.5c1.76-4.39,3.42-8.72,5.08-12.76h4.39c.19,0,.35.16.35.34v21.6h-2.98c-.19,0-.34-.16-.34-.34v-4.23c0-3.79.12-7.27.53-12.42h-.63c-1.76,4.26-3.79,9.25-5.36,12.98h-2.41c-.13,0-.25-.03-.38-.28-1.13-2.85-3.39-8.28-5.17-12.7h-.63c.47,5.08.53,8.56.53,12.42v4.58h-2.95Z"/>
    <path class="cls-14" d="M432.67,456.66c-.22,0-.34-.12-.34-.34v-18.63h-1.41c-.22,0-.34-.12-.34-.34v-2.63h8.84c4.92,0,6.74,2.32,6.74,5.11v.75c0,2.45-1.29,3.98-3.67,4.61v.53c2.48.47,3.86,2.04,3.86,4.58v.85c0,3.83-2.51,5.52-6.3,5.52h-7.37ZM435.74,437.69v6.4h3.23c2.92,0,3.76-1.16,3.76-3.01v-.78c0-.78-.19-1.38-.66-1.82-.53-.53-1.38-.78-2.63-.78h-3.7ZM439.47,453.68c2.38,0,3.45-1.13,3.45-2.98v-.91c0-1.72-.94-2.82-3.98-2.82h-3.2v6.71h3.73Z"/>
  </g>
  <g class="cls-18">
    <path class="cls-29" d="M375.99,482.31c-.09,0-.14-.05-.14-.14v-7.47h-.53c-.09,0-.14-.05-.14-.14v-1.23h3.62c2.09,0,2.81.99,2.81,2.09v.31c0,1-.55,1.63-1.53,1.87v.26c1.01.18,1.58.81,1.58,1.87v.35c0,1.57-1.04,2.23-2.62,2.23h-3.05ZM377.45,474.7v2.4h1.25c.99,0,1.32-.42,1.32-1.1v-.32c0-.3-.08-.53-.24-.68-.19-.21-.5-.29-.95-.29h-1.37ZM378.82,480.93c.86,0,1.25-.41,1.25-1.08v-.4c0-.65-.36-1.04-1.39-1.04h-1.23v2.51h1.37Z"/>
    <path class="cls-29" d="M386.16,482.31c-.08,0-.14-.06-.14-.14v-1.26h1.45v-6.19h-1.31c-.08,0-.14-.06-.14-.14v-1.26h4.4c.08,0,.14.06.14.14v1.26h-1.45v6.19h1.31c.08,0,.14.06.14.14v1.26h-4.4Z"/>
    <path class="cls-29" d="M395.24,482.31c-.08,0-.14-.06-.14-.14v-8.84h1.78c.14,0,.14.01.33.36,1,1.87,2.18,4.09,3.26,6.22h.24c-.28-1.86-.35-3.27-.35-4.77v-1.81h1.41c.08,0,.14.06.14.14v8.84h-1.49c-.1,0-.21-.01-.41-.36-1.36-2.35-2.37-4.31-3.41-6.4h-.24c.24,1.95.28,3.52.28,4.68-.01.66,0,1.39,0,2.08h-1.41Z"/>
    <path class="cls-29" d="M406.1,482.31c-.06,0-.14-.05-.1-.17.51-1.76,1.8-6.85,2.36-8.85h2.59c.09,0,.13.05.15.14.56,2.08,1.21,4.52,1.91,7.26.13.53.26,1.06.39,1.62h-1.41c-.14,0-.18-.04-.23-.24-.18-.69-.35-1.36-.51-1.98h-3.13c-.18.68-.37,1.42-.59,2.22h-1.42ZM408.49,478.73h2.4c-.45-1.76-.81-3.14-1.03-4.17h-.29c-.22,1-.59,2.35-1.08,4.17Z"/>
    <path class="cls-29" d="M417.77,482.31c-.09,0-.14-.05-.14-.14v-7.44h-.53c-.09,0-.14-.05-.14-.14v-1.26h3.57c2,0,2.84,1,2.84,2.59v.69c0,1.13-.51,1.92-1.42,2.27.29.55.58,1.06.9,1.66.15.28.28.37.51.37h.41v1.26c0,.09-.05.14-.14.14h-.49c-.82,0-1.22-.18-1.58-.87-.41-.77-.8-1.57-1.21-2.35h-1.12v3.22h-1.46ZM419.23,474.72v3.02h1.33c.81,0,1.19-.37,1.19-1.13v-.76c0-.36-.08-.64-.27-.83-.19-.19-.49-.29-.92-.29h-1.33Z"/>
    <path class="cls-29" d="M430.11,482.31c-.09,0-.14-.05-.14-.14v-3.04c-.5-.88-2.04-3.9-3.04-5.8h1.53c.17,0,.23.05.32.26.74,1.41,1.36,2.67,1.91,4.22h.27c.56-1.6,1.13-2.8,1.98-4.48h1.46c.15,0,.22.09.13.28-.89,1.72-1.95,3.72-2.91,5.52v3.18h-1.5Z"/>
  </g>
  <g class="cls-18">
    <path class="cls-28" d="M609.51,434.71c.22,0,.35.12.35.34v2.6h-9.22c-.03.16-.03.31-.06.47-.22,1.85-.5,4.33-.69,6.24h.56c1.16-.72,2.48-1,4.23-1,3.92,0,6.05,2.07,6.05,5.83v1.5c0,3.92-2.76,6.58-7.87,6.58-3.2,0-5.58-.69-6.52-1.41-.16-.09-.16-.19-.16-.38v-3.04h.5c1.85,1.1,3.61,1.54,6.21,1.54,2.95,0,4.48-1.38,4.48-3.54v-.94c0-2.1-1.03-3.35-3.76-3.35-1.44,0-2.82.28-3.98.85h-2.88c-.22,0-.38-.13-.34-.44.19-1.44.85-7.96,1.25-11.85h11.85Z"/>
    <path class="cls-28" d="M630.77,442.7v5.96c0,5.42-2.95,8.62-7.34,8.62s-7.27-3.35-7.27-8.62v-5.96c0-5.42,2.92-8.62,7.34-8.62s7.27,3.36,7.27,8.62ZM619.48,442.7v5.96c0,1.66.25,3.04.72,3.79.69,1.13,1.72,1.72,3.17,1.72,2.51,0,4.08-1.69,4.08-5.52v-6.02c0-2.16-.44-3.61-1.25-4.42-.66-.69-1.6-1.04-2.73-1.04-2.51,0-3.98,1.6-3.98,5.52Z"/>
    <path class="cls-28" d="M650.99,442.7v5.96c0,5.42-2.95,8.62-7.34,8.62s-7.27-3.35-7.27-8.62v-5.96c0-5.42,2.92-8.62,7.34-8.62s7.27,3.36,7.27,8.62ZM639.7,442.7v5.96c0,1.66.25,3.04.72,3.79.69,1.13,1.72,1.72,3.17,1.72,2.51,0,4.08-1.69,4.08-5.52v-6.02c0-2.16-.44-3.61-1.25-4.42-.66-.69-1.6-1.04-2.73-1.04-2.51,0-3.98,1.6-3.98,5.52Z"/>
    <path class="cls-28" d="M662.24,445.59v-5.64h2.98c.22,0,.34.12.34.34v5.3h5.3c.22,0,.34.12.34.34v2.98h-5.64v5.61h-2.98c-.22,0-.34-.13-.34-.34v-5.27h-5.3c-.22,0-.34-.16-.34-.34v-2.98h5.64Z"/>
  </g>
  <g class="cls-18">
    <path class="cls-29" d="M595.75,482.31c-.09,0-.14-.05-.14-.14v-7.47h-.53c-.09,0-.14-.05-.14-.14v-1.23h3.62c2.09,0,2.81.99,2.81,2.09v.31c0,1-.55,1.63-1.53,1.87v.26c1.01.18,1.58.81,1.58,1.87v.35c0,1.57-1.04,2.23-2.62,2.23h-3.05ZM597.21,474.7v2.4h1.25c.99,0,1.32-.42,1.32-1.1v-.32c0-.3-.08-.53-.24-.68-.19-.21-.5-.29-.95-.29h-1.37ZM598.59,480.93c.86,0,1.25-.41,1.25-1.08v-.4c0-.65-.36-1.04-1.39-1.04h-1.23v2.51h1.37Z"/>
    <path class="cls-29" d="M612.4,476.64v2.5c0,2.23-1.48,3.43-3.39,3.43s-3.39-1.19-3.39-3.44v-2.49c0-2.37,1.55-3.57,3.39-3.57s3.39,1.19,3.39,3.57ZM607.76,480.74c.27.23.71.4,1.3.4,1.04,0,1.8-.73,1.8-2.12v-2.53c0-.83-.18-1.28-.51-1.59-.28-.27-.71-.44-1.3-.44-1.28,0-1.86.81-1.86,2.03v2.55c0,.96.3,1.44.58,1.69Z"/>
    <path class="cls-29" d="M618.81,482.31c-.09,0-.14-.05-.14-.14v-7.44h-2.21c-.09,0-.14-.05-.14-.14v-1.26h6.2c.09,0,.14.05.14.14v1.26h-2.35v7.58h-1.5Z"/>
    <path class="cls-29" d="M639.46,473.81c.08.06.09.12.09.22v1.73h-1.33c-.09,0-.14-.05-.14-.14v-.96c-.31-.12-.64-.18-1.08-.18-1.05,0-1.66.37-1.66,1.12v.26c0,.56.21.83,1.15,1.12l1.23.37c1.58.47,2.08,1.06,2.08,2.25v.55c0,1.49-1.21,2.41-3.27,2.41-1.24,0-2.31-.27-2.75-.71-.05-.05-.08-.1-.08-.24v-1.25h.23c.76.54,1.53.78,2.69.78s1.64-.44,1.64-1.03v-.41c0-.49-.17-.72-1.15-1.03l-1.22-.37c-1.66-.5-2.08-1.27-2.08-2.26v-.58c0-1.39,1.24-2.39,3.17-2.39,1.17,0,2.05.32,2.46.73Z"/>
    <path class="cls-29" d="M644.5,482.31c-.08,0-.14-.06-.14-.14v-1.26h1.45v-6.19h-1.31c-.08,0-.14-.06-.14-.14v-1.26h4.4c.08,0,.14.06.14.14v1.26h-1.45v6.19h1.31c.08,0,.14.06.14.14v1.26h-4.4Z"/>
    <path class="cls-29" d="M660.02,477.5c.08,0,.14.06.14.14v1.21h-.49v2.39c0,.12-.01.14-.08.23-.5.64-1.71,1.1-2.86,1.1-2.57,0-3.7-1.32-3.7-3.44v-2.53c0-2.18,1.26-3.53,3.71-3.53,1.46,0,2.42.4,2.82.81.05.06.06.13.06.21v1.86h-1.32c-.09,0-.14-.05-.14-.14v-1.01c-.4-.18-.9-.24-1.51-.24-1.32,0-2.07.67-2.07,2.12v2.52c0,.67.19,1.16.51,1.48.29.29.74.46,1.5.46.83,0,1.44-.29,1.6-.49v-1.78h-1.45c-.09,0-.14-.05-.14-.14v-1.21h3.4Z"/>
    <path class="cls-29" d="M670.06,473.81c.08.06.09.12.09.22v1.73h-1.33c-.09,0-.14-.05-.14-.14v-.96c-.31-.12-.64-.18-1.08-.18-1.05,0-1.66.37-1.66,1.12v.26c0,.56.21.83,1.15,1.12l1.23.37c1.58.47,2.08,1.06,2.08,2.25v.55c0,1.49-1.21,2.41-3.27,2.41-1.25,0-2.31-.27-2.75-.71-.05-.05-.08-.1-.08-.24v-1.25h.23c.76.54,1.53.78,2.7.78s1.64-.44,1.64-1.03v-.41c0-.49-.17-.72-1.16-1.03l-1.22-.37c-1.66-.5-2.08-1.27-2.08-2.26v-.58c0-1.39,1.25-2.39,3.17-2.39,1.17,0,2.05.32,2.46.73Z"/>
  </g>
  <g class="cls-18">
    <path class="cls-32" d="M858.59,439.57v.6c0,2.19-1.47,3.86-3.86,4.58v.44c2.95,1.16,4.36,2.79,4.36,5.55v.72c0,3.32-2.7,5.64-7.65,5.64s-7.59-2.01-7.59-5.3v-.6c0-2.32,1.25-4.26,4.36-4.95v-.5c-2.73-1.16-3.83-2.54-3.83-5.3v-.63c0-3.07,2.6-5.55,7.12-5.55,4.42-.03,7.09,2.07,7.09,5.3ZM851.41,454.21c2.98,0,4.52-.94,4.52-3.07v-.44c0-1.44-.69-2.32-2.95-3.17l-1.85-.69c-2.73.72-4.17,2.01-4.17,3.92v.47c0,2.01,1.6,2.98,4.45,2.98ZM852.04,444.18c2.2-.82,3.42-2.1,3.42-3.61v-.41c0-.82-.22-1.54-.72-2.04-.66-.63-1.69-1-3.26-.97-2.51.03-3.92,1.22-3.92,2.95v.44c0,1.47.63,2.2,2.92,3.04l1.57.6Z"/>
    <path class="cls-32" d="M870.03,445.59v-5.64h2.98c.22,0,.34.12.34.34v5.3h5.3c.22,0,.35.12.35.34v2.98h-5.64v5.61h-2.98c-.22,0-.34-.13-.34-.34v-5.27h-5.3c-.22,0-.34-.16-.34-.34v-2.98h5.64Z"/>
  </g>
  <g class="cls-18">
    <path class="cls-29" d="M820.29,485.45l-3.19.25c-.08,0-.15-.04-.15-.13l-.57-7.36-.52.04c-.09,0-.15-.04-.15-.13l-.1-1.32,3.9-.3c2.26-.18,3.34.89,3.49,2.81l.22,2.83c.15,2-.99,3.17-2.92,3.32ZM820.13,484c1.19-.09,1.6-.73,1.52-1.84l-.2-2.61c-.05-.67-.21-1.09-.53-1.34-.3-.23-.67-.3-1.28-.25l-1.61.12.47,6.04,1.64-.13Z"/>
    <path class="cls-29" d="M828.06,484.71l-.58-7.42-.52.04c-.08,0-.15-.05-.15-.13l-.1-1.25,5.87-.46c.08,0,.15.05.15.13l.1,1.25-3.71.29.18,2.38,2.84-.22c.08,0,.14.04.15.13l.09,1.2-2.98.23.19,2.44,3.57-.28c.08,0,.15.05.15.13l.1,1.25-5.21.4c-.08,0-.15-.05-.15-.13Z"/>
    <path class="cls-29" d="M840.09,483.92c-.09,0-.14-.04-.15-.13l-.58-7.42-2.2.17c-.09,0-.15-.04-.15-.13l-.1-1.25,6.18-.48c.09,0,.15.04.15.13l.1,1.25-2.34.18.59,7.56-1.5.12Z"/>
    <path class="cls-29" d="M848.44,483.13l-.58-7.42-.52.04c-.08,0-.15-.05-.15-.13l-.1-1.25,5.87-.46c.08,0,.15.05.15.13l.1,1.25-3.71.29.18,2.38,2.84-.22c.08,0,.15.04.15.13l.09,1.2-2.98.23.19,2.44,3.57-.28c.08,0,.15.05.15.13l.1,1.25-5.21.4c-.08,0-.15-.05-.15-.13Z"/>
    <path class="cls-29" d="M857.41,479.33l-.2-2.61c-.16-2.03,1-3.48,3.22-3.65,1.29-.1,2.22.24,2.66.63.06.05.07.11.08.2l.17,2.16-1.31.1c-.09,0-.14-.04-.15-.13l-.1-1.34c-.37-.15-.77-.18-1.26-.15-1.11.09-1.76.75-1.65,2.09l.19,2.44c.06.78.25,1.33.64,1.66.37.32.88.4,1.48.35.95-.07,1.58-.34,2.32-.93l.22-.02.1,1.25c0,.09,0,.14-.05.2-.38.43-1.31.85-2.49.94-2.38.18-3.69-1-3.87-3.2Z"/>
    <path class="cls-29" d="M870.22,481.58c-.09,0-.15-.04-.15-.13l-.58-7.42-2.2.17c-.09,0-.14-.04-.15-.13l-.1-1.25,6.18-.48c.09,0,.14.04.15.13l.1,1.25-2.34.18.59,7.56-1.5.12Z"/>
    <path class="cls-29" d="M884.28,474.8l.19,2.5c.17,2.23-1.21,3.53-3.11,3.68s-3.47-.93-3.64-3.17l-.19-2.48c-.18-2.37,1.27-3.68,3.1-3.82s3.47.93,3.65,3.3ZM879.97,479.26c.29.21.73.34,1.32.3,1.04-.08,1.73-.87,1.63-2.25l-.2-2.52c-.06-.83-.28-1.27-.64-1.55-.3-.25-.74-.38-1.33-.34-1.28.1-1.79.95-1.7,2.17l.2,2.55c.07.96.41,1.41.71,1.64Z"/>
    <path class="cls-29" d="M889.52,480.09c-.09,0-.14-.04-.15-.13l-.58-7.42-.52.04c-.09,0-.15-.04-.15-.13l-.1-1.25,3.56-.28c1.99-.15,2.9.78,3.03,2.36l.05.69c.09,1.13-.36,1.96-1.25,2.37.34.53.66,1.02,1.02,1.58.18.27.31.35.54.33l.41-.03.1,1.25c0,.09-.04.14-.13.15l-.49.04c-.82.06-1.23-.08-1.64-.75-.47-.74-.91-1.5-1.38-2.25l-1.11.09.25,3.21-1.46.11ZM890.39,472.41l.23,3.01,1.33-.1c.81-.06,1.16-.46,1.1-1.22l-.06-.75c-.03-.36-.13-.63-.33-.81s-.51-.26-.94-.22l-1.33.1Z"/>
    <path class="cls-29" d="M904.75,470.39c.08.06.1.11.11.21l.13,1.73-1.33.1c-.09,0-.15-.04-.15-.13l-.07-.96c-.32-.09-.65-.13-1.09-.1-1.05.08-1.62.5-1.56,1.24l.02.26c.04.56.27.82,1.24,1.02l1.26.28c1.61.35,2.16.9,2.25,2.08l.04.55c.12,1.48-1.02,2.5-3.08,2.66-1.24.1-2.32-.09-2.79-.49-.05-.05-.08-.1-.1-.24l-.1-1.24.23-.02c.8.48,1.58.66,2.75.57s1.6-.56,1.56-1.15l-.03-.41c-.04-.49-.22-.7-1.23-.94l-1.24-.28c-1.69-.37-2.17-1.11-2.25-2.09l-.04-.58c-.11-1.38,1.06-2.48,2.98-2.62,1.16-.09,2.07.16,2.51.54Z"/>
  </g>
  <g class="cls-18">
    <path class="cls-27" d="M1076.44,439.47v.75c0,2.95-1.16,4.52-5.86,7.4-4.33,2.7-5.21,3.89-5.3,6.43h.47c1.13-.38,2.23-.53,4.3-.53h6.52c.22,0,.34.13.34.35v2.79h-14.61c-.22,0-.34-.12-.34-.34v-2.1c0-3.83,1.76-6.08,6.68-9.12,3.98-2.48,4.48-3.39,4.48-4.92v-.25c0-.75-.22-1.32-.66-1.79-.5-.56-1.54-.85-3.39-.85-2.35,0-4.23.69-5.99,2.16h-.5v-2.88c0-.19.03-.31.19-.47,1.1-1,3.48-2.01,6.49-2.01,4.86,0,7.18,2.16,7.18,5.39Z"/>
    <path class="cls-27" d="M1096.67,439.47v.75c0,2.95-1.16,4.52-5.86,7.4-4.33,2.7-5.21,3.89-5.3,6.43h.47c1.13-.38,2.23-.53,4.3-.53h6.52c.22,0,.34.13.34.35v2.79h-14.61c-.22,0-.34-.12-.34-.34v-2.1c0-3.83,1.76-6.08,6.68-9.12,3.98-2.48,4.48-3.39,4.48-4.92v-.25c0-.75-.22-1.32-.66-1.79-.5-.56-1.54-.85-3.39-.85-2.35,0-4.23.69-5.99,2.16h-.5v-2.88c0-.19.03-.31.19-.47,1.1-1,3.48-2.01,6.49-2.01,4.86,0,7.18,2.16,7.18,5.39Z"/>
    <path class="cls-27" d="M1108.14,445.59v-5.64h2.98c.22,0,.35.12.35.34v5.3h5.3c.22,0,.34.12.34.34v2.98h-5.64v5.61h-2.98c-.22,0-.34-.13-.34-.34v-5.27h-5.3c-.22,0-.35-.16-.35-.34v-2.98h5.64Z"/>
  </g>
  <g class="cls-18">
    <path class="cls-29" d="M1033.99,482.31h-3.2c-.08,0-.14-.05-.14-.14v-7.38h-.53c-.09,0-.14-.05-.14-.14v-1.32h3.91c2.27,0,3.26,1.14,3.26,3.07v2.84c0,2-1.23,3.08-3.17,3.08ZM1033.95,480.84c1.19,0,1.66-.6,1.66-1.72v-2.62c0-.67-.13-1.1-.42-1.37-.28-.26-.64-.35-1.26-.35h-1.62v6.06h1.64Z"/>
    <path class="cls-29" d="M1041.76,482.17v-8.84h1.5c.08,0,.14.06.14.14v7.44h2.3v-1.08h1.32c.08,0,.14.06.14.14v2.33h-5.26c-.08,0-.14-.06-.14-.14Z"/>
    <path class="cls-29" d="M1051.62,482.31c-.09,0-.14-.05-.14-.14v-7.44h-.53c-.09,0-.14-.05-.14-.14v-1.26h3.61c1.98,0,2.96.87,2.96,2.64v.81c0,1.67-.87,2.67-2.94,2.67h-1.32v2.86h-1.5ZM1053.12,474.72v3.31h1.31c.89,0,1.31-.35,1.31-1.21v-.94c0-.41-.09-.69-.28-.87-.21-.22-.54-.29-1.04-.29h-1.3Z"/>
    <path class="cls-29" d="M1068.86,482.31c-.09,0-.14-.05-.14-.14v-7.44h-.53c-.09,0-.14-.05-.14-.14v-1.26h3.61c1.98,0,2.96.87,2.96,2.64v.81c0,1.67-.87,2.67-2.94,2.67h-1.32v2.86h-1.5ZM1070.36,474.72v3.31h1.31c.89,0,1.31-.35,1.31-1.21v-.94c0-.41-.09-.69-.28-.87-.21-.22-.54-.29-1.04-.29h-1.3Z"/>
    <path class="cls-29" d="M1078.4,482.31c-.06,0-.14-.05-.1-.17.51-1.76,1.8-6.85,2.36-8.85h2.59c.09,0,.13.05.15.14.56,2.08,1.21,4.52,1.91,7.26.13.53.26,1.06.38,1.62h-1.41c-.14,0-.18-.04-.23-.24-.18-.69-.35-1.36-.51-1.98h-3.13c-.18.68-.37,1.42-.59,2.22h-1.42ZM1080.78,478.73h2.4c-.45-1.76-.81-3.14-1.03-4.17h-.3c-.22,1-.59,2.35-1.08,4.17Z"/>
    <path class="cls-29" d="M1091.15,482.31c-.09,0-.14-.05-.14-.14v-7.44h-2.21c-.09,0-.14-.05-.14-.14v-1.26h6.2c.09,0,.14.05.14.14v1.26h-2.35v7.58h-1.5Z"/>
    <path class="cls-29" d="M1101.43,482.31c-.09,0-.14-.05-.14-.14v-7.44h-2.21c-.09,0-.14-.05-.14-.14v-1.26h6.2c.09,0,.14.05.14.14v1.26h-2.35v7.58h-1.5Z"/>
    <path class="cls-29" d="M1109.82,482.17v-7.44h-.53c-.08,0-.14-.06-.14-.14v-1.26h5.89c.08,0,.14.06.14.14v1.26h-3.72v2.39h2.85c.08,0,.14.05.14.14v1.21h-2.99v2.45h3.58c.08,0,.14.06.14.14v1.26h-5.22c-.08,0-.14-.06-.14-.14Z"/>
    <path class="cls-29" d="M1119.9,482.31c-.09,0-.14-.05-.14-.14v-7.44h-.53c-.09,0-.14-.05-.14-.14v-1.26h3.57c2,0,2.84,1,2.84,2.59v.69c0,1.13-.51,1.92-1.42,2.27.29.55.58,1.06.9,1.66.15.28.28.37.51.37h.41v1.26c0,.09-.05.14-.14.14h-.49c-.82,0-1.22-.18-1.58-.87-.41-.77-.8-1.57-1.21-2.35h-1.12v3.22h-1.46ZM1121.36,474.72v3.02h1.33c.81,0,1.19-.37,1.19-1.13v-.76c0-.36-.08-.64-.27-.83s-.49-.29-.92-.29h-1.33Z"/>
    <path class="cls-29" d="M1130.15,482.31c-.08,0-.14-.06-.14-.14v-8.84h1.78c.14,0,.14.01.33.36,1,1.87,2.18,4.09,3.26,6.22h.24c-.28-1.86-.35-3.27-.35-4.77v-1.81h1.41c.08,0,.14.06.14.14v8.84h-1.49c-.1,0-.21-.01-.41-.36-1.36-2.35-2.37-4.31-3.41-6.4h-.24c.24,1.95.28,3.52.28,4.68-.01.66,0,1.39,0,2.08h-1.41Z"/>
    <path class="cls-29" d="M1147.01,473.81c.08.06.09.12.09.22v1.73h-1.33c-.09,0-.14-.05-.14-.14v-.96c-.31-.12-.64-.18-1.08-.18-1.05,0-1.66.37-1.66,1.12v.26c0,.56.21.83,1.16,1.12l1.23.37c1.58.47,2.08,1.06,2.08,2.25v.55c0,1.49-1.21,2.41-3.27,2.41-1.25,0-2.31-.27-2.75-.71-.05-.05-.08-.1-.08-.24v-1.25h.23c.76.54,1.53.78,2.69.78s1.64-.44,1.64-1.03v-.41c0-.49-.17-.72-1.15-1.03l-1.22-.37c-1.66-.5-2.08-1.27-2.08-2.26v-.58c0-1.39,1.25-2.39,3.17-2.39,1.17,0,2.05.32,2.46.73Z"/>
  </g>
  <line id="line36" class="cls-12" x1="522.81" y1="544.69" x2="552.52" y2="544.69"/>
  <g class="cls-18">
    <path class="cls-29" d="M556.51,552.07c-.09,0-.2-.07-.15-.24.74-2.53,2.6-9.84,3.42-12.72h3.75c.13,0,.19.07.22.2.82,2.99,1.75,6.49,2.77,10.43.19.76.37,1.53.56,2.32h-2.04c-.2,0-.26-.06-.33-.35-.26-1-.5-1.95-.74-2.84h-4.53c-.26.98-.54,2.05-.85,3.19h-2.06ZM559.97,546.93h3.47c-.65-2.53-1.17-4.52-1.49-5.99h-.43c-.32,1.44-.85,3.37-1.56,5.99Z"/>
    <path class="cls-29" d="M575.49,552.07c-.13,0-.2-.07-.2-.2v-10.69h-3.19c-.13,0-.2-.07-.2-.2v-1.81h8.97c.13,0,.2.07.2.2v1.81h-3.4v10.89h-2.17Z"/>
    <path class="cls-29" d="M587.91,551.87v-12.7h2.17c.11,0,.2.09.2.2v10.69h3.32v-1.55h1.91c.11,0,.2.09.2.2v3.35h-7.61c-.11,0-.2-.09-.2-.2Z"/>
    <path class="cls-29" d="M602.19,552.07c-.09,0-.2-.07-.15-.24.74-2.53,2.6-9.84,3.42-12.72h3.75c.13,0,.19.07.22.2.82,2.99,1.75,6.49,2.77,10.43.19.76.37,1.53.56,2.32h-2.04c-.2,0-.26-.06-.33-.35-.26-1-.5-1.95-.74-2.84h-4.53c-.26.98-.54,2.05-.85,3.19h-2.06ZM605.64,546.93h3.47c-.65-2.53-1.17-4.52-1.49-5.99h-.43c-.32,1.44-.85,3.37-1.56,5.99Z"/>
    <path class="cls-29" d="M627.59,539.87c.11.09.13.17.13.31v2.49h-1.93c-.13,0-.2-.07-.2-.2v-1.38c-.45-.17-.93-.26-1.56-.26-1.52,0-2.4.54-2.4,1.6v.37c0,.81.3,1.2,1.67,1.6l1.78.53c2.28.68,3.01,1.53,3.01,3.23v.79c0,2.14-1.75,3.47-4.74,3.47-1.8,0-3.34-.39-3.97-1.01-.07-.07-.11-.15-.11-.35v-1.79h.33c1.1.77,2.21,1.12,3.9,1.12s2.38-.63,2.38-1.47v-.59c0-.7-.24-1.03-1.67-1.47l-1.76-.53c-2.4-.72-3.01-1.83-3.01-3.24v-.83c0-1.99,1.8-3.43,4.59-3.43,1.69,0,2.97.46,3.57,1.05Z"/>
    <path class="cls-29" d="M645.11,547.42v-3.76c0-2.93,1.84-4.87,5.05-4.87,1.88,0,3.18.59,3.77,1.2.07.07.09.17.09.29v3.12h-1.89c-.13,0-.21-.07-.21-.2v-1.94c-.52-.26-1.1-.35-1.8-.35-1.62,0-2.62.88-2.62,2.8v3.52c0,1.12.21,1.94.74,2.45.5.5,1.22.66,2.1.66,1.37,0,2.32-.31,3.45-1.07h.32v1.81c0,.13-.02.2-.09.28-.59.57-1.99,1.07-3.7,1.07-3.45,0-5.22-1.84-5.22-5.01Z"/>
    <path class="cls-29" d="M661.56,552.07c-.13,0-.21-.07-.21-.2v-10.69h-.76c-.13,0-.21-.07-.21-.2v-1.81h5.16c2.9,0,4.1,1.44,4.1,3.72v1c0,1.62-.74,2.76-2.06,3.26.43.79.84,1.53,1.3,2.38.22.41.41.54.74.54h.59v1.81c0,.13-.07.2-.2.2h-.71c-1.19,0-1.76-.26-2.28-1.25-.59-1.11-1.15-2.25-1.75-3.37h-1.62v4.63h-2.12ZM663.68,541.17v4.33h1.93c1.17,0,1.73-.53,1.73-1.62v-1.09c0-.52-.11-.92-.39-1.2-.28-.28-.71-.42-1.34-.42h-1.93Z"/>
    <path class="cls-29" d="M677.08,551.87v-10.69h-.76c-.11,0-.21-.09-.21-.2v-1.81h8.53c.11,0,.2.09.2.2v1.81h-5.38v3.43h4.12c.11,0,.2.07.2.2v1.73h-4.33v3.52h5.18c.11,0,.2.09.2.2v1.81h-7.56c-.11,0-.2-.09-.2-.2Z"/>
    <path class="cls-29" d="M693.22,539.17c.15,0,.22.09.24.26.43,2.14,1.17,5.57,1.78,10.14h.35c.59-2.89,1.78-7.3,2.53-10.4h2.15c.11,0,.19.05.22.2.78,3.06,2.01,7.34,2.58,10.19h.35c.63-4.81,1.04-6.89,1.73-10.4h2.17c.15,0,.24.09.2.28-.43,1.9-1.71,8.42-2.54,12.66h-2.92c-.2,0-.28-.07-.35-.37-.63-2.4-1.54-5.53-2.26-9.29h-.34c-.76,3.93-1.97,8.41-2.3,9.66h-2.91c-.24,0-.32-.07-.37-.37-.54-2.67-1.36-6.8-2.12-10.76-.09-.55-.24-1.23-.37-1.81h2.17Z"/>
  </g>
  <line id="line37" class="cls-12" x1="715.9" y1="544.69" x2="745.61" y2="544.69"/>
  <g class="cls-18">
    <g>
      <path class="cls-31" d="M485.87,596.55c0,.35.06.57.2.71.12.14.32.18.57.18h.5v1.38c0,.16-.08.22-.22.22h-.69c-1.07,0-1.92-.55-2.12-1.67h-.26c-.65,1.2-1.82,1.87-3.41,1.87-1.86,0-3.03-1.06-3.03-2.79v-.63c0-1.73,1.19-2.79,3.11-2.79h3.54v-.91c0-1.57-.59-2.04-2.44-2.04-1.19,0-2.12.18-3.17.57h-.3v-1.42c0-.08.02-.12.06-.16.2-.22,1.78-.69,3.41-.69,2.97,0,4.24,1.04,4.24,3.76v4.42ZM480.78,597.59c1.21,0,2.2-.37,3.29-1.53v-1.77h-3.29c-.53,0-.93.14-1.19.39-.24.22-.36.55-.36.96v.59c0,.88.52,1.36,1.54,1.36Z"/>
      <path class="cls-31" d="M501.73,598.79c0,.16-.08.24-.22.24h-1.72c-2.28,0-3.98-.92-3.98-3.95v-4.92h-2.34c-.14,0-.22-.08-.22-.22v-1.38h2.56v-3.3h1.6c.14,0,.22.08.22.22v3.09h3.88c.14,0,.22.08.22.22v1.38h-4.1v4.8c0,.96.16,1.57.53,1.97.36.33.93.49,1.74.49h1.82v1.38Z"/>
      <path class="cls-31" d="M512.84,597.43v-11.57h-3.29c-.14,0-.22-.08-.22-.22v-1.38h5.11c.14,0,.22.08.22.22v12.94h3.33c.14,0,.22.08.22.22v1.38h-8.93c-.14,0-.22-.08-.22-.22v-1.38h3.78Z"/>
      <path class="cls-31" d="M533.28,596.55c0,.35.06.57.2.71.12.14.32.18.57.18h.5v1.38c0,.16-.08.22-.22.22h-.69c-1.07,0-1.92-.55-2.12-1.67h-.26c-.65,1.2-1.82,1.87-3.41,1.87-1.86,0-3.03-1.06-3.03-2.79v-.63c0-1.73,1.19-2.79,3.11-2.79h3.54v-.91c0-1.57-.59-2.04-2.44-2.04-1.19,0-2.12.18-3.17.57h-.3v-1.42c0-.08.02-.12.06-.16.2-.22,1.78-.69,3.41-.69,2.97,0,4.24,1.04,4.24,3.76v4.42ZM528.19,597.59c1.21,0,2.2-.37,3.29-1.53v-1.77h-3.29c-.53,0-.93.14-1.19.39-.24.22-.36.55-.36.96v.59c0,.88.52,1.36,1.54,1.36Z"/>
      <path class="cls-31" d="M547.71,595.94c0-.73-.36-1.08-1.84-1.42l-1.94-.39c-1.98-.39-2.81-1.2-2.81-2.6,0-1.79,1.56-3.13,4.44-3.13,1.78,0,2.99.43,3.19.65.06.04.06.1.06.16v1.44h-.3c-1.03-.39-1.74-.57-3.05-.57-1.66,0-2.54.57-2.54,1.5,0,.69.34.98,1.68,1.28l1.98.39c2.14.41,2.91,1.3,2.91,2.79,0,2.03-1.66,3.15-4.56,3.15-2.1,0-3.66-.55-4.06-.96-.04-.04-.06-.08-.06-.14v-1.55h.3c1.13.67,2.16.98,3.88.98,1.96,0,2.71-.63,2.71-1.57Z"/>
      <path class="cls-31" d="M564.98,589.19c.08.08.1.14.1.22v1.44h-.3c-.93-.51-1.8-.81-3.03-.81-2.14,0-3.17.98-3.17,3.07v1.47c0,.96.26,1.69.77,2.2.5.51,1.27.77,2.36.77,1.25,0,2.1-.29,3.07-.79h.3v1.44c0,.06-.02.12-.06.16-.4.41-1.74.89-3.43.89-3.03,0-4.87-1.79-4.87-4.52v-1.79c0-2.91,2-4.58,4.95-4.58,1.76,0,3.01.55,3.31.85Z"/>
      <path class="cls-31" d="M574.81,597.43v-7.28h-2.16c-.14,0-.22-.08-.22-.22v-1.38h3.7s.32,1,.46,1.85h.22c.85-1.24,2-2.04,3.53-2.04.67,0,1.07.14,1.19.26.06.06.08.12.08.24v1.57h-.3c-.46-.14-.85-.2-1.35-.2-1.11,0-2.18.35-3.33,1.51v5.68h3.47c.14,0,.22.08.22.22v1.38h-7.82c-.14,0-.22-.08-.22-.22v-1.38h2.54Z"/>
      <path class="cls-31" d="M596.93,592.77v1.44c0,.14-.08.22-.22.22h-6.73v.45c0,.87.24,1.53.67,1.99.53.53,1.39.77,2.54.77,1.41,0,2.3-.24,3.29-.79h.3v1.4c0,.06-.02.1-.08.16-.5.49-1.96.85-3.53.85-3.29,0-4.99-1.57-4.99-4.37v-2.04c0-3.05,2.02-4.48,4.48-4.48s4.28,1.42,4.28,4.42ZM589.98,592.81v.33h5.17v-.39c0-1.04-.22-1.77-.69-2.24-.42-.41-1.03-.59-1.8-.59-1.7,0-2.67.85-2.67,2.89Z"/>
      <path class="cls-31" d="M609.05,590.31c.12,0,.22.06.26.22.44,1.93.93,4.25,1.35,7.12h.36c.24-3.48.53-6.29.87-9.09h1.6c.16,0,.24.04.2.28-.44,3.01-1.01,6.81-1.54,10.19h-1.98c-.26,0-.34-.08-.42-.49-.38-1.59-.83-3.5-1.17-6.59h-.34c-.36,3.15-.69,4.6-1.27,7.08h-1.98c-.3,0-.4-.08-.46-.55-.34-2.28-.97-6.51-1.47-9.91h1.64c.14,0,.2.06.22.24.24,2.01.67,5.61.87,8.85h.36c.42-2.89.87-5.19,1.41-7.34h1.49Z"/>
      <path class="cls-31" d="M622.87,599.16c-.14,0-.22-.08-.22-.22v-2.79h2.87c.14,0,.22.08.22.22v2.79h-2.87Z"/>
      <path class="cls-31" d="M641.98,590.12h.3v-5.84h1.6c.14,0,.22.08.22.22v14.54h-1.61c-.14,0-.22-.08-.22-.22v-1.38h-.3c-.73,1.14-1.78,1.79-3.15,1.79-2.04,0-3.45-1.44-3.45-3.83v-3.09c0-2.48,1.41-3.95,3.49-3.95,1.41,0,2.38.65,3.11,1.77ZM639.35,597.49c1.05,0,2.04-.45,2.93-1.69v-3.97c-.89-1.22-1.88-1.75-2.93-1.75-1.33,0-2.16.88-2.16,2.52v2.5c0,.83.22,1.46.61,1.85.38.37.89.55,1.54.55Z"/>
      <path class="cls-31" d="M660.14,592.77v1.44c0,.14-.08.22-.22.22h-6.73v.45c0,.87.24,1.53.67,1.99.53.53,1.38.77,2.54.77,1.41,0,2.3-.24,3.29-.79h.3v1.4c0,.06-.02.1-.08.16-.5.49-1.96.85-3.53.85-3.29,0-4.99-1.57-4.99-4.37v-2.04c0-3.05,2.02-4.48,4.48-4.48s4.28,1.42,4.28,4.42ZM653.19,592.81v.33h5.17v-.39c0-1.04-.22-1.77-.69-2.24-.42-.41-1.03-.59-1.8-.59-1.7,0-2.67.85-2.67,2.89Z"/>
      <path class="cls-31" d="M668.58,588.78c.93,2.73,1.9,5.41,2.89,8.95h.3c.99-3.52,2-6.31,2.93-9.17h1.66c.14,0,.24.12.18.29-1.19,3.38-2.36,6.77-3.56,10.17h-2.32c-.32,0-.44-.08-.63-.63-1.07-3.03-2.26-6.43-3.45-9.83h1.78c.12,0,.18.06.22.22Z"/>
      <path class="cls-31" d="M685.25,601.37c-.06.16-.18.22-.3.22h-1.7c.3-.71.57-1.44.85-2.14,2-5,4-10.03,5.98-15.03.04-.1.12-.14.24-.14h1.72c-2.26,5.68-4.52,11.41-6.79,17.09Z"/>
      <path class="cls-31" d="M705.75,595.94c0-.73-.36-1.08-1.84-1.42l-1.94-.39c-1.98-.39-2.81-1.2-2.81-2.6,0-1.79,1.56-3.13,4.44-3.13,1.78,0,2.99.43,3.19.65.06.04.06.1.06.16v1.44h-.3c-1.03-.39-1.74-.57-3.05-.57-1.66,0-2.54.57-2.54,1.5,0,.69.34.98,1.68,1.28l1.98.39c2.14.41,2.91,1.3,2.91,2.79,0,2.03-1.66,3.15-4.56,3.15-2.1,0-3.66-.55-4.06-.96-.04-.04-.06-.08-.06-.14v-1.55h.3c1.13.67,2.16.98,3.88.98,1.96,0,2.71-.63,2.71-1.57Z"/>
      <path class="cls-31" d="M716.05,588.8c1.29,3.83,2.65,7.16,3.11,8.73h.36c.75-2.48,1.84-6.1,2.69-8.97h1.56c.14,0,.3.12.24.31-1.27,4.01-2.52,7.83-3.61,11.47-.55,1.87-1.48,2.62-3.25,2.62h-1.8c-.14,0-.22-.06-.22-.22v-1.4h1.88c.89,0,1.45-.39,1.72-1.32.1-.29.24-.77.42-1.34h-.83c-.38,0-.46-.04-.77-.81-.47-1.2-2.34-5.96-3.58-9.32h1.7c.24,0,.32.06.38.24Z"/>
      <path class="cls-31" d="M730.94,599.03c-.14,0-.22-.08-.22-.22v-10.25h1.6c.14,0,.22.08.22.22v1.53h.3c.91-1.18,2.02-1.97,3.43-1.97,1.78,0,2.79,1.22,2.79,2.95v7.73h-1.6c-.14,0-.22-.08-.22-.22v-7.16c0-1.06-.54-1.57-1.48-1.57s-2.12.57-3.21,1.77v7.18h-1.61Z"/>
      <path class="cls-31" d="M754.53,596.55c0,.35.06.57.2.71.12.14.32.18.57.18h.49v1.38c0,.16-.08.22-.22.22h-.69c-1.07,0-1.92-.55-2.12-1.67h-.26c-.65,1.2-1.82,1.87-3.41,1.87-1.86,0-3.03-1.06-3.03-2.79v-.63c0-1.73,1.19-2.79,3.11-2.79h3.54v-.91c0-1.57-.59-2.04-2.44-2.04-1.19,0-2.12.18-3.17.57h-.3v-1.42c0-.08.02-.12.06-.16.2-.22,1.78-.69,3.41-.69,2.97,0,4.24,1.04,4.24,3.76v4.42ZM749.44,597.59c1.21,0,2.2-.37,3.29-1.53v-1.77h-3.29c-.54,0-.93.14-1.19.39-.24.22-.36.55-.36.96v.59c0,.88.52,1.36,1.54,1.36Z"/>
      <path class="cls-31" d="M763.93,588.56c.14,0,.22.08.22.22v1.49h.28c.73-1.22,1.8-1.93,3.17-1.93,2.04,0,3.45,1.46,3.45,3.85v3.07c0,2.48-1.41,3.95-3.49,3.95-1.31,0-2.38-.53-3.13-1.57h-.28v5.31h-1.6c-.14,0-.22-.08-.22-.22v-14.18h1.61ZM764.15,592v4.13c.79.94,1.82,1.36,2.93,1.36,1.33,0,2.16-.88,2.16-2.5v-2.52c0-.83-.22-1.44-.61-1.85-.38-.35-.89-.55-1.54-.55-1.03,0-2.02.61-2.93,1.93Z"/>
      <path class="cls-31" d="M784.77,595.94c0-.73-.36-1.08-1.84-1.42l-1.94-.39c-1.98-.39-2.81-1.2-2.81-2.6,0-1.79,1.56-3.13,4.44-3.13,1.78,0,2.99.43,3.19.65.06.04.06.1.06.16v1.44h-.3c-1.03-.39-1.74-.57-3.05-.57-1.66,0-2.54.57-2.54,1.5,0,.69.34.98,1.68,1.28l1.98.39c2.14.41,2.91,1.3,2.91,2.79,0,2.03-1.66,3.15-4.56,3.15-2.1,0-3.66-.55-4.06-.96-.04-.04-.06-.08-.06-.14v-1.55h.3c1.13.67,2.16.98,3.88.98,1.96,0,2.71-.63,2.71-1.57Z"/>
      <path class="cls-31" d="M802.37,592.77v1.44c0,.14-.08.22-.22.22h-6.73v.45c0,.87.24,1.53.67,1.99.53.53,1.38.77,2.54.77,1.41,0,2.3-.24,3.29-.79h.3v1.4c0,.06-.02.1-.08.16-.5.49-1.96.85-3.53.85-3.29,0-4.99-1.57-4.99-4.37v-2.04c0-3.05,2.02-4.48,4.48-4.48s4.28,1.42,4.28,4.42ZM795.42,592.81v.33h5.17v-.39c0-1.04-.22-1.77-.69-2.24-.42-.41-1.03-.59-1.8-.59-1.7,0-2.67.85-2.67,2.89Z"/>
    </g>
  </g>
</svg>