<?xml version="1.0" encoding="UTF-8" standalone="no"?>
<svg
   width="190"
   height="36"
   viewBox="0 0 190 36"
   version="1.1"
   id="svg9"
   sodipodi:docname="horizon-sidebar-compact-dark.svg"
   inkscape:version="1.4.3 (0d15f75, 2025-12-25)"
   xmlns:inkscape="http://www.inkscape.org/namespaces/inkscape"
   xmlns:sodipodi="http://sodipodi.sourceforge.net/DTD/sodipodi-0.dtd"
   xmlns="http://www.w3.org/2000/svg"
   xmlns:svg="http://www.w3.org/2000/svg">
  <sodipodi:namedview
     id="namedview1"
     pagecolor="#ffffff"
     bordercolor="#000000"
     borderopacity="0.25"
     inkscape:showpageshadow="2"
     inkscape:pageopacity="0.0"
     inkscape:pagecheckerboard="0"
     inkscape:deskcolor="#d1d1d1"
     inkscape:zoom="3.1780942"
     inkscape:cx="87.31648"
     inkscape:cy="37.443824"
     inkscape:window-width="1470"
     inkscape:window-height="799"
     inkscape:window-x="0"
     inkscape:window-y="33"
     inkscape:window-maximized="0"
     inkscape:current-layer="svg9" />
  <defs
     id="defs1">
    <style
       id="style1">@import url('https://fonts.googleapis.com/css2?family=Recursive:slnt,wght,CASL,CRSV,MONO@-15..0,300..900,0..1,0..1,0..1&amp;display=swap');</style>
  </defs>
  <!-- Icon (scaled to 36px) -->
  <g
     transform="scale(0.327)"
     id="g9"
     inkscape:label="Logo">
    <rect
       width="110"
       height="110"
       fill="#0c1220"
       id="rect1"
       x="0"
       y="0" />
    <line
       x1="18"
       y1="50"
       x2="92"
       y2="50"
       stroke="#1e90ff"
       stroke-width="1.5"
       stroke-linecap="square"
       opacity="0.25"
       id="line1" />
    <path
       d="m 20,50 a 35,32 0 0 1 70,0"
       fill="none"
       stroke="#f97316"
       stroke-width="5"
       stroke-linecap="square"
       id="path1" />
    <path
       d="m 34,50 a 21,19 0 0 1 42,0"
       fill="none"
       stroke="#f97316"
       stroke-width="2.5"
       stroke-linecap="square"
       opacity="0.45"
       id="path2" />
    <circle
       cx="55"
       cy="50"
       r="4.5"
       fill="#f97316"
       id="circle2" />
    <line
       x1="55"
       y1="55"
       x2="26"
       y2="94"
       stroke="#1e90ff"
       stroke-width="3.5"
       stroke-linecap="square"
       id="line2" />
    <line
       x1="55"
       y1="55"
       x2="84"
       y2="94"
       stroke="#1e90ff"
       stroke-width="3.5"
       stroke-linecap="square"
       id="line3" />
    <line
       x1="55"
       y1="55"
       x2="18"
       y2="82"
       stroke="#f97316"
       stroke-width="2"
       stroke-linecap="square"
       opacity="0.45"
       id="line4" />
    <line
       x1="55"
       y1="55"
       x2="92"
       y2="82"
       stroke="#f97316"
       stroke-width="2"
       stroke-linecap="square"
       opacity="0.45"
       id="line5" />
    <g
       stroke="#5a6f8a"
       stroke-width="1.5"
       fill="none"
       opacity="0.3"
       id="g8">
      <polyline
         points="8,20 8,8 20,8"
         id="polyline5" />
      <polyline
         points="90,8 102,8 102,20"
         id="polyline6" />
      <polyline
         points="102,90 102,102 90,102"
         id="polyline7" />
      <polyline
         points="20,102 8,102 8,90"
         id="polyline8" />
    </g>
  </g>
  <!-- Wordmark only -->
  <path
     style="font-weight:bold;font-size:7.89919px;line-height:0px;font-family:'Rec Mono Linear';-inkscape-font-specification:'Rec Mono Linear Bold';letter-spacing:0px;word-spacing:0.00629302px;fill:#1e90ff;stroke-width:0.629302"
     d="m 48.05577,24.65585 q 0.552943,0 0.947903,0.134286 q 0.394959,0.126387 0.576641,0.308068 q 0.0316,0.0316 0.0395,0.06319 q 0.0079,0.0316 0.0079,0.07899 q 0,0.150084 0,0.339665 q 0,0.18958 0,0.379161 q 0,0.189581 0,0.371262 q -0.221177,0 -0.458153,0 q -0.236976,0 -0.466052,0 q -0.0395,0 -0.06319,-0.0237 q -0.0237,-0.0237 -0.0237,-0.06319 q 0,-0.07899 0,-0.157984 q 0,-0.07899 0,-0.165883 q 0,-0.09479 0,-0.19748 q 0,-0.102689 0,-0.229076 l 0.221177,0.284371 q -0.189581,-0.07899 -0.402859,-0.118488 q -0.205379,-0.0395 -0.434455,-0.0395 q -0.213278,0 -0.371262,0.0316 q -0.157984,0.0316 -0.276472,0.110588 q -0.110588,0.07109 -0.173782,0.189581 q -0.05529,0.110588 -0.05529,0.268572 v 0.165883 q 0,0.150085 0.0474,0.260673 q 0.05529,0.110589 0.18958,0.189581 q 0.142186,0.07899 0.418657,0.165883 l 0.758323,0.229077 q 0.363362,0.110588 0.608237,0.244874 q 0.252774,0.126387 0.39496,0.29227 q 0.142185,0.165883 0.205379,0.379162 q 0.06319,0.213278 0.06319,0.489749 v 0.363363 q 0,0.458153 -0.244875,0.797818 q -0.244874,0.331766 -0.710927,0.513448 q -0.458153,0.173782 -1.105886,0.173782 q -0.379161,0 -0.718827,-0.04739 q -0.331766,-0.0474 -0.58454,-0.142186 q -0.244875,-0.102689 -0.38706,-0.229076 q -0.0237,-0.0237 -0.0395,-0.04739 q -0.0079,-0.0316 -0.0079,-0.10269 q 0,-0.142185 0,-0.276472 q 0,-0.134286 0,-0.28437 q 0,-0.150085 0,-0.308069 h 0.150085 q 0.355463,0.236976 0.742523,0.355464 q 0.387061,0.110588 0.916306,0.110588 q 0.48975,0 0.710928,-0.157983 q 0.229076,-0.157984 0.229076,-0.379161 v -0.268573 q 0,-0.134286 -0.0474,-0.221177 q -0.0395,-0.09479 -0.173782,-0.173782 q -0.134287,-0.08689 -0.426557,-0.165883 l -0.750423,-0.229077 q -0.38706,-0.118488 -0.639834,-0.268572 q -0.252774,-0.157984 -0.394959,-0.331766 q -0.134287,-0.173783 -0.19748,-0.371262 q -0.0553,-0.205379 -0.0553,-0.426557 v -0.379161 q 0,-0.323866 0.134287,-0.592439 q 0.142185,-0.276472 0.402858,-0.473951 q 0.260674,-0.205379 0.624036,-0.308069 Q 47.605516,24.65585 48.05577,24.65585 Z m 2.440853,0.150084 h 3.925897 q 0.0395,0 0.0553,0.0158 q 0.0158,0.0079 0.0237,0.0237 q 0.0158,0.0158 0.0158,0.04739 q 0,0.244875 0,0.442355 q 0,0.189581 0,0.434455 h -3.933797 q -0.0237,0 -0.0474,-0.0079 q -0.0158,-0.0158 -0.0316,-0.0316 q -0.0079,-0.0237 -0.0079,-0.0474 q 0,-0.244875 0,-0.442354 q 0,-0.19748 0,-0.434456 z m 1.090088,2.282866 h 2.377656 q 0.0316,0 0.0474,0.0158 q 0.0158,0.0079 0.0237,0.0237 q 0.0158,0.0158 0.0158,0.0474 q 0,0.165883 0,0.308069 q 0,0.142185 0,0.268572 q 0,0.126387 0,0.268573 h -2.464548 z m -0.616137,3.246567 q -0.0237,0 -0.0395,0 q -0.0158,-0.0079 -0.0316,-0.0158 q -0.0079,-0.0158 -0.0158,-0.0316 q 0,-0.0158 0,-0.0395 q 0,-0.213278 0,-0.616137 q 0,-0.410758 0,-0.932104 q 0,-0.529246 0,-1.105887 q 0,-0.58454 0,-1.153281 q 0,-0.576641 0,-1.058492 h 1.192778 l -0.05529,0.173782 q 0,0.181682 0,0.371262 q 0,0.189581 0,0.379161 q 0,0.363363 0,0.750423 q 0,0.387061 0,0.774121 q 0,0.38706 0,0.78202 q 0,0.38706 0,0.758322 h 2.401353 q 0.0395,0 0.06319,0.0237 q 0.0316,0.0237 0.0316,0.06319 q 0,0.229077 0,0.442355 q 0,0.205379 0,0.434455 z m 4.265566,-5.529433 h 3.925898 q 0.0395,0 0.05529,0.0158 q 0.0158,0.0079 0.0237,0.0237 q 0.0158,0.0158 0.0158,0.04739 q 0,0.244875 0,0.442355 q 0,0.189581 0,0.434455 h -3.933797 q -0.0237,0 -0.0474,-0.0079 q -0.0158,-0.0158 -0.0316,-0.0316 q -0.0079,-0.0237 -0.0079,-0.0474 q 0,-0.244875 0,-0.442354 q 0,-0.19748 0,-0.434456 z m 1.090088,2.282866 h 2.377657 q 0.0316,0 0.0474,0.0158 q 0.0158,0.0079 0.0237,0.0237 q 0.0158,0.0158 0.0158,0.0474 q 0,0.165883 0,0.308069 q 0,0.142185 0,0.268572 q 0,0.126387 0,0.268573 h -2.464548 z m -0.616136,3.246567 q -0.0237,0 -0.0395,0 q -0.0158,-0.0079 -0.0316,-0.0158 q -0.0079,-0.0158 -0.0158,-0.0316 q 0,-0.0158 0,-0.0395 q 0,-0.213278 0,-0.616137 q 0,-0.410758 0,-0.932104 q 0,-0.529246 0,-1.105887 q 0,-0.58454 0,-1.153281 q 0,-0.576641 0,-1.058492 h 1.192777 l -0.05529,0.173782 q 0,0.181682 0,0.371262 q 0,0.189581 0,0.379161 q 0,0.363363 0,0.750423 q 0,0.387061 0,0.774121 q 0,0.38706 0,0.78202 q 0,0.38706 0,0.758322 h 2.401354 q 0.0395,0 0.06319,0.0237 q 0.0316,0.0237 0.0316,0.06319 q 0,0.229077 0,0.442355 q 0,0.205379 0,0.434455 z m 10.828189,0 q -0.260674,0 -0.521347,0 q -0.260673,0 -0.529246,0 q -0.0237,0 -0.0474,-0.0079 q -0.0158,-0.0158 -0.0316,-0.0316 q -0.0079,-0.0158 -0.0079,-0.0474 q 0,-0.639834 0,-1.240173 q 0,-0.600338 0,-1.192777 q 0,-0.59244 0,-1.192778 q 0,-0.608238 0,-1.232274 h 1.232274 l -0.09479,0.213278 q 0,0.213279 0,0.426557 q 0,0.213278 0,0.418657 q 0,0.521346 0,1.034794 q 0,0.505548 0,1.018995 q 0,0.513447 0,1.058492 q 0,0.205379 0,0.402858 q 0,0.19748 0,0.371262 z m -1.587737,-5.529433 h 3.69682 q 0.0316,0 0.0474,0.0158 q 0.0237,0.0079 0.0316,0.0237 q 0.0158,0.0158 0.0158,0.04739 q 0,0.165883 0,0.308069 q 0,0.134286 0,0.268572 q 0,0.134286 0,0.300169 h -3.696821 q -0.0237,0 -0.04739,-0.0079 q -0.0237,-0.0158 -0.0395,-0.0316 q -0.0079,-0.0237 -0.0079,-0.0474 q 0,-0.244875 0,-0.442354 q 0,-0.19748 0,-0.434456 z m 1.090088,2.480346 h 2.211773 q 0.0474,0 0.07109,0.0237 q 0.0237,0.0237 0.0237,0.06319 q 0,0.165883 0,0.315968 q 0,0.150084 0,0.28437 q 0,0.134287 0,0.284371 h -2.306563 z m 7.425242,3.049087 q -0.181682,0 -0.355464,0 q -0.173782,0 -0.347564,0 q -0.173783,0 -0.347565,0 q -0.0158,0 -0.0316,0 q -0.0158,-0.0079 -0.0237,-0.0158 q -0.0079,-0.0079 -0.0158,-0.0158 q -0.0079,-0.0079 -0.0158,-0.0237 q 0,-0.0158 0,-0.0316 q 0,-0.67933 0,-1.358661 q 0,-0.67933 0,-1.35866 q 0,-0.68723 0,-1.36656 q 0,-0.67933 0,-1.358661 q 0.173782,0 0.347565,0 q 0.173782,0 0.347564,0 q 0.181681,0 0.355463,0 q 0.0316,0 0.0474,0.0158 q 0.0158,0.0079 0.0237,0.0237 q 0.0158,0.0158 0.0158,0.04739 q 0,0.568742 0,1.145383 q 0,0.576641 0,1.153282 q 0,0.568741 0,1.145382 q 0,0.568742 0,1.137483 q 0,0.236976 0,0.458154 q 0,0.213278 0,0.402858 z m -2.583036,0.08689 q -0.28437,0 -0.505548,-0.08689 q -0.221177,-0.09479 -0.371262,-0.268572 q -0.142185,-0.173782 -0.221177,-0.410758 q -0.07109,-0.244875 -0.07109,-0.545044 q 0,-0.592439 0,-1.17698 q 0,-0.58454 0,-1.16908 q 0,-0.592439 0,-1.16908 q 0,-0.19748 0,-0.394959 q 0,-0.19748 0,-0.39496 q 0.268573,0 0.529246,0 q 0.260673,0 0.521347,0 q 0.0316,0 0.04739,0.0158 q 0.0158,0.0079 0.0237,0.0237 q 0.0158,0.0158 0.0158,0.04739 q 0,0.663532 0,1.358661 q 0,0.68723 0,1.382358 q 0,0.695129 0,1.350762 q 0,0.213278 0.102689,0.331766 q 0.110589,0.110588 0.315968,0.110588 q 0.18958,0 0.38706,-0.07899 q 0.205379,-0.07899 0.418657,-0.244874 q 0.213278,-0.165883 0.426556,-0.426557 v 0.971601 h -0.323866 q -0.150085,0.268572 -0.339666,0.442354 q -0.18958,0.165883 -0.426556,0.244875 q -0.229076,0.08689 -0.529246,0.08689 z m 6.216666,-2.614632 q 0.205379,0.363363 0.379161,0.679331 q 0.173782,0.308068 0.371262,0.67933 q 0.07109,0.118488 0.126387,0.165883 q 0.06319,0.0395 0.150085,0.0395 q 0.0395,0 0.05529,0 q 0.0237,0 0.0553,0 h 0.150084 q 0,0.236976 0,0.442355 q 0,0.197479 0,0.434455 q 0,0.0395 -0.0237,0.06319 q -0.0237,0.0237 -0.06319,0.0237 q -0.05529,0 -0.150085,0 q -0.08689,0 -0.165883,0 q -0.268572,0 -0.450253,-0.0395 q -0.181682,-0.0474 -0.315968,-0.157984 Q 77.091605,30.0194 76.981016,29.814021 Q 76.775637,29.411162 76.570258,29.016202 Q 76.372779,28.613344 76.1674,28.218384 Z m -2.899003,-3.001692 q 0.545045,0 1.090089,0 q 0.545044,0 1.090088,0 q 0.48185,0 0.821516,0.110589 q 0.339665,0.110589 0.552943,0.331766 q 0.213278,0.213278 0.308068,0.513447 q 0.10269,0.300169 0.10269,0.671431 v 0.442355 q 0,0.363363 -0.110589,0.655633 q -0.110588,0.284371 -0.323867,0.48975 q -0.205379,0.197479 -0.505548,0.300169 q -0.300169,0.102689 -0.67933,0.102689 q -0.236976,0 -0.481851,0 q -0.236975,0 -0.48185,0 l -0.08689,0.04739 v -0.979499 q 0.229076,0 0.458153,0 q 0.236975,0 0.466052,0 q 0.221177,0 0.363363,-0.06319 q 0.142185,-0.06319 0.205379,-0.197479 q 0.07109,-0.142186 0.07109,-0.339666 v -0.513447 q 0,-0.150085 -0.0395,-0.260673 q -0.0316,-0.110589 -0.110588,-0.189581 q -0.07109,-0.07109 -0.19748,-0.110588 q -0.118488,-0.0474 -0.29227,-0.0474 q -0.355464,0 -0.718826,0 q -0.355464,0 -0.710928,0 q -0.347564,0 -0.703027,0 q -0.0395,0 -0.06319,-0.0237 q -0.0237,-0.0237 -0.0237,-0.06319 q 0,-0.229076 0,-0.434455 q 0,-0.213278 0,-0.442355 z m 1.485048,5.529433 q -0.260673,0 -0.505548,0 q -0.236976,0 -0.505548,0 q -0.0395,0 -0.06319,-0.0237 q -0.0237,-0.0237 -0.0237,-0.06319 q 0,-0.639834 0,-1.232274 q 0,-0.600338 0,-1.192777 q 0,-0.592439 0,-1.192778 q 0,-0.608238 0,-1.232274 h 1.192777 l -0.09479,0.213279 q 0,0.260673 0,0.521346 q 0,0.252774 0,0.48975 q 0,0.48975 0,0.963701 q 0,0.466052 0,0.955802 q 0,0.481851 0,1.018996 q 0,0.213278 0,0.410757 q 0,0.19748 0,0.363363 z m 3.420355,-5.529433 h 3.839006 q 0.0395,0 0.06319,0.0237 q 0.0316,0.0237 0.0316,0.06319 q 0,0.244875 0,0.442355 q 0,0.189581 0,0.434455 h -3.839006 q -0.0237,0 -0.04739,-0.0079 q -0.0158,-0.0158 -0.0316,-0.0316 q -0.0158,-0.0237 -0.0158,-0.0474 q 0,-0.244875 0,-0.442354 q 0,-0.19748 0,-0.434456 z m 2.53564,5.529433 q -0.260674,0 -0.521347,0 q -0.260673,0 -0.529246,0 q -0.0395,0 -0.06319,-0.0237 q -0.0237,-0.0237 -0.0237,-0.06319 q 0,-0.639834 0,-1.240173 q 0,-0.600338 0,-1.200677 q 0,-0.608237 0,-1.216475 q 0,-0.616137 0,-1.240173 h 1.224375 l -0.08689,0.213278 q 0,0.157984 0,0.339666 q 0,0.173782 0,0.339665 q 0,0.165883 0,0.315967 q 0,0.505549 0,0.987399 q 0,0.473952 0,0.971601 q 0,0.489749 0,1.034793 q 0,0.221178 0,0.418657 q 0,0.19748 0,0.363363 z m 2.298667,-5.529433 q 0.268573,0 0.513447,0 q 0.244875,0 0.505549,0 q 0.0395,0 0.06319,0.0237 q 0.0237,0.0237 0.0237,0.06319 q 0,0.679331 0,1.358661 q 0,0.67933 0,1.36656 q 0,0.67933 0,1.358661 q 0,0.67933 0,1.35866 q -0.260674,0 -0.505548,0 q -0.244875,0 -0.513448,0 q -0.0237,0 -0.04739,-0.0079 q -0.0158,-0.0158 -0.0316,-0.0316 q -0.0079,-0.0158 -0.0079,-0.0474 q 0,-0.766221 0,-1.532443 q 0,-0.77412 0,-1.540342 q 0,-0.766221 0,-1.532443 q 0,-0.213278 0,-0.418657 q 0,-0.205379 0,-0.418657 z m 0.48975,2.282866 h 1.690426 q 0.126388,0 0.244875,0 q 0.118488,0 0.236976,0 l 0.276472,-0.07109 l 0.221177,1.034794 h -2.583035 q -0.0237,0 -0.0395,0 q -0.0158,-0.0079 -0.0316,-0.0158 q -0.0079,-0.0158 -0.0158,-0.0316 q 0,-0.0158 0,-0.0395 z m 3.254466,3.246567 q -0.260673,0 -0.505548,0 q -0.244875,0 -0.513447,0 q -0.0237,0 -0.0474,-0.0079 q -0.0158,-0.0158 -0.0316,-0.0316 q -0.0079,-0.0158 -0.0079,-0.0474 q 0,-0.67933 0,-1.358661 q 0,-0.67933 0,-1.35866 q 0,-0.68723 0,-1.36656 q 0,-0.67933 0,-1.358661 q 0.268572,0 0.513447,0 q 0.244875,0 0.505548,0 q 0.0237,0 0.0395,0.0079 q 0.0158,0 0.0237,0.0158 q 0.0158,0.0079 0.0158,0.0237 q 0.0079,0.0158 0.0079,0.0395 q 0,0.568742 0,1.145383 q 0,0.576641 0,1.153282 q 0,0.568741 0,1.145382 q 0,0.568742 0,1.137483 q 0,0.236976 0,0.458154 q 0,0.213278 0,0.402858 z m 0.734628,-5.529433 h 3.925897 q 0.0395,0 0.05529,0.0158 q 0.0158,0.0079 0.0237,0.0237 q 0.0158,0.0158 0.0158,0.04739 q 0,0.244875 0,0.442355 q 0,0.189581 0,0.434455 h -3.933797 q -0.0237,0 -0.04739,-0.0079 q -0.0158,-0.0158 -0.0316,-0.0316 q -0.0079,-0.0237 -0.0079,-0.0474 q 0,-0.244875 0,-0.442354 q 0,-0.19748 0,-0.434456 z m 1.090088,2.282866 h 2.377656 q 0.0316,0 0.0474,0.0158 q 0.0158,0.0079 0.0237,0.0237 q 0.0158,0.0158 0.0158,0.0474 q 0,0.165883 0,0.308069 q 0,0.142185 0,0.268572 q 0,0.126387 0,0.268573 h -2.464547 z m -0.616137,3.246567 q -0.0237,0 -0.0395,0 q -0.0158,-0.0079 -0.0316,-0.0158 q -0.0079,-0.0158 -0.0158,-0.0316 q 0,-0.0158 0,-0.0395 q 0,-0.213278 0,-0.616137 q 0,-0.410758 0,-0.932104 q 0,-0.529246 0,-1.105887 q 0,-0.58454 0,-1.153281 q 0,-0.576641 0,-1.058492 h 1.192778 l -0.05529,0.173782 q 0,0.181682 0,0.371262 q 0,0.189581 0,0.379161 q 0,0.363363 0,0.750423 q 0,0.387061 0,0.774121 q 0,0.38706 0,0.78202 q 0,0.38706 0,0.758322 h 2.401353 q 0.0395,0 0.06319,0.0237 q 0.0316,0.0237 0.0316,0.06319 q 0,0.229077 0,0.442355 q 0,0.205379 0,0.434455 z m 7.164569,-2.527741 q 0.205379,0.363363 0.379161,0.679331 q 0.173782,0.308068 0.371262,0.67933 q 0.07109,0.118488 0.126387,0.165883 q 0.06319,0.0395 0.150085,0.0395 q 0.0395,0 0.05529,0 q 0.0237,0 0.05529,0 h 0.150085 q 0,0.236976 0,0.442355 q 0,0.197479 0,0.434455 q 0,0.0395 -0.0237,0.06319 q -0.0237,0.0237 -0.06319,0.0237 q -0.0553,0 -0.150085,0 q -0.08689,0 -0.165883,0 q -0.268572,0 -0.450254,-0.0395 q -0.181681,-0.0474 -0.315967,-0.157984 Q 96.049676,30.0194 95.939087,29.814021 q -0.205379,-0.402859 -0.410758,-0.797819 q -0.19748,-0.402858 -0.402858,-0.797818 z m -2.899003,-3.001692 q 0.545044,0 1.090088,0 q 0.545045,0 1.090089,0 q 0.48185,0 0.821515,0.110589 q 0.339666,0.110589 0.552944,0.331766 q 0.213278,0.213278 0.308068,0.513447 q 0.10269,0.300169 0.10269,0.671431 v 0.442355 q 0,0.363363 -0.110589,0.655633 q -0.110589,0.284371 -0.323867,0.48975 q -0.205379,0.197479 -0.505548,0.300169 q -0.300169,0.102689 -0.67933,0.102689 q -0.236976,0 -0.481851,0 q -0.236976,0 -0.481851,0 l -0.08689,0.04739 v -0.979499 q 0.229077,0 0.458153,0 q 0.236976,0 0.466053,0 q 0.221177,0 0.363362,-0.06319 q 0.142186,-0.06319 0.205379,-0.197479 q 0.07109,-0.142186 0.07109,-0.339666 v -0.513447 q 0,-0.150085 -0.0395,-0.260673 q -0.0316,-0.110589 -0.110589,-0.189581 q -0.07109,-0.07109 -0.197479,-0.110588 q -0.118488,-0.0474 -0.29227,-0.0474 q -0.355464,0 -0.718827,0 q -0.355463,0 -0.710927,0 q -0.347564,0 -0.703028,0 q -0.0395,0 -0.06319,-0.0237 q -0.0237,-0.0237 -0.0237,-0.06319 q 0,-0.229076 0,-0.434455 q 0,-0.213278 0,-0.442355 z m 1.485048,5.529433 q -0.260673,0 -0.505548,0 q -0.236976,0 -0.505548,0 q -0.0395,0 -0.06319,-0.0237 q -0.0237,-0.0237 -0.0237,-0.06319 q 0,-0.639834 0,-1.232274 q 0,-0.600338 0,-1.192777 q 0,-0.592439 0,-1.192778 q 0,-0.608238 0,-1.232274 h 1.192777 l -0.09479,0.213279 q 0,0.260673 0,0.521346 q 0,0.252774 0,0.48975 q 0,0.48975 0,0.963701 q 0,0.466052 0,0.955802 q 0,0.481851 0,1.018996 q 0,0.213278 0,0.410757 q 0,0.19748 0,0.363363 z m 6.12977,0.07109 q -0.22117,0 -0.45815,0 q -0.23697,0 -0.47395,0 q -0.236976,0 -0.466052,0 q -0.0237,0 -0.04739,-0.0158 q -0.0158,-0.0079 -0.0316,-0.0316 q -0.0079,-0.0158 -0.0079,-0.0395 v -1.398157 q 0.229076,0 0.466052,0 q 0.236976,0 0.473951,0 q 0.23698,0 0.45815,0 q 0.0316,0 0.0474,0.0158 q 0.0158,0.0079 0.0237,0.0237 q 0.0158,0.0158 0.0158,0.0474 z m 7.53423,-2.282866 h 1.33496 q 0.12639,0 0.24488,0 q 0.12638,0 0.23697,0 l 0.27647,-0.07109 l 0.11059,0.497649 l 0.11059,0.505548 h -2.24337 q -0.0237,0 -0.0474,-0.0079 q -0.0158,-0.0158 -0.0316,-0.0316 q -0.008,-0.0237 -0.008,-0.04739 z m 0.10269,2.211773 q -0.24488,0 -0.49765,0 q -0.24487,0 -0.49765,0 q -0.0237,0 -0.0474,-0.0079 q -0.0158,-0.0158 -0.0237,-0.0316 q 0,-0.0237 0.008,-0.06319 q 0.0395,-0.181682 0.11849,-0.513448 q 0.079,-0.331766 0.18168,-0.758322 q 0.10269,-0.434455 0.22117,-0.916306 q 0.11849,-0.48185 0.22908,-0.963701 q 0.11849,-0.48975 0.22118,-0.932104 q 0.11059,-0.450254 0.18958,-0.797819 q 0.0869,-0.347564 0.14218,-0.552943 q 0.45026,0 0.85312,0 q 0.41075,0 0.78992,0 q 0.0316,0 0.0474,0.0158 q 0.0158,0.0079 0.0237,0.0237 q 0.0158,0.0158 0.0158,0.0474 q 0.11848,0.442355 0.23697,0.947903 q 0.12639,0.497649 0.25278,1.050592 q 0.13428,0.545044 0.27647,1.137484 q 0.14218,0.58454 0.29227,1.216475 q 0.0711,0.260673 0.13428,0.537145 q 0.0711,0.276471 0.13429,0.560842 q -0.25277,0 -0.49765,0 q -0.24487,0 -0.47395,0 q -0.0474,0 -0.0869,-0.0158 q -0.0316,-0.0158 -0.0553,-0.07109 q -0.0158,-0.05529 -0.0474,-0.173782 q -0.15798,-0.67933 -0.29227,-1.240173 q -0.13429,-0.568742 -0.23698,-1.026895 q -0.10269,-0.466052 -0.18958,-0.853112 q -0.079,-0.38706 -0.14218,-0.726726 q -0.0632,-0.339665 -0.11059,-0.647733 l 0.23697,0.181681 h -0.59243 l 0.23697,-0.181681 q -0.0474,0.308068 -0.11059,0.647733 q -0.0632,0.331766 -0.15008,0.726726 q -0.079,0.38706 -0.19748,0.87681 q -0.11849,0.481851 -0.26857,1.105887 q -0.14219,0.616136 -0.32387,1.398156 z m 6.16927,0.157984 q -0.56874,0 -0.99529,-0.150085 q -0.42656,-0.142185 -0.71093,-0.418657 q -0.28437,-0.276471 -0.42656,-0.67933 q -0.13428,-0.402859 -0.13428,-0.916306 v -1.595636 q 0,-0.466053 0.14218,-0.845214 q 0.14219,-0.38706 0.41866,-0.663532 q 0.28437,-0.276471 0.68723,-0.426556 q 0.41076,-0.150085 0.9321,-0.150085 q 0.40286,0 0.71883,0.07899 q 0.32387,0.07109 0.54504,0.189581 q 0.22908,0.110589 0.35547,0.236976 q 0.0158,0.0158 0.0237,0.0395 q 0.008,0.0237 0.008,0.0474 q 0.008,0.0237 0.008,0.04739 q 0,0.29227 0,0.671431 q 0,0.371262 0,0.710927 q -0.22907,0 -0.45815,0 q -0.22908,0 -0.45815,0 q -0.0395,0 -0.0632,-0.0237 q -0.0237,-0.0237 -0.0237,-0.06319 q 0,-0.142185 0,-0.284371 q 0,-0.142185 0,-0.315967 q 0,-0.181682 0,-0.418658 l 0.22117,0.331766 q -0.19748,-0.126387 -0.41076,-0.173782 q -0.21327,-0.05529 -0.48185,-0.05529 q -0.31596,0 -0.55294,0.118488 q -0.22908,0.110588 -0.35546,0.355463 Q 113.45,26.385772 113.45,26.764933 v 1.477149 q 0,0.355463 0.0632,0.600338 q 0.0711,0.236976 0.22908,0.39496 q 0.14218,0.142185 0.35546,0.205379 q 0.22118,0.05529 0.48975,0.05529 q 0.43446,0 0.76622,-0.102689 q 0.33177,-0.10269 0.69513,-0.331766 h 0.15009 q 0,0.110588 0,0.221177 q 0,0.102689 0,0.213278 q 0,0.10269 0,0.213278 q 0,0.10269 0,0.221178 q 0,0.03949 -0.0158,0.07109 q -0.008,0.0316 -0.0316,0.0474 q -0.11059,0.118488 -0.33966,0.221178 q -0.22908,0.09479 -0.54505,0.157983 q -0.31596,0.06319 -0.68723,0.06319 z m 2.44876,-5.687417 h 3.839 q 0.0395,0 0.0632,0.0237 q 0.0316,0.0237 0.0316,0.06319 q 0,0.244875 0,0.442355 q 0,0.189581 0,0.434455 h -3.839 q -0.0237,0 -0.0474,-0.0079 q -0.0158,-0.0158 -0.0316,-0.0316 q -0.0158,-0.0237 -0.0158,-0.0474 q 0,-0.244875 0,-0.442354 q 0,-0.19748 0,-0.434456 z m 2.53564,5.529433 q -0.26068,0 -0.52135,0 q -0.26067,0 -0.52925,0 q -0.0395,0 -0.0632,-0.0237 q -0.0237,-0.0237 -0.0237,-0.06319 q 0,-0.639834 0,-1.240173 q 0,-0.600338 0,-1.200677 q 0,-0.608237 0,-1.216475 q 0,-0.616137 0,-1.240173 h 1.22438 l -0.0869,0.213278 q 0,0.157984 0,0.339666 q 0,0.173782 0,0.339665 q 0,0.165883 0,0.315967 q 0,0.505549 0,0.987399 q 0,0.473952 0,0.971601 q 0,0.489749 0,1.034793 q 0,0.221178 0,0.418657 q 0,0.19748 0,0.363363 z m 8.60061,0 q -0.26067,0 -0.52134,0 q -0.26067,0 -0.52925,0 q -0.0237,0 -0.0474,-0.0079 q -0.0158,-0.0158 -0.0316,-0.0316 q -0.008,-0.0158 -0.008,-0.0474 q 0,-0.639834 0,-1.240173 q 0,-0.600338 0,-1.192777 q 0,-0.59244 0,-1.192778 q 0,-0.608238 0,-1.232274 h 1.23228 l -0.0948,0.213278 q 0,0.213279 0,0.426557 q 0,0.213278 0,0.418657 q 0,0.521346 0,1.034794 q 0,0.505548 0,1.018995 q 0,0.513447 0,1.058492 q 0,0.205379 0,0.402858 q 0,0.19748 0,0.371262 z m -1.58773,-5.529433 h 3.69682 q 0.0316,0 0.0474,0.0158 q 0.0237,0.0079 0.0316,0.0237 q 0.0158,0.0158 0.0158,0.04739 q 0,0.165883 0,0.308069 q 0,0.134286 0,0.268572 q 0,0.134286 0,0.300169 h -3.69682 q -0.0237,0 -0.0474,-0.0079 q -0.0237,-0.0158 -0.0395,-0.0316 q -0.008,-0.0237 -0.008,-0.0474 q 0,-0.244875 0,-0.442354 q 0,-0.19748 0,-0.434456 z m 1.09009,2.480346 h 2.21177 q 0.0474,0 0.0711,0.0237 q 0.0237,0.0237 0.0237,0.06319 q 0,0.165883 0,0.315968 q 0,0.150084 0,0.28437 q 0,0.134287 0,0.284371 h -2.30656 z m 4.34455,0.837314 h 1.33497 q 0.12638,0 0.24487,0 q 0.12639,0 0.23698,0 l 0.27647,-0.07109 l 0.11059,0.497649 l 0.11059,0.505548 h -2.24337 q -0.0237,0 -0.0474,-0.0079 q -0.0158,-0.0158 -0.0316,-0.0316 q -0.008,-0.0237 -0.008,-0.04739 z m 0.10269,2.211773 q -0.24487,0 -0.49765,0 q -0.24487,0 -0.49764,0 q -0.0237,0 -0.0474,-0.0079 q -0.0158,-0.0158 -0.0237,-0.0316 q 0,-0.0237 0.008,-0.06319 q 0.0395,-0.181682 0.11849,-0.513448 q 0.079,-0.331766 0.18168,-0.758322 q 0.10269,-0.434455 0.22118,-0.916306 q 0.11849,-0.48185 0.22907,-0.963701 q 0.11849,-0.48975 0.22118,-0.932104 q 0.11059,-0.450254 0.18958,-0.797819 q 0.0869,-0.347564 0.14219,-0.552943 q 0.45025,0 0.85311,0 q 0.41076,0 0.78992,0 q 0.0316,0 0.0474,0.0158 q 0.0158,0.0079 0.0237,0.0237 q 0.0158,0.0158 0.0158,0.0474 q 0.11849,0.442355 0.23698,0.947903 q 0.12638,0.497649 0.25277,1.050592 q 0.13429,0.545044 0.27647,1.137484 q 0.14219,0.58454 0.29227,1.216475 q 0.0711,0.260673 0.13429,0.537145 q 0.0711,0.276471 0.13428,0.560842 q -0.25277,0 -0.49764,0 q -0.24488,0 -0.47396,0 q -0.0474,0 -0.0869,-0.0158 q -0.0316,-0.0158 -0.0553,-0.07109 q -0.0158,-0.05529 -0.0474,-0.173782 q -0.15798,-0.67933 -0.29227,-1.240173 q -0.13428,-0.568742 -0.23697,-1.026895 q -0.10269,-0.466052 -0.18958,-0.853112 q -0.079,-0.38706 -0.14219,-0.726726 q -0.0632,-0.339665 -0.11059,-0.647733 l 0.23698,0.181681 h -0.59244 l 0.23698,-0.181681 q -0.0474,0.308068 -0.11059,0.647733 q -0.0632,0.331766 -0.15009,0.726726 q -0.079,0.38706 -0.19748,0.87681 q -0.11849,0.481851 -0.26857,1.105887 q -0.14219,0.616136 -0.32387,1.398156 z m 6.01129,-5.679517 q 0.55294,0 0.9479,0.134286 q 0.39496,0.126387 0.57664,0.308068 q 0.0316,0.0316 0.0395,0.06319 q 0.008,0.0316 0.008,0.07899 q 0,0.150084 0,0.339665 q 0,0.18958 0,0.379161 q 0,0.189581 0,0.371262 q -0.22118,0 -0.45815,0 q -0.23698,0 -0.46606,0 q -0.0395,0 -0.0632,-0.0237 q -0.0237,-0.0237 -0.0237,-0.06319 q 0,-0.07899 0,-0.157984 q 0,-0.07899 0,-0.165883 q 0,-0.09479 0,-0.19748 q 0,-0.102689 0,-0.229076 l 0.22118,0.284371 q -0.18958,-0.07899 -0.40286,-0.118488 q -0.20538,-0.0395 -0.43445,-0.0395 q -0.21328,0 -0.37127,0.0316 q -0.15798,0.0316 -0.27647,0.110588 q -0.11059,0.07109 -0.17378,0.189581 q -0.0553,0.110588 -0.0553,0.268572 v 0.165883 q 0,0.150085 0.0474,0.260673 q 0.0553,0.110589 0.18958,0.189581 q 0.14219,0.07899 0.41866,0.165883 l 0.75832,0.229077 q 0.36336,0.110588 0.60824,0.244874 q 0.25277,0.126387 0.39496,0.29227 q 0.14218,0.165883 0.20538,0.379162 q 0.0632,0.213278 0.0632,0.489749 v 0.363363 q 0,0.458153 -0.24487,0.797818 q -0.24488,0.331766 -0.71093,0.513448 q -0.45815,0.173782 -1.10589,0.173782 q -0.37916,0 -0.71882,-0.04739 q -0.33177,-0.0474 -0.58454,-0.142186 q -0.24488,-0.102689 -0.38707,-0.229076 q -0.0237,-0.0237 -0.0395,-0.04739 q -0.008,-0.0316 -0.008,-0.10269 q 0,-0.142185 0,-0.276472 q 0,-0.134286 0,-0.28437 q 0,-0.150085 0,-0.308069 h 0.15008 q 0.35547,0.236976 0.74253,0.355464 q 0.38706,0.110588 0.9163,0.110588 q 0.48975,0 0.71093,-0.157983 q 0.22908,-0.157984 0.22908,-0.379161 v -0.268573 q 0,-0.134286 -0.0474,-0.221177 q -0.0395,-0.09479 -0.17378,-0.173782 q -0.13429,-0.08689 -0.42656,-0.165883 l -0.75042,-0.229077 q -0.38706,-0.118488 -0.63983,-0.268572 q -0.25278,-0.157984 -0.39496,-0.331766 q -0.13429,-0.173783 -0.19748,-0.371262 q -0.0553,-0.205379 -0.0553,-0.426557 v -0.379161 q 0,-0.323866 0.13429,-0.592439 q 0.14218,-0.276472 0.40286,-0.473951 q 0.26067,-0.205379 0.62403,-0.308069 q 0.37127,-0.110588 0.82152,-0.110588 z m 2.60674,0.150084 h 3.839 q 0.0395,0 0.0632,0.0237 q 0.0316,0.0237 0.0316,0.06319 q 0,0.244875 0,0.442355 q 0,0.189581 0,0.434455 h -3.839 q -0.0237,0 -0.0474,-0.0079 q -0.0158,-0.0158 -0.0316,-0.0316 q -0.0158,-0.0237 -0.0158,-0.0474 q 0,-0.244875 0,-0.442354 q 0,-0.19748 0,-0.434456 z m 2.53564,5.529433 q -0.26068,0 -0.52135,0 q -0.26067,0 -0.52925,0 q -0.0395,0 -0.0632,-0.0237 q -0.0237,-0.0237 -0.0237,-0.06319 q 0,-0.639834 0,-1.240173 q 0,-0.600338 0,-1.200677 q 0,-0.608237 0,-1.216475 q 0,-0.616137 0,-1.240173 h 1.22438 l -0.0869,0.213278 q 0,0.157984 0,0.339666 q 0,0.173782 0,0.339665 q 0,0.165883 0,0.315967 q 0,0.505549 0,0.987399 q 0,0.473952 0,0.971601 q 0,0.489749 0,1.034793 q 0,0.221178 0,0.418657 q 0,0.19748 0,0.363363 z m 2.03799,-5.529433 h 3.9259 q 0.0395,0 0.0553,0.0158 q 0.0158,0.0079 0.0237,0.0237 q 0.0158,0.0158 0.0158,0.04739 q 0,0.244875 0,0.442355 q 0,0.189581 0,0.434455 h -3.9338 q -0.0237,0 -0.0474,-0.0079 q -0.0158,-0.0158 -0.0316,-0.0316 q -0.008,-0.0237 -0.008,-0.0474 q 0,-0.244875 0,-0.442354 q 0,-0.19748 0,-0.434456 z m 1.09009,2.282866 h 2.37765 q 0.0316,0 0.0474,0.0158 q 0.0158,0.0079 0.0237,0.0237 q 0.0158,0.0158 0.0158,0.0474 q 0,0.165883 0,0.308069 q 0,0.142185 0,0.268572 q 0,0.126387 0,0.268573 h -2.46455 z m -0.61614,3.246567 q -0.0237,0 -0.0395,0 q -0.0158,-0.0079 -0.0316,-0.0158 q -0.008,-0.0158 -0.0158,-0.0316 q 0,-0.0158 0,-0.0395 q 0,-0.213278 0,-0.616137 q 0,-0.410758 0,-0.932104 q 0,-0.529246 0,-1.105887 q 0,-0.58454 0,-1.153281 q 0,-0.576641 0,-1.058492 h 1.19278 l -0.0553,0.173782 q 0,0.181682 0,0.371262 q 0,0.189581 0,0.379161 q 0,0.363363 0,0.750423 q 0,0.387061 0,0.774121 q 0,0.38706 0,0.78202 q 0,0.38706 0,0.758322 h 2.40136 q 0.0395,0 0.0632,0.0237 q 0.0316,0.0237 0.0316,0.06319 q 0,0.229077 0,0.442355 q 0,0.205379 0,0.434455 z m 7.16457,-2.527741 q 0.20538,0.363363 0.37916,0.679331 q 0.17378,0.308068 0.37126,0.67933 q 0.0711,0.118488 0.12639,0.165883 q 0.0632,0.0395 0.15008,0.0395 q 0.0395,0 0.0553,0 q 0.0237,0 0.0553,0 h 0.15009 q 0,0.236976 0,0.442355 q 0,0.197479 0,0.434455 q 0,0.0395 -0.0237,0.06319 q -0.0237,0.0237 -0.0632,0.0237 q -0.0553,0 -0.15009,0 q -0.0869,0 -0.16588,0 q -0.26857,0 -0.45025,-0.0395 q -0.18169,-0.0474 -0.31597,-0.157984 q -0.12639,-0.118487 -0.23698,-0.323866 q -0.20538,-0.402859 -0.41076,-0.797819 q -0.19748,-0.402858 -0.40285,-0.797818 z m -2.899,-3.001692 q 0.54504,0 1.09009,0 q 0.54504,0 1.09008,0 q 0.48185,0 0.82152,0.110589 q 0.33966,0.110589 0.55294,0.331766 q 0.21328,0.213278 0.30807,0.513447 q 0.10269,0.300169 0.10269,0.671431 v 0.442355 q 0,0.363363 -0.11059,0.655633 q -0.11059,0.284371 -0.32386,0.48975 q -0.20538,0.197479 -0.50555,0.300169 q -0.30017,0.102689 -0.67933,0.102689 q -0.23698,0 -0.48185,0 q -0.23698,0 -0.48185,0 l -0.0869,0.04739 v -0.979499 q 0.22908,0 0.45816,0 q 0.23697,0 0.46605,0 q 0.22118,0 0.36336,-0.06319 q 0.14219,-0.06319 0.20538,-0.197479 q 0.0711,-0.142186 0.0711,-0.339666 v -0.513447 q 0,-0.150085 -0.0395,-0.260673 q -0.0316,-0.110589 -0.11059,-0.189581 q -0.0711,-0.07109 -0.19748,-0.110588 q -0.11849,-0.0474 -0.29227,-0.0474 q -0.35546,0 -0.71883,0 q -0.35546,0 -0.71092,0 q -0.34757,0 -0.70303,0 q -0.0395,0 -0.0632,-0.0237 q -0.0237,-0.0237 -0.0237,-0.06319 q 0,-0.229076 0,-0.434455 q 0,-0.213278 0,-0.442355 z m 1.48504,5.529433 q -0.26067,0 -0.50554,0 q -0.23698,0 -0.50555,0 q -0.0395,0 -0.0632,-0.0237 q -0.0237,-0.0237 -0.0237,-0.06319 q 0,-0.639834 0,-1.232274 q 0,-0.600338 0,-1.192777 q 0,-0.592439 0,-1.192778 q 0,-0.608238 0,-1.232274 h 1.19278 l -0.0948,0.213279 q 0,0.260673 0,0.521346 q 0,0.252774 0,0.48975 q 0,0.48975 0,0.963701 q 0,0.466052 0,0.955802 q 0,0.481851 0,1.018996 q 0,0.213278 0,0.410757 q 0,0.19748 0,0.363363 z m 6.12978,0.07109 q -0.22118,0 -0.45815,0 q -0.23698,0 -0.47395,0 q -0.23698,0 -0.46606,0 q -0.0237,0 -0.0474,-0.0158 q -0.0158,-0.0079 -0.0316,-0.0316 q -0.008,-0.0158 -0.008,-0.0395 v -1.398157 q 0.22908,0 0.46605,0 q 0.23698,0 0.47396,0 q 0.23697,0 0.45815,0 q 0.0316,0 0.0474,0.0158 q 0.0158,0.0079 0.0237,0.0237 q 0.0158,0.0158 0.0158,0.0474 z"
     id="text26"
     transform="scale(0.98739846,1.0127624)"
     aria-label="SEE FURTHER. ACT FASTER." />
  <path
     d="M 57.772273,22.030478 V 5.5187558 c 0,-0.143789 -0.119825,-0.2636123 -0.263613,-0.2636123 H 54.321347 V 12.18096 h -5.17639 V 5.5187558 c 0,-0.143789 -0.119823,-0.2636123 -0.263613,-0.2636123 H 45.694031 V 21.766866 c 0,0.143788 0.119823,0.263612 0.263613,0.263612 h 3.187313 V 15.10466 h 5.17639 v 6.662206 c 0,0.143788 0.119823,0.263612 0.263611,0.263612 z M 68.6283,4.7758482 c -3.402997,0 -6.398592,2.2766521 -6.398592,6.7101348 v 4.577268 c 0,4.145904 2.803878,6.446522 6.398592,6.446522 c 3.666609,0 6.398592,-2.300618 6.398592,-6.446522 v -4.577268 c 0,-4.4334827 -2.803878,-6.7101348 -6.398592,-6.7101348 z M 65.464951,15.847568 v -4.625199 c 0,-2.1328629 1.030486,-3.5228196 3.211279,-3.5228196 c 1.030485,0 1.773393,0.287577 2.252688,0.7429077 c 0.575154,0.527225 0.862731,1.270132 0.862731,2.7799119 v 4.601235 c 0,2.444405 -1.294098,3.714538 -3.067489,3.714538 c -1.006521,0 -1.773394,-0.287578 -2.228723,-0.671013 c -0.455331,-0.407401 -1.030486,-1.198238 -1.030486,-3.019561 z m 17.494267,6.18291 v -5.799473 h 1.773392 c 0.718944,1.413921 1.437886,2.827842 2.15683,4.217798 c 0.647049,1.294098 1.41392,1.581675 3.043525,1.581675 h 0.95859 c 0.167753,0 0.263613,-0.09586 0.263613,-0.263612 v -2.660089 h -0.790837 c -0.359472,0 -0.575155,-0.14379 -0.838768,-0.623085 C 88.998339,17.501137 88.519044,16.66237 88.015784,15.75171 c 1.581674,-0.694978 2.46837,-2.180794 2.46837,-4.217799 v -1.342027 c 0,-3.0195593 -1.533745,-4.9367405 -5.416036,-4.9367405 h -6.614275 v 2.6600888 c 0,0.1677537 0.09586,0.2636124 0.263613,0.2636124 h 0.910661 V 21.766866 c 0,0.167752 0.09586,0.263612 0.263612,0.263612 z M 85.187941,8.1788447 c 0.694978,0 1.174274,0.1677536 1.485816,0.4792954 c 0.311542,0.311542 0.45533,0.766872 0.45533,1.3659919 v 1.557709 c 0,1.222202 -0.623083,1.821322 -1.941146,1.821322 H 82.959218 V 8.1788447 Z M 103.71272,22.030478 v -2.660089 c 0,-0.143789 -0.11983,-0.263612 -0.26361,-0.263612 h -2.30062 V 8.1788447 h 2.56423 V 5.5187558 c 0,-0.143789 -0.11983,-0.2636123 -0.26361,-0.2636123 h -8.315779 v 2.6600888 c 0,0.143788 0.119823,0.2636124 0.263613,0.2636124 h 2.300617 V 19.106777 h -2.56423 v 2.660089 c 0,0.143788 0.119823,0.263612 0.263613,0.263612 z M 111.06989,9.6646601 V 8.3226337 h 5.53587 v 0.5032594 c -1.03048,0.647049 -1.77339,1.2222039 -2.73199,2.4444069 c -2.03699,2.492334 -3.95418,4.888811 -5.91929,7.261322 v 3.235244 c 0,0.167752 0.0958,0.263612 0.26362,0.263612 h 11.76669 V 19.2266 c 0,-0.167753 -0.0959,-0.263613 -0.2636,-0.263613 h -8.45957 v -0.527224 c 1.05445,-0.694978 1.79736,-1.270132 2.89974,-2.660089 c 2.06096,-2.612159 4.02608,-4.984671 5.72757,-7.0216759 V 5.5187558 c 0,-0.1677536 -0.0959,-0.2636123 -0.26361,-0.2636123 h -11.59895 v 4.1459036 c 0,0.167754 0.0959,0.263613 0.26362,0.263613 z m 18.4289,-4.8888119 c -3.40299,0 -6.39859,2.2766521 -6.39859,6.7101348 v 4.577268 c 0,4.145904 2.80388,6.446522 6.39859,6.446522 c 3.66662,0 6.3986,-2.300618 6.3986,-6.446522 v -4.577268 c 0,-4.4334827 -2.80387,-6.7101348 -6.3986,-6.7101348 z m -3.16334,11.0717198 v -4.625199 c 0,-2.1328629 1.03048,-3.5228196 3.21128,-3.5228196 c 1.03047,0 1.77339,0.287577 2.25267,0.7429077 c 0.57516,0.527225 0.86275,1.270132 0.86275,2.7799119 v 4.601235 c 0,2.444405 -1.2941,3.714538 -3.06749,3.714538 c -1.00653,0 -1.77339,-0.287578 -2.22873,-0.671013 c -0.45532,-0.407401 -1.03048,-1.198238 -1.03048,-3.019561 z m 16.82325,6.18291 v -3.906256 c 0,-1.869253 -0.0959,-4.601235 -0.64705,-8.1480209 h 0.50327 c 1.77339,3.6186799 3.42696,6.8299579 6.08704,11.2874039 c 0.43137,0.742908 0.64706,0.766873 0.83877,0.766873 h 2.94767 V 5.5187558 c 0,-0.143789 -0.11982,-0.2636123 -0.26361,-0.2636123 h -2.9956 v 3.2831716 c 0,2.6121599 0.14379,4.9367419 0.74291,8.3397389 h -0.45533 c -1.82132,-3.666608 -3.6666,-7.0456399 -5.72758,-10.8800029 C 143.80576,5.2551435 143.80576,5.2551435 143.51818,5.2551435 H 139.8995 V 21.766866 c 0,0.143788 0.11982,0.263612 0.26361,0.263612 z"
     id="text33-3"
     style="font-weight:bold;font-size:48px;font-family:'Recursive Sans Linear Static';-inkscape-font-specification:'Recursive Sans Linear Static Bold';letter-spacing:2.64px;fill:#f97316;fill-opacity:1;stroke-width:0.499266"
     aria-label="HORIZON"
     inkscape:export-filename="horizon-sidebar-compact-dark.svg"
     inkscape:export-xdpi="167.10187"
     inkscape:export-ydpi="167.10187"
     inkscape:label="Wordmark" />
</svg>
