<?xml version="1.0" encoding="UTF-8"?>
<svg width="100" height="100" viewBox="0 0 100 100" xmlns="http://www.w3.org/2000/svg">
  <rect width="100" height="100" rx="6" fill="#519DEC"/>
  <rect x="7" y="7" width="86" height="86" rx="4" fill="#0256B6"/>
  
  <!-- Neural/synapse icon -->
  <circle cx="50" cy="50" r="12" fill="#D62598"/>
  <circle cx="50" cy="50" r="6" fill="white"/>
  
  <!-- Radiating connections -->
  <line x1="50" y1="38" x2="50" y2="18" stroke="white" stroke-width="3" stroke-linecap="round"/>
  <circle cx="50" cy="15" r="5" fill="white"/>
  
  <line x1="50" y1="62" x2="50" y2="82" stroke="white" stroke-width="3" stroke-linecap="round"/>
  <circle cx="50" cy="85" r="5" fill="white"/>
  
  <line x1="38" y1="50" x2="18" y2="50" stroke="white" stroke-width="3" stroke-linecap="round"/>
  <circle cx="15" cy="50" r="5" fill="white"/>
  
  <line x1="62" y1="50" x2="82" y2="50" stroke="white" stroke-width="3" stroke-linecap="round"/>
  <circle cx="85" cy="50" r="5" fill="white"/>
  
  <!-- Diagonal sparks -->
  <line x1="58" y1="42" x2="70" y2="30" stroke="white" stroke-width="2" stroke-linecap="round" opacity="0.7"/>
  <line x1="42" y1="58" x2="30" y2="70" stroke="white" stroke-width="2" stroke-linecap="round" opacity="0.7"/>
  <line x1="58" y1="58" x2="70" y2="70" stroke="white" stroke-width="2" stroke-linecap="round" opacity="0.7"/>
  <line x1="42" y1="42" x2="30" y2="30" stroke="white" stroke-width="2" stroke-linecap="round" opacity="0.7"/>
</svg>
