<?xml version="1.0" encoding="UTF-8"?>
<svg id="Layer_2" data-name="Layer 2" xmlns="http://www.w3.org/2000/svg" viewBox="0 0 245.4 80">
  <defs>
    <style>
      .cls-1 {
        stroke: #5a6f8a;
      }

      .cls-1, .cls-2, .cls-3, .cls-4, .cls-5, .cls-6, .cls-7 {
        fill: none;
        stroke-miterlimit: 2.91;
      }

      .cls-1, .cls-6 {
        stroke-width: 1.09px;
      }

      .cls-2 {
        opacity: .35;
      }

      .cls-2, .cls-4 {
        stroke: #8b5cf6;
      }

      .cls-2, .cls-6 {
        isolation: isolate;
      }

      .cls-2, .cls-7 {
        stroke-width: 1.45px;
      }

      .cls-3 {
        stroke-width: 1.82px;
      }

      .cls-3, .cls-5, .cls-6, .cls-7 {
        stroke: #1e90ff;
      }

      .cls-4 {
        stroke-width: 2.55px;
      }

      .cls-5 {
        stroke-width: 2.18px;
      }

      .cls-8 {
        fill: #0c1220;
      }

      .cls-6, .cls-9 {
        opacity: .3;
      }

      .cls-10 {
        fill: #e8ecf4;
      }

      .cls-11 {
        fill: #8b5cf6;
      }
    </style>
  </defs>
  <g id="svg102">
    <g id="Logo">
      <rect id="rect18" class="cls-8" width="80" height="80"/>
      <line id="line18" class="cls-3" x1="40" y1="40" x2="20.36" y2="17.45"/>
      <line id="line19" class="cls-3" x1="40" y1="40" x2="59.64" y2="17.45"/>
      <line id="line20" class="cls-3" x1="40" y1="40" x2="65.45" y2="36.36"/>
      <line id="line21" class="cls-3" x1="40" y1="40" x2="18.91" y2="55.27"/>
      <line id="line22" class="cls-4" x1="40" y1="40" x2="56.73" y2="62.55"/>
      <line id="line23" class="cls-6" x1="20.36" y1="17.45" x2="59.64" y2="17.45"/>
      <line id="line24" class="cls-6" x1="59.64" y1="17.45" x2="65.45" y2="36.36"/>
      <line id="line25" class="cls-2" x1="18.91" y1="55.27" x2="56.73" y2="62.55"/>
      <circle id="circle25" class="cls-7" cx="20.36" cy="17.45" r="3.27"/>
      <circle id="circle26" class="cls-7" cx="59.64" cy="17.45" r="2.55"/>
      <circle id="circle27" class="cls-7" cx="65.45" cy="36.36" r="2.55"/>
      <circle id="circle28" class="cls-7" cx="18.91" cy="55.27" r="2.55"/>
      <circle id="circle29" class="cls-11" cx="56.73" cy="62.55" r="4"/>
      <circle id="circle30" class="cls-5" cx="40" cy="40" r="5.09"/>
      <g id="g33" class="cls-9">
        <polyline id="polyline30" class="cls-1" points="5.82 14.55 5.82 5.82 14.55 5.82"/>
        <polyline id="polyline31" class="cls-1" points="65.45 5.82 74.18 5.82 74.18 14.55"/>
        <polyline id="polyline32" class="cls-1" points="74.18 65.45 74.18 74.18 65.45 74.18"/>
        <polyline id="polyline33" class="cls-1" points="14.55 74.18 5.82 74.18 5.82 65.45"/>
      </g>
      <path id="text33" class="cls-10" d="M111.48,18.15c-5.11,0-8.6,2.7-8.6,6.59v1.37c0,2.99,1.33,4.93,5.83,6.3l3.49,1.04c3.06.9,3.74,1.69,3.74,3.46v.97c0,2.27-1.91,3.74-5.33,3.74s-5.4-.65-7.56-2.34h-.54v2.66c0,.32.04.43.22.61,1.26,1.26,4.21,2.09,7.74,2.09,5.54,0,8.75-2.63,8.75-6.7v-1.37c0-3.28-1.51-4.79-5.94-6.12l-3.46-1.01c-2.99-.86-3.67-1.87-3.67-3.74v-.72c0-2.45,2.05-3.82,5.33-3.82,1.66,0,2.95.25,4,.76v3.13c0,.25.14.4.4.4h2.81v-4.68c0-.25-.07-.4-.29-.61-1.15-1.19-3.67-2.02-6.91-2.02ZM125.6,24.85h-3.1c2.27,6.16,5.65,14.87,6.52,17.06.58,1.4.72,1.48,1.4,1.48h1.51c-.32,1.04-.58,1.91-.76,2.45-.5,1.69-1.51,2.41-3.13,2.41h-3.42v2.56c0,.29.14.4.4.4h3.28c3.2,0,4.9-1.37,5.9-4.79,1.98-6.66,4.25-13.64,6.55-20.99.11-.36-.18-.58-.43-.58h-2.84c-1.55,5.26-3.53,11.88-4.9,16.42h-.65c-.83-2.88-3.31-8.93-5.65-15.98-.11-.32-.25-.43-.68-.43h0ZM149.14,44v-13.14c1.98-2.2,4.03-3.24,5.83-3.24s2.7.94,2.7,2.88v13.1c0,.25.14.4.4.4h2.92v-14.15c0-3.17-1.84-5.4-5.08-5.4-2.56,0-4.57,1.44-6.23,3.6h-.54v-2.81c0-.25-.14-.4-.4-.4h-2.92v18.76c0,.25.14.4.4.4h2.92ZM181.97,31.36c0-4.97-2.3-6.88-7.7-6.88-2.95,0-5.83.86-6.19,1.26-.07.07-.11.14-.11.29v2.59h.54c1.91-.72,3.6-1.04,5.76-1.04,3.31,0,4.43.86,4.43,3.74v1.66h-6.44c-3.49,0-5.65,1.94-5.65,5.11v1.15c0,3.17,2.12,5.11,5.51,5.11,2.88,0,5-1.22,6.19-3.42h.47c.36,2.05,1.91,3.06,3.85,3.06h1.26c.25,0,.4-.11.4-.4v-2.52h-.9c-.47,0-.83-.07-1.04-.32-.25-.25-.36-.65-.36-1.3v-8.1ZM169.91,38.89v-1.08c0-.76.22-1.37.65-1.76.47-.47,1.19-.72,2.16-.72h5.98v3.24c-1.98,2.12-3.78,2.81-5.98,2.81-1.87,0-2.81-.86-2.81-2.48ZM189.03,24.85v25.96c0,.25.14.4.4.4h2.92v-9.72h.5c1.37,1.91,3.31,2.88,5.69,2.88,3.78,0,6.34-2.7,6.34-7.24v-5.62c0-4.39-2.56-7.06-6.26-7.06-2.48,0-4.43,1.3-5.76,3.53h-.5v-2.74c0-.25-.14-.4-.4-.4h-2.92ZM197.67,27.62c1.19,0,2.12.36,2.81,1.01.72.76,1.12,1.87,1.12,3.38v4.61c0,2.95-1.51,4.57-3.92,4.57-2.02,0-3.89-.76-5.33-2.48v-7.56c1.66-2.41,3.46-3.53,5.33-3.53ZM216.53,41.16c-2.92,0-4.86-.47-6.88-1.76h-.54v2.88c0,.25.04.32.22.43,1.3.9,3.82,1.62,7.24,1.62,5.04,0,8.03-2.27,8.03-5.87,0-2.88-1.87-4.61-5-5.26l-3.56-.72c-2.45-.54-3.06-1.08-3.06-2.3,0-1.37,1.33-2.48,4.57-2.48,2.34,0,3.85.25,5.62.9h.54v-2.56c0-.36-.04-.5-.43-.65-.97-.4-2.66-.86-5.29-.86-5.44,0-8.28,2.41-8.28,5.76,0,2.63,1.48,4.21,5.08,4.93l3.56.72c2.2.47,3.02,1.22,3.02,2.52,0,1.58-1.37,2.7-4.82,2.7ZM237.63,24.45c-4.46,0-8.14,2.63-8.14,8.21v3.74c0,5.11,3.1,7.99,9.07,7.99,2.84,0,5.51-.65,6.41-1.55.11-.11.14-.18.14-.29v-2.56h-.54c-1.8,1.01-3.42,1.44-5.98,1.44-2.09,0-3.64-.43-4.61-1.4-.79-.83-1.22-2.05-1.22-3.64v-.83h12.24c.25,0,.4-.14.4-.4v-2.63c0-5.51-3.53-8.1-7.78-8.1h0ZM237.63,27.33c1.4,0,2.52.32,3.28,1.08.86.86,1.26,2.2,1.26,4.1v.72h-9.4v-.61c0-3.74,1.76-5.29,4.86-5.29Z"/>
    </g>
  </g>
</svg>