<?xml version="1.0" encoding="UTF-8"?>
<svg width="110" height="110" viewBox="0 0 110 110" xmlns="http://www.w3.org/2000/svg">
  <rect width="110" height="110" fill="#0c1220"/>
  <line x1="55" y1="55" x2="28" y2="24" stroke="#1E90FF" stroke-width="2.5" stroke-linecap="square"/>
  <line x1="55" y1="55" x2="82" y2="24" stroke="#1E90FF" stroke-width="2.5" stroke-linecap="square"/>
  <line x1="55" y1="55" x2="90" y2="50" stroke="#1E90FF" stroke-width="2.5" stroke-linecap="square"/>
  <line x1="55" y1="55" x2="26" y2="76" stroke="#1E90FF" stroke-width="2.5" stroke-linecap="square"/>
  <line x1="55" y1="55" x2="78" y2="86" stroke="#8B5CF6" stroke-width="3.5" stroke-linecap="square"/>
  <line x1="28" y1="24" x2="82" y2="24" stroke="#1E90FF" stroke-width="1.5" stroke-linecap="square" opacity="0.3"/>
  <line x1="82" y1="24" x2="90" y2="50" stroke="#1E90FF" stroke-width="1.5" stroke-linecap="square" opacity="0.3"/>
  <line x1="26" y1="76" x2="78" y2="86" stroke="#8B5CF6" stroke-width="2" stroke-linecap="square" opacity="0.35"/>
  <circle cx="28" cy="24" r="4.5" fill="none" stroke="#1E90FF" stroke-width="2"/>
  <circle cx="82" cy="24" r="3.5" fill="none" stroke="#1E90FF" stroke-width="2"/>
  <circle cx="90" cy="50" r="3.5" fill="none" stroke="#1E90FF" stroke-width="2"/>
  <circle cx="26" cy="76" r="3.5" fill="none" stroke="#1E90FF" stroke-width="2"/>
  <circle cx="78" cy="86" r="5.5" fill="#8B5CF6"/>
  <circle cx="55" cy="55" r="7" fill="none" stroke="#1E90FF" stroke-width="3"/>
  <g stroke="#5a6f8a" stroke-width="1.5" fill="none" opacity="0.3">
    <polyline points="8,20 8,8 20,8"/>
    <polyline points="90,8 102,8 102,20"/>
    <polyline points="102,90 102,102 90,102"/>
    <polyline points="20,102 8,102 8,90"/>
  </g>
</svg>