<?xml version="1.0" encoding="UTF-8" standalone="no"?>
<svg
   width="937.0705"
   height="159.15257"
   viewBox="0 0 937.0705 159.15257"
   version="1.1"
   id="svg29"
   xmlns="http://www.w3.org/2000/svg"
   xmlns:svg="http://www.w3.org/2000/svg">
  <defs
     id="defs1">
    <style
       id="style1">
      @import url('https://fonts.googleapis.com/css2?family=Recursive:slnt,wght,CASL,CRSV,MONO@-15..0,300..900,0..1,0..1,0..1&amp;display=swap');
    </style>
  </defs>
  <rect
     width="935.93744"
     height="158.01952"
     fill="#0c1220"
     id="rect1"
     x="0.56652999"
     y="0.56652999"
     style="opacity:1;stroke:#809ac5;stroke-width:1.13306;stroke-opacity:0" />
  <g
     stroke="#5a6f8a"
     stroke-width="1.5"
     fill="none"
     opacity="0.2"
     id="g4"
     style="opacity:0.276632;fill:#803300"
     transform="matrix(0.9687842,0,0,1.3175877,1.9756494,0.52102464)">
    <polyline
       points="8,20 8,8 20,8"
       id="polyline1"
       style="fill:none;stroke:#adc0dc;stroke-opacity:1"
       transform="matrix(1.0021153,0,0,1.0021153,-1.0153358,-0.12691698)" />
    <polyline
       points="940,8 952,8 952,20"
       id="polyline2"
       style="fill:none;stroke:#adc0dc;stroke-opacity:1"
       transform="matrix(1.0021153,0,0,1.0021153,-1.0153358,-0.12691698)" />
    <polyline
       points="952,100 952,112 940,112"
       id="polyline3"
       style="fill:none;stroke:#adc0dc;stroke-opacity:1"
       transform="matrix(1.0021153,0,0,1.0021153,-1.0153358,-0.12691698)" />
    <line
       x1="481.5929"
       y1="23.923849"
       x2="481.5929"
       y2="96.076149"
       stroke="#1e2d44"
       stroke-width="1.00212"
       id="line12"
       style="opacity:1;fill:#803300;stroke:#adc0dc;stroke-opacity:1" />
    <polyline
       points="20,112 8,112 8,100"
       id="polyline4"
       style="fill:none;stroke:#adc0dc;stroke-opacity:1"
       transform="matrix(1.0021153,0,0,1.0021153,-1.0153358,-0.12691698)" />
  </g>
  <!-- HORIZON -->
  <!-- Divider -->
  <!-- SYNAPSE -->
  <g
     transform="translate(517.70027,34.30356)"
     id="g29">
    <g
       id="g78"
       transform="matrix(0.83769634,0,0,0.83769634,-0.80057114,-0.80057114)">
      <line
         x1="55"
         y1="55"
         x2="28"
         y2="24"
         stroke="#1e90ff"
         stroke-width="2.5"
         stroke-linecap="square"
         id="line13" />
      <line
         x1="55"
         y1="55"
         x2="82"
         y2="24"
         stroke="#1e90ff"
         stroke-width="2.5"
         stroke-linecap="square"
         id="line14" />
      <line
         x1="55"
         y1="55"
         x2="90"
         y2="50"
         stroke="#1e90ff"
         stroke-width="2.5"
         stroke-linecap="square"
         id="line15" />
      <line
         x1="55"
         y1="55"
         x2="26"
         y2="76"
         stroke="#1e90ff"
         stroke-width="2.5"
         stroke-linecap="square"
         id="line16" />
      <line
         x1="55"
         y1="55"
         x2="78"
         y2="86"
         stroke="#8b5cf6"
         stroke-width="3.5"
         stroke-linecap="square"
         id="line17" />
      <line
         x1="28"
         y1="24"
         x2="82"
         y2="24"
         stroke="#1e90ff"
         stroke-width="1.5"
         opacity="0.3"
         id="line18" />
      <line
         x1="82"
         y1="24"
         x2="90"
         y2="50"
         stroke="#1e90ff"
         stroke-width="1.5"
         opacity="0.3"
         id="line19" />
      <line
         x1="26"
         y1="76"
         x2="78"
         y2="86"
         stroke="#8b5cf6"
         stroke-width="2"
         opacity="0.35"
         id="line20" />
      <circle
         cx="28"
         cy="24"
         r="4.5"
         fill="none"
         stroke="#1e90ff"
         stroke-width="2"
         id="circle20" />
      <circle
         cx="82"
         cy="24"
         r="3.5"
         fill="none"
         stroke="#1e90ff"
         stroke-width="2"
         id="circle21" />
      <circle
         cx="90"
         cy="50"
         r="3.5"
         fill="none"
         stroke="#1e90ff"
         stroke-width="2"
         id="circle22" />
      <circle
         cx="26"
         cy="76"
         r="3.5"
         fill="none"
         stroke="#1e90ff"
         stroke-width="2"
         id="circle23" />
      <circle
         cx="78"
         cy="86"
         r="5.5"
         fill="#8b5cf6"
         id="circle24" />
      <circle
         cx="55"
         cy="55"
         r="7"
         fill="none"
         stroke="#1e90ff"
         stroke-width="3"
         id="circle25" />
      <g
         stroke="#5a6f8a"
         stroke-width="1.5"
         fill="none"
         opacity="0.3"
         id="g28">
        <polyline
           points="8,20 8,8 20,8"
           id="polyline25"
           style="stroke:#adc0dc;stroke-opacity:1" />
        <polyline
           points="90,8 102,8 102,20"
           id="polyline26"
           style="stroke:#adc0dc;stroke-opacity:1" />
        <polyline
           points="102,90 102,102 90,102"
           id="polyline27"
           style="stroke:#adc0dc;stroke-opacity:1" />
        <polyline
           points="20,102 8,102 8,90"
           id="polyline28"
           style="stroke:#adc0dc;stroke-opacity:1" />
      </g>
    </g>
    <path
       d="m 111.32004,26.272728 c -7.87805,0 -12.924116,4.067751 -12.924116,9.680217 v 2.471545 c 0,3.810298 1.596206,7.0542 8.392956,9.113821 l 4.8916,1.493225 c 3.7588,1.132791 4.22222,2.00813 4.22222,3.655826 v 1.750678 c 0,1.905149 -1.85366,3.501355 -6.12737,3.501355 c -4.63415,0 -7.72358,-0.92683 -10.81301,-3.037941 H 97.984 v 5.663957 c 0,0.617886 0.102981,0.772358 0.308943,0.97832 c 1.750677,1.699187 6.024387,2.728997 11.018967,2.728997 c 8.44445,0 13.43903,-3.655827 13.43903,-9.680217 v -2.368563 c 0,-4.788618 -1.90515,-7.260163 -8.28998,-9.165312 l -4.94308,-1.493225 c -3.60434,-1.081301 -4.27372,-2.00813 -4.27372,-4.01626 V 36.46785 c 0,-2.728997 2.11111,-3.913279 6.07588,-3.913279 c 1.44174,0 2.57453,0.154471 3.65583,0.463414 v 3.604336 c 0,0.360434 0.20596,0.566396 0.5664,0.566396 h 6.02439 v -7.105691 c 0,-0.411924 -0.0515,-0.669377 -0.30895,-0.926829 c -1.5962,-1.596206 -5.14905,-2.883469 -9.93767,-2.883469 z m 39.60263,37.02168 V 50.885194 c 3.86179,-7.311653 7.98103,-15.447154 11.48238,-22.398374 c 0.41193,-0.875339 0.15448,-1.235772 -0.5149,-1.235772 h -6.69377 c -3.14092,6.590786 -5.30352,11.430894 -7.15718,17.764227 h -1.18428 c -1.95664,-6.178861 -4.27371,-11.121951 -7.0542,-16.631436 c -0.41193,-0.926829 -0.66938,-1.132791 -1.39025,-1.132791 h -6.89972 c 3.96477,7.723577 10.19512,20.184282 11.99729,23.634146 v 11.842819 c 0,0.360433 0.20596,0.566395 0.56639,0.566395 z m 29.15005,0 v -8.392954 c 0,-4.01626 -0.20596,-9.886179 -1.39024,-17.506775 h 1.0813 c 3.8103,7.775068 7.36314,14.674797 13.07859,24.252033 c 0.92683,1.596206 1.39024,1.647696 1.80217,1.647696 h 6.33333 V 27.817443 c 0,-0.308943 -0.25745,-0.566395 -0.5664,-0.566395 h -6.43631 v 7.0542 c 0,5.612466 0.30894,10.607046 1.59621,17.9187 h -0.97832 C 190.67977,44.345899 186.715,37.085736 182.28681,28.847254 c -0.82384,-1.596206 -0.82384,-1.596206 -1.44173,-1.596206 h -7.77507 v 35.476965 c 0,0.308943 0.25745,0.566395 0.5664,0.566395 z m 38.77878,0 c 0.77236,-3.03794 1.49322,-5.818428 2.11111,-8.341463 h 11.58537 c 0.56639,2.265582 1.18428,4.737127 1.85365,7.363143 c 0.25746,0.823849 0.36044,0.97832 0.97832,0.97832 h 6.33334 c -0.46342,-2.471544 -1.02981,-4.891599 -1.59621,-7.157181 c -2.6775,-11.018971 -5.09756,-20.596206 -7.0542,-28.371274 c -0.10298,-0.360434 -0.25745,-0.566396 -0.61788,-0.566396 h -11.63686 c -1.85366,7.157182 -7.26016,29.349594 -8.85637,35.425475 c -0.10298,0.514905 0.20596,0.669376 0.41192,0.669376 z m 7.46612,-30.482385 h 1.18429 c 0.61788,3.861789 1.80216,8.95935 3.55284,16.065041 h -8.49593 c 1.85365,-7.260163 3.03794,-12.254743 3.7588,-16.065041 z m 34.55654,30.482385 v -11.01897 h 4.58266 c 8.54742,0 11.9458,-4.119241 11.9458,-10.96748 v -3.140921 c 0,-6.95122 -3.65583,-10.915989 -11.99729,-10.915989 h -14.46884 v 5.663956 c 0,0.360434 0.20597,0.566396 0.5664,0.566396 h 1.95664 v 29.246613 c 0,0.360433 0.20596,0.566395 0.56639,0.566395 z M 265.45682,33.4814 c 1.6477,0 2.78049,0.308943 3.50135,1.02981 c 0.72087,0.669377 0.97832,1.750678 0.97832,3.295393 v 3.758808 c 0,3.243902 -1.39024,4.428184 -4.47967,4.428184 h -4.58266 V 33.4814 Z m 36.15274,-7.208672 c -7.87804,0 -12.92411,4.067751 -12.92411,9.680217 v 2.471545 c 0,3.810298 1.5962,7.0542 8.39295,9.113821 l 4.8916,1.493225 c 3.75881,1.132791 4.22222,2.00813 4.22222,3.655826 v 1.750678 c 0,1.905149 -1.85366,3.501355 -6.12737,3.501355 c -4.63415,0 -7.72358,-0.92683 -10.81301,-3.037941 h -0.97832 v 5.663957 c 0,0.617886 0.10298,0.772358 0.30894,0.97832 c 1.75068,1.699187 6.02439,2.728997 11.01897,2.728997 c 8.44445,0 13.43903,-3.655827 13.43903,-9.680217 v -2.368563 c 0,-4.788618 -1.90515,-7.260163 -8.28997,-9.165312 l -4.94309,-1.493225 c -3.60434,-1.081301 -4.27372,-2.00813 -4.27372,-4.01626 V 36.46785 c 0,-2.728997 2.11112,-3.913279 6.07588,-3.913279 c 1.44174,0 2.57453,0.154471 3.65583,0.463414 v 3.604336 c 0,0.360434 0.20596,0.566396 0.5664,0.566396 h 6.02439 v -7.105691 c 0,-0.411924 -0.0515,-0.669377 -0.30895,-0.926829 c -1.5962,-1.596206 -5.14905,-2.883469 -9.93767,-2.883469 z m 25.23683,37.02168 h 21.1626 v -5.715447 c 0,-0.308943 -0.25746,-0.566396 -0.5664,-0.566396 h -13.74797 v -8.804878 h 11.27643 v -5.509485 c 0,-0.308943 -0.25746,-0.566395 -0.5664,-0.566395 h -10.71003 v -8.598916 h 14.31437 v -5.715448 c 0,-0.308943 -0.25746,-0.566395 -0.5664,-0.566395 h -23.63414 v 5.715447 c 0,0.308943 0.20596,0.566396 0.56639,0.566396 h 1.90515 v 29.195122 c 0,0.308943 0.25745,0.566395 0.5664,0.566395 z"
       id="text28"
       style="font-weight:bold;font-size:32px;font-family:'Recursive Sans Linear Static';-inkscape-font-specification:'Recursive Sans Linear Static Bold';letter-spacing:3.94px;fill:#a78bfa;stroke-width:1.60908"
       aria-label="SYNAPSE" />
    <path
       style="font-style:italic;font-weight:600;font-size:10px;font-family:'Recursive Sans Linear Static';-inkscape-font-specification:'Recursive Sans Linear Static Semi-Bold Italic';letter-spacing:3.94px;display:none;fill:#5a6f8a;stroke-width:1.30109"
       d="m 101.31393,54.800027 c -2.094758,0 -3.486926,1.183993 -4.033384,3.343804 l -0.70259,2.836378 c -0.494414,1.951637 0.546458,3.447891 2.797346,3.447891 c 1.808518,0 3.434878,-0.910764 3.955318,-3.00552 l 0.76764,-3.070574 c 0.52043,-2.055724 -0.62452,-3.551979 -2.78433,-3.551979 z m -3.122621,6.063084 l 0.676568,-2.70627 c 0.286239,-1.170982 1.040872,-1.925615 2.211863,-1.925615 c 0.57247,0 0.92377,0.156132 1.18399,0.42936 c 0.31226,0.338284 0.46839,0.832699 0.27322,1.613353 l -0.67656,2.771324 c -0.31226,1.27507 -1.18399,1.951637 -2.315946,1.951637 c -0.546458,0 -0.936785,-0.169142 -1.170981,-0.416349 c -0.286241,-0.325273 -0.403338,-0.806676 -0.182154,-1.71744 z m 12.724671,3.304771 c 0.19516,-0.767643 0.37732,-1.535287 0.55947,-2.28992 c 0.32527,-1.366146 0.53344,-2.380997 0.8457,-4.436721 h 0.26022 c 0.65056,2.185834 1.34013,4.42371 2.02971,6.505455 c 0.0651,0.208176 0.10409,0.221186 0.27323,0.221186 h 1.37915 l 0.39033,-1.561309 c 0.61152,-2.472073 1.23604,-4.944146 1.84755,-7.403208 c 0.026,-0.07806 -0.026,-0.14312 -0.10408,-0.14312 h -1.44422 c -0.16914,0.7156 -0.33829,1.418189 -0.52044,2.120779 c -0.39032,1.57432 -0.58549,2.328952 -0.8457,4.670916 h -0.24721 c -0.87173,-2.732292 -1.69142,-5.399528 -2.08174,-6.531477 c -0.0781,-0.247207 -0.0911,-0.260218 -0.2342,-0.260218 h -1.41819 c -0.1171,0.481404 -0.2342,0.975818 -0.36431,1.457222 c -0.62452,2.498094 -1.24904,5.0092 -1.87356,7.507295 c -0.026,0.07807 0.026,0.14312 0.10408,0.14312 z m 13.19305,-4.657906 c -0.1171,0.481404 -0.22119,0.897754 -0.33828,1.366146 c -0.026,0.09108 0.0129,0.14312 0.10408,0.14312 h 4.13747 c 0.10409,-0.468393 0.22119,-0.884742 0.33829,-1.366145 c 0.026,-0.09108 -0.0131,-0.143121 -0.10409,-0.143121 z m 13.28415,4.657906 c 1.75648,0 2.87541,-0.598502 3.25273,-2.081745 l 0.10408,-0.42936 c 0.22119,-0.884743 -0.10408,-1.665397 -1.02785,-1.938626 v -0.208175 c 1.00183,-0.234196 1.63937,-0.819688 1.87356,-1.730451 l 0.0911,-0.351295 c 0.28625,-1.157971 -0.18216,-2.367985 -2.35497,-2.367985 h -3.52596 c -0.0911,0.351294 -0.19516,0.767643 -0.29925,1.223026 c -0.026,0.07807 0.0129,0.14312 0.10409,0.14312 h 0.53344 c -0.62452,2.511105 -1.27506,5.087265 -1.89959,7.58536 c -0.0131,0.09108 0.013,0.156131 0.10409,0.156131 z m -0.039,-6.15416 c 0.13011,-0.520437 0.27323,-1.079906 0.40335,-1.587331 h 1.35313 c 0.39033,0 0.65055,0.07806 0.80668,0.247206 c 0.18215,0.169143 0.22118,0.468394 0.1301,0.819688 l -0.10408,0.455382 c -0.16914,0.676567 -0.5985,1.066894 -1.61335,1.066894 H 137.107 c 0.0781,-0.338284 0.16914,-0.663555 0.2472,-1.001839 z m -1.197,4.788014 c 0.19517,-0.767644 0.42936,-1.704429 0.67657,-2.693258 h 1.26206 c 1.07991,0 1.32711,0.481404 1.14496,1.223026 l -0.1171,0.42936 c -0.18215,0.7156 -0.66355,1.040872 -1.52228,1.040872 z m 15.9774,-8.001709 c -2.09476,0 -3.48692,1.183993 -4.03338,3.343804 l -0.70259,2.836378 c -0.49441,1.951637 0.54646,3.447891 2.79735,3.447891 c 1.80851,0 3.43487,-0.910764 3.95531,-3.00552 l 0.76765,-3.070574 c 0.52043,-2.055724 -0.62452,-3.551979 -2.78434,-3.551979 z m -3.12262,6.063084 l 0.67657,-2.70627 c 0.28623,-1.170982 1.04088,-1.925615 2.21186,-1.925615 c 0.57247,0 0.92377,0.156132 1.18399,0.42936 c 0.31226,0.338284 0.46839,0.832699 0.27322,1.613353 l -0.67656,2.771324 c -0.31226,1.27507 -1.18399,1.951637 -2.31594,1.951637 c -0.54647,0 -0.93679,-0.169142 -1.17099,-0.416349 c -0.28624,-0.325273 -0.40333,-0.806676 -0.18215,-1.71744 z m 12.50347,3.304771 c 0.39033,-0.819687 0.75463,-1.587331 1.10593,-2.315942 h 2.94047 c -0.013,0.611513 -0.026,1.249047 -0.052,1.925615 c -0.013,0.338284 0.052,0.390327 0.2342,0.390327 h 1.3141 c 0.026,-0.559469 0.0391,-1.105927 0.052,-1.626363 c 0.0391,-2.758314 0.0781,-5.256408 0.0651,-7.364176 c 0,-0.117098 -0.026,-0.156131 -0.13012,-0.156131 h -2.73228 c -0.93678,1.847549 -3.46091,7.260088 -4.34564,8.951506 c -0.0521,0.130109 0,0.195164 0.11709,0.195164 z m 3.82521,-7.780524 h 0.29925 c -0.026,1.392167 -0.0391,2.693258 -0.052,4.124458 h -2.31594 c 0.76764,-1.548298 1.44421,-2.888422 2.06873,-4.124458 z m 10.05743,7.780524 c 0.0911,-0.377316 0.19518,-0.819687 0.31227,-1.28808 c 0.18216,-0.689578 0.33829,-1.340124 0.50743,-1.977658 h 1.3141 c 0.20817,0.780655 0.42935,1.561309 0.65054,2.354974 c 0.20817,0.7156 0.54646,0.962808 1.37916,0.962808 h 0.28624 c 0.0911,0 0.15613,-0.05204 0.18215,-0.143121 c 0.10409,-0.442371 0.20818,-0.884742 0.32528,-1.327112 h -0.42936 c -0.2342,0 -0.33829,-0.06506 -0.42937,-0.390328 c -0.15613,-0.533447 -0.29925,-1.079905 -0.44237,-1.613353 c 1.02787,-0.286239 1.6654,-1.001839 1.96465,-2.185832 l 0.16914,-0.715601 c 0.44237,-1.769483 -0.42936,-2.784334 -2.34197,-2.784334 h -3.4609 c -0.10409,0.42936 -0.22119,0.85872 -0.32527,1.28808 c -0.026,0.09108 0.0129,0.14312 0.10408,0.14312 h 0.54647 c -0.65055,2.563149 -1.24905,4.931135 -1.8996,7.533317 c -0.0129,0.09108 0.026,0.14312 0.1171,0.14312 z m 1.56132,-6.219215 c 0.11709,-0.481404 0.23419,-0.962808 0.35129,-1.457222 h 1.35313 c 0.37732,0 0.61151,0.07807 0.78065,0.247208 c 0.18217,0.169141 0.24722,0.494414 0.13012,0.949796 l -0.19517,0.754633 c -0.20817,0.793665 -0.67657,1.118937 -1.49625,1.118937 h -1.32711 c 0.13011,-0.533447 0.26022,-1.066894 0.40334,-1.613352 z m 17.10934,3.187673 l 0.5985,-2.42003 c 0.62452,-2.498095 -0.40333,-3.656065 -2.43303,-3.656065 h -3.91629 c -0.11709,0.455382 -0.20817,0.832699 -0.32527,1.28808 c -0.026,0.07807 0.013,0.14312 0.10409,0.14312 h 0.53345 c -0.58549,2.367986 -1.26207,5.087265 -1.87358,7.533317 c -0.026,0.104087 0.026,0.14312 0.10409,0.14312 h 3.12262 c 2.18583,0 3.578,-0.988829 4.08542,-3.031542 z m -5.30845,1.548298 c 0.44237,-1.769483 0.85872,-3.486923 1.28808,-5.256408 c 0.0911,-0.312261 0.13011,-0.624523 0.19516,-0.936785 h 1.56131 c 0.62453,0 1.02787,0.07807 1.23604,0.299251 c 0.27323,0.286239 0.33829,0.767644 0.14312,1.56131 l -0.70258,2.836377 c -0.26022,1.079906 -0.97583,1.496255 -2.1338,1.496255 z m 25.04599,1.483244 c 0.1171,-0.455381 0.22119,-0.884742 0.33829,-1.340124 c 0.026,-0.06506 -0.026,-0.14312 -0.10409,-0.14312 h -1.31411 c 0.44238,-1.821527 0.89776,-3.656066 1.35314,-5.477593 c 0.0521,-0.182153 0.13011,-0.442371 0.16914,-0.663557 h 1.47023 c 0.1171,-0.455381 0.22119,-0.884741 0.33829,-1.340123 c 0.026,-0.07806 -0.026,-0.14312 -0.10409,-0.14312 h -4.46274 c -0.1171,0.455382 -0.2342,0.884742 -0.33829,1.340124 c -0.026,0.06505 0.0131,0.143119 0.10409,0.143119 h 1.32711 c -0.44237,1.795506 -0.89775,3.617034 -1.34012,5.399528 c -0.065,0.195164 -0.13011,0.494414 -0.18215,0.741622 h -1.48324 c -0.10409,0.455382 -0.22119,0.884742 -0.32527,1.340124 c -0.026,0.07807 0.026,0.14312 0.10408,0.14312 z m 8.43107,0 c 0.19517,-0.767643 0.37732,-1.535287 0.55947,-2.28992 c 0.32527,-1.366146 0.53345,-2.380997 0.84571,-4.436721 h 0.26022 c 0.65054,2.185834 1.34012,4.42371 2.0297,6.505455 c 0.065,0.208176 0.10409,0.221186 0.27323,0.221186 h 1.37915 l 0.39033,-1.561309 c 0.61151,-2.472073 1.23603,-4.944146 1.84756,-7.403208 c 0.026,-0.07806 -0.026,-0.14312 -0.10409,-0.14312 h -1.44422 c -0.16914,0.7156 -0.33828,1.418189 -0.52043,2.120779 c -0.39033,1.57432 -0.58549,2.328952 -0.84571,4.670916 h -0.24721 c -0.87173,-2.732292 -1.69142,-5.399528 -2.08175,-6.531477 c -0.0781,-0.247207 -0.0911,-0.260218 -0.23419,-0.260218 h -1.41819 c -0.1171,0.481404 -0.2342,0.975818 -0.3643,1.457222 c -0.62453,2.498094 -1.24906,5.0092 -1.87358,7.507295 c -0.026,0.07807 0.026,0.14312 0.10409,0.14312 z m 15.9774,0 c 0.0911,-0.377316 0.20818,-0.819687 0.32528,-1.28808 c 0.41634,-1.652385 0.81968,-3.317783 1.23603,-4.983179 c 0.10409,-0.468393 0.23419,-0.936785 0.35129,-1.405178 h 2.381 c 0.1171,-0.455382 0.20818,-0.832698 0.32527,-1.28808 c 0.026,-0.06505 -0.026,-0.14312 -0.10408,-0.14312 h -6.28428 c -0.1171,0.455382 -0.20817,0.832699 -0.32527,1.28808 c -0.026,0.06505 0.0131,0.14312 0.10409,0.14312 h 2.25089 c -0.62452,2.511105 -1.26207,5.022211 -1.88659,7.533317 c -0.026,0.09108 0.013,0.14312 0.10409,0.14312 z m 9.36786,0 h 5.29543 c 0.10409,-0.455381 0.24721,-0.988829 0.31226,-1.249047 c 0.013,-0.07807 -0.0391,-0.143121 -0.11709,-0.143121 h -3.63005 c 0.20817,-0.832698 0.41635,-1.678407 0.63753,-2.524116 h 3.03155 c 0.091,-0.390328 0.24721,-0.988829 0.29925,-1.210015 c 0.013,-0.06505 -0.0129,-0.143119 -0.10409,-0.143119 H 250.419 c 0.13011,-0.520437 0.26022,-1.053885 0.39032,-1.574321 c 0.0781,-0.299251 0.15613,-0.58549 0.22119,-0.871731 h 3.77316 c 0.1171,-0.455381 0.19517,-0.793665 0.31226,-1.249047 c 0.026,-0.07806 -0.0129,-0.14312 -0.10408,-0.14312 h -5.97202 c -0.11709,0.455382 -0.19516,0.793665 -0.31226,1.249048 c -0.026,0.06505 0.013,0.143119 0.10409,0.143119 h 0.54646 l -1.89959,7.57235 c -0.013,0.07807 0.026,0.14312 0.10409,0.14312 z m 12.23024,0 h 5.30845 c 0.18215,-0.663556 0.40334,-1.626363 0.57248,-2.28992 c 0.026,-0.07807 -0.0131,-0.14312 -0.10409,-0.14312 h -1.32711 c -0.0911,0.325273 -0.16914,0.676567 -0.26022,1.00184 h -2.30293 l 1.87357,-7.533317 c 0.026,-0.07806 0,-0.14312 -0.10408,-0.14312 h -1.52229 c -0.10408,0.42936 -0.20817,0.871731 -0.32527,1.301091 c -0.63753,2.550138 -1.27506,5.113287 -1.9126,7.663426 c -0.026,0.07807 0.026,0.14312 0.10409,0.14312 z m 12.28229,0 h 5.30845 c 0.18215,-0.663556 0.40333,-1.626363 0.57248,-2.28992 c 0.026,-0.07807 -0.013,-0.14312 -0.10409,-0.14312 h -1.32711 c -0.0911,0.325273 -0.16914,0.676567 -0.26022,1.00184 h -2.30293 l 1.87356,-7.533317 c 0.026,-0.07806 0,-0.14312 -0.10409,-0.14312 h -1.52227 c -0.10409,0.42936 -0.20817,0.871731 -0.32527,1.301091 c -0.63753,2.550138 -1.27507,5.113287 -1.9126,7.663426 c -0.026,0.07807 0.026,0.14312 0.10409,0.14312 z m 16.70598,0 c 0.1171,-0.455381 0.2212,-0.884742 0.3383,-1.340124 c 0.026,-0.06506 -0.026,-0.14312 -0.10409,-0.14312 h -1.31411 c 0.44237,-1.821527 0.89775,-3.656066 1.35314,-5.477593 c 0.0521,-0.182153 0.13011,-0.442371 0.16915,-0.663557 h 1.47022 c 0.1171,-0.455381 0.22119,-0.884741 0.33829,-1.340123 c 0.026,-0.07806 -0.026,-0.14312 -0.10409,-0.14312 h -4.46274 c -0.1171,0.455382 -0.2342,0.884742 -0.33828,1.340124 c -0.026,0.06505 0.0129,0.143119 0.10408,0.143119 h 1.32711 c -0.44237,1.795506 -0.89775,3.617034 -1.34012,5.399528 c -0.0651,0.195164 -0.13011,0.494414 -0.18215,0.741622 h -1.48325 c -0.10409,0.455382 -0.22119,0.884742 -0.32527,1.340124 c -0.026,0.07807 0.026,0.14312 0.10408,0.14312 z m 11.29348,-4.879091 c -0.10409,0.403338 -0.19517,0.806676 -0.29925,1.223025 c -0.026,0.07807 0,0.14312 0.10408,0.14312 h 1.47024 c -0.14313,0.585492 -0.24721,1.066895 -0.41636,1.71744 c -0.27322,0.338284 -0.83269,0.598503 -1.6784,0.598503 c -0.66355,0 -1.09291,-0.143121 -1.36614,-0.41635 c -0.28624,-0.299251 -0.4814,-0.767643 -0.2342,-1.782495 l 0.62453,-2.537127 c 0.35129,-1.392167 1.32711,-1.977659 2.65421,-1.977659 c 0.61153,0 1.06691,0.09108 1.4182,0.28624 c -0.10409,0.41635 -0.18215,0.70259 -0.26022,1.027863 c -0.026,0.09108 0.013,0.14312 0.10409,0.14312 h 1.34012 c 0.14312,-0.585491 0.31226,-1.249048 0.44237,-1.769484 c 0.039,-0.13011 0.039,-0.208175 -0.026,-0.28624 c -0.37732,-0.455382 -1.50926,-0.85872 -2.96649,-0.85872 c -2.06873,0 -3.69509,1.079906 -4.21554,3.174662 l -0.68957,2.745301 c -0.57248,2.302932 0.4814,3.70811 2.83638,3.70811 c 1.60034,0 2.58917,-0.481404 3.05757,-0.962807 c 0.1301,-0.117098 0.22118,-0.234197 0.27322,-0.42936 c 0.19517,-0.793666 0.37732,-1.509266 0.5985,-2.380997 h 0.48141 l 0.31226,-1.223026 c 0.0129,-0.104086 -0.026,-0.143119 -0.10409,-0.143119 z m 9.15968,4.879091 h 5.29544 c 0.10409,-0.455381 0.24721,-0.988829 0.31227,-1.249047 c 0.0129,-0.07807 -0.0391,-0.143121 -0.1171,-0.143121 h -3.63005 c 0.20818,-0.832698 0.41635,-1.678407 0.63753,-2.524116 h 3.03155 c 0.0911,-0.390328 0.24721,-0.988829 0.29925,-1.210015 c 0.0129,-0.06505 -0.013,-0.143119 -0.10409,-0.143119 h -2.88842 c 0.13011,-0.520437 0.26022,-1.053885 0.39032,-1.574321 c 0.0781,-0.299251 0.15613,-0.58549 0.22119,-0.871731 h 3.77316 c 0.1171,-0.455381 0.19517,-0.793665 0.31226,-1.249047 c 0.026,-0.07806 -0.0129,-0.14312 -0.10408,-0.14312 h -5.97201 c -0.11709,0.455382 -0.19516,0.793665 -0.31226,1.249048 c -0.026,0.06505 0.013,0.143119 0.10409,0.143119 h 0.54646 l -1.8996,7.57235 c -0.013,0.07807 0.026,0.14312 0.10409,0.14312 z m 13.45327,0 c 0.19517,-0.767643 0.37732,-1.535287 0.55947,-2.28992 c 0.32527,-1.366146 0.53345,-2.380997 0.84571,-4.436721 h 0.26022 c 0.65054,2.185834 1.34012,4.42371 2.02969,6.505455 c 0.0651,0.208176 0.10409,0.221186 0.27324,0.221186 h 1.37915 l 0.39033,-1.561309 c 0.61151,-2.472073 1.23603,-4.944146 1.84754,-7.403208 c 0.026,-0.07806 -0.026,-0.14312 -0.10408,-0.14312 h -1.44421 c -0.16914,0.7156 -0.33828,1.418189 -0.52043,2.120779 c -0.39033,1.57432 -0.58549,2.328952 -0.84571,4.670916 h -0.24721 c -0.87174,-2.732292 -1.69142,-5.399528 -2.08175,-6.531477 c -0.0781,-0.247207 -0.091,-0.260218 -0.23419,-0.260218 h -1.41819 c -0.1171,0.481404 -0.2342,0.975818 -0.3643,1.457222 c -0.62454,2.498094 -1.24906,5.0092 -1.87358,7.507295 c -0.026,0.07807 0.026,0.14312 0.10409,0.14312 z m 15.92535,0.260218 c 0.9498,0 1.97766,-0.29925 2.40702,-0.650545 c 0.052,-0.05204 0.091,-0.104087 0.1171,-0.208175 c 0.1171,-0.455382 0.22118,-0.871731 0.33828,-1.340124 h -0.23419 c -0.89775,0.533447 -1.60034,0.741623 -2.55015,0.741623 c -0.61151,0 -1.09291,-0.13011 -1.35313,-0.455382 c -0.31226,-0.364306 -0.35129,-0.897754 -0.15613,-1.70443 l 0.62452,-2.420029 c 0.36431,-1.483244 1.21003,-2.107767 2.35498,-2.107767 c 0.50743,0 0.87173,0.07807 1.197,0.260217 c -0.14312,0.55947 -0.2472,0.962807 -0.35129,1.366146 c -0.026,0.09108 0.026,0.14312 0.10409,0.14312 h 1.34012 c 0.18215,-0.689578 0.37731,-1.509266 0.53344,-2.133789 c 0.026,-0.117099 0.026,-0.169142 -0.052,-0.234197 c -0.42936,-0.42936 -1.21001,-0.884741 -2.70626,-0.884741 c -2.04272,-0.01301 -3.47392,1.079906 -3.99435,3.109607 l -0.65055,2.615193 c -0.62452,2.459062 0.40334,3.903273 3.03154,3.903273 z m 9.41992,-0.260218 h 5.29543 c 0.10409,-0.455381 0.24721,-0.988829 0.31227,-1.249047 c 0.0129,-0.07807 -0.039,-0.143121 -0.1171,-0.143121 h -3.63005 c 0.20818,-0.832698 0.41635,-1.678407 0.63753,-2.524116 h 3.03155 c 0.091,-0.390328 0.24721,-0.988829 0.29925,-1.210015 c 0.0131,-0.06505 -0.0129,-0.143119 -0.10409,-0.143119 h -2.88841 c 0.13011,-0.520437 0.26022,-1.053885 0.39033,-1.574321 c 0.0781,-0.299251 0.15613,-0.58549 0.22118,-0.871731 h 3.77317 c 0.11709,-0.455381 0.19516,-0.793665 0.31226,-1.249047 c 0.026,-0.07806 -0.013,-0.14312 -0.10409,-0.14312 h -5.97202 c -0.11709,0.455382 -0.19516,0.793665 -0.31226,1.249048 c -0.026,0.06505 0.013,0.143119 0.10409,0.143119 h 0.54646 l -1.89959,7.57235 c -0.0131,0.07807 0.026,0.14312 0.10409,0.14312 z"
       id="text29"
       aria-label="ON-BOARD INTELLIGENCE" />
  </g>
  <g
     transform="translate(46.343273,39.576288)"
     id="g12">
    <g
       id="g77"
       transform="matrix(0.83769634,0,0,0.83769634,-0.80057116,-6.0732984)">
      <line
         x1="18"
         y1="50"
         x2="92"
         y2="50"
         stroke="#1e90ff"
         stroke-width="1.5"
         stroke-linecap="square"
         opacity="0.25"
         id="line4" />
      <path
         d="m 20,50 a 35,32 0 0 1 70,0"
         fill="none"
         stroke="#f97316"
         stroke-width="5"
         stroke-linecap="square"
         id="path4" />
      <path
         d="m 34,50 a 21,19 0 0 1 42,0"
         fill="none"
         stroke="#f97316"
         stroke-width="2.5"
         stroke-linecap="square"
         opacity="0.45"
         id="path5" />
      <circle
         cx="55"
         cy="50"
         r="4.5"
         fill="#f97316"
         id="circle5" />
      <line
         x1="55"
         y1="55"
         x2="26"
         y2="94"
         stroke="#1e90ff"
         stroke-width="3.5"
         stroke-linecap="square"
         id="line5" />
      <line
         x1="55"
         y1="55"
         x2="84"
         y2="94"
         stroke="#1e90ff"
         stroke-width="3.5"
         stroke-linecap="square"
         id="line6" />
      <line
         x1="55"
         y1="55"
         x2="18"
         y2="82"
         stroke="#f97316"
         stroke-width="2"
         stroke-linecap="square"
         opacity="0.45"
         id="line7" />
      <line
         x1="55"
         y1="55"
         x2="92"
         y2="82"
         stroke="#f97316"
         stroke-width="2"
         stroke-linecap="square"
         opacity="0.45"
         id="line8" />
      <g
         stroke="#5a6f8a"
         stroke-width="1.5"
         fill="none"
         opacity="0.3"
         id="g11"
         style="opacity:0.5">
        <polyline
           points="8,20 8,8 20,8"
           id="polyline8" />
        <polyline
           points="90,8 102,8 102,20"
           id="polyline9" />
        <polyline
           points="102,90 102,102 90,102"
           id="polyline10" />
        <polyline
           points="20,102 8,102 8,90"
           id="polyline11" />
      </g>
    </g>
    <path
       d="m 140.01681,57.972972 v -35.38108 c 0,-0.308109 -0.25676,-0.564865 -0.56486,-0.564865 h -6.82974 V 36.867568 H 121.53033 V 22.591892 c 0,-0.308109 -0.25676,-0.564865 -0.56487,-0.564865 h -6.82973 v 35.381081 c 0,0.308109 0.25675,0.564864 0.56487,0.564864 h 6.82973 v -14.84054 h 11.09188 v 14.275676 c 0,0.308109 0.25677,0.564864 0.56487,0.564864 z M 166.77727,21 c -7.2919,0 -13.71081,4.878378 -13.71081,14.378378 v 9.808108 C 153.06646,54.07027 159.07457,59 166.77727,59 c 7.85675,0 13.71081,-4.92973 13.71081,-13.813514 V 35.378378 C 180.48808,25.878378 174.47997,21 166.77727,21 Z m -6.77838,23.724325 v -9.910811 c 0,-4.570271 2.2081,-7.548649 6.88108,-7.548649 c 2.20811,0 3.8,0.616216 4.82703,1.591892 c 1.23243,1.129729 1.84865,2.721622 1.84865,5.956757 v 9.859459 c 0,5.237838 -2.77298,7.95946 -6.57298,7.95946 c -2.15675,0 -3.79999,-0.616217 -4.77568,-1.437839 c -0.97567,-0.872973 -2.2081,-2.567567 -2.2081,-6.470269 z m 40.98478,13.248647 V 45.545946 h 3.8 c 1.54054,3.029729 3.08108,6.059459 4.62162,9.037838 c 1.38649,2.772973 3.02973,3.389188 6.52163,3.389188 h 2.05404 c 0.35946,0 0.56487,-0.205405 0.56487,-0.564864 v -5.7 h -1.69459 c -0.77027,0 -1.23244,-0.308108 -1.7973,-1.335135 c -1.12973,-2.105406 -2.15676,-3.902703 -3.23513,-5.854054 c 3.38919,-1.48919 5.28919,-4.672973 5.28919,-9.037838 v -2.875676 c 0,-6.47027 -3.28649,-10.578378 -11.60541,-10.578378 h -14.17298 v 5.7 c 0,0.359459 0.20541,0.564865 0.56487,0.564865 h 1.95135 v 29.116216 c 0,0.359459 0.20541,0.564864 0.56487,0.564864 z m 4.77567,-29.68108 c 1.4892,0 2.51623,0.359459 3.18379,1.027027 c 0.66757,0.667567 0.97568,1.643243 0.97568,2.927027 v 3.337838 c 0,2.618918 -1.33514,3.902703 -4.15947,3.902703 h -4.77567 V 28.291892 Z m 43.19292,29.68108 v -5.699999 c 0,-0.308108 -0.25675,-0.564865 -0.56485,-0.564865 h -4.92973 V 28.291892 h 5.49458 v -5.7 c 0,-0.308109 -0.25675,-0.564865 -0.56485,-0.564865 h -17.81892 v 5.7 c 0,0.308108 0.25675,0.564865 0.56486,0.564865 h 4.92973 v 23.416216 h -5.49459 v 5.7 c 0,0.308109 0.25675,0.564864 0.56486,0.564864 z M 268.21544,31.475676 V 28.6 h 11.86217 v 1.078379 c -2.20812,1.386486 -3.8,2.618919 -5.85406,5.237838 c -4.36486,5.340539 -8.47297,10.475674 -12.68378,15.559458 v 6.932433 c 0,0.359459 0.2054,0.564864 0.56486,0.564864 h 25.21352 v -6.008107 c 0,-0.35946 -0.20541,-0.564865 -0.56487,-0.564865 h -18.12702 v -1.12973 c 2.25946,-1.489189 3.85134,-2.721621 6.2135,-5.699999 c 4.41622,-5.597298 8.62704,-10.681082 12.27298,-15.045946 v -6.932433 c 0,-0.359459 -0.20541,-0.564865 -0.56487,-0.564865 h -24.85404 v 8.883784 c 0,0.359459 0.20539,0.564865 0.56485,0.564865 z M 311.20292,21 c -7.29191,0 -13.71082,4.878378 -13.71082,14.378378 v 9.808108 C 297.4921,54.07027 303.50021,59 311.20292,59 c 7.85674,0 13.7108,-4.92973 13.7108,-13.813514 V 35.378378 C 324.91372,25.878378 318.90561,21 311.20292,21 Z m -6.77839,23.724325 v -9.910811 c 0,-4.570271 2.20811,-7.548649 6.88108,-7.548649 c 2.20811,0 3.80001,0.616216 4.82703,1.591892 c 1.23243,1.129729 1.84865,2.721622 1.84865,5.956757 v 9.859459 c 0,5.237838 -2.77297,7.95946 -6.57298,7.95946 c -2.15675,0 -3.79999,-0.616217 -4.77567,-1.437839 c -0.97568,-0.872973 -2.20811,-2.567567 -2.20811,-6.470269 z m 39.54696,13.248647 v -8.370269 c 0,-4.005406 -0.20541,-9.859459 -1.38649,-17.459459 h 1.07839 c 3.79999,7.754054 7.34324,14.635134 13.04324,24.186486 c 0.92433,1.591891 1.38648,1.643242 1.7973,1.643242 h 6.31621 v -35.38108 c 0,-0.308109 -0.25675,-0.564865 -0.56486,-0.564865 h -6.41893 v 7.035135 c 0,5.597298 0.30812,10.578379 1.5919,17.870271 h -0.97567 C 354.54987,39.075676 350.59582,31.835135 346.1796,23.618919 c -0.82162,-1.591892 -0.82162,-1.591892 -1.43784,-1.591892 h -7.75405 v 35.381081 c 0,0.308109 0.25676,0.564864 0.56487,0.564864 z"
       id="text11"
       style="font-weight:bold;font-size:32px;font-family:'Recursive Sans Linear Static';-inkscape-font-specification:'Recursive Sans Linear Static Bold';letter-spacing:3.94px;fill:#f97316;stroke-width:1.60473"
       aria-label="HORIZON" />
    <path
       style="font-style:italic;font-weight:600;font-size:10px;font-family:'Recursive Sans Linear Static';-inkscape-font-specification:'Recursive Sans Linear Static Semi-Bold Italic';letter-spacing:3.94px;display:none;fill:#5a6f8a;stroke-width:1.29896"
       d="m 101.29987,62.206818 c -1.7536,0 -3.052562,0.701439 -3.42926,2.182256 l -0.155876,0.610512 c -0.220824,0.883294 0.01299,1.935453 1.532775,2.429059 l 1.130101,0.3767 c 0.83133,0.272781 1.0002,0.545564 0.85731,1.130096 l -0.11691,0.454636 c -0.14288,0.584533 -0.77937,0.948244 -1.870501,0.948244 c -1.195045,0 -1.896484,-0.324742 -2.545966,-0.896285 H 96.46773 c -0.07794,0.285772 -0.194844,0.714429 -0.32474,1.259994 c -0.01299,0.05196 -0.02598,0.09093 0.01299,0.142886 c 0.35072,0.467626 1.454838,0.948242 2.948644,0.948242 c 1.909476,-0.01299 3.091526,-0.649482 3.468226,-2.156277 l 0.15588,-0.623502 c 0.27278,-1.078139 -0.0909,-1.961433 -1.5068,-2.429059 l -1.1301,-0.376699 c -0.922258,-0.285772 -1.013185,-0.610512 -0.85731,-1.221025 l 0.09093,-0.363709 c 0.194843,-0.714429 0.81834,-1.02618 1.88349,-1.02618 c 0.49361,0 0.81835,0.06495 1.10412,0.194845 c -0.10396,0.415668 -0.19484,0.740408 -0.27278,1.052159 c -0.0259,0.09093 0.013,0.142885 0.10396,0.142885 h 1.35093 c 0.14288,-0.571543 0.31174,-1.234013 0.44163,-1.753598 c 0.0259,-0.09093 0.013,-0.142886 -0.052,-0.207834 c -0.35071,-0.376699 -1.16906,-0.818346 -2.58493,-0.818346 z m 7.8717,9.339536 h 5.28678 c 0.10396,-0.454636 0.2468,-0.987211 0.31175,-1.247002 c 0.013,-0.07794 -0.039,-0.142887 -0.11691,-0.142887 h -3.6241 c 0.20784,-0.831335 0.41567,-1.675661 0.6365,-2.519986 h 3.02657 c 0.0909,-0.389688 0.24681,-0.987211 0.29877,-1.208035 c 0.013,-0.06495 -0.013,-0.142885 -0.10397,-0.142885 h -2.88369 c 0.1299,-0.519585 0.25979,-1.052159 0.38969,-1.571744 c 0.0779,-0.298762 0.15588,-0.584533 0.22082,-0.870305 h 3.76699 c 0.11691,-0.454637 0.19485,-0.792367 0.31175,-1.247003 c 0.0259,-0.07794 -0.013,-0.142887 -0.10396,-0.142887 h -5.96224 c -0.11691,0.454637 -0.19484,0.792368 -0.31175,1.247005 c -0.0259,0.06495 0.013,0.142885 0.10396,0.142885 h 0.54557 l -1.89649,7.559958 c -0.013,0.07794 0.0259,0.142886 0.10396,0.142886 z m 12.26221,0 h 5.28678 c 0.10396,-0.454636 0.2468,-0.987211 0.31175,-1.247002 c 0.013,-0.07794 -0.039,-0.142887 -0.11691,-0.142887 h -3.6241 c 0.20783,-0.831335 0.41567,-1.675661 0.63648,-2.519986 h 3.02659 c 0.0909,-0.389688 0.2468,-0.987211 0.29876,-1.208035 c 0.013,-0.06495 -0.013,-0.142885 -0.10396,-0.142885 h -2.8837 c 0.12989,-0.519585 0.25979,-1.052159 0.38969,-1.571744 c 0.0779,-0.298762 0.15587,-0.584533 0.22082,-0.870305 h 3.767 c 0.1169,-0.454637 0.19483,-0.792367 0.31174,-1.247003 c 0.0259,-0.07794 -0.013,-0.142887 -0.10397,-0.142887 h -5.96222 c -0.11691,0.454637 -0.19485,0.792368 -0.31175,1.247005 c -0.0259,0.06495 0.013,0.142885 0.10396,0.142885 h 0.54557 l -1.89649,7.559958 c -0.013,0.07794 0.0259,0.142886 0.10396,0.142886 z m 23.05655,0 c 0.0909,-0.389688 0.20783,-0.831335 0.32474,-1.272982 c 0.18185,-0.727419 0.3767,-1.493806 0.55855,-2.260194 h 2.94864 c 0.10397,-0.454637 0.20784,-0.818346 0.31175,-1.259993 c 0.0259,-0.103917 -0.0259,-0.155876 -0.10396,-0.155876 h -2.80575 c 0.14288,-0.571543 0.28577,-1.143086 0.42866,-1.70164 c 0.0779,-0.33773 0.16886,-0.67546 0.2468,-1.013191 h 3.41627 c 0.1169,-0.454636 0.20783,-0.831335 0.32474,-1.285971 c 0.0259,-0.06495 -0.013,-0.142887 -0.10397,-0.142887 h -5.61151 c -0.11691,0.454637 -0.20784,0.831337 -0.32474,1.285973 c -0.0259,0.07794 0.0259,0.142885 0.10396,0.142885 h 0.54556 c -0.6235,2.506997 -1.27298,5.026983 -1.8835,7.52099 c -0.0259,0.07794 0.0259,0.142886 0.10397,0.142886 z m 12.44405,0.168866 c 1.09112,0 1.94843,-0.389688 2.72781,-1.35092 h 0.23382 c -0.0909,0.350719 -0.16887,0.688449 -0.2598,1.039168 c -0.0259,0.06495 0.013,0.142886 0.10397,0.142886 h 1.51979 c 0.10396,-0.415667 0.22082,-0.896283 0.35072,-1.389889 c 0.62349,-2.519986 1.24699,-5.039972 1.88348,-7.559958 c 0.0259,-0.07794 -0.0259,-0.142887 -0.10396,-0.142887 h -1.51978 c -0.54556,2.182257 -1.09113,4.364514 -1.63669,6.559759 c -0.94825,0.974221 -1.74062,1.247004 -2.50701,1.247004 c -0.64947,0 -0.8573,-0.402678 -0.64947,-1.182056 c 0.4936,-1.974422 1.03916,-4.286574 1.58473,-6.48182 c 0.0259,-0.07794 -0.0259,-0.142887 -0.10396,-0.142887 h -1.51978 c -0.10397,0.428658 -0.22083,0.870306 -0.32474,1.298963 c -0.48062,1.922464 -0.96124,3.870906 -1.3899,5.572547 c -0.35072,1.3769 0.23382,2.39009 1.61072,2.39009 z m 13.10652,-0.168866 c 0.0909,-0.376698 0.19484,-0.818345 0.31175,-1.285971 c 0.18186,-0.688451 0.33773,-1.337932 0.5066,-1.974423 h 1.31195 c 0.20782,0.779377 0.42865,1.558755 0.64947,2.351121 c 0.20784,0.71443 0.54557,0.961232 1.37691,0.961232 h 0.28577 c 0.0909,0 0.15587,-0.05196 0.18185,-0.142886 c 0.10397,-0.441647 0.20784,-0.883294 0.32474,-1.324941 h -0.42865 c -0.23382,0 -0.33774,-0.06495 -0.42866,-0.389688 c -0.15588,-0.532575 -0.29876,-1.078139 -0.44165,-1.610713 c 1.02618,-0.285771 1.66267,-1.000201 1.96144,-2.182257 l 0.16886,-0.714428 c 0.44165,-1.766589 -0.42866,-2.77978 -2.33814,-2.77978 h -3.45523 c -0.10396,0.428658 -0.22082,0.857316 -0.32474,1.285973 c -0.0259,0.09093 0.013,0.142885 0.10396,0.142885 h 0.54557 c -0.64949,2.558956 -1.24701,4.923067 -1.89649,7.52099 c -0.013,0.09093 0.0259,0.142886 0.1169,0.142886 z m 1.55876,-6.209037 c 0.1169,-0.480617 0.23381,-0.961233 0.35072,-1.454839 h 1.35091 c 0.3767,0 0.61051,0.07794 0.77938,0.246804 c 0.18185,0.168865 0.2468,0.493605 0.12989,0.948242 l -0.19484,0.753398 c -0.20783,0.792367 -0.67546,1.117107 -1.49381,1.117107 h -1.32493 c 0.12989,-0.532575 0.25979,-1.065149 0.40268,-1.610712 z m 13.14549,6.209037 c 0.0909,-0.376698 0.20783,-0.818345 0.32474,-1.285971 c 0.41567,-1.649682 0.81835,-3.312354 1.23402,-4.975025 c 0.10396,-0.467626 0.23381,-0.935253 0.35072,-1.40288 h 2.37709 c 0.11691,-0.454636 0.20783,-0.831335 0.32474,-1.285971 c 0.0259,-0.06495 -0.0259,-0.142887 -0.10396,-0.142887 h -6.27399 c -0.11691,0.454637 -0.20784,0.831337 -0.32474,1.285973 c -0.0259,0.06495 0.013,0.142885 0.10396,0.142885 h 2.24721 c -0.6235,2.506997 -1.26,5.013994 -1.8835,7.52099 c -0.0259,0.09093 0.013,0.142886 0.10397,0.142886 z m 15.63951,0 c 0.10397,-0.415667 0.22083,-0.896283 0.35072,-1.389889 c 0.62351,-2.519986 1.24701,-5.039972 1.8835,-7.559958 c 0.0259,-0.07794 -0.0259,-0.142887 -0.10396,-0.142887 h -1.51979 c -0.31175,1.272984 -0.63649,2.558956 -0.96123,3.831939 h -3.15648 c 0.31175,-1.234014 0.61052,-2.468028 0.92227,-3.689052 c 0.0259,-0.06495 -0.013,-0.142887 -0.10397,-0.142887 h -1.51978 c -0.10397,0.454637 -0.22083,0.909274 -0.33774,1.363911 c -0.6235,2.519987 -1.25999,5.052961 -1.89648,7.585937 c -0.0259,0.07794 0.0259,0.142886 0.10396,0.142886 h 1.51979 c 0.32474,-1.298961 0.64948,-2.610913 0.97422,-3.922865 h 3.16946 c -0.32474,1.259993 -0.63649,2.519987 -0.94824,3.779979 c -0.0259,0.06495 0.013,0.142886 0.10396,0.142886 z m 7.27417,0 h 5.28678 c 0.10396,-0.454636 0.2468,-0.987211 0.31175,-1.247002 c 0.013,-0.07794 -0.039,-0.142887 -0.11691,-0.142887 h -3.6241 c 0.20784,-0.831335 0.41567,-1.675661 0.63649,-2.519986 h 3.02658 c 0.0909,-0.389688 0.2468,-0.987211 0.29876,-1.208035 c 0.013,-0.06495 -0.013,-0.142885 -0.10396,-0.142885 h -2.88369 c 0.1299,-0.519585 0.25979,-1.052159 0.38969,-1.571744 c 0.0779,-0.298762 0.15587,-0.584533 0.22082,-0.870305 h 3.76699 c 0.11691,-0.454637 0.19484,-0.792367 0.31175,-1.247003 c 0.0259,-0.07794 -0.013,-0.142887 -0.10396,-0.142887 h -5.96224 c -0.11691,0.454637 -0.19484,0.792368 -0.31175,1.247005 c -0.0259,0.06495 0.013,0.142885 0.10396,0.142885 h 0.54557 l -1.89649,7.559958 c -0.013,0.07794 0.0259,0.142886 0.10396,0.142886 z m 13.769,0 c 0.0909,-0.376698 0.19484,-0.818345 0.31175,-1.285971 c 0.18185,-0.688451 0.33772,-1.337932 0.50658,-1.974423 h 1.31196 c 0.20783,0.779377 0.42866,1.558755 0.64948,2.351121 c 0.20783,0.71443 0.54556,0.961232 1.3769,0.961232 h 0.28577 c 0.0909,0 0.15588,-0.05196 0.18186,-0.142886 c 0.10396,-0.441647 0.20783,-0.883294 0.32474,-1.324941 h -0.42866 c -0.23381,0 -0.33773,-0.06495 -0.42866,-0.389688 c -0.15587,-0.532575 -0.29876,-1.078139 -0.44164,-1.610713 c 1.02618,-0.285771 1.66267,-1.000201 1.96142,-2.182257 L 227.2082,65.2334 c 0.44165,-1.766589 -0.42865,-2.77978 -2.33813,-2.77978 h -3.45523 c -0.10397,0.428658 -0.22083,0.857316 -0.32474,1.285973 c -0.0259,0.09093 0.013,0.142885 0.10396,0.142885 h 0.54556 c -0.64948,2.558956 -1.247,4.923067 -1.89648,7.52099 c -0.013,0.09093 0.0259,0.142886 0.1169,0.142886 z m 1.55874,-6.209037 c 0.11691,-0.480617 0.23382,-0.961233 0.35072,-1.454839 h 1.35093 c 0.3767,0 0.61051,0.07794 0.77938,0.246804 c 0.18185,0.168865 0.2468,0.493605 0.12989,0.948242 l -0.19484,0.753398 c -0.20784,0.792367 -0.67546,1.117107 -1.49381,1.117107 h -1.32495 c 0.1299,-0.532575 0.2598,-1.065149 0.40268,-1.610712 z m 11.72963,6.222027 l 0.5066,-2.06535 c 0.0259,-0.09093 -0.013,-0.142885 -0.10396,-0.142885 h -1.93546 l -0.51959,2.065349 c -0.0259,0.09093 0.013,0.142886 0.10397,0.142886 z m 17.61391,-0.01299 c 0.38969,-0.818345 0.7534,-1.584733 1.10412,-2.312151 h 2.93566 c -0.013,0.610512 -0.0259,1.247003 -0.052,1.922463 c -0.013,0.33773 0.052,0.389688 0.23381,0.389688 h 1.31195 c 0.0259,-0.558553 0.039,-1.104117 0.052,-1.623702 c 0.039,-2.753799 0.0779,-5.247806 0.0649,-7.352125 c 0,-0.116907 -0.0259,-0.155875 -0.1299,-0.155875 h -2.72781 c -0.93526,1.844526 -3.45525,7.248208 -4.33854,8.936859 c -0.052,0.129895 0,0.194843 0.11691,0.194843 z m 3.81896,-7.767792 h 0.29876 c -0.0259,1.389889 -0.039,2.688851 -0.052,4.117709 h -2.31216 c 0.76639,-1.545764 1.44185,-2.883695 2.06535,-4.117709 z m 11.91147,8.027585 c 0.94825,0 1.97443,-0.298761 2.40309,-0.649481 c 0.052,-0.05196 0.0909,-0.103917 0.1169,-0.207834 c 0.11691,-0.454637 0.22083,-0.870304 0.33773,-1.337931 h -0.23381 c -0.89629,0.532575 -1.59773,0.740409 -2.54597,0.740409 c -0.61051,0 -1.09113,-0.129896 -1.35092,-0.454638 c -0.31174,-0.363709 -0.35071,-0.896283 -0.15588,-1.701639 l 0.6235,-2.416069 c 0.36371,-1.480817 1.20804,-2.104319 2.35113,-2.104319 c 0.5066,0 0.87031,0.07794 1.19505,0.259792 c -0.14289,0.558554 -0.24681,0.961232 -0.35072,1.363911 c -0.0259,0.09093 0.0259,0.142885 0.10396,0.142885 h 1.33792 c 0.18186,-0.688449 0.3767,-1.506796 0.53258,-2.130297 c 0.0259,-0.116907 0.0259,-0.168865 -0.052,-0.233814 c -0.42866,-0.428657 -1.20803,-0.883293 -2.70184,-0.883293 c -2.03937,-0.01299 -3.46822,1.078138 -3.98781,3.104519 l -0.64948,2.610913 c -0.62351,2.455039 0.40268,3.896886 3.02657,3.896886 z m 12.57396,-0.259793 c 0.0909,-0.376698 0.20783,-0.818345 0.32474,-1.285971 c 0.41567,-1.649682 0.81834,-3.312354 1.23401,-4.975025 c 0.10396,-0.467626 0.23381,-0.935253 0.35072,-1.40288 h 2.3771 c 0.11691,-0.454636 0.20784,-0.831335 0.32474,-1.285971 c 0.0259,-0.06495 -0.0259,-0.142887 -0.10396,-0.142887 h -6.27399 c -0.11691,0.454637 -0.20783,0.831337 -0.32474,1.285973 c -0.0259,0.06495 0.013,0.142885 0.10396,0.142885 h 2.24721 c -0.6235,2.506997 -1.25999,5.013994 -1.8835,7.52099 c -0.0259,0.09093 0.013,0.142886 0.10397,0.142886 z m 20.14689,0 c 0.0909,-0.389688 0.20783,-0.831335 0.32474,-1.272982 c 0.18184,-0.727419 0.37669,-1.493806 0.55854,-2.260194 h 2.94865 c 0.10397,-0.454637 0.20784,-0.818346 0.31175,-1.259993 c 0.0259,-0.103917 -0.0259,-0.155876 -0.10396,-0.155876 h -2.80576 c 0.14288,-0.571543 0.28577,-1.143086 0.42866,-1.70164 c 0.0779,-0.33773 0.16886,-0.67546 0.2468,-1.013191 h 3.41628 c 0.1169,-0.454636 0.20782,-0.831335 0.32473,-1.285971 c 0.0259,-0.06495 -0.013,-0.142887 -0.10397,-0.142887 h -5.6115 c -0.11691,0.454637 -0.20784,0.831337 -0.32474,1.285973 c -0.0259,0.07794 0.0259,0.142885 0.10396,0.142885 h 0.54556 c -0.6235,2.506997 -1.27298,5.026983 -1.88349,7.52099 c -0.0259,0.07794 0.0259,0.142886 0.10396,0.142886 z m 11.30095,0 c 0.38969,-0.818345 0.7534,-1.584733 1.10412,-2.312151 h 2.93565 c -0.013,0.610512 -0.0259,1.247003 -0.052,1.922463 c -0.013,0.33773 0.052,0.389688 0.23381,0.389688 h 1.31195 c 0.0259,-0.558553 0.039,-1.104117 0.052,-1.623702 c 0.039,-2.753799 0.0779,-5.247806 0.0649,-7.352125 c 0,-0.116907 -0.0259,-0.155875 -0.12989,-0.155875 h -2.72782 c -0.93525,1.844526 -3.45524,7.248208 -4.33853,8.936859 c -0.052,0.129895 0,0.194843 0.11691,0.194843 z m 3.81894,-7.767792 h 0.29876 c -0.0259,1.389889 -0.039,2.688851 -0.052,4.117709 h -2.31214 c 0.76639,-1.545764 1.44185,-2.883695 2.06534,-4.117709 z m 13.70406,-1.571744 c -1.7536,0 -3.05257,0.701439 -3.42927,2.182256 l -0.15587,0.610512 c -0.22083,0.883294 0.013,1.935453 1.53278,2.429059 l 1.13009,0.3767 c 0.83134,0.272781 1.00021,0.545564 0.85732,1.130096 l -0.11691,0.454636 c -0.14288,0.584533 -0.77937,0.948244 -1.8705,0.948244 c -1.19505,0 -1.89648,-0.324742 -2.54596,-0.896285 h -0.23382 c -0.0779,0.285772 -0.19484,0.714429 -0.32474,1.259994 c -0.013,0.05196 -0.0259,0.09093 0.013,0.142886 c 0.35072,0.467626 1.45483,0.948242 2.94864,0.948242 c 1.90947,-0.01299 3.09153,-0.649482 3.46822,-2.156277 l 0.15588,-0.623502 c 0.27278,-1.078139 -0.0909,-1.961433 -1.50679,-2.429059 l -1.1301,-0.376699 c -0.92227,-0.285772 -1.01319,-0.610512 -0.85732,-1.221025 l 0.0909,-0.363709 c 0.19485,-0.714429 0.81835,-1.02618 1.8835,-1.02618 c 0.49361,0 0.81835,0.06495 1.10412,0.194845 c -0.10396,0.415668 -0.19484,0.740408 -0.27278,1.052159 c -0.0259,0.09093 0.013,0.142885 0.10396,0.142885 h 1.35092 c 0.14288,-0.571543 0.31175,-1.234013 0.44164,-1.753598 c 0.0259,-0.09093 0.013,-0.142886 -0.052,-0.207834 c -0.35072,-0.376699 -1.16907,-0.818346 -2.58493,-0.818346 z m 11.04116,9.339536 c 0.0909,-0.376698 0.20783,-0.818345 0.32474,-1.285971 c 0.41567,-1.649682 0.81835,-3.312354 1.23401,-4.975025 c 0.10397,-0.467626 0.23382,-0.935253 0.35072,-1.40288 h 2.37711 c 0.11691,-0.454636 0.20783,-0.831335 0.32474,-1.285971 c 0.0259,-0.06495 -0.0259,-0.142887 -0.10396,-0.142887 h -6.27399 c -0.11691,0.454637 -0.20784,0.831337 -0.32474,1.285973 c -0.0259,0.06495 0.013,0.142885 0.10396,0.142885 h 2.2472 c -0.6235,2.506997 -1.25999,5.013994 -1.88349,7.52099 c -0.0259,0.09093 0.013,0.142886 0.10396,0.142886 z m 9.35253,0 h 5.28678 c 0.10385,-0.454636 0.24679,-0.987211 0.31174,-1.247002 c 0.013,-0.07794 -0.039,-0.142887 -0.11691,-0.142887 h -3.6241 c 0.20784,-0.831335 0.41567,-1.675661 0.63649,-2.519986 h 3.02658 c 0.0909,-0.389688 0.2468,-0.987211 0.29876,-1.208035 c 0.013,-0.06495 -0.013,-0.142885 -0.10396,-0.142885 h -2.88369 c 0.12989,-0.519585 0.25979,-1.052159 0.38969,-1.571744 c 0.0779,-0.298762 0.15587,-0.584533 0.22082,-0.870305 h 3.76699 c 0.11691,-0.454637 0.19484,-0.792367 0.31175,-1.247003 c 0.0259,-0.07794 -0.013,-0.142887 -0.10396,-0.142887 h -5.96224 c -0.11691,0.454637 -0.19485,0.792368 -0.31175,1.247005 c -0.0259,0.06495 0.013,0.142885 0.10396,0.142885 h 0.54557 l -1.89648,7.559958 c -0.013,0.07794 0.0259,0.142886 0.10396,0.142886 z m 13.769,0 c 0.0909,-0.376698 0.19484,-0.818345 0.31175,-1.285971 c 0.18185,-0.688451 0.33773,-1.337932 0.50659,-1.974423 h 1.31195 c 0.20783,0.779377 0.42866,1.558755 0.64948,2.351121 c 0.20783,0.71443 0.54557,0.961232 1.3769,0.961232 h 0.28578 c 0.0909,0 0.15587,-0.05196 0.18185,-0.142886 c 0.10396,-0.441647 0.20783,-0.883294 0.32474,-1.324941 h -0.42866 c -0.23381,0 -0.33773,-0.06495 -0.42866,-0.389688 c -0.15587,-0.532575 -0.29876,-1.078139 -0.44164,-1.610713 c 1.02618,-0.285771 1.66267,-1.000201 1.96143,-2.182257 l 0.16887,-0.714428 c 0.44165,-1.766589 -0.42866,-2.77978 -2.33814,-2.77978 h -3.45523 c -0.10397,0.428658 -0.22083,0.857316 -0.32474,1.285973 c -0.0259,0.09093 0.013,0.142885 0.10396,0.142885 h 0.54556 c -0.64948,2.558956 -1.247,4.923067 -1.89648,7.52099 c -0.013,0.09093 0.0259,0.142886 0.1169,0.142886 z m 1.55875,-6.209037 c 0.1169,-0.480617 0.23381,-0.961233 0.35071,-1.454839 h 1.35093 c 0.3767,0 0.61051,0.07794 0.77938,0.246804 c 0.18185,0.168865 0.2468,0.493605 0.12989,0.948242 l -0.19484,0.753398 c -0.20784,0.792367 -0.67546,1.117107 -1.49381,1.117107 h -1.32493 c 0.12989,-0.532575 0.25979,-1.065149 0.40267,-1.610712 z m 11.72961,6.222027 l 0.5066,-2.06535 c 0.0259,-0.09093 -0.013,-0.142885 -0.10397,-0.142885 h -1.93545 l -0.51959,2.065349 c -0.0259,0.09093 0.013,0.142886 0.10396,0.142886 z"
       id="text12"
       aria-label="SEE FURTHER. ACT FASTER." />
  </g>
</svg>
