<?xml version="1.0" encoding="UTF-8" standalone="no"?>
<svg
   width="276.04797"
   height="80"
   viewBox="0 0 276.04797 80"
   version="1.1"
   id="svg54"
   xmlns="http://www.w3.org/2000/svg"
   xmlns:svg="http://www.w3.org/2000/svg">
  <defs
     id="defs1">
    <style
       id="style1">@import url('https://fonts.googleapis.com/css2?family=Recursive:slnt,wght,CASL,CRSV,MONO@-15..0,300..900,0..1,0..1,0..1&amp;display=swap');</style>
  </defs>
  <!-- HORIZONTAL PRIMARY -->
  <!-- HORIZONTAL WITH TAGLINE -->
  <!-- STACKED -->
  <!-- STACKED + TAGLINE -->
  <!-- WORDMARK ONLY -->
  <!-- SIZE VARIATIONS -->
  <!-- BADGE -->
  <g
     id="g4"
     transform="translate(-59.999999,-108)">
    <g
       transform="translate(60,108)"
       id="g10">
      <rect
         width="110"
         height="110"
         fill="#0c1220"
         id="rect2"
         x="0"
         y="0"
         transform="scale(0.72727273)" />
      <line
         x1="18"
         y1="50"
         x2="92"
         y2="50"
         stroke="#1e90ff"
         stroke-width="1.5"
         stroke-linecap="square"
         opacity="0.25"
         id="line2"
         transform="scale(0.72727273)" />
      <path
         d="m 20,50 a 35,32 0 0 1 70,0"
         fill="none"
         stroke="#f97316"
         stroke-width="5"
         stroke-linecap="square"
         id="path2"
         transform="scale(0.72727273)" />
      <path
         d="m 34,50 a 21,19 0 0 1 42,0"
         fill="none"
         stroke="#f97316"
         stroke-width="2.5"
         stroke-linecap="square"
         opacity="0.45"
         id="path3"
         transform="scale(0.72727273)" />
      <circle
         cx="55"
         cy="50"
         r="4.5"
         fill="#f97316"
         id="circle3"
         transform="scale(0.72727273)" />
      <line
         x1="55"
         y1="55"
         x2="26"
         y2="94"
         stroke="#1e90ff"
         stroke-width="3.5"
         stroke-linecap="square"
         id="line3"
         transform="scale(0.72727273)" />
      <line
         x1="55"
         y1="55"
         x2="84"
         y2="94"
         stroke="#1e90ff"
         stroke-width="3.5"
         stroke-linecap="square"
         id="line4"
         transform="scale(0.72727273)" />
      <line
         x1="55"
         y1="55"
         x2="18"
         y2="82"
         stroke="#f97316"
         stroke-width="2"
         stroke-linecap="square"
         opacity="0.45"
         id="line5"
         transform="scale(0.72727273)" />
      <line
         x1="55"
         y1="55"
         x2="92"
         y2="82"
         stroke="#f97316"
         stroke-width="2"
         stroke-linecap="square"
         opacity="0.45"
         id="line6"
         transform="scale(0.72727273)" />
      <g
         stroke="#5a6f8a"
         stroke-width="1.5"
         fill="none"
         opacity="0.3"
         id="g9"
         transform="scale(0.72727273)">
        <polyline
           points="8,20 8,8 20,8"
           id="polyline6" />
        <polyline
           points="90,8 102,8 102,20"
           id="polyline7" />
        <polyline
           points="102,90 102,102 90,102"
           id="polyline8" />
        <polyline
           points="20,102 8,102 8,90"
           id="polyline9" />
      </g>
      <path
         d="M 121.926,50 V 23.818 c 0,-0.228 -0.19,-0.418 -0.418,-0.418 h -5.054 v 10.982 h -8.208 V 23.818 c 0,-0.228 -0.19,-0.418 -0.418,-0.418 h -5.054 v 26.182 c 0,0.228 0.19,0.418 0.418,0.418 h 5.054 V 39.018 h 8.208 v 10.564 c 0,0.228 0.19,0.418 0.418,0.418 z m 17.76398,-27.36 c -5.396,0 -10.146,3.61 -10.146,10.64 v 7.258 c 0,6.574 4.446,10.222 10.146,10.222 c 5.814,0 10.146,-3.648 10.146,-10.222 V 33.28 c 0,-7.03 -4.446,-10.64 -10.146,-10.64 z m -5.016,17.556 v -7.334 c 0,-3.382 1.634,-5.586 5.092,-5.586 c 1.634,0 2.812,0.456 3.572,1.178 c 0.912,0.836 1.368,2.014 1.368,4.408 v 7.296 c 0,3.876 -2.052,5.89 -4.864,5.89 c -1.596,0 -2.812,-0.456 -3.534,-1.064 c -0.722,-0.646 -1.634,-1.9 -1.634,-4.788 z M 162.96397,50 v -9.196 h 2.812 c 1.14,2.242 2.28,4.484 3.42,6.688 c 1.026,2.052 2.242,2.508 4.826,2.508 h 1.52 c 0.266,0 0.418,-0.152 0.418,-0.418 v -4.218 h -1.254 c -0.57,0 -0.912,-0.228 -1.33,-0.988 c -0.836,-1.558 -1.596,-2.888 -2.394,-4.332 c 2.508,-1.102 3.914,-3.458 3.914,-6.688 v -2.128 c 0,-4.788 -2.432,-7.828 -8.588,-7.828 h -10.488 v 4.218 c 0,0.266 0.152,0.418 0.418,0.418 h 1.444 v 21.546 c 0,0.266 0.152,0.418 0.418,0.418 z m 3.534,-21.964 c 1.102,0 1.862,0.266 2.356,0.76 c 0.494,0.494 0.722,1.216 0.722,2.166 v 2.47 c 0,1.938 -0.988,2.888 -3.078,2.888 h -3.534 V 28.036 Z M 196.42199,50 v -4.218 c 0,-0.228 -0.19,-0.418 -0.418,-0.418 h -3.648 V 28.036 h 4.066 v -4.218 c 0,-0.228 -0.19,-0.418 -0.418,-0.418 h -13.186 v 4.218 c 0,0.228 0.19,0.418 0.418,0.418 h 3.648 v 17.328 h -4.066 v 4.218 c 0,0.228 0.19,0.418 0.418,0.418 z m 12.216,-19.608 v -2.128 h 8.778 v 0.798 c -1.634,1.026 -2.812,1.938 -4.332,3.876 c -3.23,3.952 -6.27,7.752 -9.386,11.514 v 5.13 c 0,0.266 0.152,0.418 0.418,0.418 h 18.658 v -4.446 c 0,-0.266 -0.152,-0.418 -0.418,-0.418 h -13.414 V 44.3 c 1.672,-1.102 2.85,-2.014 4.598,-4.218 c 3.268,-4.142 6.384,-7.904 9.082,-11.134 v -5.13 c 0,-0.266 -0.152,-0.418 -0.418,-0.418 h -18.392 v 6.574 c 0,0.266 0.152,0.418 0.418,0.418 z m 29.77198,-7.752 c -5.396,0 -10.146,3.61 -10.146,10.64 v 7.258 c 0,6.574 4.446,10.222 10.146,10.222 c 5.814,0 10.146,-3.648 10.146,-10.222 V 33.28 c 0,-7.03 -4.446,-10.64 -10.146,-10.64 z m -5.016,17.556 v -7.334 c 0,-3.382 1.634,-5.586 5.092,-5.586 c 1.634,0 2.812,0.456 3.572,1.178 c 0.912,0.836 1.368,2.014 1.368,4.408 v 7.296 c 0,3.876 -2.052,5.89 -4.864,5.89 c -1.596,0 -2.812,-0.456 -3.534,-1.064 c -0.722,-0.646 -1.634,-1.9 -1.634,-4.788 z M 260.61996,50 v -6.194 c 0,-2.964 -0.152,-7.296 -1.026,-12.92 h 0.798 c 2.812,5.738 5.434,10.83 9.652,17.898 c 0.684,1.178 1.026,1.216 1.33,1.216 h 4.674 V 23.818 c 0,-0.228 -0.19,-0.418 -0.418,-0.418 h -4.75 v 5.206 c 0,4.142 0.228,7.828 1.178,13.224 h -0.722 c -2.888,-5.814 -5.814,-11.172 -9.082,-17.252 c -0.608,-1.178 -0.608,-1.178 -1.064,-1.178 h -5.738 v 26.182 c 0,0.228 0.19,0.418 0.418,0.418 z"
         id="text9"
         style="font-weight:bold;font-size:38px;font-family:'Recursive Sans Linear Static';-inkscape-font-specification:'Recursive Sans Linear Static Bold';letter-spacing:2.64px;fill:#f97316"
         aria-label="HORIZON" />
    </g>
  </g>
  <!-- FOOTER -->
</svg>
