<?xml version="1.0" encoding="UTF-8" standalone="no"?>
<svg
   width="214.70395"
   height="35.519989"
   viewBox="0 0 214.70395 35.519989"
   version="1.1"
   id="svg54"
   xmlns="http://www.w3.org/2000/svg"
   xmlns:svg="http://www.w3.org/2000/svg">
  <defs
     id="defs1">
    <style
       id="style1">@import url('https://fonts.googleapis.com/css2?family=Recursive:slnt,wght,CASL,CRSV,MONO@-15..0,300..900,0..1,0..1,0..1&amp;display=swap');</style>
  </defs>
  <!-- HORIZONTAL PRIMARY -->
  <!-- HORIZONTAL WITH TAGLINE -->
  <!-- STACKED -->
  <!-- STACKED + TAGLINE -->
  <!-- WORDMARK ONLY -->
  <!-- SIZE VARIATIONS -->
  <!-- BADGE -->
  <g
     id="g4"
     transform="translate(-503.50399,-275.44)">
    <path
       d="m 527.696,310 v -33.072 c 0,-0.288 -0.24,-0.528 -0.528,-0.528 h -6.384 v 13.872 h -10.368 v -13.344 c 0,-0.288 -0.24,-0.528 -0.528,-0.528 h -6.384 v 33.072 c 0,0.288 0.24,0.528 0.528,0.528 h 6.384 v -13.872 h 10.368 v 13.344 c 0,0.288 0.24,0.528 0.528,0.528 z m 21.74398,-34.56 c -6.816,0 -12.816,4.56 -12.816,13.44 v 9.168 c 0,8.304 5.616,12.912 12.816,12.912 c 7.344,0 12.816,-4.608 12.816,-12.912 v -9.168 c 0,-8.88 -5.616,-13.44 -12.816,-13.44 z m -6.336,22.176 v -9.264 c 0,-4.272 2.064,-7.056 6.432,-7.056 c 2.064,0 3.552,0.576 4.512,1.488 c 1.152,1.056 1.728,2.544 1.728,5.568 v 9.216 c 0,4.896 -2.592,7.44 -6.144,7.44 c -2.016,0 -3.552,-0.576 -4.464,-1.344 c -0.912,-0.816 -2.064,-2.4 -2.064,-6.048 z M 578.14396,310 v -11.616 h 3.552 c 1.44,2.832 2.88,5.664 4.32,8.448 c 1.296,2.592 2.832,3.168 6.096,3.168 h 1.92 c 0.336,0 0.528,-0.192 0.528,-0.528 v -5.328 h -1.584 c -0.72,0 -1.152,-0.288 -1.68,-1.248 c -1.056,-1.968 -2.016,-3.648 -3.024,-5.472 c 3.168,-1.392 4.944,-4.368 4.944,-8.448 v -2.688 c 0,-6.048 -3.072,-9.888 -10.848,-9.888 h -13.248 v 5.328 c 0,0.336 0.192,0.528 0.528,0.528 h 1.824 v 27.216 c 0,0.336 0.192,0.528 0.528,0.528 z m 4.464,-27.744 c 1.392,0 2.352,0.336 2.976,0.96 c 0.624,0.624 0.912,1.536 0.912,2.736 v 3.12 c 0,2.448 -1.248,3.648 -3.888,3.648 h -4.464 V 282.256 Z M 619.71198,310 v -5.328 c 0,-0.288 -0.24,-0.528 -0.528,-0.528 h -4.608 v -21.888 h 5.136 v -5.328 c 0,-0.288 -0.24,-0.528 -0.528,-0.528 h -16.656 v 5.328 c 0,0.288 0.24,0.528 0.528,0.528 h 4.608 v 21.888 h -5.136 v 5.328 c 0,0.288 0.24,0.528 0.528,0.528 z m 14.736,-24.768 v -2.688 h 11.088 v 1.008 c -2.064,1.296 -3.552,2.448 -5.472,4.896 c -4.08,4.992 -7.92,9.792 -11.856,14.544 v 6.48 c 0,0.336 0.192,0.528 0.528,0.528 h 23.568 v -5.616 c 0,-0.336 -0.192,-0.528 -0.528,-0.528 h -16.944 V 302.8 c 2.112,-1.392 3.6,-2.544 5.808,-5.328 c 4.128,-5.232 8.064,-9.984 11.472,-14.064 v -6.48 c 0,-0.336 -0.192,-0.528 -0.528,-0.528 h -23.232 v 8.304 c 0,0.336 0.192,0.528 0.528,0.528 z m 36.91198,-9.792 c -6.816,0 -12.816,4.56 -12.816,13.44 v 9.168 c 0,8.304 5.616,12.912 12.816,12.912 c 7.344,0 12.816,-4.608 12.816,-12.912 v -9.168 c 0,-8.88 -5.616,-13.44 -12.816,-13.44 z m -6.336,22.176 v -9.264 c 0,-4.272 2.064,-7.056 6.432,-7.056 c 2.064,0 3.552,0.576 4.512,1.488 c 1.152,1.056 1.728,2.544 1.728,5.568 v 9.216 c 0,4.896 -2.592,7.44 -6.144,7.44 c -2.016,0 -3.552,-0.576 -4.464,-1.344 c -0.912,-0.816 -2.064,-2.4 -2.064,-6.048 z M 698.71995,310 v -7.824 c 0,-3.744 -0.192,-9.216 -1.296,-16.32 h 1.008 c 3.552,7.248 6.864,13.68 12.192,22.608 c 0.864,1.488 1.296,1.536 1.68,1.536 h 5.904 v -33.072 c 0,-0.288 -0.24,-0.528 -0.528,-0.528 h -6 v 6.576 c 0,5.232 0.288,9.888 1.488,16.704 h -0.912 c -3.648,-7.344 -7.344,-14.112 -11.472,-21.792 c -0.768,-1.488 -0.768,-1.488 -1.344,-1.488 h -7.248 v 33.072 c 0,0.288 0.24,0.528 0.528,0.528 z"
       id="text33"
       style="font-weight:bold;font-size:48px;font-family:'Recursive Sans Linear Static';-inkscape-font-specification:'Recursive Sans Linear Static Bold';letter-spacing:2.64px;fill:#f97316"
       aria-label="HORIZON" />
  </g>
  <!-- FOOTER -->
</svg>
