<?xml version="1.0" encoding="UTF-8" standalone="no"?>
<svg
   width="287.24994"
   height="80"
   viewBox="0 0 287.24994 80"
   version="1.1"
   id="svg54"
   xmlns="http://www.w3.org/2000/svg"
   xmlns:svg="http://www.w3.org/2000/svg">
  <defs
     id="defs1">
    <style
       id="style1">@import url('https://fonts.googleapis.com/css2?family=Recursive:slnt,wght,CASL,CRSV,MONO@-15..0,300..900,0..1,0..1,0..1&amp;display=swap');</style>
  </defs>
  <!-- HORIZONTAL PRIMARY -->
  <!-- HORIZONTAL WITH TAGLINE -->
  <!-- STACKED -->
  <!-- STACKED + TAGLINE -->
  <!-- WORDMARK ONLY -->
  <!-- SIZE VARIATIONS -->
  <!-- BADGE -->
  <g
     id="g4"
     transform="translate(-519.99999,-108)">
    <g
       transform="translate(520,108)"
       id="g18">
      <rect
         width="110"
         height="110"
         fill="#0c1220"
         id="rect10"
         x="0"
         y="0"
         transform="scale(0.72727273)" />
      <line
         x1="18"
         y1="50"
         x2="92"
         y2="50"
         stroke="#1e90ff"
         stroke-width="1.5"
         stroke-linecap="square"
         opacity="0.25"
         id="line10"
         transform="scale(0.72727273)" />
      <path
         d="m 20,50 a 35,32 0 0 1 70,0"
         fill="none"
         stroke="#f97316"
         stroke-width="5"
         stroke-linecap="square"
         id="path10"
         transform="scale(0.72727273)" />
      <path
         d="m 34,50 a 21,19 0 0 1 42,0"
         fill="none"
         stroke="#f97316"
         stroke-width="2.5"
         stroke-linecap="square"
         opacity="0.45"
         id="path11"
         transform="scale(0.72727273)" />
      <circle
         cx="55"
         cy="50"
         r="4.5"
         fill="#f97316"
         id="circle11"
         transform="scale(0.72727273)" />
      <line
         x1="55"
         y1="55"
         x2="26"
         y2="94"
         stroke="#1e90ff"
         stroke-width="3.5"
         stroke-linecap="square"
         id="line11"
         transform="scale(0.72727273)" />
      <line
         x1="55"
         y1="55"
         x2="84"
         y2="94"
         stroke="#1e90ff"
         stroke-width="3.5"
         stroke-linecap="square"
         id="line12"
         transform="scale(0.72727273)" />
      <line
         x1="55"
         y1="55"
         x2="18"
         y2="82"
         stroke="#f97316"
         stroke-width="2"
         stroke-linecap="square"
         opacity="0.45"
         id="line13"
         transform="scale(0.72727273)" />
      <line
         x1="55"
         y1="55"
         x2="92"
         y2="82"
         stroke="#f97316"
         stroke-width="2"
         stroke-linecap="square"
         opacity="0.45"
         id="line14"
         transform="scale(0.72727273)" />
      <g
         stroke="#5a6f8a"
         stroke-width="1.5"
         fill="none"
         opacity="0.3"
         id="g17"
         transform="scale(0.72727273)">
        <polyline
           points="8,20 8,8 20,8"
           id="polyline14" />
        <polyline
           points="90,8 102,8 102,20"
           id="polyline15" />
        <polyline
           points="102,90 102,102 90,102"
           id="polyline16" />
        <polyline
           points="20,102 8,102 8,90"
           id="polyline17" />
      </g>
      <path
         d="M 118.464,42 V 19.952 c 0,-0.192 -0.16,-0.352 -0.352,-0.352 h -4.256 v 9.248 h -6.912 v -8.896 c 0,-0.192 -0.16,-0.352 -0.352,-0.352 h -4.256 v 22.048 c 0,0.192 0.16,0.352 0.352,0.352 h 4.256 v -9.248 h 6.912 v 8.896 c 0,0.192 0.16,0.352 0.352,0.352 z m 15.37599,-23.04 c -4.544,0 -8.544,3.04 -8.544,8.96 v 6.112 c 0,5.536 3.744,8.608 8.544,8.608 c 4.896,0 8.544,-3.072 8.544,-8.608 V 27.92 c 0,-5.92 -3.744,-8.96 -8.544,-8.96 z m -4.224,14.784 v -6.176 c 0,-2.848 1.376,-4.704 4.288,-4.704 c 1.376,0 2.368,0.384 3.008,0.992 c 0.768,0.704 1.152,1.696 1.152,3.712 v 6.144 c 0,3.264 -1.728,4.96 -4.096,4.96 c -1.344,0 -2.368,-0.384 -2.976,-0.896 c -0.608,-0.544 -1.376,-1.6 -1.376,-4.032 z M 153.85597,42 v -7.744 h 2.368 c 0.96,1.888 1.92,3.776 2.88,5.632 c 0.864,1.728 1.888,2.112 4.064,2.112 h 1.28 c 0.224,0 0.352,-0.128 0.352,-0.352 v -3.552 h -1.056 c -0.48,0 -0.768,-0.192 -1.12,-0.832 c -0.704,-1.312 -1.344,-2.432 -2.016,-3.648 c 2.112,-0.928 3.296,-2.912 3.296,-5.632 v -1.792 c 0,-4.032 -2.048,-6.592 -7.232,-6.592 h -8.832 v 3.552 c 0,0.224 0.128,0.352 0.352,0.352 h 1.216 v 18.144 c 0,0.224 0.128,0.352 0.352,0.352 z m 2.976,-18.496 c 0.928,0 1.568,0.224 1.984,0.64 c 0.416,0.416 0.608,1.024 0.608,1.824 v 2.08 c 0,1.632 -0.832,2.432 -2.592,2.432 h -2.976 V 23.504 Z M 182.44799,42 v -3.552 c 0,-0.192 -0.16,-0.352 -0.352,-0.352 h -3.072 V 23.504 h 3.424 v -3.552 c 0,-0.192 -0.16,-0.352 -0.352,-0.352 h -11.104 v 3.552 c 0,0.192 0.16,0.352 0.352,0.352 h 3.072 v 14.592 h -3.424 v 3.552 c 0,0.192 0.16,0.352 0.352,0.352 z m 10.704,-16.512 v -1.792 h 7.392 v 0.672 c -1.376,0.864 -2.368,1.632 -3.648,3.264 c -2.72,3.328 -5.28,6.528 -7.904,9.696 v 4.32 c 0,0.224 0.128,0.352 0.352,0.352 h 15.712 v -3.744 c 0,-0.224 -0.128,-0.352 -0.352,-0.352 h -11.296 V 37.2 c 1.408,-0.928 2.4,-1.696 3.872,-3.552 c 2.752,-3.488 5.376,-6.656 7.648,-9.376 v -4.32 c 0,-0.224 -0.128,-0.352 -0.352,-0.352 h -15.488 v 5.536 c 0,0.224 0.128,0.352 0.352,0.352 z m 25.48798,-6.528 c -4.544,0 -8.544,3.04 -8.544,8.96 v 6.112 c 0,5.536 3.744,8.608 8.544,8.608 c 4.896,0 8.544,-3.072 8.544,-8.608 V 27.92 c 0,-5.92 -3.744,-8.96 -8.544,-8.96 z m -4.224,14.784 v -6.176 c 0,-2.848 1.376,-4.704 4.288,-4.704 c 1.376,0 2.368,0.384 3.008,0.992 c 0.768,0.704 1.152,1.696 1.152,3.712 v 6.144 c 0,3.264 -1.728,4.96 -4.096,4.96 c -1.344,0 -2.368,-0.384 -2.976,-0.896 c -0.608,-0.544 -1.376,-1.6 -1.376,-4.032 z M 237.75996,42 v -5.216 c 0,-2.496 -0.128,-6.144 -0.864,-10.88 h 0.672 c 2.368,4.832 4.576,9.12 8.128,15.072 c 0.576,0.992 0.864,1.024 1.12,1.024 h 3.936 V 19.952 c 0,-0.192 -0.16,-0.352 -0.352,-0.352 h -4 v 4.384 c 0,3.488 0.192,6.592 0.992,11.136 h -0.608 c -2.432,-4.896 -4.896,-9.408 -7.648,-14.528 c -0.512,-0.992 -0.512,-0.992 -0.896,-0.992 h -4.832 v 22.048 c 0,0.192 0.16,0.352 0.352,0.352 z"
         id="text17"
         style="font-weight:bold;font-size:32px;font-family:'Recursive Sans Linear Static';-inkscape-font-specification:'Recursive Sans Linear Static Bold';letter-spacing:2.64px;fill:#f97316"
         aria-label="HORIZON" />
      <path
         d="m 103.21,52.81 c -1.53,0 -2.51,0.79 -2.51,1.88 v 0.48 c 0,0.74 0.31,1.37 1.63,1.77 l 0.95,0.29 c 0.73,0.22 0.82,0.39 0.82,0.71 v 0.34 c 0,0.37 -0.36,0.68 -1.19,0.68 c -0.9,0 -1.5,-0.18 -2.1,-0.59 h -0.19 v 1.1 c 0,0.12 0.02,0.15 0.06,0.19 c 0.34,0.33 1.17,0.53 2.14,0.53 c 1.64,0 2.61,-0.71 2.61,-1.88 v -0.46 c 0,-0.93 -0.37,-1.41 -1.61,-1.78 l -0.96,-0.29 c -0.7,-0.21 -0.83,-0.39 -0.83,-0.78 v -0.21 c 0,-0.53 0.41,-0.76 1.18,-0.76 c 0.28,0 0.5,0.03 0.71,0.09 v 0.7 c 0,0.07 0.04,0.11 0.11,0.11 h 1.17 v -1.38 c 0,-0.08 -0.01,-0.13 -0.06,-0.18 c -0.31,-0.31 -1,-0.56 -1.93,-0.56 z m 6.31,7.19 h 4.11 v -1.11 c 0,-0.06 -0.05,-0.11 -0.11,-0.11 h -2.67 v -1.71 h 2.19 V 56 c 0,-0.06 -0.05,-0.11 -0.11,-0.11 h -2.08 v -1.67 h 2.78 v -1.11 c 0,-0.06 -0.05,-0.11 -0.11,-0.11 h -4.59 v 1.11 c 0,0.06 0.04,0.11 0.11,0.11 h 0.37 v 5.67 c 0,0.06 0.05,0.11 0.11,0.11 z m 8.14,0 h 4.11 v -1.11 c 0,-0.06 -0.05,-0.11 -0.11,-0.11 h -2.67 v -1.71 h 2.19 V 56 c 0,-0.06 -0.05,-0.11 -0.11,-0.11 h -2.08 v -1.67 h 2.78 v -1.11 c 0,-0.06 -0.05,-0.11 -0.11,-0.11 h -4.59 v 1.11 c 0,0.06 0.04,0.11 0.11,0.11 h 0.37 v 5.67 c 0,0.06 0.05,0.11 0.11,0.11 z m 15.30998,0 v -2.63 h 2.16 v -1.12 c 0,-0.06 -0.04,-0.11 -0.11,-0.11 h -2.05 v -1.92 h 2.49 v -1.11 c 0,-0.07 -0.04,-0.11 -0.11,-0.11 h -4.3 v 1.11 c 0,0.07 0.04,0.11 0.11,0.11 h 0.37 v 5.67 c 0,0.07 0.04,0.11 0.11,0.11 z m 8.09999,0.11 c 0.81,0 1.38,-0.36 1.76,-1.03 h 0.2 v 0.81 c 0,0.07 0.04,0.11 0.11,0.11 h 1.33 v -6.89 c 0,-0.06 -0.05,-0.11 -0.11,-0.11 h -1.33 v 4.97 c -0.47,0.61 -0.96,0.88 -1.52,0.88 c -0.46,0 -0.65,-0.19 -0.65,-0.67 v -5.07 c 0,-0.07 -0.04,-0.11 -0.11,-0.11 h -1.33 v 5.27 c 0,1.18 0.51,1.84 1.65,1.84 z m 8.95,-0.11 v -2.42 h 0.74 c 0.3,0.59 0.6,1.18 0.9,1.76 c 0.27,0.54 0.59,0.66 1.27,0.66 h 0.4 c 0.07,0 0.11,-0.04 0.11,-0.11 v -1.11 h -0.33 c -0.15,0 -0.24,-0.06 -0.35,-0.26 c -0.22,-0.41 -0.42,-0.76 -0.63,-1.14 c 0.66,-0.29 1.03,-0.91 1.03,-1.76 v -0.56 c 0,-1.26 -0.64,-2.06 -2.26,-2.06 h -2.76 v 1.11 c 0,0.07 0.04,0.11 0.11,0.11 h 0.38 v 5.67 c 0,0.07 0.04,0.11 0.11,0.11 z m 0.93,-5.78 c 0.29,0 0.49,0.07 0.62,0.2 c 0.13,0.13 0.19,0.32 0.19,0.57 v 0.65 c 0,0.51 -0.26,0.76 -0.81,0.76 h -0.93 v -2.18 z m 9.05,5.78 v -5.78 h 1.77 v -1.11 c 0,-0.07 -0.04,-0.11 -0.11,-0.11 h -4.87 v 1.11 c 0,0.07 0.04,0.11 0.11,0.11 h 1.66 v 5.67 c 0,0.07 0.04,0.11 0.11,0.11 z m 10.69001,0 v -6.89 c 0,-0.06 -0.05,-0.11 -0.11,-0.11 h -1.33 v 2.89 h -2.16 v -2.78 c 0,-0.06 -0.05,-0.11 -0.11,-0.11 h -1.33 v 6.89 c 0,0.06 0.05,0.11 0.11,0.11 h 1.33 v -2.89 h 2.16 v 2.78 c 0,0.06 0.05,0.11 0.11,0.11 z m 4.24999,0 h 4.11 v -1.11 c 0,-0.06 -0.05,-0.11 -0.11,-0.11 h -2.67 v -1.71 h 2.19 V 56 c 0,-0.06 -0.05,-0.11 -0.11,-0.11 h -2.08 v -1.67 h 2.78 v -1.11 c 0,-0.06 -0.05,-0.11 -0.11,-0.11 h -4.59 v 1.11 c 0,0.06 0.04,0.11 0.11,0.11 h 0.37 v 5.67 c 0,0.06 0.05,0.11 0.11,0.11 z m 9.43999,0 v -2.42 h 0.74 c 0.3,0.59 0.6,1.18 0.9,1.76 c 0.27,0.54 0.59,0.66 1.27,0.66 h 0.4 c 0.07,0 0.11,-0.04 0.11,-0.11 v -1.11 h -0.33 c -0.15,0 -0.24,-0.06 -0.35,-0.26 c -0.22,-0.41 -0.42,-0.76 -0.63,-1.14 c 0.66,-0.29 1.03,-0.91 1.03,-1.76 v -0.56 c 0,-1.26 -0.64,-2.06 -2.26,-2.06 h -2.76 v 1.11 c 0,0.07 0.04,0.11 0.11,0.11 h 0.38 v 5.67 c 0,0.07 0.04,0.11 0.11,0.11 z m 0.93,-5.78 c 0.29,0 0.49,0.07 0.62,0.2 c 0.13,0.13 0.19,0.32 0.19,0.57 v 0.65 c 0,0.51 -0.26,0.76 -0.81,0.76 h -0.93 v -2.18 z m 7.96,5.87 v -1.66 c 0,-0.07 -0.04,-0.11 -0.11,-0.11 h -1.65 v 1.66 c 0,0.07 0.04,0.11 0.11,0.11 z m 10.85,-0.09 c 0.15,-0.59 0.29,-1.13 0.41,-1.62 h 2.25 c 0.11,0.44 0.23,0.92 0.36,1.43 c 0.05,0.16 0.07,0.19 0.19,0.19 h 1.23 c -0.09,-0.48 -0.2,-0.95 -0.31,-1.39 c -0.52,-2.14 -0.99,-4 -1.37,-5.51 c -0.02,-0.07 -0.05,-0.11 -0.12,-0.11 h -2.26 c -0.36,1.39 -1.41,5.7 -1.72,6.88 c -0.02,0.1 0.04,0.13 0.08,0.13 z m 1.45,-5.92 h 0.23 c 0.12,0.75 0.35,1.74 0.69,3.12 h -1.65 c 0.36,-1.41 0.59,-2.38 0.73,-3.12 z m 9.19999,6.12 c 0.93,0 1.71,-0.27 1.99,-0.56 c 0.04,-0.03 0.06,-0.08 0.06,-0.15 v -1.1 h -0.19 c -0.62,0.4 -1.12,0.55 -1.85,0.55 c -0.45,0 -0.83,-0.09 -1.07,-0.33 c -0.26,-0.26 -0.37,-0.67 -0.37,-1.26 v -1.87 c 0,-0.96 0.5,-1.39 1.3,-1.39 c 0.33,0 0.6,0.04 0.85,0.14 v 1.02 c 0,0.07 0.04,0.11 0.11,0.11 h 1.16 v -1.75 c 0,-0.07 -0.01,-0.12 -0.05,-0.17 c -0.32,-0.31 -1.04,-0.64 -2.05,-0.64 c -1.76,0 -2.76,1.07 -2.76,2.64 v 2.02 c 0,1.74 0.95,2.74 2.87,2.74 z m 8.64999,-0.2 v -5.78 h 1.77 v -1.11 c 0,-0.07 -0.04,-0.11 -0.11,-0.11 h -4.87 v 1.11 c 0,0.07 0.04,0.11 0.11,0.11 h 1.66 v 5.67 c 0,0.07 0.04,0.11 0.11,0.11 z m 12.97001,0 v -2.63 h 2.16 v -1.12 c 0,-0.06 -0.04,-0.11 -0.11,-0.11 h -2.05 v -1.92 h 2.49 v -1.11 c 0,-0.07 -0.04,-0.11 -0.11,-0.11 h -4.3 v 1.11 c 0,0.07 0.04,0.11 0.11,0.11 h 0.37 v 5.67 c 0,0.07 0.04,0.11 0.11,0.11 z m 7.22999,0 c 0.15,-0.59 0.29,-1.13 0.41,-1.62 h 2.25 c 0.11,0.44 0.23,0.92 0.36,1.43 c 0.05,0.16 0.07,0.19 0.19,0.19 h 1.23 c -0.09,-0.48 -0.2,-0.95 -0.31,-1.39 c -0.52,-2.14 -0.99,-4 -1.37,-5.51 c -0.02,-0.07 -0.05,-0.11 -0.12,-0.11 h -2.26 c -0.36,1.39 -1.41,5.7 -1.72,6.88 c -0.02,0.1 0.04,0.13 0.08,0.13 z m 1.45,-5.92 h 0.23 c 0.12,0.75 0.35,1.74 0.69,3.12 h -1.65 c 0.36,-1.41 0.59,-2.38 0.73,-3.12 z m 9.19998,-1.27 c -1.53,0 -2.51,0.79 -2.51,1.88 v 0.48 c 0,0.74 0.31,1.37 1.63,1.77 l 0.95,0.29 c 0.73,0.22 0.82,0.39 0.82,0.71 v 0.34 c 0,0.37 -0.36,0.68 -1.19,0.68 c -0.9,0 -1.5,-0.18 -2.1,-0.59 h -0.19 v 1.1 c 0,0.12 0.02,0.15 0.06,0.19 c 0.34,0.33 1.17,0.53 2.14,0.53 c 1.64,0 2.61,-0.71 2.61,-1.88 v -0.46 c 0,-0.93 -0.37,-1.41 -1.61,-1.78 l -0.96,-0.29 c -0.7,-0.21 -0.83,-0.39 -0.83,-0.78 v -0.21 c 0,-0.53 0.41,-0.76 1.18,-0.76 c 0.28,0 0.5,0.03 0.71,0.09 v 0.7 c 0,0.07 0.04,0.11 0.11,0.11 h 1.17 v -1.38 c 0,-0.08 -0.01,-0.13 -0.06,-0.18 c -0.31,-0.31 -1,-0.56 -1.93,-0.56 z m 8.85,7.19 v -5.78 h 1.77 v -1.11 c 0,-0.07 -0.04,-0.11 -0.11,-0.11 h -4.87 v 1.11 c 0,0.07 0.04,0.11 0.11,0.11 h 1.66 v 5.67 c 0,0.07 0.04,0.11 0.11,0.11 z m 5.80001,0 h 4.11 v -1.11 c 0,-0.06 -0.05,-0.11 -0.11,-0.11 h -2.67 v -1.71 h 2.19 V 56 c 0,-0.06 -0.05,-0.11 -0.11,-0.11 h -2.08 v -1.67 h 2.78 v -1.11 c 0,-0.06 -0.05,-0.11 -0.11,-0.11 h -4.59 v 1.11 c 0,0.06 0.04,0.11 0.11,0.11 h 0.37 v 5.67 c 0,0.06 0.05,0.11 0.11,0.11 z m 9.43999,0 v -2.42 h 0.74 c 0.3,0.59 0.6,1.18 0.9,1.76 c 0.27,0.54 0.59,0.66 1.27,0.66 h 0.4 c 0.07,0 0.11,-0.04 0.11,-0.11 v -1.11 h -0.33 c -0.15,0 -0.24,-0.06 -0.35,-0.26 c -0.22,-0.41 -0.42,-0.76 -0.63,-1.14 c 0.66,-0.29 1.03,-0.91 1.03,-1.76 v -0.56 c 0,-1.26 -0.64,-2.06 -2.26,-2.06 h -2.76 v 1.11 c 0,0.07 0.04,0.11 0.11,0.11 h 0.38 v 5.67 c 0,0.07 0.04,0.11 0.11,0.11 z m 0.93,-5.78 c 0.29,0 0.49,0.07 0.62,0.2 c 0.13,0.13 0.19,0.32 0.19,0.57 v 0.65 c 0,0.51 -0.26,0.76 -0.81,0.76 h -0.93 v -2.18 z m 7.96,5.87 v -1.66 c 0,-0.07 -0.04,-0.11 -0.11,-0.11 h -1.65 v 1.66 c 0,0.07 0.04,0.11 0.11,0.11 z"
         id="text18"
         style="font-weight:bold;font-size:10px;font-family:'Recursive Sans Linear Static';-inkscape-font-specification:'Recursive Sans Linear Static Bold';letter-spacing:2.64px;fill:#1e90ff"
         aria-label="SEE FURTHER. ACT FASTER." />
    </g>
  </g>
  <!-- FOOTER -->
</svg>
