<?xml version="1.0" encoding="UTF-8" standalone="no"?>
<svg
   width="173.37604"
   height="37.679993"
   viewBox="0 0 173.37604 37.679993"
   version="1.1"
   id="svg102"
   xmlns="http://www.w3.org/2000/svg"
   xmlns:svg="http://www.w3.org/2000/svg">
  <defs
     id="defs1">
    <style
       id="style1">@import url('https://fonts.googleapis.com/css2?family=Recursive:slnt,wght,CASL,CRSV,MONO@-15..0,300..900,0..1,0..1,0..1&amp;display=swap');</style>
  </defs>
  <!-- HORIZONTAL PRIMARY -->
  <!-- HORIZONTAL WITH TAGLINE -->
  <!-- STACKED -->
  <!-- STACKED + TAGLINE -->
  <!-- WORDMARK ONLY -->
  <!-- SIZE VARIATIONS -->
  <!-- BADGE -->
  <!-- FOOTER -->
  <path
     d="M 23.327998,37.151986 V 4.0799853 c 0,-0.288 -0.24,-0.528 -0.528,-0.528 h -4.032 V 18.191986 h -14.208 V 4.0799853 c 0,-0.288 -0.24,-0.528 -0.528,-0.528 H -1.9553299e-6 V 36.623986 c 0,0.288 0.2400000053299,0.528 0.5280000053299,0.528 H 4.559998 v -14.928 h 14.208 v 14.4 c 0,0.288 0.24,0.528 0.528,0.528 z m 18.33599,-26.064 c -6.24,0 -10.944,4.368 -10.944,10.752 v 5.328 c 0,6.144 4.32,10.512 10.944,10.512 c 6.24,0 10.944,-4.368 10.944,-10.752 v -5.328 c 0,-6.144 -4.368,-10.512 -10.944,-10.512 z m 0.24,4.032 c 1.92,0 3.456,0.624 4.512,1.68 c 1.2,1.152 1.824,2.88 1.824,5.136 v 4.848 c 0,3.792 -2.4,6.864 -6.816,6.864 c -1.824,0 -3.408,-0.672 -4.464,-1.776 c -1.2,-1.152 -1.872,-2.928 -1.872,-5.04 v -4.848 c 0,-3.936 2.4,-6.864 6.816,-6.864 z m 23.23201,22.032 v -16.992 c 2.352,-3.216 4.32,-4.464 7.152,-4.464 c 1.056,0 1.824,0.144 2.496,0.336 h 0.72 v -3.744 c 0,-0.384 -0.048,-0.576 -0.384,-0.72 c -0.48,-0.24 -1.248,-0.432 -2.352,-0.432 c -2.88,0 -4.944,1.392 -6.816,4.992 h -0.816 v -3.984 c 0,-0.336 -0.192,-0.528 -0.528,-0.528 h -4.08 v 25.008 c 0,0.336 0.192,0.528 0.528,0.528 z m 19.58404,-0.528 c 0,0.288 0.24,0.528 0.528,0.528 h 3.888 v -25.008 c 0,-0.288 -0.24,-0.528 -0.528,-0.528 h -8.736 v 3.456 c 0,0.336 0.24,0.528 0.528,0.528 h 4.32 z M 83.856038,-1.4652017e-5 V 4.7039853 c 0,0.336 0.192,0.528 0.528,0.528 h 5.52 V 0.52798535 c 0,-0.336 -0.192,-0.528000002017 -0.528,-0.528000002017 z M 97.968058,11.615986 v 3.648 c 0,0.336 0.192,0.528 0.528,0.528 h 13.632002 v 0.72 c -1.2,1.008 -2.208,2.016 -3.312,3.216 c -3.216,3.648 -6.72,7.776 -10.848002,12.432 v 4.464 c 0,0.336 0.192,0.528 0.528,0.528 h 18.864002 v -3.6 c 0,-0.336 -0.192,-0.528 -0.528,-0.528 h -13.68 v -0.72 c 0.912,-0.72 1.728,-1.392 2.784,-2.496 c 3.36,-3.84 7.152,-8.4 11.424,-13.488 v -4.176 c 0,-0.336 -0.192,-0.528 -0.528,-0.528 z m 36.335942,-0.528 c -6.24,0 -10.944,4.368 -10.944,10.752 v 5.328 c 0,6.144 4.32,10.512 10.944,10.512 c 6.24,0 10.944,-4.368 10.944,-10.752 v -5.328 c 0,-6.144 -4.368,-10.512 -10.944,-10.512 z m 0.24,4.032 c 1.92,0 3.456,0.624 4.512,1.68 c 1.2,1.152 1.824,2.88 1.824,5.136 v 4.848 c 0,3.792 -2.4,6.864 -6.816,6.864 c -1.824,0 -3.408,-0.672 -4.464,-1.776 c -1.2,-1.152 -1.872,-2.928 -1.872,-5.04 v -4.848 c 0,-3.936 2.4,-6.864 6.816,-6.864 z m 23.04002,22.032 v -17.52 c 2.64,-2.928 5.376,-4.32 7.776,-4.32 c 2.304,0 3.6,1.248 3.6,3.84 v 17.472 c 0,0.336 0.192,0.528 0.528,0.528 h 3.888 v -18.864 c 0,-4.224 -2.448,-7.2 -6.768,-7.2 c -3.408,0 -6.096,1.92 -8.304,4.8 h -0.72 v -3.744 c 0,-0.336 -0.192,-0.528 -0.528,-0.528 h -3.888 v 25.008 c 0,0.336 0.192,0.528 0.528,0.528 z"
     id="text33-2"
     style="font-size:48px;font-family:'Recursive Sans Linear Static';-inkscape-font-specification:'Recursive Sans Linear Static';fill:#e8ecf4"
     aria-label="Horizon" />
</svg>
