<?xml version="1.0" encoding="UTF-8" standalone="no"?>
<svg
   width="255.14799"
   height="79.999969"
   viewBox="0 0 255.14799 79.999969"
   version="1.1"
   id="svg102"
   xmlns="http://www.w3.org/2000/svg"
   xmlns:svg="http://www.w3.org/2000/svg">
  <defs
     id="defs1">
    <style
       id="style1">@import url('https://fonts.googleapis.com/css2?family=Recursive:slnt,wght,CASL,CRSV,MONO@-15..0,300..900,0..1,0..1,0..1&amp;display=swap');</style>
  </defs>
  <!-- HORIZONTAL PRIMARY -->
  <!-- HORIZONTAL WITH TAGLINE -->
  <!-- STACKED -->
  <!-- STACKED + TAGLINE -->
  <!-- WORDMARK ONLY -->
  <!-- SIZE VARIATIONS -->
  <!-- BADGE -->
  <!-- FOOTER -->
  <g
     id="g10">
    <rect
       width="110"
       height="110"
       fill="#0c1220"
       id="rect2-9"
       x="0"
       y="0"
       transform="scale(0.72727273)" />
    <line
       x1="18"
       y1="50"
       x2="92"
       y2="50"
       stroke="#1e90ff"
       stroke-width="1.5"
       stroke-linecap="square"
       opacity="0.25"
       id="line2-2"
       transform="scale(0.72727273)" />
    <path
       d="m 20,50 a 35,32 0 0 1 70,0"
       fill="none"
       stroke="#f97316"
       stroke-width="5"
       stroke-linecap="square"
       id="path2"
       transform="scale(0.72727273)" />
    <path
       d="m 34,50 a 21,19 0 0 1 42,0"
       fill="none"
       stroke="#f97316"
       stroke-width="2.5"
       stroke-linecap="square"
       opacity="0.45"
       id="path3"
       transform="scale(0.72727273)" />
    <circle
       cx="55"
       cy="50"
       r="4.5"
       fill="#f97316"
       id="circle3"
       transform="scale(0.72727273)" />
    <line
       x1="55"
       y1="55"
       x2="26"
       y2="94"
       stroke="#1e90ff"
       stroke-width="3.5"
       stroke-linecap="square"
       id="line3-3"
       transform="scale(0.72727273)" />
    <line
       x1="55"
       y1="55"
       x2="84"
       y2="94"
       stroke="#1e90ff"
       stroke-width="3.5"
       stroke-linecap="square"
       id="line4-2"
       transform="scale(0.72727273)" />
    <line
       x1="55"
       y1="55"
       x2="18"
       y2="82"
       stroke="#f97316"
       stroke-width="2"
       stroke-linecap="square"
       opacity="0.45"
       id="line5-6"
       transform="scale(0.72727273)" />
    <line
       x1="55"
       y1="55"
       x2="92"
       y2="82"
       stroke="#f97316"
       stroke-width="2"
       stroke-linecap="square"
       opacity="0.45"
       id="line6-83"
       transform="scale(0.72727273)" />
    <g
       stroke="#5a6f8a"
       stroke-width="1.5"
       fill="none"
       opacity="0.3"
       id="g9"
       transform="scale(0.72727273)">
      <polyline
         points="8,20 8,8 20,8"
         id="polyline6" />
      <polyline
         points="90,8 102,8 102,20"
         id="polyline7" />
      <polyline
         points="102,90 102,102 90,102"
         id="polyline8" />
      <polyline
         points="20,102 8,102 8,90"
         id="polyline9" />
    </g>
    <path
       d="M 123.856,50 V 21.062 c 0,-0.252 -0.21,-0.462 -0.462,-0.462 h -3.528 V 33.41 H 107.434 V 21.062 c 0,-0.252 -0.21,-0.462 -0.462,-0.462 h -3.528 v 28.938 c 0,0.252 0.21,0.462 0.462,0.462 h 3.528 V 36.938 h 12.432 v 12.6 c 0,0.252 0.21,0.462 0.462,0.462 z m 16.04398,-22.806 c -5.46,0 -9.576,3.822 -9.576,9.408 v 4.662 c 0,5.376 3.78,9.198 9.576,9.198 c 5.46,0 9.576,-3.822 9.576,-9.408 v -4.662 c 0,-5.376 -3.822,-9.198 -9.576,-9.198 z m 0.21,3.528 c 1.68,0 3.024,0.546 3.948,1.47 c 1.05,1.008 1.596,2.52 1.596,4.494 v 4.242 c 0,3.318 -2.1,6.006 -5.964,6.006 c -1.596,0 -2.982,-0.588 -3.906,-1.554 c -1.05,-1.008 -1.638,-2.562 -1.638,-4.41 v -4.242 c 0,-3.444 2.1,-6.006 5.964,-6.006 z M 160.438,50 V 35.132 c 2.058,-2.814 3.78,-3.906 6.258,-3.906 c 0.924,0 1.596,0.126 2.184,0.294 h 0.63 v -3.276 c 0,-0.336 -0.042,-0.504 -0.336,-0.63 c -0.42,-0.21 -1.092,-0.378 -2.058,-0.378 c -2.52,0 -4.326,1.218 -5.964,4.368 h -0.714 v -3.486 c 0,-0.294 -0.168,-0.462 -0.462,-0.462 h -3.57 v 21.882 c 0,0.294 0.168,0.462 0.462,0.462 z m 17.13603,-0.462 c 0,0.252 0.21,0.462 0.462,0.462 h 3.402 V 28.118 c 0,-0.252 -0.21,-0.462 -0.462,-0.462 h -7.644 v 3.024 c 0,0.294 0.21,0.462 0.462,0.462 h 3.78 z m -0.756,-32.046 v 4.116 c 0,0.294 0.168,0.462 0.462,0.462 h 4.83 v -4.116 c 0,-0.294 -0.168,-0.462 -0.462,-0.462 z m 12.34802,10.164 v 3.192 c 0,0.294 0.168,0.462 0.462,0.462 h 11.928 v 0.63 c -1.05,0.882 -1.932,1.764 -2.898,2.814 c -2.814,3.192 -5.88,6.804 -9.492,10.878 v 3.906 c 0,0.294 0.168,0.462 0.462,0.462 h 16.506 v -3.15 c 0,-0.294 -0.168,-0.462 -0.462,-0.462 h -11.97 v -0.63 c 0.798,-0.63 1.512,-1.218 2.436,-2.184 c 2.94,-3.36 6.258,-7.35 9.996,-11.802 v -3.654 c 0,-0.294 -0.168,-0.462 -0.462,-0.462 z M 220.96,27.194 c -5.46,0 -9.576,3.822 -9.576,9.408 v 4.662 c 0,5.376 3.78,9.198 9.576,9.198 c 5.46,0 9.576,-3.822 9.576,-9.408 v -4.662 c 0,-5.376 -3.822,-9.198 -9.576,-9.198 z m 0.21,3.528 c 1.68,0 3.024,0.546 3.948,1.47 c 1.05,1.008 1.596,2.52 1.596,4.494 v 4.242 c 0,3.318 -2.1,6.006 -5.964,6.006 c -1.596,0 -2.982,-0.588 -3.906,-1.554 c -1.05,-1.008 -1.638,-2.562 -1.638,-4.41 v -4.242 c 0,-3.444 2.1,-6.006 5.964,-6.006 z M 241.33001,50 V 34.67 c 2.31,-2.562 4.704,-3.78 6.804,-3.78 c 2.016,0 3.15,1.092 3.15,3.36 v 15.288 c 0,0.294 0.168,0.462 0.462,0.462 h 3.402 V 33.494 c 0,-3.696 -2.142,-6.3 -5.922,-6.3 c -2.982,0 -5.334,1.68 -7.266,4.2 h -0.63 v -3.276 c 0,-0.294 -0.168,-0.462 -0.462,-0.462 h -3.402 v 21.882 c 0,0.294 0.168,0.462 0.462,0.462 z"
       id="text9"
       style="font-size:42px;font-family:'Recursive Sans Linear Static';-inkscape-font-specification:'Recursive Sans Linear Static';fill:#e8ecf4"
       aria-label="Horizon" />
  </g>
</svg>
