<?xml version="1.0" encoding="UTF-8" standalone="no"?>
<svg
   width="190.51202"
   height="44.063995"
   viewBox="0 0 190.51202 44.063995"
   version="1.1"
   id="svg102"
   xmlns="http://www.w3.org/2000/svg"
   xmlns:svg="http://www.w3.org/2000/svg">
  <defs
     id="defs1">
    <style
       id="style1">@import url('https://fonts.googleapis.com/css2?family=Recursive:slnt,wght,CASL,CRSV,MONO@-15..0,300..900,0..1,0..1,0..1&amp;display=swap');</style>
  </defs>
  <!-- HORIZONTAL PRIMARY -->
  <!-- HORIZONTAL WITH TAGLINE -->
  <!-- STACKED -->
  <!-- STACKED + TAGLINE -->
  <!-- WORDMARK ONLY -->
  <path
     d="M 11.952005,-1.3001603e-5 C 5.1360042,-1.3001603e-5 0.48000428,3.599987 0.48000428,8.783987 v 1.824 c 0,3.984 1.77599992,6.576 7.77599992,8.4 l 4.6560008,1.392 c 4.08,1.2 4.992,2.256 4.992,4.608 v 1.296 c 0,3.024 -2.544,4.992 -7.104,4.992 c -4.3680008,0 -7.2000008,-0.864 -10.08000072,-3.12 H 4.2759617e-6 v 3.552 c 0,0.432 0.048000004038,0.576 0.2880000040383,0.816 c 1.67999992,1.68 5.61599992,2.784 10.32000072,2.784 c 7.392,0 11.664,-3.504 11.664,-8.928 v -1.824 c 0,-4.368 -2.016,-6.384 -7.92,-8.16 l -4.6080008,-1.344 c -3.984,-1.152 -4.896,-2.496 -4.896,-4.992 v -0.96 c 0,-3.264 2.736,-5.088 7.1040008,-5.088 c 2.208,0 3.936,0.336 5.328,1.008 v 4.176 c 0,0.336 0.192,0.528 0.528,0.528 h 3.744 v -6.24 c 0,-0.336 -0.096,-0.528 -0.384,-0.816 c -1.536,-1.584 -4.896,-2.688000001604 -9.216,-2.688000001603 z M 30.768005,8.927987 h -4.128 c 3.024,8.208 7.536,19.824 8.688,22.752 c 0.768,1.872 0.96,1.968 1.872,1.968 h 2.016 c -0.432,1.392 -0.768,2.544 -1.008,3.264 c -0.672,2.256 -2.016,3.216 -4.176,3.216 h -4.56 v 3.408 c 0,0.384 0.192,0.528 0.528,0.528 h 4.368 c 4.272,0 6.528,-1.824 7.872,-6.384 c 2.64,-8.88 5.664,-18.192 8.736,-27.984 c 0.144,-0.48 -0.24,-0.768 -0.576,-0.768 h -3.792 c -2.064,7.008 -4.704,15.84 -6.528,21.888 h -0.864 c -1.104,-3.84 -4.416,-11.904 -7.536,-21.312 c -0.144,-0.432 -0.336,-0.576 -0.912,-0.576 z m 31.39201,25.536 v -17.52 c 2.64,-2.928 5.376,-4.32 7.776,-4.32 c 2.304,0 3.6,1.248 3.6,3.84 v 17.472 c 0,0.336 0.192,0.528 0.528,0.528 h 3.888 v -18.864 c 0,-4.224 -2.448,-7.2 -6.768,-7.2 c -3.408,0 -6.096,1.92 -8.304,4.8 h -0.72 v -3.744 c 0,-0.336 -0.192,-0.528 -0.528,-0.528 h -3.888 v 25.008 c 0,0.336 0.192,0.528 0.528,0.528 z m 43.776015,-16.848 c 0,-6.624 -3.072,-9.168 -10.271995,-9.168 c -3.936,0 -7.776,1.152 -8.256,1.68 c -0.096,0.096 -0.144,0.192 -0.144,0.384 v 3.456 h 0.72 c 2.544,-0.96 4.8,-1.392 7.68,-1.392 c 4.415995,0 5.903995,1.152 5.903995,4.992 v 2.208 h -8.591995 c -4.656,0 -7.536,2.592 -7.536,6.816 v 1.536 c 0,4.224 2.832,6.816 7.344,6.816 c 3.84,0 6.672,-1.632 8.255995,-4.56 h 0.624 c 0.48,2.736 2.544,4.08 5.136,4.08 h 1.68 c 0.336,0 0.528,-0.144 0.528,-0.528 v -3.36 h -1.2 c -0.624,0 -1.104,-0.096 -1.392,-0.432 c -0.336,-0.336 -0.48,-0.864 -0.48,-1.728 z m -16.079995,10.032 v -1.44 c 0,-1.008 0.288,-1.824 0.864,-2.352 c 0.624,-0.624 1.584,-0.96 2.88,-0.96 h 7.967995 v 4.32 c -2.639995,2.832 -5.039995,3.744 -7.967995,3.744 c -2.496,0 -3.744,-1.152 -3.744,-3.312 z m 25.488015,-18.72 v 34.608 c 0,0.336 0.192,0.528 0.528,0.528 h 3.888 v -12.96 h 0.672 c 1.824,2.544 4.416,3.84 7.584,3.84 c 5.04,0 8.448,-3.6 8.448,-9.648 v -7.488 c 0,-5.856 -3.408,-9.408 -8.352,-9.408 c -3.312,0 -5.904,1.728 -7.68,4.704 h -0.672 v -3.648 c 0,-0.336 -0.192,-0.528 -0.528,-0.528 z m 11.52,3.696 c 1.584,0 2.832,0.48 3.744,1.344 c 0.96,1.008 1.488,2.496 1.488,4.512 v 6.144 c 0,3.936 -2.016,6.096 -5.232,6.096 c -2.688,0 -5.184,-1.008 -7.104,-3.312 v -10.08 c 2.208,-3.216 4.608,-4.704 7.104,-4.704 z m 25.15201,18.048 c -3.888,0 -6.48,-0.624 -9.168,-2.352 h -0.72 v 3.84 c 0,0.336 0.048,0.432 0.288,0.576 c 1.728,1.2 5.088,2.16 9.648,2.16 c 6.72,0 10.704,-3.024 10.704,-7.824 c 0,-3.84 -2.496,-6.144 -6.672,-7.008 l -4.752,-0.96 c -3.264,-0.72 -4.08,-1.44 -4.08,-3.072 c 0,-1.824 1.776,-3.312 6.096,-3.312 c 3.12,0 5.136,0.336 7.488,1.2 h 0.72 v -3.408 c 0,-0.48 -0.048,-0.672 -0.576,-0.864 c -1.296,-0.528 -3.552,-1.152 -7.056,-1.152 c -7.248,0 -11.04,3.216 -11.04,7.68 c 0,3.504 1.968,5.616 6.768,6.576 l 4.752,0.96 c 2.928,0.624 4.032,1.632 4.032,3.36 c 0,2.112 -1.824,3.6 -6.432,3.6 z m 28.12796,-22.272 c -5.952,0 -10.848,3.504 -10.848,10.944 v 4.992 c 0,6.816 4.128,10.656 12.096,10.656 c 3.792,0 7.344,-0.864 8.544,-2.064 c 0.144,-0.144 0.192,-0.24 0.192,-0.384 v -3.408 h -0.72 c -2.4,1.344 -4.56,1.92 -7.968,1.92 c -2.784,0 -4.848,-0.576 -6.144,-1.872 c -1.056,-1.104 -1.632,-2.736 -1.632,-4.848 v -1.104 h 16.32 c 0.336,0 0.528,-0.192 0.528,-0.528 v -3.504 c 0,-7.344 -4.704,-10.8 -10.368,-10.8 z m 0,3.84 c 1.872,0 3.36,0.432 4.368,1.44 c 1.152,1.152 1.68,2.928 1.68,5.472 v 0.96 h -12.528 v -0.816 c 0,-4.992 2.352,-7.056 6.48,-7.056 z"
     id="text63"
     style="font-size:48px;font-family:'Recursive Sans Linear Static';-inkscape-font-specification:'Recursive Sans Linear Static';fill:#e8ecf4"
     aria-label="Synapse" />
  <!-- SIZE VARIATIONS -->
  <!-- BADGE -->
  <!-- FOOTER -->
</svg>
