<?xml version="1.0" encoding="UTF-8" standalone="no"?>
<svg
   width="269.63803"
   height="80"
   viewBox="0 0 269.63803 80"
   version="1.1"
   id="svg102"
   xmlns="http://www.w3.org/2000/svg"
   xmlns:svg="http://www.w3.org/2000/svg">
  <defs
     id="defs1">
    <style
       id="style1">@import url('https://fonts.googleapis.com/css2?family=Recursive:slnt,wght,CASL,CRSV,MONO@-15..0,300..900,0..1,0..1,0..1&amp;display=swap');</style>
  </defs>
  <!-- HORIZONTAL PRIMARY -->
  <g
     id="g18">
    <rect
       width="110"
       height="110"
       fill="#0c1220"
       id="rect2"
       x="0"
       y="0"
       transform="scale(0.72727273)" />
    <line
       x1="55"
       y1="55"
       x2="28"
       y2="24"
       stroke="#1e90ff"
       stroke-width="2.5"
       stroke-linecap="square"
       id="line2"
       transform="scale(0.72727273)" />
    <line
       x1="55"
       y1="55"
       x2="82"
       y2="24"
       stroke="#1e90ff"
       stroke-width="2.5"
       stroke-linecap="square"
       id="line3"
       transform="scale(0.72727273)" />
    <line
       x1="55"
       y1="55"
       x2="90"
       y2="50"
       stroke="#1e90ff"
       stroke-width="2.5"
       stroke-linecap="square"
       id="line4"
       transform="scale(0.72727273)" />
    <line
       x1="55"
       y1="55"
       x2="26"
       y2="76"
       stroke="#1e90ff"
       stroke-width="2.5"
       stroke-linecap="square"
       id="line5"
       transform="scale(0.72727273)" />
    <line
       x1="55"
       y1="55"
       x2="78"
       y2="86"
       stroke="#8b5cf6"
       stroke-width="3.5"
       stroke-linecap="square"
       id="line6"
       transform="scale(0.72727273)" />
    <line
       x1="28"
       y1="24"
       x2="82"
       y2="24"
       stroke="#1e90ff"
       stroke-width="1.5"
       opacity="0.3"
       id="line7"
       transform="scale(0.72727273)" />
    <line
       x1="82"
       y1="24"
       x2="90"
       y2="50"
       stroke="#1e90ff"
       stroke-width="1.5"
       opacity="0.3"
       id="line8"
       transform="scale(0.72727273)" />
    <line
       x1="26"
       y1="76"
       x2="78"
       y2="86"
       stroke="#8b5cf6"
       stroke-width="2"
       opacity="0.35"
       id="line9"
       transform="scale(0.72727273)" />
    <circle
       cx="28"
       cy="24"
       r="4.5"
       fill="none"
       stroke="#1e90ff"
       stroke-width="2"
       id="circle9"
       transform="scale(0.72727273)" />
    <circle
       cx="82"
       cy="24"
       r="3.5"
       fill="none"
       stroke="#1e90ff"
       stroke-width="2"
       id="circle10"
       transform="scale(0.72727273)" />
    <circle
       cx="90"
       cy="50"
       r="3.5"
       fill="none"
       stroke="#1e90ff"
       stroke-width="2"
       id="circle11"
       transform="scale(0.72727273)" />
    <circle
       cx="26"
       cy="76"
       r="3.5"
       fill="none"
       stroke="#1e90ff"
       stroke-width="2"
       id="circle12"
       transform="scale(0.72727273)" />
    <circle
       cx="78"
       cy="86"
       r="5.5"
       fill="#8b5cf6"
       id="circle13"
       transform="scale(0.72727273)" />
    <circle
       cx="55"
       cy="55"
       r="7"
       fill="none"
       stroke="#1e90ff"
       stroke-width="3"
       id="circle14"
       transform="scale(0.72727273)" />
    <g
       stroke="#5a6f8a"
       stroke-width="1.5"
       fill="none"
       opacity="0.3"
       id="g17"
       transform="scale(0.72727273)">
      <polyline
         points="8,20 8,8 20,8"
         id="polyline14" />
      <polyline
         points="90,8 102,8 102,20"
         id="polyline15" />
      <polyline
         points="102,90 102,102 90,102"
         id="polyline16" />
      <polyline
         points="20,102 8,102 8,90"
         id="polyline17" />
    </g>
    <path
       d="m 113.398,19.844 c -5.964,0 -10.038,3.15 -10.038,7.686 v 1.596 c 0,3.486 1.554,5.754 6.804,7.35 l 4.074,1.218 c 3.57,1.05 4.368,1.974 4.368,4.032 v 1.134 c 0,2.646 -2.226,4.368 -6.216,4.368 c -3.822,0 -6.3,-0.756 -8.82,-2.73 h -0.63 v 3.108 c 0,0.378 0.042,0.504 0.252,0.714 c 1.47,1.47 4.914,2.436 9.03,2.436 c 6.468,0 10.206,-3.066 10.206,-7.812 v -1.596 c 0,-3.822 -1.764,-5.586 -6.93,-7.14 l -4.032,-1.176 c -3.486,-1.008 -4.284,-2.184 -4.284,-4.368 v -0.84 c 0,-2.856 2.394,-4.452 6.216,-4.452 c 1.932,0 3.444,0.294 4.662,0.882 v 3.654 c 0,0.294 0.168,0.462 0.462,0.462 h 3.276 v -5.46 c 0,-0.294 -0.084,-0.462 -0.336,-0.714 c -1.344,-1.386 -4.284,-2.352 -8.064,-2.352 z m 16.464,7.812 h -3.612 c 2.646,7.182 6.594,17.346 7.602,19.908 c 0.672,1.638 0.84,1.722 1.638,1.722 h 1.764 c -0.378,1.218 -0.672,2.226 -0.882,2.856 c -0.588,1.974 -1.764,2.814 -3.654,2.814 h -3.99 v 2.982 c 0,0.336 0.168,0.462 0.462,0.462 h 3.822 c 3.738,0 5.712,-1.596 6.888,-5.586 c 2.31,-7.77 4.956,-15.918 7.644,-24.486 c 0.126,-0.42 -0.21,-0.672 -0.504,-0.672 h -3.318 c -1.806,6.132 -4.116,13.86 -5.712,19.152 h -0.756 C 136.288,43.448 133.39,36.392 130.66,28.16 c -0.126,-0.378 -0.294,-0.504 -0.798,-0.504 z M 157.33001,50 V 34.67 c 2.31,-2.562 4.704,-3.78 6.804,-3.78 c 2.016,0 3.15,1.092 3.15,3.36 v 15.288 c 0,0.294 0.168,0.462 0.462,0.462 h 3.402 V 33.494 c 0,-3.696 -2.142,-6.3 -5.922,-6.3 c -2.982,0 -5.334,1.68 -7.266,4.2 h -0.63 v -3.276 c 0,-0.294 -0.168,-0.462 -0.462,-0.462 h -3.402 v 21.882 c 0,0.294 0.168,0.462 0.462,0.462 z m 38.30402,-14.742 c 0,-5.796 -2.688,-8.022 -8.988,-8.022 c -3.444,0 -6.804,1.008 -7.224,1.47 c -0.084,0.084 -0.126,0.168 -0.126,0.336 v 3.024 h 0.63 c 2.226,-0.84 4.2,-1.218 6.72,-1.218 c 3.864,0 5.166,1.008 5.166,4.368 v 1.932 h -7.518 c -4.074,0 -6.594,2.268 -6.594,5.964 v 1.344 c 0,3.696 2.478,5.964 6.426,5.964 c 3.36,0 5.838,-1.428 7.224,-3.99 h 0.546 c 0.42,2.394 2.226,3.57 4.494,3.57 h 1.47 c 0.294,0 0.462,-0.126 0.462,-0.462 v -2.94 h -1.05 c -0.546,0 -0.966,-0.084 -1.218,-0.378 c -0.294,-0.294 -0.42,-0.756 -0.42,-1.512 z m -14.07,8.778 v -1.26 c 0,-0.882 0.252,-1.596 0.756,-2.058 c 0.546,-0.546 1.386,-0.84 2.52,-0.84 h 6.972 v 3.78 c -2.31,2.478 -4.41,3.276 -6.972,3.276 c -2.184,0 -3.276,-1.008 -3.276,-2.898 z m 22.30201,-16.38 v 30.282 c 0,0.294 0.168,0.462 0.462,0.462 h 3.402 V 47.06 h 0.588 c 1.596,2.226 3.864,3.36 6.636,3.36 c 4.41,0 7.392,-3.15 7.392,-8.442 v -6.552 c 0,-5.124 -2.982,-8.232 -7.308,-8.232 c -2.898,0 -5.166,1.512 -6.72,4.116 h -0.588 v -3.192 c 0,-0.294 -0.168,-0.462 -0.462,-0.462 z m 10.08,3.234 c 1.386,0 2.478,0.42 3.276,1.176 c 0.84,0.882 1.302,2.184 1.302,3.948 v 5.376 c 0,3.444 -1.764,5.334 -4.578,5.334 c -2.352,0 -4.536,-0.882 -6.216,-2.898 v -8.82 c 1.932,-2.814 4.032,-4.116 6.216,-4.116 z m 22.00801,15.792 c -3.402,0 -5.67,-0.546 -8.022,-2.058 h -0.63 v 3.36 c 0,0.294 0.042,0.378 0.252,0.504 c 1.512,1.05 4.452,1.89 8.442,1.89 c 5.88,0 9.366,-2.646 9.366,-6.846 c 0,-3.36 -2.184,-5.376 -5.838,-6.132 l -4.158,-0.84 c -2.856,-0.63 -3.57,-1.26 -3.57,-2.688 c 0,-1.596 1.554,-2.898 5.334,-2.898 c 2.73,0 4.494,0.294 6.552,1.05 h 0.63 v -2.982 c 0,-0.42 -0.042,-0.588 -0.504,-0.756 c -1.134,-0.462 -3.108,-1.008 -6.174,-1.008 c -6.342,0 -9.66,2.814 -9.66,6.72 c 0,3.066 1.722,4.914 5.922,5.754 l 4.158,0.84 c 2.562,0.546 3.528,1.428 3.528,2.94 c 0,1.848 -1.596,3.15 -5.628,3.15 z m 24.61198,-19.488 c -5.208,0 -9.492,3.066 -9.492,9.576 v 4.368 c 0,5.964 3.612,9.324 10.584,9.324 c 3.318,0 6.426,-0.756 7.476,-1.806 c 0.126,-0.126 0.168,-0.21 0.168,-0.336 v -2.982 h -0.63 c -2.1,1.176 -3.99,1.68 -6.972,1.68 c -2.436,0 -4.242,-0.504 -5.376,-1.638 c -0.924,-0.966 -1.428,-2.394 -1.428,-4.242 v -0.966 h 14.28 c 0.294,0 0.462,-0.168 0.462,-0.462 v -3.066 c 0,-6.426 -4.116,-9.45 -9.072,-9.45 z m 0,3.36 c 1.638,0 2.94,0.378 3.822,1.26 c 1.008,1.008 1.47,2.562 1.47,4.788 v 0.84 h -10.962 v -0.714 c 0,-4.368 2.058,-6.174 5.67,-6.174 z"
       id="text17"
       style="font-size:42px;font-family:'Recursive Sans Linear Static';-inkscape-font-specification:'Recursive Sans Linear Static';fill:#e8ecf4"
       aria-label="Synapse" />
  </g>
  <!-- HORIZONTAL WITH TAGLINE -->
  <!-- STACKED -->
  <!-- STACKED + TAGLINE -->
  <!-- WORDMARK ONLY -->
  <!-- SIZE VARIATIONS -->
  <!-- BADGE -->
  <!-- FOOTER -->
</svg>
