<?xml version="1.0" encoding="UTF-8" standalone="no"?>
<svg
   width="122.88195"
   height="132.54279"
   viewBox="0 0 122.88196 132.54279"
   version="1.1"
   id="svg54"
   xmlns="http://www.w3.org/2000/svg"
   xmlns:svg="http://www.w3.org/2000/svg">
  <defs
     id="defs1">
    <style
       id="style1">@import url('https://fonts.googleapis.com/css2?family=Recursive:slnt,wght,CASL,CRSV,MONO@-15..0,300..900,0..1,0..1,0..1&amp;display=swap');</style>
  </defs>
  <!-- HORIZONTAL PRIMARY -->
  <!-- HORIZONTAL WITH TAGLINE -->
  <!-- STACKED -->
  <!-- STACKED + TAGLINE -->
  <!-- WORDMARK ONLY -->
  <!-- SIZE VARIATIONS -->
  <!-- BADGE -->
  <!-- FOOTER -->
  <g
     id="g1"
     transform="translate(-877.33286,-204.17418)">
    <g
       id="g8-8-5"
       transform="translate(812.63083,-51.825825)">
      <g
         transform="translate(60,256)"
         id="g48-0-7">
        <g
           id="g102-54-0-8"
           transform="translate(-360.85699,-88)">
          <rect
             width="80"
             height="80"
             fill="#0c1220"
             id="rect2-4-0-9-2"
             x="387"
             y="88"
             style="stroke-width:0.727273" />
          <line
             x1="427"
             y1="128"
             x2="407.36365"
             y2="105.45454"
             stroke="#1e90ff"
             stroke-width="1.81818"
             stroke-linecap="square"
             id="line2-9-6-3-5" />
          <line
             x1="427"
             y1="128"
             x2="446.63635"
             y2="105.45454"
             stroke="#1e90ff"
             stroke-width="1.81818"
             stroke-linecap="square"
             id="line3-6-3-7-4" />
          <line
             x1="427"
             y1="128"
             x2="452.45456"
             y2="124.36364"
             stroke="#1e90ff"
             stroke-width="1.81818"
             stroke-linecap="square"
             id="line4-3-00-5-5" />
          <line
             x1="427"
             y1="128"
             x2="405.90909"
             y2="143.27272"
             stroke="#1e90ff"
             stroke-width="1.81818"
             stroke-linecap="square"
             id="line5-2-5-7-3" />
          <line
             x1="427"
             y1="128"
             x2="443.72726"
             y2="150.54546"
             stroke="#8b5cf6"
             stroke-width="2.54545"
             stroke-linecap="square"
             id="line6-3-2-2-0" />
          <line
             x1="407.36365"
             y1="105.45454"
             x2="446.63635"
             y2="105.45454"
             stroke="#1e90ff"
             stroke-width="1.09091"
             opacity="0.3"
             id="line7-6-20-9-1" />
          <line
             x1="446.63635"
             y1="105.45454"
             x2="452.45456"
             y2="124.36364"
             stroke="#1e90ff"
             stroke-width="1.09091"
             opacity="0.3"
             id="line8-9-8-7-9" />
          <line
             x1="405.90909"
             y1="143.27272"
             x2="443.72726"
             y2="150.54546"
             stroke="#8b5cf6"
             stroke-width="1.45455"
             opacity="0.35"
             id="line9-5-2-5-4" />
          <circle
             cx="407.36365"
             cy="105.45454"
             r="3.2727273"
             fill="none"
             stroke="#1e90ff"
             stroke-width="1.45455"
             id="circle9-4-5-6-5" />
          <circle
             cx="446.63635"
             cy="105.45454"
             r="2.5454545"
             fill="none"
             stroke="#1e90ff"
             stroke-width="1.45455"
             id="circle10-2-5-5-9" />
          <circle
             cx="452.45456"
             cy="124.36364"
             r="2.5454545"
             fill="none"
             stroke="#1e90ff"
             stroke-width="1.45455"
             id="circle11-1-7-3-3" />
          <circle
             cx="405.90909"
             cy="143.27272"
             r="2.5454545"
             fill="none"
             stroke="#1e90ff"
             stroke-width="1.45455"
             id="circle12-7-4-0-9" />
          <circle
             cx="443.72726"
             cy="150.54546"
             r="4"
             fill="#8b5cf6"
             id="circle13-1-7-4-6"
             style="stroke-width:0.727273" />
          <circle
             cx="427"
             cy="128"
             r="5.090909"
             fill="none"
             stroke="#1e90ff"
             stroke-width="2.18182"
             id="circle14-9-4-8-6" />
          <g
             stroke="#5a6f8a"
             stroke-width="1.5"
             fill="none"
             opacity="0.3"
             id="g17-4-0-5-4"
             transform="matrix(0.72727273,0,0,0.72727273,387,88)">
            <polyline
               points="8,20 8,8 20,8"
               id="polyline14-7-0-5-0" />
            <polyline
               points="90,8 102,8 102,20"
               id="polyline15-6-6-5-8" />
            <polyline
               points="102,90 102,102 90,102"
               id="polyline16-6-6-4-2" />
            <polyline
               points="20,102 8,102 8,90"
               id="polyline17-6-1-2-0" />
          </g>
        </g>
        <path
           d="m 11.43603,93.50592 c -3.9779996,0 -6.5259996,2.054 -6.5259996,4.888 v 1.248 c 0,1.924 0.806,3.562 4.238,4.602 l 2.4699996,0.754 c 1.898,0.572 2.132,1.014 2.132,1.846 v 0.884 c 0,0.962 -0.936,1.768 -3.094,1.768 c -2.3399996,0 -3.8999996,-0.468 -5.4599996,-1.534 h -0.494 v 2.86 c 0,0.312 0.052,0.39 0.156,0.494 c 0.884,0.858 3.042,1.378 5.5639996,1.378 c 4.264,0 6.786,-1.846 6.786,-4.888 v -1.196 c 0,-2.418 -0.962,-3.666 -4.186,-4.628 l -2.496,-0.754 c -1.8199996,-0.546 -2.1579996,-1.014 -2.1579996,-2.028 v -0.546 c 0,-1.378 1.066,-1.976 3.0679996,-1.976 c 0.728,0 1.3,0.078 1.846,0.234 v 1.82 c 0,0.182 0.104,0.286 0.286,0.286 h 3.042 v -3.588 c 0,-0.208 -0.026,-0.338 -0.156,-0.468 c -0.806,-0.806 -2.6,-1.456 -5.018,-1.456 z m 19.435992,18.694 v -6.266 c 1.95,-3.692 4.03,-7.8 5.798,-11.31 c 0.208,-0.442 0.078,-0.624 -0.26,-0.624 h -3.38 c -1.586,3.328 -2.678,5.772 -3.614,8.97 h -0.598 c -0.988,-3.12 -2.158,-5.616 -3.562,-8.398 c -0.208,-0.468 -0.338,-0.572 -0.702,-0.572 h -3.484 c 2.002,3.9 5.148,10.192 6.058,11.934 v 5.98 c 0,0.182 0.104,0.286 0.286,0.286 z m 14.157989,0 v -4.238 c 0,-2.028 -0.104,-4.992 -0.702,-8.84 h 0.546 c 1.924,3.926 3.718,7.41 6.604,12.246 c 0.468,0.806 0.702,0.832 0.91,0.832 h 3.198 v -17.914 c 0,-0.156 -0.13,-0.286 -0.286,-0.286 h -3.25 v 3.562 c 0,2.834 0.156,5.356 0.806,9.048 h -0.494 c -1.976,-3.978 -3.978,-7.644 -6.214,-11.804 c -0.416,-0.806 -0.416,-0.806 -0.728,-0.806 h -3.926 v 17.914 c 0,0.156 0.13,0.286 0.286,0.286 z m 19.019994,0 c 0.39,-1.534 0.754,-2.938 1.066,-4.212 h 5.85 c 0.286,1.144 0.598,2.392 0.936,3.718 c 0.13,0.416 0.182,0.494 0.494,0.494 h 3.198 c -0.234,-1.248 -0.52,-2.47 -0.806,-3.614 c -1.352,-5.564 -2.574,-10.4 -3.562,-14.326 c -0.052,-0.182 -0.13,-0.286 -0.312,-0.286 h -5.876 c -0.936,3.614 -3.666,14.82 -4.472,17.888 c -0.052,0.26 0.104,0.338 0.208,0.338 z m 3.77,-15.392 h 0.598 c 0.312,1.95 0.91,4.524 1.794,8.112 h -4.29 c 0.936,-3.666 1.534,-6.188 1.898,-8.112 z m 16.887979,15.392 v -5.564 h 2.314 c 4.316,0 6.032,-2.08 6.032,-5.538 v -1.586 c 0,-3.51 -1.846,-5.512 -6.058,-5.512 h -7.306 v 2.86 c 0,0.182 0.104,0.286 0.286,0.286 h 0.988 v 14.768 c 0,0.182 0.104,0.286 0.286,0.286 z m 2.314,-15.054 c 0.832,0 1.404,0.156 1.768,0.52 c 0.364,0.338 0.494,0.884 0.494,1.664 v 1.898 c 0,1.638 -0.702,2.236 -2.262,2.236 h -2.314 v -6.318 z m 17.693996,-3.64 c -3.978,0 -6.526004,2.054 -6.526004,4.888 v 1.248 c 0,1.924 0.806,3.562 4.238004,4.602 l 2.47,0.754 c 1.898,0.572 2.132,1.014 2.132,1.846 v 0.884 c 0,0.962 -0.936,1.768 -3.094,1.768 c -2.34,0 -3.9,-0.468 -5.460004,-1.534 h -0.494 v 2.86 c 0,0.312 0.052,0.39 0.156,0.494 c 0.884,0.858 3.042004,1.378 5.564004,1.378 c 4.264,0 6.786,-1.846 6.786,-4.888 v -1.196 c 0,-2.418 -0.962,-3.666 -4.186,-4.628 l -2.496,-0.754 c -1.82,-0.546 -2.158,-1.014 -2.158,-2.028 v -0.546 c 0,-1.378 1.066,-1.976 3.068,-1.976 c 0.728,0 1.3,0.078 1.846,0.234 v 1.82 c 0,0.182 0.104,0.286 0.286,0.286 h 3.042 v -3.588 c 0,-0.208 -0.026,-0.338 -0.156,-0.468 c -0.806,-0.806 -2.6,-1.456 -5.018,-1.456 z m 12.18201,18.694 h 10.686 v -2.886 c 0,-0.156 -0.13,-0.286 -0.286,-0.286 h -6.942 v -4.446 h 5.694 v -2.782 c 0,-0.156 -0.13,-0.286 -0.286,-0.286 h -5.408 v -4.342 h 7.228 v -2.886 c 0,-0.156 -0.13,-0.286 -0.286,-0.286 h -11.934 v 2.886 c 0,0.156 0.104,0.286 0.286,0.286 h 0.962 v 14.742 c 0,0.156 0.13,0.286 0.286,0.286 z"
           id="text47-1-6"
           style="font-weight:bold;font-size:26px;font-family:'Recursive Sans Linear Static';-inkscape-font-specification:'Recursive Sans Linear Static Bold';letter-spacing:2.64px;text-anchor:middle;fill:#a78bfa"
           aria-label="SYNAPSE" />
        <text
           xml:space="preserve"
           style="font-style:normal;font-variant:normal;font-weight:bold;font-stretch:normal;font-size:21.7017px;line-height:0px;font-family:'Recursive Sans Linear Static';-inkscape-font-specification:'Recursive Sans Linear Static Bold';letter-spacing:2.71272px;word-spacing:0.0135636px;writing-mode:lr-tb;direction:ltr;opacity:0.997881;fill:#5a6f8a;fill-opacity:1;stroke:#080b12;stroke-width:0"
           x="37.312294"
           y="132.52115"
           id="text1-57-1"><tspan
             id="tspan1-5-6"
             x="37.312294"
             y="132.52115"
             style="font-style:normal;font-variant:normal;font-weight:bold;font-stretch:normal;font-size:21.7017px;font-family:'Recursive Sans Linear Static';-inkscape-font-specification:'Recursive Sans Linear Static Bold';stroke-width:0">LIVE</tspan></text>
      </g>
    </g>
  </g>
</svg>
