<?xml version="1.0" encoding="UTF-8" standalone="no"?>
<svg
   width="274.64197"
   height="80"
   viewBox="0 0 274.64197 80"
   version="1.1"
   id="svg54"
   xmlns="http://www.w3.org/2000/svg"
   xmlns:svg="http://www.w3.org/2000/svg">
  <defs
     id="defs1">
    <style
       id="style1">@import url('https://fonts.googleapis.com/css2?family=Recursive:slnt,wght,CASL,CRSV,MONO@-15..0,300..900,0..1,0..1,0..1&amp;display=swap');</style>
  </defs>
  <g
     id="g1"
     transform="translate(-59.999999,-107.99999)">
    <g
       transform="translate(60,108)"
       id="g18-3">
      <rect
         width="110"
         height="110"
         fill="#0c1220"
         id="rect2-6"
         x="0"
         y="0"
         transform="scale(0.72727273)" />
      <line
         x1="55"
         y1="55"
         x2="28"
         y2="24"
         stroke="#1e90ff"
         stroke-width="2.5"
         stroke-linecap="square"
         id="line2-2"
         transform="scale(0.72727273)" />
      <line
         x1="55"
         y1="55"
         x2="82"
         y2="24"
         stroke="#1e90ff"
         stroke-width="2.5"
         stroke-linecap="square"
         id="line3-62"
         transform="scale(0.72727273)" />
      <line
         x1="55"
         y1="55"
         x2="90"
         y2="50"
         stroke="#1e90ff"
         stroke-width="2.5"
         stroke-linecap="square"
         id="line4-81"
         transform="scale(0.72727273)" />
      <line
         x1="55"
         y1="55"
         x2="26"
         y2="76"
         stroke="#1e90ff"
         stroke-width="2.5"
         stroke-linecap="square"
         id="line5-6"
         transform="scale(0.72727273)" />
      <line
         x1="55"
         y1="55"
         x2="78"
         y2="86"
         stroke="#8b5cf6"
         stroke-width="3.5"
         stroke-linecap="square"
         id="line6-4"
         transform="scale(0.72727273)" />
      <line
         x1="28"
         y1="24"
         x2="82"
         y2="24"
         stroke="#1e90ff"
         stroke-width="1.5"
         opacity="0.3"
         id="line7"
         transform="scale(0.72727273)" />
      <line
         x1="82"
         y1="24"
         x2="90"
         y2="50"
         stroke="#1e90ff"
         stroke-width="1.5"
         opacity="0.3"
         id="line8"
         transform="scale(0.72727273)" />
      <line
         x1="26"
         y1="76"
         x2="78"
         y2="86"
         stroke="#8b5cf6"
         stroke-width="2"
         opacity="0.35"
         id="line9"
         transform="scale(0.72727273)" />
      <circle
         cx="28"
         cy="24"
         r="4.5"
         fill="none"
         stroke="#1e90ff"
         stroke-width="2"
         id="circle9"
         transform="scale(0.72727273)" />
      <circle
         cx="82"
         cy="24"
         r="3.5"
         fill="none"
         stroke="#1e90ff"
         stroke-width="2"
         id="circle10"
         transform="scale(0.72727273)" />
      <circle
         cx="90"
         cy="50"
         r="3.5"
         fill="none"
         stroke="#1e90ff"
         stroke-width="2"
         id="circle11-9"
         transform="scale(0.72727273)" />
      <circle
         cx="26"
         cy="76"
         r="3.5"
         fill="none"
         stroke="#1e90ff"
         stroke-width="2"
         id="circle12"
         transform="scale(0.72727273)" />
      <circle
         cx="78"
         cy="86"
         r="5.5"
         fill="#8b5cf6"
         id="circle13"
         transform="scale(0.72727273)" />
      <circle
         cx="55"
         cy="55"
         r="7"
         fill="none"
         stroke="#1e90ff"
         stroke-width="3"
         id="circle14"
         transform="scale(0.72727273)" />
      <g
         stroke="#5a6f8a"
         stroke-width="1.5"
         fill="none"
         opacity="0.3"
         id="g17-2"
         transform="scale(0.72727273)">
        <polyline
           points="8,20 8,8 20,8"
           id="polyline14-6" />
        <polyline
           points="90,8 102,8 102,20"
           id="polyline15-9" />
        <polyline
           points="102,90 102,102 90,102"
           id="polyline16-64" />
        <polyline
           points="20,102 8,102 8,90"
           id="polyline17-5" />
      </g>
      <path
         d="m 112.198,22.678 c -5.814,0 -9.538,3.002 -9.538,7.144 v 1.824 c 0,2.812 1.178,5.206 6.194,6.726 l 3.61,1.102 c 2.774,0.836 3.116,1.482 3.116,2.698 v 1.292 c 0,1.406 -1.368,2.584 -4.522,2.584 c -3.42,0 -5.7,-0.684 -7.98,-2.242 h -0.722 v 4.18 c 0,0.456 0.076,0.57 0.228,0.722 c 1.292,1.254 4.446,2.014 8.132,2.014 c 6.232,0 9.918,-2.698 9.918,-7.144 V 41.83 c 0,-3.534 -1.406,-5.358 -6.118,-6.764 l -3.648,-1.102 c -2.66,-0.798 -3.154,-1.482 -3.154,-2.964 v -0.798 c 0,-2.014 1.558,-2.888 4.484,-2.888 c 1.064,0 1.9,0.114 2.698,0.342 v 2.66 c 0,0.266 0.152,0.418 0.418,0.418 h 4.446 V 25.49 c 0,-0.304 -0.038,-0.494 -0.228,-0.684 c -1.178,-1.178 -3.8,-2.128 -7.334,-2.128 z M 139.38599,50 v -9.158 c 2.85,-5.396 5.89,-11.4 8.474,-16.53 c 0.304,-0.646 0.114,-0.912 -0.38,-0.912 h -4.94 c -2.318,4.864 -3.914,8.436 -5.282,13.11 h -0.874 c -1.444,-4.56 -3.154,-8.208 -5.206,-12.274 c -0.304,-0.684 -0.494,-0.836 -1.026,-0.836 h -5.092 c 2.926,5.7 7.524,14.896 8.854,17.442 v 8.74 c 0,0.266 0.152,0.418 0.418,0.418 z m 19.47398,0 v -6.194 c 0,-2.964 -0.152,-7.296 -1.026,-12.92 h 0.798 c 2.812,5.738 5.434,10.83 9.652,17.898 c 0.684,1.178 1.026,1.216 1.33,1.216 h 4.674 V 23.818 c 0,-0.228 -0.19,-0.418 -0.418,-0.418 h -4.75 v 5.206 c 0,4.142 0.228,7.828 1.178,13.224 h -0.722 c -2.888,-5.814 -5.814,-11.172 -9.082,-17.252 c -0.608,-1.178 -0.608,-1.178 -1.064,-1.178 h -5.738 v 26.182 c 0,0.228 0.19,0.418 0.418,0.418 z m 26.57999,0 c 0.57,-2.242 1.102,-4.294 1.558,-6.156 h 8.55 c 0.418,1.672 0.874,3.496 1.368,5.434 c 0.19,0.608 0.266,0.722 0.722,0.722 h 4.674 c -0.342,-1.824 -0.76,-3.61 -1.178,-5.282 c -1.976,-8.132 -3.762,-15.2 -5.206,-20.938 c -0.076,-0.266 -0.19,-0.418 -0.456,-0.418 h -8.588 c -1.368,5.282 -5.358,21.66 -6.536,26.144 c -0.076,0.38 0.152,0.494 0.304,0.494 z m 5.51,-22.496 h 0.874 c 0.456,2.85 1.33,6.612 2.622,11.856 h -6.27 c 1.368,-5.358 2.242,-9.044 2.774,-11.856 z M 214.41393,50 v -8.132 h 3.382 c 6.308,0 8.816,-3.04 8.816,-8.094 v -2.318 c 0,-5.13 -2.698,-8.056 -8.854,-8.056 h -10.678 v 4.18 c 0,0.266 0.152,0.418 0.418,0.418 h 1.444 v 21.584 c 0,0.266 0.152,0.418 0.418,0.418 z m 3.382,-22.002 c 1.216,0 2.052,0.228 2.584,0.76 c 0.532,0.494 0.722,1.292 0.722,2.432 v 2.774 c 0,2.394 -1.026,3.268 -3.306,3.268 h -3.382 v -9.234 z m 24.642,-5.32 c -5.814,0 -9.538,3.002 -9.538,7.144 v 1.824 c 0,2.812 1.178,5.206 6.194,6.726 l 3.61,1.102 c 2.774,0.836 3.116,1.482 3.116,2.698 v 1.292 c 0,1.406 -1.368,2.584 -4.522,2.584 c -3.42,0 -5.7,-0.684 -7.98,-2.242 h -0.722 v 4.18 c 0,0.456 0.076,0.57 0.228,0.722 c 1.292,1.254 4.446,2.014 8.132,2.014 c 6.232,0 9.918,-2.698 9.918,-7.144 V 41.83 c 0,-3.534 -1.406,-5.358 -6.118,-6.764 l -3.648,-1.102 c -2.66,-0.798 -3.154,-1.482 -3.154,-2.964 v -0.798 c 0,-2.014 1.558,-2.888 4.484,-2.888 c 1.064,0 1.9,0.114 2.698,0.342 v 2.66 c 0,0.266 0.152,0.418 0.418,0.418 h 4.446 V 25.49 c 0,-0.304 -0.038,-0.494 -0.228,-0.684 c -1.178,-1.178 -3.8,-2.128 -7.334,-2.128 z M 259.02395,50 h 15.618 v -4.218 c 0,-0.228 -0.19,-0.418 -0.418,-0.418 h -10.146 v -6.498 h 8.322 V 34.8 c 0,-0.228 -0.19,-0.418 -0.418,-0.418 h -7.904 v -6.346 h 10.564 v -4.218 c 0,-0.228 -0.19,-0.418 -0.418,-0.418 h -17.442 v 4.218 c 0,0.228 0.152,0.418 0.418,0.418 h 1.406 v 21.546 c 0,0.228 0.19,0.418 0.418,0.418 z"
         id="text17-5"
         style="font-weight:bold;font-size:38px;font-family:'Recursive Sans Linear Static';-inkscape-font-specification:'Recursive Sans Linear Static Bold';letter-spacing:2.64px;fill:#a78bfa"
         aria-label="SYNAPSE" />
    </g>
  </g>
  <!-- HORIZONTAL PRIMARY -->
  <!-- HORIZONTAL WITH TAGLINE -->
  <!-- STACKED -->
  <!-- STACKED + TAGLINE -->
  <!-- WORDMARK ONLY -->
  <!-- SIZE VARIATIONS -->
  <!-- BADGE -->
  <!-- FOOTER -->
</svg>
