<?xml version="1.0" encoding="UTF-8" standalone="no"?>
<svg
   width="272.58997"
   height="80"
   viewBox="0 0 272.58997 80"
   version="1.1"
   id="svg54"
   xmlns="http://www.w3.org/2000/svg"
   xmlns:svg="http://www.w3.org/2000/svg">
  <defs
     id="defs1">
    <style
       id="style1">@import url('https://fonts.googleapis.com/css2?family=Recursive:slnt,wght,CASL,CRSV,MONO@-15..0,300..900,0..1,0..1,0..1&amp;display=swap');</style>
  </defs>
  <g
     id="g1"
     transform="translate(-539.99998,-107.99999)">
    <g
       transform="translate(540,108)"
       id="g34">
      <rect
         width="110"
         height="110"
         fill="#0c1220"
         id="rect18"
         x="0"
         y="0"
         transform="scale(0.72727273)" />
      <line
         x1="55"
         y1="55"
         x2="28"
         y2="24"
         stroke="#1e90ff"
         stroke-width="2.5"
         id="line18"
         transform="scale(0.72727273)" />
      <line
         x1="55"
         y1="55"
         x2="82"
         y2="24"
         stroke="#1e90ff"
         stroke-width="2.5"
         id="line19"
         transform="scale(0.72727273)" />
      <line
         x1="55"
         y1="55"
         x2="90"
         y2="50"
         stroke="#1e90ff"
         stroke-width="2.5"
         id="line20"
         transform="scale(0.72727273)" />
      <line
         x1="55"
         y1="55"
         x2="26"
         y2="76"
         stroke="#1e90ff"
         stroke-width="2.5"
         id="line21"
         transform="scale(0.72727273)" />
      <line
         x1="55"
         y1="55"
         x2="78"
         y2="86"
         stroke="#8b5cf6"
         stroke-width="3.5"
         id="line22"
         transform="scale(0.72727273)" />
      <line
         x1="28"
         y1="24"
         x2="82"
         y2="24"
         stroke="#1e90ff"
         stroke-width="1.5"
         opacity="0.3"
         id="line23"
         transform="scale(0.72727273)" />
      <line
         x1="82"
         y1="24"
         x2="90"
         y2="50"
         stroke="#1e90ff"
         stroke-width="1.5"
         opacity="0.3"
         id="line24"
         transform="scale(0.72727273)" />
      <line
         x1="26"
         y1="76"
         x2="78"
         y2="86"
         stroke="#8b5cf6"
         stroke-width="2"
         opacity="0.35"
         id="line25"
         transform="scale(0.72727273)" />
      <circle
         cx="28"
         cy="24"
         r="4.5"
         fill="none"
         stroke="#1e90ff"
         stroke-width="2"
         id="circle25"
         transform="scale(0.72727273)" />
      <circle
         cx="82"
         cy="24"
         r="3.5"
         fill="none"
         stroke="#1e90ff"
         stroke-width="2"
         id="circle26"
         transform="scale(0.72727273)" />
      <circle
         cx="90"
         cy="50"
         r="3.5"
         fill="none"
         stroke="#1e90ff"
         stroke-width="2"
         id="circle27"
         transform="scale(0.72727273)" />
      <circle
         cx="26"
         cy="76"
         r="3.5"
         fill="none"
         stroke="#1e90ff"
         stroke-width="2"
         id="circle28"
         transform="scale(0.72727273)" />
      <circle
         cx="78"
         cy="86"
         r="5.5"
         fill="#8b5cf6"
         id="circle29"
         transform="scale(0.72727273)" />
      <circle
         cx="55"
         cy="55"
         r="7"
         fill="none"
         stroke="#1e90ff"
         stroke-width="3"
         id="circle30"
         transform="scale(0.72727273)" />
      <g
         stroke="#5a6f8a"
         stroke-width="1.5"
         fill="none"
         opacity="0.3"
         id="g33"
         transform="scale(0.72727273)">
        <polyline
           points="8,20 8,8 20,8"
           id="polyline30" />
        <polyline
           points="90,8 102,8 102,20"
           id="polyline31" />
        <polyline
           points="102,90 102,102 90,102"
           id="polyline32" />
        <polyline
           points="20,102 8,102 8,90"
           id="polyline33" />
      </g>
      <path
         d="m 110.272,18.992 c -4.896,0 -8.032,2.528 -8.032,6.016 v 1.536 c 0,2.368 0.992,4.384 5.216,5.664 l 3.04,0.928 c 2.336,0.704 2.624,1.248 2.624,2.272 v 1.088 c 0,1.184 -1.152,2.176 -3.808,2.176 c -2.88,0 -4.8,-0.576 -6.72,-1.888 h -0.608 v 3.52 c 0,0.384 0.064,0.48 0.192,0.608 c 1.088,1.056 3.744,1.696 6.848,1.696 c 5.248,0 8.352,-2.272 8.352,-6.016 V 35.12 c 0,-2.976 -1.184,-4.512 -5.152,-5.696 l -3.072,-0.928 c -2.24,-0.672 -2.656,-1.248 -2.656,-2.496 v -0.672 c 0,-1.696 1.312,-2.432 3.776,-2.432 c 0.896,0 1.6,0.096 2.272,0.288 v 2.24 c 0,0.224 0.128,0.352 0.352,0.352 h 3.744 V 21.36 c 0,-0.256 -0.032,-0.416 -0.192,-0.576 c -0.992,-0.992 -3.2,-1.792 -6.176,-1.792 z M 133.58399,42 v -7.712 c 2.4,-4.544 4.96,-9.6 7.136,-13.92 c 0.256,-0.544 0.096,-0.768 -0.32,-0.768 h -4.16 c -1.952,4.096 -3.296,7.104 -4.448,11.04 h -0.736 c -1.216,-3.84 -2.656,-6.912 -4.384,-10.336 c -0.256,-0.576 -0.416,-0.704 -0.864,-0.704 h -4.288 c 2.464,4.8 6.336,12.544 7.456,14.688 v 7.36 c 0,0.224 0.128,0.352 0.352,0.352 z m 16.81599,0 v -5.216 c 0,-2.496 -0.128,-6.144 -0.864,-10.88 h 0.672 c 2.368,4.832 4.576,9.12 8.128,15.072 c 0.576,0.992 0.864,1.024 1.12,1.024 h 3.936 V 19.952 c 0,-0.192 -0.16,-0.352 -0.352,-0.352 h -4 v 4.384 c 0,3.488 0.192,6.592 0.992,11.136 h -0.608 c -2.432,-4.896 -4.896,-9.408 -7.648,-14.528 c -0.512,-0.992 -0.512,-0.992 -0.896,-0.992 h -4.832 v 22.048 c 0,0.192 0.16,0.352 0.352,0.352 z m 22.79998,0 c 0.48,-1.888 0.928,-3.616 1.312,-5.184 h 7.2 c 0.352,1.408 0.736,2.944 1.152,4.576 c 0.16,0.512 0.224,0.608 0.608,0.608 h 3.936 c -0.288,-1.536 -0.64,-3.04 -0.992,-4.448 c -1.664,-6.848 -3.168,-12.8 -4.384,-17.632 c -0.064,-0.224 -0.16,-0.352 -0.384,-0.352 h -7.232 c -1.152,4.448 -4.512,18.24 -5.504,22.016 c -0.064,0.32 0.128,0.416 0.256,0.416 z m 4.64,-18.944 h 0.736 c 0.384,2.4 1.12,5.568 2.208,9.984 h -5.28 c 1.152,-4.512 1.888,-7.616 2.336,-9.984 z M 198.01594,42 v -6.848 h 2.848 c 5.312,0 7.424,-2.56 7.424,-6.816 v -1.952 c 0,-4.32 -2.272,-6.784 -7.456,-6.784 h -8.992 v 3.52 c 0,0.224 0.128,0.352 0.352,0.352 h 1.216 v 18.176 c 0,0.224 0.128,0.352 0.352,0.352 z m 2.848,-18.528 c 1.024,0 1.728,0.192 2.176,0.64 c 0.448,0.416 0.608,1.088 0.608,2.048 v 2.336 c 0,2.016 -0.864,2.752 -2.784,2.752 h -2.848 v -7.776 z m 21.16799,-4.48 c -4.896,0 -8.032,2.528 -8.032,6.016 v 1.536 c 0,2.368 0.992,4.384 5.216,5.664 l 3.04,0.928 c 2.336,0.704 2.624,1.248 2.624,2.272 v 1.088 c 0,1.184 -1.152,2.176 -3.808,2.176 c -2.88,0 -4.8,-0.576 -6.72,-1.888 h -0.608 v 3.52 c 0,0.384 0.064,0.48 0.192,0.608 c 1.088,1.056 3.744,1.696 6.848,1.696 c 5.248,0 8.352,-2.272 8.352,-6.016 V 35.12 c 0,-2.976 -1.184,-4.512 -5.152,-5.696 l -3.072,-0.928 c -2.24,-0.672 -2.656,-1.248 -2.656,-2.496 v -0.672 c 0,-1.696 1.312,-2.432 3.776,-2.432 c 0.896,0 1.6,0.096 2.272,0.288 v 2.24 c 0,0.224 0.128,0.352 0.352,0.352 h 3.744 V 21.36 c 0,-0.256 -0.032,-0.416 -0.192,-0.576 c -0.992,-0.992 -3.2,-1.792 -6.176,-1.792 z M 236.41595,42 h 13.152 v -3.552 c 0,-0.192 -0.16,-0.352 -0.352,-0.352 h -8.544 v -5.472 h 7.008 V 29.2 c 0,-0.192 -0.16,-0.352 -0.352,-0.352 h -6.656 v -5.344 h 8.896 v -3.552 c 0,-0.192 -0.16,-0.352 -0.352,-0.352 h -14.688 v 3.552 c 0,0.192 0.128,0.352 0.352,0.352 h 1.184 v 18.144 c 0,0.192 0.16,0.352 0.352,0.352 z"
         id="text33-3"
         style="font-weight:bold;font-size:32px;font-family:'Recursive Sans Linear Static';-inkscape-font-specification:'Recursive Sans Linear Static Bold';letter-spacing:2.64px;fill:#a78bfa"
         aria-label="SYNAPSE" />
      <path
         d="m 103.25,52.8 c -1.42,0 -2.67,0.95 -2.67,2.8 v 1.91 c 0,1.73 1.17,2.69 2.67,2.69 c 1.53,0 2.67,-0.96 2.67,-2.69 V 55.6 c 0,-1.85 -1.17,-2.8 -2.67,-2.8 z m -1.32,4.62 v -1.93 c 0,-0.89 0.43,-1.47 1.34,-1.47 c 0.43,0 0.74,0.12 0.94,0.31 c 0.24,0.22 0.36,0.53 0.36,1.16 v 1.92 c 0,1.02 -0.54,1.55 -1.28,1.55 c -0.42,0 -0.74,-0.12 -0.93,-0.28 c -0.19,-0.17 -0.43,-0.5 -0.43,-1.26 z m 9.11,2.58 v -1.63 c 0,-0.78 -0.04,-1.92 -0.27,-3.4 h 0.21 c 0.74,1.51 1.43,2.85 2.54,4.71 c 0.18,0.31 0.27,0.32 0.35,0.32 h 1.23 v -6.89 c 0,-0.06 -0.05,-0.11 -0.11,-0.11 h -1.25 v 1.37 c 0,1.09 0.06,2.06 0.31,3.48 h -0.19 c -0.76,-1.53 -1.53,-2.94 -2.39,-4.54 C 111.31,53 111.31,53 111.19,53 h -1.51 v 6.89 c 0,0.06 0.05,0.11 0.11,0.11 z m 7.83999,-3.64 v 1.18 c 0,0.07 0.04,0.11 0.11,0.11 h 3.19 v -1.18 c 0,-0.07 -0.04,-0.11 -0.11,-0.11 z M 128.73,60 c 1.25,0 2.07,-0.5 2.07,-1.71 v -0.28 c 0,-0.85 -0.46,-1.34 -1.25,-1.46 v -0.23 c 0.76,-0.18 1.23,-0.66 1.23,-1.45 v -0.23 c 0,-0.84 -0.56,-1.64 -2.23,-1.64 h -2.83 v 1.09 c 0,0.07 0.04,0.11 0.11,0.11 h 0.38 v 5.69 c 0,0.07 0.04,0.11 0.11,0.11 z m -0.17,-5.8 c 0.3,0 0.51,0.06 0.65,0.19 c 0.12,0.12 0.17,0.27 0.17,0.48 v 0.25 c 0,0.49 -0.24,0.76 -0.86,0.76 H 127.6 V 54.2 Z m -0.96,4.6 v -1.76 h 0.9 c 0.65,0 0.9,0.24 0.9,0.72 v 0.31 c 0,0.45 -0.26,0.73 -0.84,0.73 z m 9.51,-6 c -1.42,0 -2.67,0.95 -2.67,2.8 v 1.91 c 0,1.73 1.17,2.69 2.67,2.69 c 1.53,0 2.67,-0.96 2.67,-2.69 V 55.6 c 0,-1.85 -1.17,-2.8 -2.67,-2.8 z m -1.32,4.62 v -1.93 c 0,-0.89 0.43,-1.47 1.34,-1.47 c 0.43,0 0.74,0.12 0.94,0.31 c 0.24,0.22 0.36,0.53 0.36,1.16 v 1.92 c 0,1.02 -0.54,1.55 -1.28,1.55 c -0.42,0 -0.74,-0.12 -0.93,-0.28 c -0.19,-0.17 -0.43,-0.5 -0.43,-1.26 z m 8.80999,2.58 c 0.15,-0.59 0.29,-1.13 0.41,-1.62 h 2.25 c 0.11,0.44 0.23,0.92 0.36,1.43 c 0.05,0.16 0.07,0.19 0.19,0.19 h 1.23 c -0.09,-0.48 -0.2,-0.95 -0.31,-1.39 c -0.52,-2.14 -0.99,-4 -1.37,-5.51 c -0.02,-0.07 -0.05,-0.11 -0.12,-0.11 h -2.26 c -0.36,1.39 -1.41,5.7 -1.72,6.88 c -0.02,0.1 0.04,0.13 0.08,0.13 z m 1.45,-5.92 h 0.23 c 0.12,0.75 0.35,1.74 0.69,3.12 h -1.65 c 0.36,-1.41 0.59,-2.38 0.73,-3.12 z m 8.07,5.92 v -2.42 h 0.74 c 0.3,0.59 0.6,1.18 0.9,1.76 c 0.27,0.54 0.59,0.66 1.27,0.66 h 0.4 c 0.07,0 0.11,-0.04 0.11,-0.11 v -1.11 h -0.33 c -0.15,0 -0.24,-0.06 -0.35,-0.26 c -0.22,-0.41 -0.42,-0.76 -0.63,-1.14 c 0.66,-0.29 1.03,-0.91 1.03,-1.76 v -0.56 c 0,-1.26 -0.64,-2.06 -2.26,-2.06 h -2.76 v 1.11 c 0,0.07 0.04,0.11 0.11,0.11 h 0.38 v 5.67 c 0,0.07 0.04,0.11 0.11,0.11 z m 0.93,-5.78 c 0.29,0 0.49,0.07 0.62,0.2 c 0.13,0.13 0.19,0.32 0.19,0.57 v 0.65 c 0,0.51 -0.26,0.76 -0.81,0.76 h -0.93 v -2.18 z m 11.45,3.39 v -2.23 c 0,-1.45 -0.73,-2.38 -2.52,-2.38 h -3.1 v 1.17 c 0,0.07 0.04,0.11 0.11,0.11 h 0.38 v 5.61 c 0,0.07 0.04,0.11 0.11,0.11 h 2.61 c 1.48,0 2.41,-0.87 2.41,-2.39 z m -3.69,1.11 v -4.44 h 1.23 c 0.4,0 0.65,0.07 0.83,0.23 c 0.19,0.19 0.28,0.49 0.28,0.96 v 2.06 c 0,0.75 -0.29,1.19 -1.09,1.19 z M 179.64998,60 v -1.11 c 0,-0.06 -0.05,-0.11 -0.11,-0.11 h -0.96 v -4.56 h 1.07 v -1.11 c 0,-0.06 -0.05,-0.11 -0.11,-0.11 h -3.47 v 1.11 c 0,0.06 0.05,0.11 0.11,0.11 h 0.96 v 4.56 h -1.07 v 1.11 c 0,0.06 0.05,0.11 0.11,0.11 z m 5.25,0 v -1.63 c 0,-0.78 -0.04,-1.92 -0.27,-3.4 h 0.21 c 0.74,1.51 1.43,2.85 2.54,4.71 c 0.18,0.31 0.27,0.32 0.35,0.32 h 1.23 v -6.89 c 0,-0.06 -0.05,-0.11 -0.11,-0.11 h -1.25 v 1.37 c 0,1.09 0.06,2.06 0.31,3.48 h -0.19 c -0.76,-1.53 -1.53,-2.94 -2.39,-4.54 c -0.16,-0.31 -0.16,-0.31 -0.28,-0.31 h -1.51 v 6.89 c 0,0.06 0.05,0.11 0.11,0.11 z m 10.96,0 v -5.78 h 1.77 v -1.11 c 0,-0.07 -0.04,-0.11 -0.11,-0.11 h -4.87 v 1.11 c 0,0.07 0.04,0.11 0.11,0.11 h 1.66 v 5.67 c 0,0.07 0.04,0.11 0.11,0.11 z m 5.8,0 h 4.11 v -1.11 c 0,-0.06 -0.05,-0.11 -0.11,-0.11 h -2.67 v -1.71 h 2.19 V 56 c 0,-0.06 -0.05,-0.11 -0.11,-0.11 h -2.08 v -1.67 h 2.78 v -1.11 c 0,-0.06 -0.05,-0.11 -0.11,-0.11 h -4.59 v 1.11 c 0,0.06 0.04,0.11 0.11,0.11 h 0.37 v 5.67 c 0,0.06 0.05,0.11 0.11,0.11 z m 8.1,0 h 4.15 v -1.88 c 0,-0.06 -0.05,-0.11 -0.11,-0.11 h -1.16 v 0.77 h -1.55 v -5.67 c 0,-0.06 -0.05,-0.11 -0.11,-0.11 h -1.33 v 6.89 c 0,0.06 0.05,0.11 0.11,0.11 z m 8.13999,0 h 4.15 v -1.88 c 0,-0.06 -0.05,-0.11 -0.11,-0.11 h -1.16 v 0.77 h -1.55 v -5.67 c 0,-0.06 -0.05,-0.11 -0.11,-0.11 h -1.33 v 6.89 c 0,0.06 0.05,0.11 0.11,0.11 z m 11.58999,0 v -1.11 c 0,-0.06 -0.05,-0.11 -0.11,-0.11 h -0.96 v -4.56 h 1.07 v -1.11 c 0,-0.06 -0.05,-0.11 -0.11,-0.11 h -3.47 v 1.11 c 0,0.06 0.05,0.11 0.11,0.11 h 0.96 v 4.56 h -1.07 v 1.11 c 0,0.06 0.05,0.11 0.11,0.11 z m 6.40999,-3.83 v 1.07 c 0,0.07 0.04,0.11 0.11,0.11 h 1.01 v 1.27 c -0.16,0.16 -0.6,0.32 -1.14,0.32 c -0.55,0 -0.88,-0.12 -1.09,-0.33 c -0.22,-0.22 -0.36,-0.57 -0.36,-1.06 v -1.97 c 0,-1.02 0.53,-1.49 1.49,-1.49 c 0.44,0 0.78,0.05 1.07,0.15 v 0.69 c 0,0.07 0.04,0.11 0.11,0.11 h 1.16 v -1.45 c 0,-0.07 -0.01,-0.12 -0.06,-0.16 c -0.31,-0.31 -1.06,-0.63 -2.2,-0.63 c -1.94,0 -2.92,1.07 -2.92,2.73 v 1.96 c 0,1.67 0.86,2.71 2.92,2.71 c 0.9,0 1.85,-0.36 2.23,-0.85 c 0.05,-0.06 0.06,-0.09 0.06,-0.19 v -1.81 h 0.37 v -1.07 c 0,-0.06 -0.05,-0.11 -0.11,-0.11 z m 6.66,3.83 h 4.11 v -1.11 c 0,-0.06 -0.05,-0.11 -0.11,-0.11 h -2.67 v -1.71 h 2.19 V 56 c 0,-0.06 -0.05,-0.11 -0.11,-0.11 h -2.08 v -1.67 h 2.78 v -1.11 c 0,-0.06 -0.05,-0.11 -0.11,-0.11 h -4.59 v 1.11 c 0,0.06 0.04,0.11 0.11,0.11 h 0.37 v 5.67 c 0,0.06 0.05,0.11 0.11,0.11 z m 9.16,0 v -1.63 c 0,-0.78 -0.04,-1.92 -0.27,-3.4 h 0.21 c 0.74,1.51 1.43,2.85 2.54,4.71 c 0.18,0.31 0.27,0.32 0.35,0.32 h 1.23 v -6.89 c 0,-0.06 -0.05,-0.11 -0.11,-0.11 h -1.25 v 1.37 c 0,1.09 0.06,2.06 0.31,3.48 h -0.19 c -0.76,-1.53 -1.53,-2.94 -2.39,-4.54 c -0.16,-0.31 -0.16,-0.31 -0.28,-0.31 h -1.51 v 6.89 c 0,0.06 0.05,0.11 0.11,0.11 z m 10.64998,0.2 c 0.93,0 1.71,-0.27 1.99,-0.56 c 0.04,-0.03 0.06,-0.08 0.06,-0.15 v -1.1 h -0.19 c -0.62,0.4 -1.12,0.55 -1.85,0.55 c -0.45,0 -0.83,-0.09 -1.07,-0.33 c -0.26,-0.26 -0.37,-0.67 -0.37,-1.26 v -1.87 c 0,-0.96 0.5,-1.39 1.3,-1.39 c 0.33,0 0.6,0.04 0.85,0.14 v 1.02 c 0,0.07 0.04,0.11 0.11,0.11 h 1.16 v -1.75 c 0,-0.07 -0.01,-0.12 -0.05,-0.17 c -0.32,-0.31 -1.04,-0.64 -2.05,-0.64 c -1.76,0 -2.76,1.07 -2.76,2.64 v 2.02 c 0,1.74 0.95,2.74 2.87,2.74 z m 6.11002,-0.2 h 4.11 v -1.11 c 0,-0.06 -0.05,-0.11 -0.11,-0.11 h -2.67 v -1.71 h 2.19 V 56 c 0,-0.06 -0.05,-0.11 -0.11,-0.11 h -2.08 v -1.67 h 2.78 v -1.11 c 0,-0.06 -0.05,-0.11 -0.11,-0.11 h -4.59 v 1.11 c 0,0.06 0.04,0.11 0.11,0.11 h 0.37 v 5.67 c 0,0.06 0.05,0.11 0.11,0.11 z"
         id="text34"
         style="font-weight:bold;font-size:10px;font-family:'Recursive Sans Linear Static';-inkscape-font-specification:'Recursive Sans Linear Static Bold';letter-spacing:2.64px;fill:#5a6f8a"
         aria-label="ON-BOARD INTELLIGENCE" />
    </g>
  </g>
  <!-- HORIZONTAL PRIMARY -->
  <!-- HORIZONTAL WITH TAGLINE -->
  <!-- STACKED -->
  <!-- STACKED + TAGLINE -->
  <!-- WORDMARK ONLY -->
  <!-- SIZE VARIATIONS -->
  <!-- BADGE -->
  <!-- FOOTER -->
</svg>
