<?xml version="1.0" encoding="UTF-8" standalone="no"?>
<svg
   width="213.45593"
   height="35.42395"
   viewBox="0 0 213.45593 35.42395"
   version="1.1"
   id="svg54"
   xmlns="http://www.w3.org/2000/svg"
   xmlns:svg="http://www.w3.org/2000/svg">
  <defs
     id="defs1">
    <style
       id="style1">@import url('https://fonts.googleapis.com/css2?family=Recursive:slnt,wght,CASL,CRSV,MONO@-15..0,300..900,0..1,0..1,0..1&amp;display=swap');</style>
  </defs>
  <g
     id="g1"
     transform="translate(-522.97601,-275.48802)">
    <path
       d="m 535.408,275.488 c -7.344,0 -12.048,3.792 -12.048,9.024 v 2.304 c 0,3.552 1.488,6.576 7.824,8.496 l 4.56,1.392 c 3.504,1.056 3.936,1.872 3.936,3.408 v 1.632 c 0,1.776 -1.728,3.264 -5.712,3.264 c -4.32,0 -7.2,-0.864 -10.08,-2.832 h -0.912 v 5.28 c 0,0.576 0.096,0.72 0.288,0.912 c 1.632,1.584 5.616,2.544 10.272,2.544 c 7.872,0 12.528,-3.408 12.528,-9.024 v -2.208 c 0,-4.464 -1.776,-6.768 -7.728,-8.544 l -4.608,-1.392 c -3.36,-1.008 -3.984,-1.872 -3.984,-3.744 v -1.008 c 0,-2.544 1.968,-3.648 5.664,-3.648 c 1.344,0 2.4,0.144 3.408,0.432 v 3.36 c 0,0.336 0.192,0.528 0.528,0.528 h 5.616 v -6.624 c 0,-0.384 -0.048,-0.624 -0.288,-0.864 c -1.488,-1.488 -4.8,-2.688 -9.264,-2.688 z M 569.05598,310 v -11.568 c 3.6,-6.816 7.44,-14.4 10.704,-20.88 c 0.384,-0.816 0.144,-1.152 -0.48,-1.152 h -6.24 c -2.928,6.144 -4.944,10.656 -6.672,16.56 h -1.104 c -1.824,-5.76 -3.984,-10.368 -6.576,-15.504 c -0.384,-0.864 -0.624,-1.056 -1.296,-1.056 h -6.432 c 3.696,7.2 9.504,18.816 11.184,22.032 v 11.04 c 0,0.336 0.192,0.528 0.528,0.528 z m 23.90399,0 v -7.824 c 0,-3.744 -0.192,-9.216 -1.296,-16.32 h 1.008 c 3.552,7.248 6.864,13.68 12.192,22.608 c 0.864,1.488 1.296,1.536 1.68,1.536 h 5.904 v -33.072 c 0,-0.288 -0.24,-0.528 -0.528,-0.528 h -6 v 6.576 c 0,5.232 0.288,9.888 1.488,16.704 h -0.912 c -3.648,-7.344 -7.344,-14.112 -11.472,-21.792 c -0.768,-1.488 -0.768,-1.488 -1.344,-1.488 h -7.248 v 33.072 c 0,0.288 0.24,0.528 0.528,0.528 z m 32.87998,0 c 0.72,-2.832 1.392,-5.424 1.968,-7.776 h 10.8 c 0.528,2.112 1.104,4.416 1.728,6.864 c 0.24,0.768 0.336,0.912 0.912,0.912 h 5.904 c -0.432,-2.304 -0.96,-4.56 -1.488,-6.672 c -2.496,-10.272 -4.752,-19.2 -6.576,-26.448 c -0.096,-0.336 -0.24,-0.528 -0.576,-0.528 h -10.848 c -1.728,6.672 -6.768,27.36 -8.256,33.024 c -0.096,0.48 0.192,0.624 0.384,0.624 z m 6.96,-28.416 h 1.104 c 0.576,3.6 1.68,8.352 3.312,14.976 h -7.92 c 1.728,-6.768 2.832,-11.424 3.504,-14.976 z M 661.74392,310 v -10.272 h 4.272 c 7.968,0 11.136,-3.84 11.136,-10.224 v -2.928 c 0,-6.48 -3.408,-10.176 -11.184,-10.176 h -13.488 v 5.28 c 0,0.336 0.192,0.528 0.528,0.528 h 1.824 v 27.264 c 0,0.336 0.192,0.528 0.528,0.528 z m 4.272,-27.792 c 1.536,0 2.592,0.288 3.264,0.96 c 0.672,0.624 0.912,1.632 0.912,3.072 v 3.504 c 0,3.024 -1.296,4.128 -4.176,4.128 h -4.272 v -11.664 z m 30.43198,-6.72 c -7.344,0 -12.048,3.792 -12.048,9.024 v 2.304 c 0,3.552 1.488,6.576 7.824,8.496 l 4.56,1.392 c 3.504,1.056 3.936,1.872 3.936,3.408 v 1.632 c 0,1.776 -1.728,3.264 -5.712,3.264 c -4.32,0 -7.2,-0.864 -10.08,-2.832 h -0.912 v 5.28 c 0,0.576 0.096,0.72 0.288,0.912 c 1.632,1.584 5.616,2.544 10.272,2.544 c 7.872,0 12.528,-3.408 12.528,-9.024 v -2.208 c 0,-4.464 -1.776,-6.768 -7.728,-8.544 l -4.608,-1.392 c -3.36,-1.008 -3.984,-1.872 -3.984,-3.744 v -1.008 c 0,-2.544 1.968,-3.648 5.664,-3.648 c 1.344,0 2.4,0.144 3.408,0.432 v 3.36 c 0,0.336 0.192,0.528 0.528,0.528 h 5.616 v -6.624 c 0,-0.384 -0.048,-0.624 -0.288,-0.864 c -1.488,-1.488 -4.8,-2.688 -9.264,-2.688 z M 716.70392,310 h 19.728 v -5.328 c 0,-0.288 -0.24,-0.528 -0.528,-0.528 h -12.816 v -8.208 h 10.512 V 290.8 c 0,-0.288 -0.24,-0.528 -0.528,-0.528 h -9.984 v -8.016 h 13.344 v -5.328 c 0,-0.288 -0.24,-0.528 -0.528,-0.528 h -22.032 v 5.328 c 0,0.288 0.192,0.528 0.528,0.528 h 1.776 v 27.216 c 0,0.288 0.24,0.528 0.528,0.528 z"
       id="text63"
       style="font-weight:bold;font-size:48px;font-family:'Recursive Sans Linear Static';-inkscape-font-specification:'Recursive Sans Linear Static Bold';letter-spacing:2.64px;fill:#a78bfa"
       aria-label="SYNAPSE" />
  </g>
  <!-- HORIZONTAL PRIMARY -->
  <!-- HORIZONTAL WITH TAGLINE -->
  <!-- STACKED -->
  <!-- STACKED + TAGLINE -->
  <!-- WORDMARK ONLY -->
  <!-- SIZE VARIATIONS -->
  <!-- BADGE -->
  <!-- FOOTER -->
</svg>
