<?xml version="1.0" encoding="UTF-8" standalone="no"?>
<svg
   width="249.03641"
   height="80"
   viewBox="0 0 249.03642 80"
   version="1.1"
   id="svg54"
   xmlns="http://www.w3.org/2000/svg"
   xmlns:svg="http://www.w3.org/2000/svg">
  <defs
     id="defs1">
    <style
       id="style1">@import url('https://fonts.googleapis.com/css2?family=Recursive:slnt,wght,CASL,CRSV,MONO@-15..0,300..900,0..1,0..1,0..1&amp;display=swap');</style>
  </defs>
  <!-- HORIZONTAL PRIMARY -->
  <!-- HORIZONTAL WITH TAGLINE -->
  <!-- STACKED -->
  <!-- STACKED + TAGLINE -->
  <!-- WORDMARK ONLY -->
  <!-- SIZE VARIATIONS -->
  <!-- BADGE -->
  <!-- FOOTER -->
  <g
     id="g29"
     transform="translate(-422.38602,-1200.3741)">
    <g
       id="g7-2-8"
       transform="translate(-117.614,1092.3741)">
      <g
         transform="translate(540,108)"
         id="g34-62-2">
        <g
           id="g2">
          <rect
             width="110"
             height="110"
             fill="#0c1220"
             id="rect18-3-4"
             x="0"
             y="0"
             transform="scale(0.72727273)" />
          <line
             x1="55"
             y1="55"
             x2="28"
             y2="24"
             stroke="#1e90ff"
             stroke-width="2.5"
             id="line18-6-8"
             transform="scale(0.72727273)" />
          <line
             x1="55"
             y1="55"
             x2="82"
             y2="24"
             stroke="#1e90ff"
             stroke-width="2.5"
             id="line19-7-3"
             transform="scale(0.72727273)" />
          <line
             x1="55"
             y1="55"
             x2="90"
             y2="50"
             stroke="#1e90ff"
             stroke-width="2.5"
             id="line20-5-9"
             transform="scale(0.72727273)" />
          <line
             x1="55"
             y1="55"
             x2="26"
             y2="76"
             stroke="#1e90ff"
             stroke-width="2.5"
             id="line21-3-0"
             transform="scale(0.72727273)" />
          <line
             x1="55"
             y1="55"
             x2="78"
             y2="86"
             stroke="#8b5cf6"
             stroke-width="3.5"
             id="line22-9-5"
             transform="scale(0.72727273)" />
          <line
             x1="28"
             y1="24"
             x2="82"
             y2="24"
             stroke="#1e90ff"
             stroke-width="1.5"
             opacity="0.3"
             id="line23-31-2"
             transform="scale(0.72727273)" />
          <line
             x1="82"
             y1="24"
             x2="90"
             y2="50"
             stroke="#1e90ff"
             stroke-width="1.5"
             opacity="0.3"
             id="line24-0-2"
             transform="scale(0.72727273)" />
          <line
             x1="26"
             y1="76"
             x2="78"
             y2="86"
             stroke="#8b5cf6"
             stroke-width="2"
             opacity="0.35"
             id="line25-9-7"
             transform="scale(0.72727273)" />
          <circle
             cx="28"
             cy="24"
             r="4.5"
             fill="none"
             stroke="#1e90ff"
             stroke-width="2"
             id="circle25-9-3"
             transform="scale(0.72727273)" />
          <circle
             cx="82"
             cy="24"
             r="3.5"
             fill="none"
             stroke="#1e90ff"
             stroke-width="2"
             id="circle26-8-7"
             transform="scale(0.72727273)" />
          <circle
             cx="90"
             cy="50"
             r="3.5"
             fill="none"
             stroke="#1e90ff"
             stroke-width="2"
             id="circle27-7-9"
             transform="scale(0.72727273)" />
          <circle
             cx="26"
             cy="76"
             r="3.5"
             fill="none"
             stroke="#1e90ff"
             stroke-width="2"
             id="circle28-5-0"
             transform="scale(0.72727273)" />
          <circle
             cx="78"
             cy="86"
             r="5.5"
             fill="#8b5cf6"
             id="circle29-63-2"
             transform="scale(0.72727273)" />
          <circle
             cx="55"
             cy="55"
             r="7"
             fill="none"
             stroke="#1e90ff"
             stroke-width="3"
             id="circle30-9-3"
             transform="scale(0.72727273)" />
          <g
             stroke="#5a6f8a"
             stroke-width="1.5"
             fill="none"
             opacity="0.3"
             id="g33-7-9"
             transform="scale(0.72727273)">
            <polyline
               points="8,20 8,8 20,8"
               id="polyline30-8-9" />
            <polyline
               points="90,8 102,8 102,20"
               id="polyline31-7-7" />
            <polyline
               points="102,90 102,102 90,102"
               id="polyline32-8-0" />
            <polyline
               points="20,102 8,102 8,90"
               id="polyline33-0-3" />
          </g>
        </g>
        <path
           d="m 111.484,18.152 c -5.112,0 -8.604,2.7 -8.604,6.588 v 1.368 c 0,2.988 1.332,4.932 5.832,6.3 l 3.492,1.044 c 3.06,0.9 3.744,1.692 3.744,3.456 v 0.972 c 0,2.268 -1.908,3.744 -5.328,3.744 c -3.276,0 -5.4,-0.648 -7.56,-2.34 h -0.54 v 2.664 c 0,0.324 0.036,0.432 0.216,0.612 c 1.26,1.26 4.212,2.088 7.74,2.088 c 5.544,0 8.748,-2.628 8.748,-6.696 v -1.368 c 0,-3.276 -1.512,-4.788 -5.94,-6.12 l -3.456,-1.008 c -2.988,-0.864 -3.672,-1.872 -3.672,-3.744 v -0.72 c 0,-2.448 2.052,-3.816 5.328,-3.816 c 1.656,0 2.952,0.252 3.996,0.756 v 3.132 c 0,0.252 0.144,0.396 0.396,0.396 h 2.808 v -4.68 c 0,-0.252 -0.072,-0.396 -0.288,-0.612 c -1.152,-1.188 -3.672,-2.016 -6.912,-2.016 z m 14.112,6.696 H 122.5 c 2.268,6.156 5.652,14.868 6.516,17.064 c 0.576,1.404 0.72,1.476 1.404,1.476 h 1.512 c -0.324,1.044 -0.576,1.908 -0.756,2.448 c -0.504,1.692 -1.512,2.412 -3.132,2.412 h -3.42 v 2.556 c 0,0.288 0.144,0.396 0.396,0.396 h 3.276 c 3.204,0 4.896,-1.368 5.904,-4.788 c 1.98,-6.66 4.248,-13.644 6.552,-20.988 c 0.108,-0.36 -0.18,-0.576 -0.432,-0.576 h -2.844 c -1.548,5.256 -3.528,11.88 -4.896,16.416 h -0.648 c -0.828,-2.88 -3.312,-8.928 -5.652,-15.984 c -0.108,-0.324 -0.252,-0.432 -0.684,-0.432 z M 149.14001,44 V 30.86 c 1.98,-2.196 4.032,-3.24 5.832,-3.24 c 1.728,0 2.7,0.936 2.7,2.88 v 13.104 c 0,0.252 0.144,0.396 0.396,0.396 h 2.916 V 29.852 c 0,-3.168 -1.836,-5.4 -5.076,-5.4 c -2.556,0 -4.572,1.44 -6.228,3.6 h -0.54 v -2.808 c 0,-0.252 -0.144,-0.396 -0.396,-0.396 h -2.916 v 18.756 c 0,0.252 0.144,0.396 0.396,0.396 z m 32.83201,-12.636 c 0,-4.968 -2.304,-6.876 -7.704,-6.876 c -2.952,0 -5.832,0.864 -6.192,1.26 c -0.072,0.072 -0.108,0.144 -0.108,0.288 v 2.592 h 0.54 c 1.908,-0.72 3.6,-1.044 5.76,-1.044 c 3.312,0 4.428,0.864 4.428,3.744 v 1.656 h -6.444 c -3.492,0 -5.652,1.944 -5.652,5.112 v 1.152 c 0,3.168 2.124,5.112 5.508,5.112 c 2.88,0 5.004,-1.224 6.192,-3.42 h 0.468 c 0.36,2.052 1.908,3.06 3.852,3.06 h 1.26 c 0.252,0 0.396,-0.108 0.396,-0.396 v -2.52 h -0.9 c -0.468,0 -0.828,-0.072 -1.044,-0.324 c -0.252,-0.252 -0.36,-0.648 -0.36,-1.296 z m -12.06,7.524 v -1.08 c 0,-0.756 0.216,-1.368 0.648,-1.764 c 0.468,-0.468 1.188,-0.72 2.16,-0.72 h 5.976 v 3.24 c -1.98,2.124 -3.78,2.808 -5.976,2.808 c -1.872,0 -2.808,-0.864 -2.808,-2.484 z m 19.11602,-14.04 v 25.956 c 0,0.252 0.144,0.396 0.396,0.396 h 2.916 v -9.72 h 0.504 c 1.368,1.908 3.312,2.88 5.688,2.88 c 3.78,0 6.336,-2.7 6.336,-7.236 v -5.616 c 0,-4.392 -2.556,-7.056 -6.264,-7.056 c -2.484,0 -4.428,1.296 -5.76,3.528 h -0.504 v -2.736 c 0,-0.252 -0.144,-0.396 -0.396,-0.396 z m 8.64,2.772 c 1.188,0 2.124,0.36 2.808,1.008 c 0.72,0.756 1.116,1.872 1.116,3.384 v 4.608 c 0,2.952 -1.512,4.572 -3.924,4.572 c -2.016,0 -3.888,-0.756 -5.328,-2.484 v -7.56 c 1.656,-2.412 3.456,-3.528 5.328,-3.528 z m 18.864,13.536 c -2.916,0 -4.86,-0.468 -6.876,-1.764 h -0.54 v 2.88 c 0,0.252 0.036,0.324 0.216,0.432 c 1.296,0.9 3.816,1.62 7.236,1.62 c 5.04,0 8.028,-2.268 8.028,-5.868 c 0,-2.88 -1.872,-4.608 -5.004,-5.256 l -3.564,-0.72 c -2.448,-0.54 -3.06,-1.08 -3.06,-2.304 c 0,-1.368 1.332,-2.484 4.572,-2.484 c 2.34,0 3.852,0.252 5.616,0.9 h 0.54 v -2.556 c 0,-0.36 -0.036,-0.504 -0.432,-0.648 c -0.972,-0.396 -2.664,-0.864 -5.292,-0.864 c -5.436,0 -8.28,2.412 -8.28,5.76 c 0,2.628 1.476,4.212 5.076,4.932 l 3.564,0.72 c 2.196,0.468 3.024,1.224 3.024,2.52 c 0,1.584 -1.368,2.7 -4.824,2.7 z m 21.09598,-16.704 c -4.464,0 -8.136,2.628 -8.136,8.208 v 3.744 c 0,5.112 3.096,7.992 9.072,7.992 c 2.844,0 5.508,-0.648 6.408,-1.548 c 0.108,-0.108 0.144,-0.18 0.144,-0.288 v -2.556 h -0.54 c -1.8,1.008 -3.42,1.44 -5.976,1.44 c -2.088,0 -3.636,-0.432 -4.608,-1.404 c -0.792,-0.828 -1.224,-2.052 -1.224,-3.636 v -0.828 h 12.24 c 0.252,0 0.396,-0.144 0.396,-0.396 v -2.628 c 0,-5.508 -3.528,-8.1 -7.776,-8.1 z m 0,2.88 c 1.404,0 2.52,0.324 3.276,1.08 c 0.864,0.864 1.26,2.196 1.26,4.104 v 0.72 h -9.396 v -0.612 c 0,-3.744 1.764,-5.292 4.86,-5.292 z"
           id="text33-0-9"
           style="font-size:36px;font-family:'Recursive Sans Linear Static';-inkscape-font-specification:'Recursive Sans Linear Static';fill:#e8ecf4"
           aria-label="Synapse" />
        <text
           xml:space="preserve"
           style="font-style:normal;font-variant:normal;font-weight:normal;font-stretch:normal;font-size:12px;line-height:0px;font-family:'Recursive Sans Linear Static';-inkscape-font-specification:'Recursive Sans Linear Static';letter-spacing:1.5px;word-spacing:0.0106814px;writing-mode:lr-tb;direction:ltr;fill:#5a6f8a;fill-opacity:1;stroke-width:1.06814"
           x="99.831085"
           y="66.204071"
           id="text4-4-6"><tspan
             id="tspan2-7-5"
             x="99.831085"
             y="66.204071"
             style="font-style:normal;font-variant:normal;font-weight:normal;font-stretch:normal;font-size:12px;font-family:'Recursive Sans Linear Static';-inkscape-font-specification:'Recursive Sans Linear Static';letter-spacing:1.5px;fill:#5a6f8a;fill-opacity:1;stroke-width:1.06814">Detect. Decide. Fire.</tspan></text>
      </g>
    </g>
  </g>
</svg>
