<?xml version="1.0" encoding="UTF-8" standalone="no"?>
<svg
   width="265.46802"
   height="80"
   viewBox="0 0 265.46802 80"
   version="1.1"
   id="svg102"
   xmlns="http://www.w3.org/2000/svg"
   xmlns:svg="http://www.w3.org/2000/svg">
  <defs
     id="defs1">
    <style
       id="style1">@import url('https://fonts.googleapis.com/css2?family=Recursive:slnt,wght,CASL,CRSV,MONO@-15..0,300..900,0..1,0..1,0..1&amp;display=swap');</style>
  </defs>
  <rect
     width="1200"
     height="395.19064"
     fill="#080b12"
     id="rect1"
     x="-540"
     y="-108"
     style="stroke-width:0.702842" />
  <!-- HORIZONTAL PRIMARY -->
  <!-- HORIZONTAL WITH TAGLINE -->
  <g
     id="g34">
    <rect
       width="110"
       height="110"
       fill="#0c1220"
       id="rect18"
       x="0"
       y="0"
       transform="scale(0.72727273)" />
    <line
       x1="55"
       y1="55"
       x2="28"
       y2="24"
       stroke="#1e90ff"
       stroke-width="2.5"
       id="line18"
       transform="scale(0.72727273)" />
    <line
       x1="55"
       y1="55"
       x2="82"
       y2="24"
       stroke="#1e90ff"
       stroke-width="2.5"
       id="line19"
       transform="scale(0.72727273)" />
    <line
       x1="55"
       y1="55"
       x2="90"
       y2="50"
       stroke="#1e90ff"
       stroke-width="2.5"
       id="line20"
       transform="scale(0.72727273)" />
    <line
       x1="55"
       y1="55"
       x2="26"
       y2="76"
       stroke="#1e90ff"
       stroke-width="2.5"
       id="line21"
       transform="scale(0.72727273)" />
    <line
       x1="55"
       y1="55"
       x2="78"
       y2="86"
       stroke="#8b5cf6"
       stroke-width="3.5"
       id="line22"
       transform="scale(0.72727273)" />
    <line
       x1="28"
       y1="24"
       x2="82"
       y2="24"
       stroke="#1e90ff"
       stroke-width="1.5"
       opacity="0.3"
       id="line23"
       transform="scale(0.72727273)" />
    <line
       x1="82"
       y1="24"
       x2="90"
       y2="50"
       stroke="#1e90ff"
       stroke-width="1.5"
       opacity="0.3"
       id="line24"
       transform="scale(0.72727273)" />
    <line
       x1="26"
       y1="76"
       x2="78"
       y2="86"
       stroke="#8b5cf6"
       stroke-width="2"
       opacity="0.35"
       id="line25"
       transform="scale(0.72727273)" />
    <circle
       cx="28"
       cy="24"
       r="4.5"
       fill="none"
       stroke="#1e90ff"
       stroke-width="2"
       id="circle25"
       transform="scale(0.72727273)" />
    <circle
       cx="82"
       cy="24"
       r="3.5"
       fill="none"
       stroke="#1e90ff"
       stroke-width="2"
       id="circle26"
       transform="scale(0.72727273)" />
    <circle
       cx="90"
       cy="50"
       r="3.5"
       fill="none"
       stroke="#1e90ff"
       stroke-width="2"
       id="circle27"
       transform="scale(0.72727273)" />
    <circle
       cx="26"
       cy="76"
       r="3.5"
       fill="none"
       stroke="#1e90ff"
       stroke-width="2"
       id="circle28"
       transform="scale(0.72727273)" />
    <circle
       cx="78"
       cy="86"
       r="5.5"
       fill="#8b5cf6"
       id="circle29"
       transform="scale(0.72727273)" />
    <circle
       cx="55"
       cy="55"
       r="7"
       fill="none"
       stroke="#1e90ff"
       stroke-width="3"
       id="circle30"
       transform="scale(0.72727273)" />
    <g
       stroke="#5a6f8a"
       stroke-width="1.5"
       fill="none"
       opacity="0.3"
       id="g33"
       transform="scale(0.72727273)">
      <polyline
         points="8,20 8,8 20,8"
         id="polyline30" />
      <polyline
         points="90,8 102,8 102,20"
         id="polyline31" />
      <polyline
         points="102,90 102,102 90,102"
         id="polyline32" />
      <polyline
         points="20,102 8,102 8,90"
         id="polyline33" />
    </g>
    <path
       d="m 111.484,18.152 c -5.112,0 -8.604,2.7 -8.604,6.588 v 1.368 c 0,2.988 1.332,4.932 5.832,6.3 l 3.492,1.044 c 3.06,0.9 3.744,1.692 3.744,3.456 v 0.972 c 0,2.268 -1.908,3.744 -5.328,3.744 c -3.276,0 -5.4,-0.648 -7.56,-2.34 h -0.54 v 2.664 c 0,0.324 0.036,0.432 0.216,0.612 c 1.26,1.26 4.212,2.088 7.74,2.088 c 5.544,0 8.748,-2.628 8.748,-6.696 v -1.368 c 0,-3.276 -1.512,-4.788 -5.94,-6.12 l -3.456,-1.008 c -2.988,-0.864 -3.672,-1.872 -3.672,-3.744 v -0.72 c 0,-2.448 2.052,-3.816 5.328,-3.816 c 1.656,0 2.952,0.252 3.996,0.756 v 3.132 c 0,0.252 0.144,0.396 0.396,0.396 h 2.808 v -4.68 c 0,-0.252 -0.072,-0.396 -0.288,-0.612 c -1.152,-1.188 -3.672,-2.016 -6.912,-2.016 z m 14.112,6.696 H 122.5 c 2.268,6.156 5.652,14.868 6.516,17.064 c 0.576,1.404 0.72,1.476 1.404,1.476 h 1.512 c -0.324,1.044 -0.576,1.908 -0.756,2.448 c -0.504,1.692 -1.512,2.412 -3.132,2.412 h -3.42 v 2.556 c 0,0.288 0.144,0.396 0.396,0.396 h 3.276 c 3.204,0 4.896,-1.368 5.904,-4.788 c 1.98,-6.66 4.248,-13.644 6.552,-20.988 c 0.108,-0.36 -0.18,-0.576 -0.432,-0.576 h -2.844 c -1.548,5.256 -3.528,11.88 -4.896,16.416 h -0.648 c -0.828,-2.88 -3.312,-8.928 -5.652,-15.984 c -0.108,-0.324 -0.252,-0.432 -0.684,-0.432 z M 149.14001,44 V 30.86 c 1.98,-2.196 4.032,-3.24 5.832,-3.24 c 1.728,0 2.7,0.936 2.7,2.88 v 13.104 c 0,0.252 0.144,0.396 0.396,0.396 h 2.916 V 29.852 c 0,-3.168 -1.836,-5.4 -5.076,-5.4 c -2.556,0 -4.572,1.44 -6.228,3.6 h -0.54 v -2.808 c 0,-0.252 -0.144,-0.396 -0.396,-0.396 h -2.916 v 18.756 c 0,0.252 0.144,0.396 0.396,0.396 z m 32.83201,-12.636 c 0,-4.968 -2.304,-6.876 -7.704,-6.876 c -2.952,0 -5.832,0.864 -6.192,1.26 c -0.072,0.072 -0.108,0.144 -0.108,0.288 v 2.592 h 0.54 c 1.908,-0.72 3.6,-1.044 5.76,-1.044 c 3.312,0 4.428,0.864 4.428,3.744 v 1.656 h -6.444 c -3.492,0 -5.652,1.944 -5.652,5.112 v 1.152 c 0,3.168 2.124,5.112 5.508,5.112 c 2.88,0 5.004,-1.224 6.192,-3.42 h 0.468 c 0.36,2.052 1.908,3.06 3.852,3.06 h 1.26 c 0.252,0 0.396,-0.108 0.396,-0.396 v -2.52 h -0.9 c -0.468,0 -0.828,-0.072 -1.044,-0.324 c -0.252,-0.252 -0.36,-0.648 -0.36,-1.296 z m -12.06,7.524 v -1.08 c 0,-0.756 0.216,-1.368 0.648,-1.764 c 0.468,-0.468 1.188,-0.72 2.16,-0.72 h 5.976 v 3.24 c -1.98,2.124 -3.78,2.808 -5.976,2.808 c -1.872,0 -2.808,-0.864 -2.808,-2.484 z m 19.11602,-14.04 v 25.956 c 0,0.252 0.144,0.396 0.396,0.396 h 2.916 v -9.72 h 0.504 c 1.368,1.908 3.312,2.88 5.688,2.88 c 3.78,0 6.336,-2.7 6.336,-7.236 v -5.616 c 0,-4.392 -2.556,-7.056 -6.264,-7.056 c -2.484,0 -4.428,1.296 -5.76,3.528 h -0.504 v -2.736 c 0,-0.252 -0.144,-0.396 -0.396,-0.396 z m 8.64,2.772 c 1.188,0 2.124,0.36 2.808,1.008 c 0.72,0.756 1.116,1.872 1.116,3.384 v 4.608 c 0,2.952 -1.512,4.572 -3.924,4.572 c -2.016,0 -3.888,-0.756 -5.328,-2.484 v -7.56 c 1.656,-2.412 3.456,-3.528 5.328,-3.528 z m 18.864,13.536 c -2.916,0 -4.86,-0.468 -6.876,-1.764 h -0.54 v 2.88 c 0,0.252 0.036,0.324 0.216,0.432 c 1.296,0.9 3.816,1.62 7.236,1.62 c 5.04,0 8.028,-2.268 8.028,-5.868 c 0,-2.88 -1.872,-4.608 -5.004,-5.256 l -3.564,-0.72 c -2.448,-0.54 -3.06,-1.08 -3.06,-2.304 c 0,-1.368 1.332,-2.484 4.572,-2.484 c 2.34,0 3.852,0.252 5.616,0.9 h 0.54 v -2.556 c 0,-0.36 -0.036,-0.504 -0.432,-0.648 c -0.972,-0.396 -2.664,-0.864 -5.292,-0.864 c -5.436,0 -8.28,2.412 -8.28,5.76 c 0,2.628 1.476,4.212 5.076,4.932 l 3.564,0.72 c 2.196,0.468 3.024,1.224 3.024,2.52 c 0,1.584 -1.368,2.7 -4.824,2.7 z m 21.09598,-16.704 c -4.464,0 -8.136,2.628 -8.136,8.208 v 3.744 c 0,5.112 3.096,7.992 9.072,7.992 c 2.844,0 5.508,-0.648 6.408,-1.548 c 0.108,-0.108 0.144,-0.18 0.144,-0.288 v -2.556 h -0.54 c -1.8,1.008 -3.42,1.44 -5.976,1.44 c -2.088,0 -3.636,-0.432 -4.608,-1.404 c -0.792,-0.828 -1.224,-2.052 -1.224,-3.636 v -0.828 h 12.24 c 0.252,0 0.396,-0.144 0.396,-0.396 v -2.628 c 0,-5.508 -3.528,-8.1 -7.776,-8.1 z m 0,2.88 c 1.404,0 2.52,0.324 3.276,1.08 c 0.864,0.864 1.26,2.196 1.26,4.104 v 0.72 h -9.396 v -0.612 c 0,-3.744 1.764,-5.292 4.86,-5.292 z"
       id="text33"
       style="font-size:36px;font-family:'Recursive Sans Linear Static';-inkscape-font-specification:'Recursive Sans Linear Static';fill:#e8ecf4"
       aria-label="Synapse" />
    <path
       d="m 103.912,57.46 c -1.752,0 -3.108,1.068 -3.108,3.288 v 2.412 c 0,2.148 1.404,3.18 3.084,3.18 c 1.716,0 3.108,-1.032 3.108,-3.18 v -2.412 c 0,-2.22 -1.344,-3.288 -3.084,-3.288 z m -2.016,5.676 V 60.64 c 0,-1.296 0.612,-2.172 2.016,-2.172 c 0.624,0 1.104,0.18 1.404,0.468 c 0.348,0.336 0.588,0.864 0.588,1.704 v 2.46 c 0,1.44 -0.84,2.232 -1.992,2.232 c -0.672,0 -1.104,-0.204 -1.392,-0.48 c -0.336,-0.3 -0.624,-0.828 -0.624,-1.716 z m 9.924,2.964 v -4.38 c 0.66,-0.732 1.344,-1.08 1.944,-1.08 c 0.576,0 0.9,0.312 0.9,0.96 v 4.368 c 0,0.084 0.048,0.132 0.132,0.132 h 0.972 v -4.716 c 0,-1.056 -0.612,-1.8 -1.692,-1.8 c -0.852,0 -1.524,0.48 -2.076,1.2 h -0.18 v -0.936 c 0,-0.084 -0.048,-0.132 -0.132,-0.132 h -0.972 v 6.252 c 0,0.084 0.048,0.132 0.132,0.132 z m 7.692,-4.128 v 0.936 c 0,0.084 0.048,0.132 0.132,0.132 h 3.444 v -0.936 c 0,-0.084 -0.048,-0.132 -0.132,-0.132 z m 10.27201,4.128 c 1.44,0 2.388,-0.672 2.388,-2.136 V 63.64 c 0,-0.948 -0.516,-1.548 -1.464,-1.752 V 61.72 c 0.888,-0.264 1.356,-0.864 1.356,-1.788 v -0.288 c 0,-1.092 -0.708,-1.944 -2.532,-1.944 h -3.372 v 0.852 c 0,0.084 0.048,0.132 0.132,0.132 h 0.588 v 7.284 c 0,0.084 0.048,0.132 0.132,0.132 z m -0.24,-7.416 c 0.552,0 0.912,0.12 1.128,0.336 c 0.192,0.192 0.276,0.444 0.276,0.768 v 0.3 c 0,0.756 -0.336,1.272 -1.644,1.272 h -1.308 v -2.676 z m -1.548,6.432 V 62.32 h 1.296 c 1.356,0 1.752,0.48 1.752,1.176 v 0.336 c 0,0.792 -0.456,1.284 -1.488,1.284 z m 10.044,-5.532 c -1.56,0 -2.736,1.092 -2.736,2.688 v 1.332 c 0,1.536 1.08,2.628 2.736,2.628 c 1.56,0 2.736,-1.092 2.736,-2.688 v -1.332 c 0,-1.536 -1.092,-2.628 -2.736,-2.628 z m 0.06,1.008 c 0.48,0 0.864,0.156 1.128,0.42 c 0.3,0.288 0.456,0.72 0.456,1.284 v 1.212 c 0,0.948 -0.6,1.716 -1.704,1.716 c -0.456,0 -0.852,-0.168 -1.116,-0.444 c -0.3,-0.288 -0.468,-0.732 -0.468,-1.26 v -1.212 c 0,-0.984 0.6,-1.716 1.704,-1.716 z m 11.184,1.296 c 0,-1.656 -0.768,-2.292 -2.568,-2.292 c -0.984,0 -1.944,0.288 -2.064,0.42 c -0.024,0.024 -0.036,0.048 -0.036,0.096 v 0.864 h 0.18 c 0.636,-0.24 1.2,-0.348 1.92,-0.348 c 1.104,0 1.476,0.288 1.476,1.248 v 0.552 h -2.148 c -1.164,0 -1.884,0.648 -1.884,1.704 v 0.384 c 0,1.056 0.708,1.704 1.836,1.704 c 0.96,0 1.668,-0.408 2.064,-1.14 h 0.156 c 0.12,0.684 0.636,1.02 1.284,1.02 h 0.42 c 0.084,0 0.132,-0.036 0.132,-0.132 v -0.84 h -0.3 c -0.156,0 -0.276,-0.024 -0.348,-0.108 c -0.084,-0.084 -0.12,-0.216 -0.12,-0.432 z m -4.02,2.508 v -0.36 c 0,-0.252 0.072,-0.456 0.216,-0.588 c 0.156,-0.156 0.396,-0.24 0.72,-0.24 h 1.992 v 1.08 c -0.66,0.708 -1.26,0.936 -1.992,0.936 c -0.624,0 -0.936,-0.288 -0.936,-0.828 z m 9.324,1.704 v -4.248 c 0.588,-0.804 1.08,-1.116 1.788,-1.116 c 0.264,0 0.456,0.036 0.624,0.084 h 0.18 v -0.936 c 0,-0.096 -0.012,-0.144 -0.096,-0.18 c -0.12,-0.06 -0.312,-0.108 -0.588,-0.108 c -0.72,0 -1.236,0.348 -1.704,1.248 h -0.204 v -0.996 c 0,-0.084 -0.048,-0.132 -0.132,-0.132 h -1.02 v 6.252 c 0,0.084 0.048,0.132 0.132,0.132 z m 7.72801,-6.516 c -1.26,0 -2.112,0.9 -2.112,2.412 v 1.884 c 0,1.464 0.852,2.34 2.088,2.34 c 0.828,0 1.464,-0.396 1.908,-1.092 h 0.18 v 0.84 c 0,0.084 0.048,0.132 0.132,0.132 h 0.972 v -8.868 c 0,-0.084 -0.048,-0.132 -0.132,-0.132 h -0.972 v 3.564 h -0.18 c -0.444,-0.684 -1.032,-1.08 -1.884,-1.08 z m -0.648,5.244 c -0.24,-0.24 -0.372,-0.624 -0.372,-1.128 v -1.524 c 0,-0.996 0.504,-1.536 1.308,-1.536 c 0.636,0 1.236,0.324 1.776,1.068 v 2.424 c -0.54,0.756 -1.14,1.032 -1.776,1.032 c -0.396,0 -0.708,-0.108 -0.936,-0.336 z m 17.21999,1.272 v -0.876 c 0,-0.072 -0.06,-0.132 -0.132,-0.132 h -1.38 v -6.384 h 1.512 v -0.876 c 0,-0.072 -0.06,-0.132 -0.132,-0.132 h -4.044 v 0.876 c 0,0.072 0.048,0.132 0.132,0.132 h 1.38 v 6.384 h -1.512 v 0.876 c 0,0.072 0.048,0.132 0.132,0.132 z m 4.932,0 v -4.38 c 0.66,-0.732 1.344,-1.08 1.944,-1.08 c 0.576,0 0.9,0.312 0.9,0.96 v 4.368 c 0,0.084 0.048,0.132 0.132,0.132 h 0.972 v -4.716 c 0,-1.056 -0.612,-1.8 -1.692,-1.8 c -0.852,0 -1.524,0.48 -2.076,1.2 h -0.18 v -0.936 c 0,-0.084 -0.048,-0.132 -0.132,-0.132 h -0.972 v 6.252 c 0,0.084 0.048,0.132 0.132,0.132 z m 11.74801,-1.044 h -0.984 c -0.456,0 -0.792,-0.084 -1.008,-0.288 c -0.24,-0.24 -0.348,-0.612 -0.348,-1.188 v -2.832 h 2.34 v -0.9 c 0,-0.072 -0.06,-0.132 -0.132,-0.132 h -2.208 v -1.884 c 0,-0.072 -0.06,-0.132 -0.132,-0.132 h -0.972 v 2.016 h -1.212 v 0.9 c 0,0.072 0.06,0.132 0.132,0.132 h 1.08 v 2.928 c 0,1.716 0.864,2.424 2.412,2.424 h 0.9 c 0.084,0 0.132,-0.048 0.132,-0.132 z m 6.22799,-5.472 c -1.488,0 -2.712,0.876 -2.712,2.736 v 1.248 c 0,1.704 1.032,2.664 3.024,2.664 c 0.948,0 1.836,-0.216 2.136,-0.516 c 0.036,-0.036 0.048,-0.06 0.048,-0.096 v -0.852 h -0.18 c -0.6,0.336 -1.14,0.48 -1.992,0.48 c -0.696,0 -1.212,-0.144 -1.536,-0.468 c -0.264,-0.276 -0.408,-0.684 -0.408,-1.212 v -0.276 h 4.08 c 0.084,0 0.132,-0.048 0.132,-0.132 v -0.876 c 0,-1.836 -1.176,-2.7 -2.592,-2.7 z m 0,0.96 c 0.468,0 0.84,0.108 1.092,0.36 c 0.288,0.288 0.42,0.732 0.42,1.368 v 0.24 h -3.132 v -0.204 c 0,-1.248 0.588,-1.764 1.62,-1.764 z m 9.02401,5.424 v -0.9 h -0.528 c -0.288,0 -0.468,-0.048 -0.588,-0.168 c -0.12,-0.12 -0.156,-0.3 -0.156,-0.588 v -7.08 c 0,-0.072 -0.048,-0.132 -0.132,-0.132 h -0.96 v 7.272 c 0,1.2 0.504,1.728 1.608,1.728 h 0.624 c 0.072,0 0.132,-0.036 0.132,-0.132 z m 6.00001,0 v -0.9 h -0.528 c -0.288,0 -0.468,-0.048 -0.588,-0.168 c -0.12,-0.12 -0.156,-0.3 -0.156,-0.588 v -7.08 c 0,-0.072 -0.048,-0.132 -0.132,-0.132 h -0.96 v 7.272 c 0,1.2 0.504,1.728 1.608,1.728 h 0.624 c 0.072,0 0.132,-0.036 0.132,-0.132 z m 3.74399,0 c 0,0.072 0.06,0.132 0.132,0.132 h 0.972 v -6.252 c 0,-0.072 -0.06,-0.132 -0.132,-0.132 h -2.184 v 0.864 c 0,0.084 0.06,0.132 0.132,0.132 h 1.08 z m -0.216,-9.156 v 1.176 c 0,0.084 0.048,0.132 0.132,0.132 h 1.38 v -1.176 c 0,-0.084 -0.048,-0.132 -0.132,-0.132 z m 5.80801,8.268 c 0,0.3 0.108,0.564 0.276,0.744 v 0.168 c -0.756,0.144 -1.212,0.684 -1.212,1.416 v 0.204 c 0,0.9 0.636,1.488 1.872,1.488 h 2.268 c 1.32,0 2.064,-0.744 2.064,-1.752 V 67 c 0,-1.044 -0.648,-1.776 -1.968,-1.776 h -1.776 c -0.276,0 -0.42,-0.12 -0.42,-0.42 c 0,-0.324 0.084,-0.6 0.252,-0.828 c 0.192,0.024 0.384,0.036 0.6,0.036 c 1.632,0 2.568,-0.72 2.568,-1.824 v -0.252 c 0,-0.528 -0.216,-0.972 -0.768,-1.2 V 60.58 h 1.332 c 0.072,0 0.132,-0.06 0.132,-0.132 v -0.816 h -3.264 c -1.62,0 -2.592,0.816 -2.592,2.088 v 0.288 c 0,0.9 0.504,1.548 1.404,1.836 v 0.132 c -0.504,0.216 -0.768,0.612 -0.768,1.104 z m 1.956,-1.944 c -0.564,0 -0.984,-0.144 -1.236,-0.396 c -0.192,-0.192 -0.288,-0.432 -0.288,-0.732 v -0.264 c 0,-0.756 0.576,-1.164 1.524,-1.164 h 0.876 c 0.48,0.324 0.624,0.66 0.624,1.116 v 0.288 c 0,0.732 -0.54,1.152 -1.5,1.152 z m -0.828,5.1 c -0.72,0 -0.972,-0.336 -0.972,-0.792 v -0.288 c 0,-0.432 0.18,-0.84 0.708,-0.984 c 0.096,0.012 0.18,0.024 0.276,0.024 h 2.064 c 0.72,0 0.972,0.336 0.972,0.864 v 0.276 c 0,0.252 -0.06,0.468 -0.216,0.624 c -0.156,0.156 -0.408,0.276 -0.756,0.276 z m 9.79199,-8.652 c -1.488,0 -2.712,0.876 -2.712,2.736 v 1.248 c 0,1.704 1.032,2.664 3.024,2.664 c 0.948,0 1.836,-0.216 2.136,-0.516 c 0.036,-0.036 0.048,-0.06 0.048,-0.096 v -0.852 h -0.18 c -0.6,0.336 -1.14,0.48 -1.992,0.48 c -0.696,0 -1.212,-0.144 -1.536,-0.468 c -0.264,-0.276 -0.408,-0.684 -0.408,-1.212 v -0.276 h 4.08 c 0.084,0 0.132,-0.048 0.132,-0.132 v -0.876 c 0,-1.836 -1.176,-2.7 -2.592,-2.7 z m 0,0.96 c 0.468,0 0.84,0.108 1.092,0.36 c 0.288,0.288 0.42,0.732 0.42,1.368 v 0.24 h -3.132 v -0.204 c 0,-1.248 0.588,-1.764 1.62,-1.764 z m 7.584,5.556 v -4.38 c 0.66,-0.732 1.344,-1.08 1.944,-1.08 c 0.576,0 0.9,0.312 0.9,0.96 v 4.368 c 0,0.084 0.048,0.132 0.132,0.132 h 0.972 v -4.716 c 0,-1.056 -0.612,-1.8 -1.692,-1.8 c -0.852,0 -1.524,0.48 -2.076,1.2 h -0.18 v -0.936 c 0,-0.084 -0.048,-0.132 -0.132,-0.132 h -0.972 v 6.252 c 0,0.084 0.048,0.132 0.132,0.132 z m 10.44001,-6.516 c -1.644,0 -2.856,1.02 -2.856,2.844 v 1.068 c 0,1.764 1.044,2.736 2.844,2.736 c 0.972,0 1.488,-0.228 1.668,-0.408 c 0.024,-0.024 0.036,-0.06 0.036,-0.096 V 64.84 h -0.18 c -0.372,0.216 -0.828,0.348 -1.524,0.348 c -0.552,0 -0.984,-0.132 -1.272,-0.42 c -0.3,-0.288 -0.456,-0.732 -0.456,-1.32 v -0.984 c 0,-1.224 0.624,-1.836 1.728,-1.836 c 0.684,0 1.152,0.192 1.524,0.384 h 0.18 v -0.876 c 0,-0.06 -0.012,-0.084 -0.048,-0.132 c -0.156,-0.144 -0.732,-0.42 -1.644,-0.42 z m 7.77601,0 c -1.488,0 -2.712,0.876 -2.712,2.736 v 1.248 c 0,1.704 1.032,2.664 3.024,2.664 c 0.948,0 1.836,-0.216 2.136,-0.516 c 0.036,-0.036 0.048,-0.06 0.048,-0.096 v -0.852 h -0.18 c -0.6,0.336 -1.14,0.48 -1.992,0.48 c -0.696,0 -1.212,-0.144 -1.536,-0.468 c -0.264,-0.276 -0.408,-0.684 -0.408,-1.212 v -0.276 h 4.08 c 0.084,0 0.132,-0.048 0.132,-0.132 v -0.876 c 0,-1.836 -1.176,-2.7 -2.592,-2.7 z m 0,0.96 c 0.468,0 0.84,0.108 1.092,0.36 c 0.288,0.288 0.42,0.732 0.42,1.368 v 0.24 h -3.132 v -0.204 c 0,-1.248 0.588,-1.764 1.62,-1.764 z"
       id="text34"
       style="font-size:12px;font-family:'Recursive Sans Linear Static';-inkscape-font-specification:'Recursive Sans Linear Static';letter-spacing:0.15em;fill:#8b5cf6"
       aria-label="On-Board Intelligence" />
  </g>
  <!-- STACKED -->
  <!-- STACKED + TAGLINE -->
  <!-- WORDMARK ONLY -->
  <!-- SIZE VARIATIONS -->
  <!-- BADGE -->
  <!-- FOOTER -->
</svg>
