<?xml version="1.0" encoding="UTF-8"?>
<svg width="110" height="110" viewBox="0 0 110 110" xmlns="http://www.w3.org/2000/svg">
  <rect width="110" height="110" fill="#0c1220"/>
  <circle cx="55" cy="55" r="32" fill="none" stroke="#1E90FF" stroke-width="2" stroke-linecap="square" opacity="0.3"/>
  <circle cx="55" cy="55" r="24" fill="none" stroke="#1E90FF" stroke-width="2" stroke-linecap="square" opacity="0.5"/>
  <circle cx="55" cy="55" r="16" fill="none" stroke="#1E90FF" stroke-width="2" stroke-linecap="square" opacity="0.7"/>
  <path d="M55 55 L55 23 A32 32 0 0 1 83 39 Z" fill="none" stroke="#F97316" stroke-width="3" stroke-linecap="square" stroke-linejoin="round"/>
  <circle cx="55" cy="55" r="6" fill="none" stroke="#F97316" stroke-width="2.5"/>
  <circle cx="68" cy="38" r="3" fill="#F97316" opacity="0.8"/>
  <circle cx="40" cy="66" r="2.5" fill="#1E90FF" opacity="0.5"/>
  <circle cx="74" cy="60" r="2" fill="#1E90FF" opacity="0.5"/>
  <g stroke="#5a6f8a" stroke-width="1.5" fill="none" opacity="0.3">
    <polyline points="8,20 8,8 20,8"/>
    <polyline points="90,8 102,8 102,20"/>
    <polyline points="102,90 102,102 90,102"/>
    <polyline points="20,102 8,102 8,90"/>
  </g>
</svg>